<svg width="20" height="20" viewBox="0 0 20 20" fill="none" xmlns="http://www.w3.org/2000/svg">
<path d="M6.25065 10.2802C6.98108 9.69583 8.01899 9.69583 8.74943 10.2802L10.0013 11.2816C11.4621 12.4503 13.5379 12.4503 14.9988 11.2816L15.6247 10.7809C16.056 10.4359 16.1259 9.80661 15.7809 9.37535C15.4359 8.94409 14.8066 8.87417 14.3753 9.21918L13.7494 9.71991C13.019 10.3043 11.9811 10.3043 11.2506 9.71991L9.99882 8.71844C8.53794 7.54974 6.46213 7.54974 5.00126 8.71844L4.37534 9.21918C3.94408 9.56419 3.87416 10.1935 4.21917 10.6247C4.56418 11.056 5.19347 11.1259 5.62473 10.7809L6.25065 10.2802Z" fill="white"/>
<path fill-rule="evenodd" clip-rule="evenodd" d="M10 20C15.5228 20 20 15.5228 20 10C20 4.47715 15.5228 0 10 0C4.47715 0 0 4.47715 0 10C0 15.5228 4.47715 20 10 20ZM10 18C14.4183 18 18 14.4183 18 10C18 5.58172 14.4183 2 10 2C5.58172 2 2 5.58172 2 10C2 14.4183 5.58172 18 10 18Z" fill="white"/>
</svg>
