<svg width="20" height="16" viewBox="0 0 20 16" fill="none" xmlns="http://www.w3.org/2000/svg">
<path d="M9.8 4.6C10.1314 4.15817 10.0418 3.53137 9.6 3.2C9.15817 2.86863 8.53137 2.95817 8.2 3.4L4 9H8L6.2 11.4C5.86863 11.8418 5.95817 12.4686 6.4 12.8C6.84183 13.1314 7.46863 13.0418 7.8 12.6L12 7H8L9.8 4.6Z" fill="white"/>
<path fill-rule="evenodd" clip-rule="evenodd" d="M0 6C0 2.68629 2.68629 0 6 0H15C15.5523 0 16 0.447715 16 1V7H18V3C18 2.44771 18.4477 2 19 2C19.5523 2 20 2.44772 20 3V13C20 13.5523 19.5523 14 19 14C18.4477 14 18 13.5523 18 13V9H16V15C16 15.5523 15.5523 16 15 16H6C2.68629 16 0 13.3137 0 10V6ZM6 2H14V14H6C3.79086 14 2 12.2091 2 10V6C2 3.79086 3.79086 2 6 2Z" fill="white"/>
</svg>

