<svg width="12" height="20" viewBox="0 0 12 20" fill="none" xmlns="http://www.w3.org/2000/svg">
<path d="M6 13.0858L8.20711 15.2929C8.59763 15.6834 8.59763 16.3166 8.20711 16.7071C7.81658 17.0976 7.18342 17.0976 6.79289 16.7071L6 15.9142L5.20711 16.7071C4.81658 17.0976 4.18342 17.0976 3.79289 16.7071C3.40237 16.3166 3.40237 15.6834 3.79289 15.2929L6 13.0858Z" fill="white"/>
<path d="M8.20711 11.2929L6 9.08578L3.79289 11.2929C3.40237 11.6834 3.40237 12.3166 3.79289 12.7071C4.18342 13.0976 4.81658 13.0976 5.20711 12.7071L6 11.9142L6.79289 12.7071C7.18342 13.0976 7.81658 13.0976 8.20711 12.7071C8.59763 12.3166 8.59763 11.6834 8.20711 11.2929Z" fill="white"/>
<path d="M6 5.08578L8.20711 7.29289C8.59763 7.68342 8.59763 8.31658 8.20711 8.70711C7.81658 9.09763 7.18342 9.09763 6.79289 8.70711L6 7.91421L5.20711 8.70711C4.81658 9.09763 4.18342 9.09763 3.79289 8.70711C3.40237 8.31658 3.40237 7.68342 3.79289 7.29289L6 5.08578Z" fill="white"/>
<path fill-rule="evenodd" clip-rule="evenodd" d="M4 1C4 0.447715 4.44772 0 5 0H7C7.55228 0 8 0.447715 8 1V2H11C11.5523 2 12 2.44772 12 3V19C12 19.5523 11.5523 20 11 20H1C0.447715 20 0 19.5523 0 19V3C0 2.44772 0.447715 2 1 2H4V1ZM2 18V4H10V18H2Z" fill="white"/>
</svg>

