<svg width="12" height="20" viewBox="0 0 12 20" fill="none" xmlns="http://www.w3.org/2000/svg">
<path d="M4 1C4 0.447715 4.44772 0 5 0H7C7.55228 0 8 0.447715 8 1V2H11C11.5523 2 12 2.44772 12 3V8.00005H10V7.03504C10.0002 7.01325 10.0002 6.99146 10 6.96968V4H7.02942C7.01134 3.99984 6.99326 3.99984 6.97519 4H2V8.66672L0 11.3334V3C0 2.44772 0.447715 2 1 2H4V1Z" fill="white"/>
<path d="M0 14.0001V19C0 19.5523 0.447715 20 1 20H11C11.5523 20 12 19.5523 12 19V10.6667L10 13.3334V18H5.0349C5.01011 18.0003 4.9853 18.0003 4.96049 18H2V15.0303C1.99976 15.0086 1.99976 14.9869 2 14.9651V14.0001H0Z" fill="white"/>
<path d="M7.8 7.60006C8.13137 7.15823 8.04183 6.53143 7.6 6.20006C7.15817 5.86869 6.53137 5.95823 6.2 6.40006L2 12.0001H6L4.2 14.4001C3.86863 14.8419 3.95817 15.4687 4.4 15.8001C4.84183 16.1314 5.46863 16.0419 5.8 15.6001L10 10.0001H6L7.8 7.60006Z" fill="white"/>
</svg>

