<svg width="18" height="18" viewBox="0 0 18 18" fill="none" xmlns="http://www.w3.org/2000/svg">
<path d="M12.375 4.5L9.5445 9.99225L11.4244 10.7325L5.625 15.75L8.70075 11.3985L6.82088 10.6582L12.375 4.5ZM14.625 3.375V16.875C14.625 17.4937 14.1187 18 13.5 18H4.5C3.88125 18 3.375 17.4937 3.375 16.875V3.375C3.375 2.75625 3.88125 2.25 4.5 2.25H6.75V1.125C6.75 0.50625 7.25625 0 7.875 0H10.125C10.7438 0 11.25 0.50625 11.25 1.125V2.25H13.5C14.1187 2.25 14.625 2.75625 14.625 3.375ZM7.875 2.25H10.125V1.125H7.875V2.25ZM13.5 3.375H10.125H7.875H4.5V16.875H13.5V3.375Z" fill="white"/>
</svg>
