<svg width="14" height="20" viewBox="0 0 14 20" fill="none" xmlns="http://www.w3.org/2000/svg">
<path d="M9 14C10.1046 14 11 13.1046 11 12C11 10.8954 10.1046 10 9 10C7.89543 10 7 10.8954 7 12C7 13.1046 7.89543 14 9 14Z" fill="white"/>
<path d="M6 11C6 11.5523 5.55228 12 5 12C4.44772 12 4 11.5523 4 11C4 10.4477 4.44772 10 5 10C5.55228 10 6 10.4477 6 11Z" fill="white"/>
<path d="M5.5 16C6.32843 16 7 15.3284 7 14.5C7 13.6716 6.32843 13 5.5 13C4.67157 13 4 13.6716 4 14.5C4 15.3284 4.67157 16 5.5 16Z" fill="white"/>
<path fill-rule="evenodd" clip-rule="evenodd" d="M6.26111 0.864898C6.64606 0.400503 7.35394 0.400503 7.73889 0.864898C8.38326 1.64225 9.24233 2.74107 10.2308 4.18983C12.1468 6.99823 14 10.565 14 13.2242C14 16.9738 10.8774 20 7 20C3.12256 20 0 16.9738 0 13.2242C0 10.565 1.85317 6.99823 3.76923 4.18983C4.75767 2.74107 5.61674 1.64225 6.26111 0.864898ZM5.42134 5.31701C6.00192 4.46605 6.53445 3.74309 7 3.14162C7.46555 3.74309 7.99808 4.46605 8.57866 5.31701C9.48967 6.65228 10.3661 8.14042 11.0075 9.5779C11.6642 11.0499 12 12.3051 12 13.2242C12 15.8091 9.83404 18 7 18C4.16596 18 2 15.8091 2 13.2242C2 12.3051 2.33577 11.0499 2.99254 9.5779C3.63391 8.14042 4.51033 6.65228 5.42134 5.31701Z" fill="white"/>
</svg>

