<svg width="18" height="18" viewBox="0 0 18 18" fill="none" xmlns="http://www.w3.org/2000/svg">
<path fill-rule="evenodd" clip-rule="evenodd" d="M9.89073 2.32822C10.2494 2.83482 10.6494 3.42619 11.0803 4.10621C11.8591 5.33556 12.6168 6.71836 13.1766 8.06963C13.7429 9.43646 14.075 10.696 14.075 11.702C14.075 14.5643 11.8741 16.8002 9.225 16.8002C6.57595 16.8002 4.375 14.5643 4.375 11.702C4.375 10.696 4.70707 9.43646 5.27337 8.06963C5.83321 6.71836 6.59092 5.33556 7.36974 4.10621C7.80056 3.42619 8.20062 2.83482 8.55927 2.32822C8.89202 1.8582 9.55798 1.8582 9.89073 2.32822ZM7.7431 1.75041C8.47436 0.717473 9.97564 0.717473 10.7069 1.75041C11.075 2.27037 11.4846 2.87595 11.925 3.57104C13.5263 6.0986 15.075 9.30872 15.075 11.702C15.075 15.0766 12.4654 17.8002 9.225 17.8002C5.98457 17.8002 3.375 15.0766 3.375 11.702C3.375 9.30872 4.92372 6.0986 6.525 3.57104C6.96536 2.87595 7.37499 2.27037 7.7431 1.75041ZM9.225 5.61819C8.5544 6.69975 7.92766 7.86804 7.46751 8.9787C6.9512 10.2249 6.75 11.1489 6.75 11.702C6.75 13.3474 7.98047 14.4252 9.225 14.4252C10.4695 14.4252 11.7 13.3474 11.7 11.702C11.7 11.1489 11.4988 10.2249 10.9825 8.9787C10.5223 7.86804 9.8956 6.69975 9.225 5.61819Z" fill="white"/>
</svg>
