<svg width="32" height="32" viewBox="0 0 32 32" fill="none" xmlns="http://www.w3.org/2000/svg">
<path d="M22.6668 6.02236C20.6935 4.70379 18.3734 4 16 4C15.4477 4 15 3.55228 15 3C15 2.44772 15.4477 2 16 2C18.7689 2 21.4757 2.82109 23.778 4.35943C26.0803 5.89777 27.8747 8.08427 28.9343 10.6424C29.9939 13.2006 30.2712 16.0155 29.731 18.7313C29.1908 21.447 27.8574 23.9416 25.8995 25.8995C23.9416 27.8574 21.447 29.1908 18.7313 29.731C16.0155 30.2712 13.2006 29.9939 10.6424 28.9343C8.08427 27.8747 5.89777 26.0803 4.35942 23.778C2.82108 21.4757 2 18.7689 2 16C2 15.4477 2.44772 15 3 15C3.55228 15 4 15.4477 4 16C4 18.3734 4.70379 20.6935 6.02237 22.6668C7.34094 24.6402 9.21509 26.1783 11.4078 27.0866C13.6005 27.9948 16.0133 28.2324 18.3411 27.7694C20.6689 27.3064 22.8071 26.1635 24.4853 24.4853C26.1635 22.8071 27.3064 20.6689 27.7694 18.3411C28.2324 16.0133 27.9948 13.6005 27.0866 11.4078C26.1783 9.21509 24.6402 7.34094 22.6668 6.02236Z" fill="white"/>
<path d="M20.4444 9.34804C19.1288 8.46896 17.582 7.99976 15.9997 7.99976C15.4474 7.99976 14.9997 7.55204 14.9997 6.99976C14.9997 6.44747 15.4474 5.99976 15.9997 5.99976C17.9776 5.99976 19.911 6.58626 21.5556 7.68511C23.2001 8.78395 24.4819 10.3458 25.2388 12.1731C25.9957 14.0004 26.1937 16.0111 25.8078 17.951C25.422 19.8908 24.4696 21.6727 23.071 23.0713C21.6724 24.4699 19.8905 25.4223 17.9507 25.8081C16.0108 26.194 14.0001 25.996 12.1728 25.2391C10.3455 24.4822 8.78365 23.2004 7.68481 21.5559C6.58596 19.9113 5.99946 17.9779 5.99946 16C5.99946 15.4477 6.44717 15 6.99946 15C7.55174 15 7.99946 15.4477 7.99946 16C7.99946 17.5823 8.46866 19.1291 9.34775 20.4447C10.2268 21.7604 11.4763 22.7858 12.9382 23.3913C14.4 23.9968 16.0086 24.1553 17.5605 23.8466C19.1124 23.5379 20.5379 22.7759 21.6568 21.6571C22.7756 20.5382 23.5376 19.1127 23.8463 17.5608C24.155 16.0089 23.9965 14.4003 23.391 12.9385C22.7855 11.4766 21.7601 10.2271 20.4444 9.34804Z" fill="white"/>
<path d="M16.0004 11.9999C16.7916 11.9999 17.5649 12.2345 18.2227 12.674C18.8806 13.1135 19.3932 13.7383 19.696 14.4692C19.9988 15.2001 20.078 16.0044 19.9236 16.7803C19.7693 17.5563 19.3883 18.269 18.8289 18.8284C18.2695 19.3878 17.5567 19.7688 16.7808 19.9231C16.0049 20.0775 15.2006 19.9983 14.4697 19.6955C13.7388 19.3928 13.114 18.8801 12.6745 18.2223C12.235 17.5645 12.0004 16.7911 12.0004 15.9999C12.0004 15.4477 11.5526 14.9999 11.0004 14.9999C10.4481 14.9999 10.0004 15.4477 10.0004 15.9999C10.0004 17.1866 10.3523 18.3467 11.0116 19.3334C11.6709 20.3201 12.6079 21.0891 13.7043 21.5433C14.8007 21.9974 16.0071 22.1162 17.171 21.8847C18.3349 21.6532 19.404 21.0818 20.2431 20.2426C21.0822 19.4035 21.6537 18.3344 21.8852 17.1705C22.1167 16.0066 21.9979 14.8002 21.5438 13.7038C21.0896 12.6074 20.3206 11.6704 19.3339 11.0111C18.3472 10.3518 17.1871 9.99988 16.0004 9.99988C15.4481 9.99988 15.0004 10.4476 15.0004 10.9999C15.0004 11.5522 15.4481 11.9999 16.0004 11.9999Z" fill="white"/>
<path d="M11 4C11.5523 4 12 3.55228 12 3C12 2.44772 11.5523 2 11 2C10.4477 2 10 2.44772 10 3C10 3.55228 10.4477 4 11 4Z" fill="white"/>
<path d="M12 7C12 7.55228 11.5523 8 11 8C10.4477 8 10 7.55228 10 7C10 6.44772 10.4477 6 11 6C11.5523 6 12 6.44772 12 7Z" fill="white"/>
<path d="M11 12C11.5523 12 12 11.5523 12 11C12 10.4477 11.5523 10 11 10C10.4477 10 10 10.4477 10 11C10 11.5523 10.4477 12 11 12Z" fill="white"/>
</svg>

