<svg width="32" height="32" viewBox="0 0 32 32" fill="none" xmlns="http://www.w3.org/2000/svg">
<path d="M1 16C1 18.9667 1.87973 21.8668 3.52796 24.3336C5.17618 26.8003 7.51886 28.7229 10.2597 29.8582C13.0006 30.9935 16.0166 31.2906 18.9264 30.7118C21.8361 30.133 24.5088 28.7044 26.6066 26.6066C28.7044 24.5088 30.133 21.8361 30.7118 18.9264C31.2906 16.0166 30.9935 13.0006 29.8582 10.2597C28.7229 7.51886 26.8003 5.17618 24.3336 3.52796C21.8668 1.87973 18.9667 1 16 1" stroke="white" stroke-width="2" stroke-linecap="round"/>
<path d="M1 16C1 18.9667 1.87973 21.8668 3.52796 24.3336C5.17618 26.8003 7.51886 28.7229 10.2597 29.8582C13.0006 30.9935 16.0166 31.2906 18.9264 30.7118C21.8361 30.133 24.5088 28.7044 26.6066 26.6066C28.7044 24.5088 30.133 21.8361 30.7118 18.9264C31.2906 16.0166 30.9935 13.0006 29.8582 10.2597C28.7229 7.51886 26.8003 5.17618 24.3336 3.52796C21.8668 1.87973 18.9667 1 16 1" stroke="white" stroke-width="2" stroke-linecap="round"/>
<path d="M5.70553 16C5.70553 18.036 6.30927 20.0262 7.4404 21.7191C8.57153 23.412 10.1793 24.7314 12.0603 25.5105C13.9413 26.2897 16.0111 26.4935 18.0079 26.0963C20.0048 25.6991 21.839 24.7187 23.2787 23.279C24.7183 21.8394 25.6988 20.0051 26.096 18.0083C26.4932 16.0114 26.2893 13.9416 25.5102 12.0606C24.731 10.1796 23.4116 8.57189 21.7187 7.44075C20.0259 6.30962 18.0356 5.70588 15.9996 5.70588" stroke="white" stroke-width="2" stroke-linecap="round"/>
<path d="M5.70553 16C5.70553 18.036 6.30927 20.0262 7.4404 21.7191C8.57153 23.412 10.1793 24.7314 12.0603 25.5105C13.9413 26.2897 16.0111 26.4935 18.0079 26.0963C20.0048 25.6991 21.839 24.7187 23.2787 23.279C24.7183 21.8394 25.6988 20.0051 26.096 18.0083C26.4932 16.0114 26.2893 13.9416 25.5102 12.0606C24.731 10.1796 23.4116 8.57189 21.7187 7.44075C20.0259 6.30962 18.0356 5.70588 15.9996 5.70588" stroke="white" stroke-width="2" stroke-linecap="round"/>
<path d="M10.412 16C10.412 17.1052 10.7398 18.1857 11.3538 19.1047C11.9679 20.0236 12.8406 20.7399 13.8617 21.1629C14.8829 21.5858 16.0065 21.6965 17.0905 21.4809C18.1745 21.2652 19.1702 20.733 19.9517 19.9515C20.7333 19.17 21.2655 18.1742 21.4811 17.0902C21.6967 16.0062 21.5861 14.8826 21.1631 13.8615C20.7402 12.8404 20.0239 11.9676 19.1049 11.3536C18.1859 10.7395 17.1055 10.4118 16.0003 10.4118" stroke="white" stroke-width="2" stroke-linecap="round"/>
<path d="M10.412 16C10.412 17.1052 10.7398 18.1857 11.3538 19.1047C11.9679 20.0236 12.8406 20.7399 13.8617 21.1629C14.8829 21.5858 16.0065 21.6965 17.0905 21.4809C18.1745 21.2652 19.1702 20.733 19.9517 19.9515C20.7333 19.17 21.2655 18.1742 21.4811 17.0902C21.6967 16.0062 21.5861 14.8826 21.1631 13.8615C20.7402 12.8404 20.0239 11.9676 19.1049 11.3536C18.1859 10.7395 17.1055 10.4118 16.0003 10.4118" stroke="white" stroke-width="2" stroke-linecap="round"/>
</svg>
