<svg width="30" height="18" viewBox="0 0 30 18" fill="none" xmlns="http://www.w3.org/2000/svg">
<path d="M24.1096 6.81211C23.1885 2.92177 19.4561 0 15.0005 0C10.5439 0 6.8115 2.92177 5.89037 6.81211C2.63165 6.87681 0 9.35719 0 12.4028C0 15.4893 2.70023 18 6.01865 18H23.9823C27.3013 18 30 15.4889 30 12.4028C30 9.35719 27.3693 6.87635 24.1096 6.81211ZM23.9823 16.1647H6.01865C3.78811 16.1647 1.97349 14.4772 1.97349 12.4028C1.97349 10.4391 3.60112 8.82404 5.66786 8.65841C5.66786 8.66575 5.66688 8.67263 5.66688 8.67997V9.10025V9.82519V10.0179C5.66688 10.5244 6.10894 10.9355 6.65362 10.9355C7.1988 10.9355 7.64036 10.5244 7.64036 10.0179V9.85639V9.10025V8.67997C7.64036 4.90571 10.9415 1.83574 15.0005 1.83574C19.0585 1.83574 22.3596 4.90571 22.3596 8.67997V9.0663C22.3606 9.0663 22.3616 9.0663 22.3636 9.0663C22.3626 9.07777 22.3596 9.08878 22.3596 9.10025V10.0179C22.3596 10.5244 22.8012 10.9355 23.3464 10.9355C23.8911 10.9355 24.3331 10.5244 24.3331 10.0179V9.38885V9.10025V8.67997C24.3331 8.67263 24.3321 8.66575 24.3321 8.65841C26.3984 8.82404 28.0265 10.4391 28.0265 12.4028C28.0265 14.4776 26.2124 16.1647 23.9823 16.1647Z" fill="white"/>
</svg>
