<svg width="16" height="16" viewBox="0 0 16 16" fill="none" xmlns="http://www.w3.org/2000/svg">
<path d="M13 0H3C1.35 0 0 1.35 0 3V13C0 14.65 1.35 16 3 16H13C14.65 16 16 14.65 16 13V3C16 1.35 14.65 0 13 0ZM15 13C15 14.103 14.103 15 13 15H3C1.897 15 1 14.103 1 13V3C1 1.897 1.897 1 3 1H13C14.103 1 15 1.897 15 3V13ZM7 8C7 8.552 6.552 9 6 9C5.448 9 5 8.552 5 8C5 7.448 5.448 7 6 7C6.552 7 7 7.448 7 8ZM11 8C11 8.552 10.552 9 10 9C9.448 9 9 8.552 9 8C9 7.448 9.448 7 10 7C10.552 7 11 7.448 11 8ZM8 2C4.686 2 2 4.687 2 8C2 11.314 4.686 14 8 14C11.314 14 14 11.314 14 8C14 4.687 11.314 2 8 2ZM8.5 12.975V12.5C8.5 12.224 8.276 12 8 12C7.724 12 7.5 12.224 7.5 12.5V12.975C4.977 12.723 3 10.589 3 8C3 5.412 4.977 3.277 7.5 3.025V3.5C7.5 3.777 7.724 4 8 4C8.276 4 8.5 3.776 8.5 3.5V3.026C11.023 3.277 13 5.412 13 8C13 10.589 11.023 12.723 8.5 12.975Z" fill="white"/>
</svg>
