<svg width="28" height="28" viewBox="0 0 28 28" fill="none" xmlns="http://www.w3.org/2000/svg">
<path d="M6 4C4.89543 4 4 4.89543 4 6C4 7.10457 4.89543 8 6 8H8C9.10457 8 10 7.10457 10 6C10 4.89543 9.10457 4 8 4H6Z" fill="#387DC5"/>
<path fill-rule="evenodd" clip-rule="evenodd" d="M0 6C0 2.68629 2.68629 0 6 0H22C25.3137 0 28 2.68629 28 6C28 9.31371 25.3137 12 22 12H6C2.68629 12 0 9.31371 0 6ZM6 2H22C24.2091 2 26 3.79086 26 6C26 8.20914 24.2091 10 22 10H6C3.79086 10 2 8.20914 2 6C2 3.79086 3.79086 2 6 2Z" fill="#387DC5"/>
<path d="M20 20C18.8954 20 18 20.8954 18 22C18 23.1046 18.8954 24 20 24H22C23.1046 24 24 23.1046 24 22C24 20.8954 23.1046 20 22 20H20Z" fill="#387DC5"/>
<path fill-rule="evenodd" clip-rule="evenodd" d="M6 16C2.68629 16 0 18.6863 0 22C0 25.3137 2.68629 28 6 28H22C25.3137 28 28 25.3137 28 22C28 18.6863 25.3137 16 22 16H6ZM22 18H6C3.79086 18 2 19.7909 2 22C2 24.2091 3.79086 26 6 26H22C24.2091 26 26 24.2091 26 22C26 19.7909 24.2091 18 22 18Z" fill="#387DC5"/>
</svg>

