<svg width="224" height="158" viewBox="0 0 224 158" fill="none" xmlns="http://www.w3.org/2000/svg">
  <path d="M59.999 18.2178L8.76172 31.9473C6.69465 32.5012 5.44136 34.5774 5.88477 36.6465L5.93359 36.8467L35.9561 148.894C36.5278 151.027 38.7216 152.294 40.8555 151.723L77.1396 142H92.5947L41.8906 155.586L41.4902 155.683C37.4856 156.541 33.4691 154.221 32.21 150.324L32.0928 149.929L2.06934 37.8818C0.925807 33.6141 3.45887 29.2275 7.72656 28.084L59.999 14.0762V18.2178ZM59.999 90.2988L35.8379 96.7734C34.771 97.0593 33.6746 96.4262 33.3887 95.3594C33.1029 94.2925 33.7358 93.196 34.8027 92.9102L59.999 86.1582V90.2988ZM59.999 68.5576L30.4023 76.4883C29.3355 76.7741 28.2391 76.141 27.9531 75.0742C27.6674 74.0074 28.3004 72.9109 29.3672 72.625L59.999 64.417V68.5576ZM59.999 46.8164L24.9658 56.2041C23.8991 56.4897 22.8025 55.8567 22.5166 54.79C22.231 53.7233 22.8639 52.6257 23.9307 52.3398L59.999 42.6748V46.8164Z" fill="#72A2D3"/>
  <path d="M215.304 28.083C219.571 29.2266 222.103 33.6135 220.96 37.8809L190.938 149.929C190.42 151.86 189.236 153.435 187.701 154.476C187.398 154.681 187.08 154.866 186.751 155.028C185.07 155.859 183.093 156.109 181.14 155.586L130.438 142H145.893L182.175 151.722C184.309 152.293 186.501 151.027 187.073 148.894L217.097 36.8457C217.668 34.7122 216.402 32.5192 214.269 31.9473L164.001 18.4775V14.3369L215.304 28.083ZM178.669 91.3955C179.67 87.6616 183.508 85.4458 187.242 86.4463C190.976 87.4472 193.191 91.2849 192.191 95.0186C191.191 98.7524 187.352 100.969 183.618 99.9688C179.884 98.9681 177.669 95.1295 178.669 91.3955ZM186.725 88.3779C184.057 87.6633 181.316 89.2461 180.601 91.9131C179.886 94.5802 181.469 97.3223 184.136 98.0371C186.803 98.7515 189.545 97.1679 190.26 94.501C190.974 91.8342 189.391 89.0929 186.725 88.3779ZM184.622 69.1787C185.623 65.4447 189.461 63.228 193.195 64.2285C196.929 65.2293 199.145 69.0678 198.145 72.8018C197.144 76.5359 193.305 78.7523 189.571 77.752C185.837 76.7513 183.622 72.9128 184.622 69.1787ZM192.678 66.1602C190.011 65.4455 187.269 67.0293 186.554 69.6963C185.839 72.3634 187.422 75.1045 190.089 75.8193C192.756 76.5338 195.498 74.9514 196.213 72.2842C196.927 69.6172 195.345 66.8751 192.678 66.1602ZM188.485 70.2148C188.915 68.6151 190.559 67.6643 192.159 68.0928C193.759 68.5216 194.709 70.1675 194.281 71.7676C193.852 73.3679 192.207 74.3173 190.606 73.8887C189.006 73.4598 188.057 71.8151 188.485 70.2148ZM190.574 46.9619C191.575 43.2282 195.414 41.0124 199.147 42.0127C202.881 43.0132 205.098 46.8519 204.098 50.5859C203.097 54.32 199.259 56.5357 195.524 55.5352C191.79 54.5345 189.574 50.6962 190.574 46.9619ZM198.63 43.9443C195.963 43.2299 193.222 44.8129 192.507 47.4795C191.792 50.1468 193.375 52.8888 196.042 53.6035C198.709 54.3182 201.451 52.7347 202.166 50.0674C202.88 47.4005 201.297 44.6589 198.63 43.9443Z" fill="#72A2D3"/>
  <path d="M154 0C158.418 0 162 3.58172 162 8V132C162 136.418 158.418 140 154 140H70L69.5879 139.989C65.4976 139.782 62.2183 136.502 62.0107 132.412L62 132V8C62 3.71994 65.3611 0.22523 69.5879 0.0107422L70 0H154ZM70 4C67.7909 4 66 5.79086 66 8V132C66 134.209 67.7909 136 70 136H154C156.209 136 158 134.209 158 132V8C158 5.85996 156.319 4.11211 154.206 4.00488L154 4H70ZM148 106C149.105 106 150 106.895 150 108V126C150 127.105 149.105 128 148 128H77C75.8954 128 75 127.105 75 126V108C75 106.895 75.8954 106 77 106H148Z" fill="#72A2D3"/>
  <path d="M143.36 49.0088C147.059 49.1963 150 52.2549 150 56C150 59.7451 147.059 62.8037 143.36 62.9912L143 63H131C127.134 63 124 59.866 124 56C124 52.134 127.134 49 131 49H143L143.36 49.0088ZM131 51C128.239 51 126 53.2386 126 56C126 58.7614 128.239 61 131 61H143C145.761 61 148 58.7614 148 56C148 53.2386 145.761 51 143 51H131ZM131 53C132.657 53 134 54.3431 134 56C134 57.6569 132.657 59 131 59C129.343 59 128 57.6569 128 56C128 54.3431 129.343 53 131 53ZM143 28C146.866 28 150 31.134 150 35C150 38.866 146.866 42 143 42H131C127.134 42 124 38.866 124 35C124 31.134 127.134 28 131 28H143ZM144 32C142.343 32 141 33.3431 141 35C141 36.6569 142.343 38 144 38C145.657 38 147 36.6569 147 35C147 33.3431 145.657 32 144 32Z" fill="#72A2D3"/>
</svg>
