<svg width="28" height="28" viewBox="0 0 28 28" fill="none" xmlns="http://www.w3.org/2000/svg">
<path d="M20 4C18.8954 4 18 4.89543 18 6C18 7.10457 18.8954 8 20 8H22C23.1046 8 24 7.10457 24 6C24 4.89543 23.1046 4 22 4H20Z" fill="#387DC5"/>
<path fill-rule="evenodd" clip-rule="evenodd" d="M0 6C0 2.68629 2.68629 0 6 0H22C25.3137 0 28 2.68629 28 6C28 9.31371 25.3137 12 22 12H6C2.68629 12 0 9.31371 0 6ZM6 2H22C24.2091 2 26 3.79086 26 6C26 8.20914 24.2091 10 22 10H6C3.79086 10 2 8.20914 2 6C2 3.79086 3.79086 2 6 2Z" fill="#387DC5"/>
<path d="M6 20C4.89543 20 4 20.8954 4 22C4 23.1046 4.89543 24 6 24H8C9.10457 24 10 23.1046 10 22C10 20.8954 9.10457 20 8 20H6Z" fill="#387DC5"/>
<path fill-rule="evenodd" clip-rule="evenodd" d="M6 16C2.68629 16 0 18.6863 0 22C0 25.3137 2.68629 28 6 28H22C25.3137 28 28 25.3137 28 22C28 18.6863 25.3137 16 22 16H6ZM22 18H6C3.79086 18 2 19.7909 2 22C2 24.2091 3.79086 26 6 26H22C24.2091 26 26 24.2091 26 22C26 19.7909 24.2091 18 22 18Z" fill="#387DC5"/>
</svg>

