<svg width="20" height="20" viewBox="0 0 20 20" fill="none" xmlns="http://www.w3.org/2000/svg">
<path d="M4 8C4 7.44771 4.44772 7 5 7H15C15.5523 7 16 7.44771 16 8C16 8.55229 15.5523 9 15 9H5C4.44772 9 4 8.55229 4 8Z" fill="white"/>
<path d="M5 11C4.44772 11 4 11.4477 4 12C4 12.5523 4.44772 13 5 13H6C6.55228 13 7 12.5523 7 12C7 11.4477 6.55228 11 6 11H5Z" fill="white"/>
<path d="M8 12C8 11.4477 8.44772 11 9 11H11C11.5523 11 12 11.4477 12 12C12 12.5523 11.5523 13 11 13H9C8.44772 13 8 12.5523 8 12Z" fill="white"/>
<path d="M14 11C13.4477 11 13 11.4477 13 12C13 12.5523 13.4477 13 14 13H15C15.5523 13 16 12.5523 16 12C16 11.4477 15.5523 11 15 11H14Z" fill="white"/>
<path fill-rule="evenodd" clip-rule="evenodd" d="M10 20C15.5228 20 20 15.5228 20 10C20 4.47715 15.5228 0 10 0C4.47715 0 0 4.47715 0 10C0 15.5228 4.47715 20 10 20ZM10 18C14.4183 18 18 14.4183 18 10C18 5.58172 14.4183 2 10 2C5.58172 2 2 5.58172 2 10C2 14.4183 5.58172 18 10 18Z" fill="white"/>
</svg>
