<svg width="24" height="24" viewBox="0 0 24 24" fill="none" xmlns="http://www.w3.org/2000/svg">
<path fill-rule="evenodd" clip-rule="evenodd" d="M22 12C22 17.5228 17.5228 22 12 22C6.47715 22 2 17.5228 2 12C2 6.47715 6.47715 2 12 2C17.5228 2 22 6.47715 22 12ZM16.9058 18.3198C15.5511 19.3729 13.8488 20 12 20C7.58172 20 4 16.4183 4 12C4 10.1512 4.62712 8.44894 5.68024 7.09423L16.9058 18.3198ZM18.32 16.9055L7.09448 5.68005C8.44914 4.62704 10.1513 4 12 4C16.4183 4 20 7.58172 20 12C20 13.8487 19.373 15.5509 18.32 16.9055Z" fill="white"/>
</svg>
