<svg width="20" height="28" viewBox="0 0 20 28" fill="none" xmlns="http://www.w3.org/2000/svg">
<path d="M6 19C6 18.4477 5.55228 18 5 18C4.44772 18 4 18.4477 4 19C4 19.6566 4.15518 20.3067 4.45672 20.9134C4.75823 21.52 5.20018 22.0712 5.75736 22.5355C6.3145 22.9998 6.97593 23.3681 7.7039 23.6194C8.43185 23.8707 9.21206 24 10 24C10.5523 24 11 23.5523 11 23C11 22.4477 10.5523 22 10 22C9.42895 22 8.86961 21.906 8.35647 21.7288C7.84323 21.5517 7.39753 21.2989 7.03773 20.9991C6.67852 20.6997 6.41715 20.3641 6.24768 20.0232C6.07915 19.6841 6 19.3378 6 19Z" fill="white"/>
<path fill-rule="evenodd" clip-rule="evenodd" d="M9.26412 0.836431C9.65264 0.385577 10.3474 0.385578 10.7359 0.836431C11.6826 1.93499 13.0329 3.59272 14.6154 5.86577C17.3526 9.79753 20 14.7911 20 18.5139C20 23.7634 15.5392 28 10 28C4.4608 28 0 23.7634 0 18.5139C0 14.7911 2.64738 9.79753 5.38461 5.86577C6.96709 3.59272 8.31744 1.93499 9.26412 0.836431ZM7.02601 7.0085C8.16716 5.36936 9.18129 4.06348 10 3.06782C10.8187 4.06348 11.8328 5.36936 12.974 7.0085C14.2947 8.90553 15.5732 11.0306 16.5139 13.0969C17.4708 15.1987 18 17.0713 18 18.5139C18 22.5614 14.5347 26 10 26C5.46534 26 2 22.5614 2 18.5139C2 17.0713 2.52917 15.1987 3.48607 13.0969C4.42682 11.0306 5.70532 8.90553 7.02601 7.0085Z" fill="white"/>
</svg>

