<svg width="14" height="20" viewBox="0 0 14 20" fill="none" xmlns="http://www.w3.org/2000/svg">
<path d="M6.07612 13.3827C6.02587 13.2613 6 13.1313 6 13H4C4 13.3939 4.0776 13.7841 4.22836 14.148C4.37913 14.512 4.6001 14.8427 4.87868 15.1213C5.15726 15.3999 5.48797 15.6209 5.85195 15.7716C6.21593 15.9224 6.60603 16 7 16V14C6.86868 14 6.73864 13.9741 6.61732 13.9239C6.49599 13.8736 6.38575 13.7999 6.29289 13.7071C6.20003 13.6142 6.12638 13.504 6.07612 13.3827Z" fill="white"/>
<path fill-rule="evenodd" clip-rule="evenodd" d="M6.26111 0.864898C6.64606 0.400503 7.35394 0.400503 7.73889 0.864898C8.38326 1.64225 9.24233 2.74107 10.2308 4.18983C12.1468 6.99823 14 10.565 14 13.2242C14 16.9738 10.8774 20 7 20C3.12256 20 0 16.9738 0 13.2242C0 10.565 1.85317 6.99823 3.76923 4.18983C4.75767 2.74107 5.61674 1.64225 6.26111 0.864898ZM5.42134 5.31701C6.00192 4.46605 6.53445 3.74309 7 3.14162C7.46555 3.74309 7.99808 4.46605 8.57866 5.31701C9.48967 6.65228 10.3661 8.14042 11.0075 9.5779C11.6642 11.0499 12 12.3051 12 13.2242C12 15.8091 9.83404 18 7 18C4.16596 18 2 15.8091 2 13.2242C2 12.3051 2.33577 11.0499 2.99254 9.5779C3.63391 8.14042 4.51033 6.65228 5.42134 5.31701Z" fill="white"/>
</svg>

