<svg width="20" height="20" viewBox="0 0 20 20" fill="none" xmlns="http://www.w3.org/2000/svg">
<path fill-rule="evenodd" clip-rule="evenodd" d="M14 9V11C15.6569 11 17 12.3431 17 14V16.5C17 16.7761 17.2239 17 17.5 17C17.7761 17 18 16.7761 18 16.5V5.41421L17 4.41421C16.6095 4.02369 16.6095 3.39052 17 3C17.3905 2.60947 18.0237 2.60948 18.4142 3L20 4.58579V16.5C20 17.8807 18.8807 19 17.5 19C16.1193 19 15 17.8807 15 16.5V14C15 13.4477 14.5523 13 14 13V19C14 19.5523 13.5523 20 13 20H3C2.44771 20 2 19.5523 2 19V9H1C0.447715 9 0 8.55229 0 8V1C0 0.447715 0.447715 0 1 0H15C15.5523 0 16 0.447715 16 1V8C16 8.55229 15.5523 9 15 9H14ZM2 2V7H14V2H2ZM12 9H4V18H12V9Z" fill="white"/>
</svg>
