<svg width="26" height="28" viewBox="0 0 26 28" fill="none" xmlns="http://www.w3.org/2000/svg">
<path fill-rule="evenodd" clip-rule="evenodd" d="M18 12V15H19C20.6569 15 22 16.3431 22 18V23C22 23.5523 22.4477 24 23 24C23.5523 24 24 23.5523 24 23V8.34717L22.2151 6.08632L23.7849 4.84703L26 7.65285V23C26 24.6569 24.6569 26 23 26C21.3431 26 20 24.6569 20 23V18C20 17.4477 19.5523 17 19 17H18V27C18 27.5523 17.5523 28 17 28H4C3.44772 28 3 27.5523 3 27V12H1C0.447715 12 0 11.5523 0 11V1C0 0.447715 0.447715 0 1 0H20C20.5523 0 21 0.447715 21 1V11C21 11.5523 20.5523 12 20 12H18ZM5 12V26H16V12H5ZM19 10V2H2V10H19Z" fill="white"/>
</svg>

