<svg width="24" height="24" viewBox="0 0 24 24" fill="none" xmlns="http://www.w3.org/2000/svg">
<path fill-rule="evenodd" clip-rule="evenodd" d="M6 18V4H18V18H6ZM4 3C4 2.44772 4.44772 2 5 2H19C19.5523 2 20 2.44772 20 3V20V21C20 21.5523 19.5523 22 19 22C18.4477 22 18 21.5523 18 21V20H6V21C6 21.5523 5.55228 22 5 22C4.44772 22 4 21.5523 4 21V20V3ZM13.8 7.60006C14.1314 7.15823 14.0418 6.53143 13.6 6.20006C13.1582 5.86869 12.5314 5.95823 12.2 6.40006L8 12.0001H12L10.2 14.4001C9.86863 14.8419 9.95817 15.4687 10.4 15.8001C10.8418 16.1314 11.4686 16.0419 11.8 15.6001L16 10.0001H12L13.8 7.60006Z" fill="white"/>
</svg>

