<svg width="16" height="20" viewBox="0 0 16 20" fill="none" xmlns="http://www.w3.org/2000/svg">
<path d="M1 1L15 1V17H1V1Z" stroke="white" stroke-width="2"/>
<path d="M0 18H2V19C2 19.5523 1.55228 20 1 20C0.447715 20 0 19.5523 0 19V18Z" fill="white"/>
<path d="M14 18H16V19C16 19.5523 15.5523 20 15 20C14.4477 20 14 19.5523 14 19V18Z" fill="white"/>
<path d="M9.8 5.6C10.1314 5.15817 10.0418 4.53137 9.6 4.2C9.15817 3.86863 8.53137 3.95817 8.2 4.4L9.8 5.6ZM6 9L5.2 8.4L4 10H6V9ZM10 9L10.8 9.6L12 8H10V9ZM6.2 12.4C5.86863 12.8418 5.95817 13.4686 6.4 13.8C6.84183 14.1314 7.46863 14.0418 7.8 13.6L6.2 12.4ZM8.2 4.4L5.2 8.4L6.8 9.6L9.8 5.6L8.2 4.4ZM6 10H10V8H6V10ZM9.2 8.4L6.2 12.4L7.8 13.6L10.8 9.6L9.2 8.4Z" fill="white"/>
</svg>

