<svg width="16" height="20" viewBox="0 0 16 20" fill="none" xmlns="http://www.w3.org/2000/svg">
<path fill-rule="evenodd" clip-rule="evenodd" d="M8.93227 0.637554C8.7828 0.253182 8.41268 0 8.00027 0C7.58786 0 7.21774 0.253182 7.06826 0.637554L6.14953 3H1.00024C0.447959 3 0.000244143 3.44772 0.000244143 4V5C0.000244143 5.55228 0.447959 6 1.00024 6C1.55253 6 2.00024 5.55228 2.00024 5H5.37176L0.068264 18.6376C-0.13191 19.1523 0.12309 19.7318 0.637822 19.932C1.02759 20.0836 1.45452 19.9742 1.72575 19.6886L8.00012 13.4143L14.2818 19.6959C14.5533 19.976 14.9763 20.0823 15.3627 19.932C15.8774 19.7318 16.1324 19.1523 15.9323 18.6376L10.6288 5H14.0002C14.0002 5.55228 14.448 6 15.0002 6C15.5525 6 16.0002 5.55228 16.0002 5V4C16.0002 3.44772 15.5525 3 15.0002 3H9.851L8.93227 0.637554ZM8.48287 5L9.91173 8.67422L8.00012 10.5858L6.08873 8.67443L7.51767 5H8.48287ZM6.58591 12L3.65604 14.9299L5.29677 10.7109L6.58591 12ZM12.3447 14.9304L9.41434 12L10.7037 10.7107L12.3447 14.9304Z" fill="white"/>
</svg>
