<svg width="24" height="24" viewBox="0 0 24 24" fill="none" xmlns="http://www.w3.org/2000/svg">
<path fill-rule="evenodd" clip-rule="evenodd" d="M12.9323 2.63755C12.7828 2.25318 12.4127 2 12.0003 2C11.5879 2 11.2177 2.25318 11.0683 2.63755L10.1495 5H5.00024C4.44796 5 4.00024 5.44772 4.00024 6V7C4.00024 7.55228 4.44796 8 5.00024 8C5.55253 8 6.00024 7.55228 6.00024 7H9.37176L4.06826 20.6376C3.86809 21.1523 4.12309 21.7318 4.63782 21.932C5.02759 22.0836 5.45452 21.9742 5.72575 21.6886L12.0001 15.4143L18.2818 21.6959C18.5533 21.976 18.9763 22.0823 19.3627 21.932C19.8774 21.7318 20.1324 21.1523 19.9323 20.6376L14.6288 7H18.0002C18.0002 7.55228 18.448 8 19.0002 8C19.5525 8 20.0002 7.55228 20.0002 7V6C20.0002 5.44772 19.5525 5 19.0002 5H13.851L12.9323 2.63755ZM12.4829 7L13.9117 10.6742L12.0001 12.5858L10.0887 10.6744L11.5177 7H12.4829ZM10.5859 14L7.65604 16.9299L9.29677 12.7109L10.5859 14ZM16.3447 16.9304L13.4143 14L14.7037 12.7107L16.3447 16.9304Z" fill="white"/>
</svg>
