<svg width="33" height="32" viewBox="0 0 33 32" fill="none" xmlns="http://www.w3.org/2000/svg">
<path fill-rule="evenodd" clip-rule="evenodd" d="M16.6387 5.06782C15.82 6.06348 14.8058 7.36936 13.6647 9.0085C12.344 10.9055 11.0655 13.0306 10.1247 15.0969C9.16784 17.1987 8.63867 19.0713 8.63867 20.5139C8.63867 24.5614 12.104 28 16.6387 28C21.1733 28 24.6387 24.5614 24.6387 20.5139C24.6387 19.0713 24.1095 17.1987 23.1526 15.0969C22.2119 13.0306 20.9333 10.9055 19.6127 9.0085C18.4715 7.36936 17.4574 6.06348 16.6387 5.06782ZM17.3746 2.83643C16.986 2.38558 16.2913 2.38558 15.9028 2.83643C14.9561 3.93499 13.6058 5.59272 12.0233 7.86577C9.28605 11.7975 6.63867 16.7911 6.63867 20.5139C6.63867 25.7634 11.0995 30 16.6387 30C22.1779 30 26.6387 25.7634 26.6387 20.5139C26.6387 16.7911 23.9913 11.7975 21.2541 7.86577C19.6716 5.59272 18.3212 3.93499 17.3746 2.83643Z" fill="white"/>
<path d="M15.6387 16C15.6387 17.1046 14.7432 18 13.6387 18C12.5341 18 11.6387 17.1046 11.6387 16C11.6387 14.8954 12.5341 14 13.6387 14C14.7432 14 15.6387 14.8954 15.6387 16Z" fill="white"/>
<path d="M21.6387 23C21.6387 24.1046 20.7432 25 19.6387 25C18.5341 25 17.6387 24.1046 17.6387 23C17.6387 21.8954 18.5341 21 19.6387 21C20.7432 21 21.6387 21.8954 21.6387 23Z" fill="white"/>
<path fill-rule="evenodd" clip-rule="evenodd" d="M13.084 24.832C12.6244 24.5257 12.5003 23.9048 12.8066 23.4453L18.8066 14.4453C19.113 13.9858 19.7338 13.8616 20.1934 14.1679C20.6529 14.4743 20.7771 15.0952 20.4707 15.5547L14.4707 24.5547C14.1644 25.0142 13.5435 25.1384 13.084 24.832Z" fill="white"/>
</svg>
