<svg width="48" height="48" viewBox="0 0 48 48" fill="none" xmlns="http://www.w3.org/2000/svg">
<path fill-rule="evenodd" clip-rule="evenodd" d="M23.9998 5.19054L3.9961 41.8761H44.0036L23.9998 5.19054ZM25.3942 3.55715C24.7923 2.45328 23.2073 2.45328 22.6054 3.55715L1.89773 41.5337C1.32063 42.5921 2.08668 43.8823 3.29214 43.8823H44.7075C45.913 43.8823 46.679 42.5921 46.1019 41.5337L25.3942 3.55715Z" fill="white"/>
<path d="M22.9998 17.9999C22.9998 17.4476 23.4475 16.9999 23.9998 16.9999C24.5521 16.9999 24.9998 17.4476 24.9998 17.9999V29.9999C24.9998 30.5522 24.5521 30.9999 23.9998 30.9999C23.4475 30.9999 22.9998 30.5522 22.9998 29.9999V17.9999Z" fill="white"/>
<path d="M22.9998 33.9999C22.9998 33.4476 23.4475 32.9999 23.9998 32.9999C24.5521 32.9999 24.9998 33.4476 24.9998 33.9999C24.9998 34.5522 24.5521 34.9999 23.9998 34.9999C23.4475 34.9999 22.9998 34.5522 22.9998 33.9999Z" fill="white"/>
</svg>
