<svg width="32" height="32" viewBox="0 0 32 32" fill="none" xmlns="http://www.w3.org/2000/svg">
<path d="M21.8234 11.5675C22.1368 11.1128 22.0223 10.49 21.5675 10.1766C21.1128 9.8632 20.4901 9.97777 20.1767 10.4325L13.7977 19.6877L9.63926 16.231C9.21455 15.878 8.58406 15.9361 8.23102 16.3608C7.87798 16.7855 7.93608 17.416 8.36079 17.769L14.2024 22.6248L21.8234 11.5675Z" fill="white"/>
<path fill-rule="evenodd" clip-rule="evenodd" d="M30 16C30 23.732 23.732 30 16 30C8.26801 30 2 23.732 2 16C2 8.26801 8.26801 2 16 2C23.732 2 30 8.26801 30 16ZM28 16C28 22.6274 22.6274 28 16 28C9.37258 28 4 22.6274 4 16C4 9.37258 9.37258 4 16 4C22.6274 4 28 9.37258 28 16Z" fill="white"/>
</svg>
