<svg width="24" height="24" viewBox="0 0 24 24" fill="none" xmlns="http://www.w3.org/2000/svg">
<path d="M10 3C10 2.44772 10.4477 2 11 2H13C13.5523 2 14 2.44772 14 3C14 3.07543 13.9916 3.14891 13.9758 3.21956C14.4765 3.33222 14.9678 3.48776 15.4442 3.68508C16.5361 4.13738 17.5282 4.80031 18.364 5.63604C19.1997 6.47177 19.8626 7.46392 20.3149 8.55585C20.7672 9.64778 21 10.8181 21 12C21 12.7176 20.9142 13.4309 20.7455 14.125C20.1926 13.7225 19.5645 13.4157 18.892 13.225C18.9637 12.8216 19 12.4117 19 12C19 11.0807 18.8189 10.1705 18.4672 9.32122C18.1154 8.47194 17.5998 7.70026 16.9497 7.05025C16.2997 6.40024 15.5281 5.88463 14.6788 5.53284C13.8295 5.18106 12.9193 5 12 5C11.0808 5 10.1705 5.18106 9.32122 5.53284C8.47194 5.88462 7.70027 6.40024 7.05026 7.05025C6.40024 7.70026 5.88463 8.47193 5.53284 9.32121C5.18106 10.1705 5 11.0807 5 12C5 12.4116 5.03631 12.8215 5.10799 13.2248C4.43548 13.4155 3.80731 13.7222 3.25438 14.1247C3.08578 13.4307 3 12.7175 3 12C3 10.8181 3.23279 9.64777 3.68509 8.55584C4.13738 7.46391 4.80031 6.47176 5.63604 5.63604C6.47177 4.80031 7.46392 4.13737 8.55585 3.68508C9.03223 3.48776 9.52352 3.33222 10.0242 3.21956C10.0084 3.14891 10 3.07543 10 3Z" fill="white"/>
<path d="M11.2929 12.7071C10.9024 12.3166 10.9024 11.6834 11.2929 11.2929L14.2929 8.29289C14.6834 7.90237 15.3166 7.90237 15.7071 8.29289C16.0976 8.68342 16.0976 9.31658 15.7071 9.70711L12.7071 12.7071C12.3166 13.0976 11.6834 13.0976 11.2929 12.7071Z" fill="white"/>
<path fill-rule="evenodd" clip-rule="evenodd" d="M11.961 17.0513C11.9742 17.0597 11.9872 17.0682 12 17.0768C12.0128 17.0682 12.0258 17.0597 12.039 17.0513C12.125 16.9966 12.2134 16.941 12.3044 16.8846C13.849 15.9266 15.8108 15 17.2733 15C19.3356 15 21 16.5613 21 18.5C21 20.4387 19.3356 22 17.2733 22C15.8108 22 13.849 21.0734 12.3044 20.1154C12.2134 20.059 12.125 20.0034 12.039 19.9487C12.0343 19.9457 12.0297 19.9427 12.025 19.9397C12.0166 19.9343 12.0083 19.9288 12 19.9232C11.9872 19.9318 11.9742 19.9403 11.961 19.9487C11.875 20.0034 11.7866 20.059 11.6956 20.1154C10.151 21.0734 8.18923 22 6.72668 22C4.66439 22 3.00001 20.4387 3.00001 18.5C3.00001 16.5613 4.66439 15 6.72668 15C8.18923 15 10.151 15.9266 11.6956 16.8846C11.7866 16.941 11.875 16.9966 11.961 17.0513ZM8.42861 17.4364C9.11622 17.7153 9.83802 18.095 10.5042 18.5C9.83802 18.905 9.11622 19.2847 8.42861 19.5636C7.66327 19.8741 7.08455 20 6.72668 20C5.64816 20 5.00001 19.2171 5.00001 18.5C5.00001 17.7829 5.64816 17 6.72668 17C7.08455 17 7.66327 17.1259 8.42861 17.4364ZM13.4958 18.5C14.162 18.905 14.8838 19.2847 15.5714 19.5636C16.3367 19.8741 16.9154 20 17.2733 20C18.3518 20 19 19.2171 19 18.5C19 17.7829 18.3518 17 17.2733 17C16.9154 17 16.3367 17.1259 15.5714 17.4364C14.8838 17.7153 14.162 18.095 13.4958 18.5Z" fill="white"/>
</svg>
