<svg width="32" height="32" viewBox="0 0 32 32" fill="none" xmlns="http://www.w3.org/2000/svg">
<path d="M10.9046 6.25134C13.22 5.04114 15.8905 4.69455 18.4381 5.27362C20.3661 5.71186 22.1285 6.6586 23.5499 8.00002H22C21.4477 8.00002 21 8.44773 21 9.00002C21 9.5523 21.4477 10 22 10H26C26.5523 10 27 9.5523 27 9.00002V5.00002C27 4.44774 26.5523 4.00002 26 4.00002C25.4477 4.00002 25 4.44774 25 5.00002V6.61915C23.3069 4.99481 21.1951 3.84927 18.8814 3.32337C15.8706 2.63901 12.7145 3.04861 9.97815 4.47885C7.24179 5.90909 5.10381 8.26657 3.94696 11.1293C2.79012 13.992 2.68995 17.1729 3.66438 20.1027C4.6388 23.0326 6.62421 25.5199 9.26517 27.1195C11.9061 28.719 15.0302 29.3264 18.0781 28.8329C21.126 28.3393 23.8987 26.777 25.8999 24.4257C27.901 22.0744 29 19.0876 29 16C29 15.4477 28.5523 15 28 15C27.4477 15 27 15.4477 27 16C27 18.6126 26.0701 21.1399 24.3768 23.1295C22.6835 25.119 20.3374 26.4409 17.7584 26.8586C15.1794 27.2762 12.5359 26.7623 10.3013 25.4088C8.06664 24.0553 6.38668 21.9506 5.56216 19.4716C4.73765 16.9925 4.82241 14.3009 5.80128 11.8786C6.78014 9.45633 8.5892 7.46154 10.9046 6.25134Z" fill="#387DC5"/>
</svg>
