<svg width="46" height="40" viewBox="0 0 46 40" fill="none" xmlns="http://www.w3.org/2000/svg">
<path d="M42.0004 0C43.1048 0.000131674 44.0004 0.895512 44.0004 2V6H44.5824C45.365 6.00013 46.0004 6.63532 46.0004 7.41797V8.91797C46.0004 9.49934 45.7163 10.0382 45.2504 10.3691L44.8988 10.584C44.5889 10.8049 44.4008 11.1654 44.4008 11.5527V12.5723C44.4006 14.4653 43.7672 15.9999 42.0004 16C42.0004 17.1045 41.1048 17.9999 40.0004 18V20C40.0004 24.2443 38.65 28.3785 36.1449 31.8047C33.6397 35.2308 30.1092 37.7716 26.0648 39.0586C22.0205 40.3454 17.6711 40.3112 13.6469 38.9629C9.62269 37.6143 6.13065 35.0205 3.6781 31.5566C1.22588 28.0929 -0.0623323 23.9388 0.00231983 19.6953C0.0671307 15.4515 1.48039 11.3367 4.03748 7.94922C6.59442 4.56219 10.1639 2.07676 14.2269 0.851563C18.2903 -0.373354 22.6398 -0.274681 26.6429 1.13477C27.6844 1.50165 28.232 2.64393 27.8656 3.68555C27.4987 4.72725 26.3566 5.27486 25.3148 4.9082C22.1125 3.78063 18.6338 3.70189 15.3832 4.68164C12.1327 5.66168 9.2765 7.64978 7.23084 10.3594C5.18519 13.0694 4.05418 16.3608 4.00232 19.7559C3.95051 23.1508 4.97989 26.475 6.94177 29.2461C8.90374 32.017 11.6972 34.093 14.9164 35.1719C18.1358 36.2506 21.6164 36.2755 24.8519 35.2461C28.0873 34.2165 30.9123 32.1842 32.9164 29.4434C34.9202 26.7025 36.0004 23.3953 36.0004 20V18C34.896 17.9998 34.0004 17.1045 34.0004 16C32.2336 15.9998 31.6002 14.4653 31.6 12.5723V11.5527C31.6 11.1654 31.4119 10.8049 31.1019 10.584L30.7504 10.3691C30.2845 10.0382 30.0004 9.4993 30.0004 8.91797V7.41797C30.0004 6.63537 30.6358 6.0002 31.4183 6H32.0004V2C32.0004 0.895553 32.896 0.000197889 34.0004 0C35.1048 0.000131674 36.0004 0.895512 36.0004 2V6H40.0004V2C40.0004 0.895553 40.896 0.000197889 42.0004 0Z" fill="white"/>
<path d="M14.0004 24C15.1049 24 16.0004 24.8954 16.0004 26C16.0004 27.1046 15.1049 28 14.0004 28C12.896 27.9998 12.0004 27.1045 12.0004 26C12.0004 24.8956 12.896 24.0002 14.0004 24Z" fill="white"/>
<path d="M26.0004 24C27.1049 24 28.0004 24.8954 28.0004 26C28.0004 27.1046 27.1049 28 26.0004 28C24.896 27.9998 24.0004 27.1045 24.0004 26C24.0004 24.8956 24.896 24.0002 26.0004 24Z" fill="white"/>
<path d="M20.0004 10C22.2095 10 24.0004 11.7909 24.0004 14C24.0004 16.2091 22.2095 18 20.0004 18C17.7914 17.9998 16.0004 16.209 16.0004 14C16.0004 11.791 17.7914 10.0002 20.0004 10Z" fill="white"/>
</svg>