<svg width="32" height="32" viewBox="0 0 32 32" fill="none" xmlns="http://www.w3.org/2000/svg">
<path d="M16.0002 5.06782C15.1815 6.06348 14.1674 7.36936 13.0262 9.0085C11.7055 10.9055 10.427 13.0306 9.48627 15.0969C9.45335 15.1692 9.42094 15.2412 9.38903 15.313C8.5477 15.357 7.83288 15.3251 7.23892 15.2565C8.2672 12.7375 9.81116 10.1262 11.3848 7.86577C12.9673 5.59272 14.3176 3.93499 15.2643 2.83643C15.6528 2.38558 16.3476 2.38558 16.7361 2.83643C17.6828 3.93499 19.0331 5.59272 20.6156 7.86577C21.6531 9.3561 22.6778 10.999 23.5502 12.6674C22.8582 12.661 22.1188 12.6913 21.3314 12.7672C20.6105 11.4719 19.8006 10.1955 18.9742 9.0085C17.833 7.36936 16.8189 6.06348 16.0002 5.06782Z" fill="white"/>
<path d="M6.02197 21.1472C6.64198 21.2394 7.31665 21.3024 8.04686 21.3246C8.47304 25.01 11.7717 28 16.0002 28C20.5349 28 24.0002 24.5614 24.0002 20.5139C24.0002 19.9598 23.9221 19.3423 23.7717 18.6727C24.3898 18.6914 24.916 18.752 25.3538 18.8293C25.5361 18.8615 25.7049 18.8968 25.8603 18.9338C25.9514 19.48 26.0002 20.0087 26.0002 20.5139C26.0002 25.7634 21.5394 30 16.0002 30C10.6856 30 6.36371 26.1 6.02197 21.1472Z" fill="white"/>
<path d="M16.3163 17.9487C20.6745 16.4959 23.7559 16.5165 25.7013 16.8598C26.6769 17.0319 27.3777 17.2872 27.8206 17.4885C28.0424 17.5893 28.2002 17.6769 28.2961 17.7344C28.3441 17.7632 28.3766 17.7845 28.3938 17.7961L28.4078 17.8057C28.8492 18.1303 29.4706 18.0392 29.8001 17.6C30.1314 17.1581 30.0419 16.5313 29.6001 16.2L29.007 16.9907C29.6001 16.2 29.5988 16.199 29.5988 16.199L29.5974 16.198L29.5944 16.1958L29.5873 16.1905L29.5683 16.1769C29.5588 16.1701 29.5475 16.1621 29.5344 16.1531C29.5275 16.1484 29.52 16.1433 29.5121 16.1379C29.4663 16.1071 29.4041 16.0668 29.3251 16.0194C29.1671 15.9246 28.9421 15.8013 28.6482 15.6677C28.0599 15.4003 27.1982 15.093 26.0488 14.8902C23.7442 14.4835 20.3256 14.504 15.6838 16.0513C11.3256 17.504 8.24422 17.4835 6.29884 17.1402C5.32319 16.968 4.62237 16.7128 4.17949 16.5115C3.95774 16.4107 3.79989 16.3231 3.70401 16.2655C3.65605 16.2368 3.62357 16.2155 3.60632 16.2039L3.59229 16.1942C3.15091 15.8697 2.52949 15.9607 2.20006 16.4C1.86869 16.8418 1.95823 17.4686 2.40006 17.8L3.00006 17C2.40006 17.8 2.40133 17.8009 2.40133 17.8009L2.40269 17.8019L2.4057 17.8042L2.41286 17.8094L2.43177 17.8231C2.44642 17.8335 2.46517 17.8466 2.48804 17.862C2.53378 17.8929 2.59602 17.9331 2.67502 17.9805C2.83304 18.0753 3.058 18.1986 3.35188 18.3322C3.94025 18.5996 4.80193 18.9069 5.95128 19.1098C8.2559 19.5164 11.6745 19.4959 16.3163 17.9487Z" fill="white"/>
</svg>
