<svg width="32" height="32" viewBox="0 0 32 32" fill="none" xmlns="http://www.w3.org/2000/svg">
<path d="M17 3C17 2.44772 16.5523 2 16 2C15.4477 2 15 2.44772 15 3V8H10L10 10L22 10V8L17 8V3Z" fill="white"/>
<path d="M7 5C7.55228 5 8 5.44772 8 6V28H24V6C24 5.44772 24.4477 5 25 5C25.5523 5 26 5.44772 26 6V28C26 29.1046 25.1046 30 24 30H8C6.89543 30 6 29.1046 6 28V6C6 5.44772 6.44772 5 7 5Z" fill="white"/>
<path d="M17.8462 15.3044C17.024 14.1446 16.3585 13.3926 16 13C15.6415 13.3926 14.976 14.1446 14.1538 15.3044C13.059 16.849 12 18.8108 12 20.2733C12 22.3356 13.7843 24 16 24C18.2157 24 20 22.3356 20 20.2733C20 18.8108 18.941 16.849 17.8462 15.3044Z" fill="white"/>
</svg>
