<svg width="32" height="32" viewBox="0 0 32 32" fill="none" xmlns="http://www.w3.org/2000/svg">
<path d="M10 10C10 9.44772 9.55228 9 9 9C8.44772 9 8 9.44772 8 10V13.1579C8 13.7102 8.44772 14.1579 9 14.1579C9.55228 14.1579 10 13.7102 10 13.1579V10Z" fill="white"/>
<path fill-rule="evenodd" clip-rule="evenodd" d="M22 5.26316V7.91589C23.2061 6.73092 24.8598 6 26.6842 6V8C24.0972 8 22 10.0972 22 12.6842V26.7368C22 27.4345 21.4345 28 20.7368 28H5.26316C4.56554 28 4 27.4345 4 26.7368V11.5789C4 7.39321 7.39321 4 11.5789 4H20.7368C21.4345 4 22 4.56554 22 5.26316ZM20 26H6V11.5789C6 8.49778 8.49778 6 11.5789 6H20V26Z" fill="white"/>
<path d="M27.6538 11.4664C27.14 10.7284 26.7241 10.2498 26.5 10C26.2759 10.2498 25.86 10.7284 25.3462 11.4664C24.6618 12.4494 24 13.6978 24 14.6285C24 15.9408 25.1152 17 26.5 17C27.8848 17 29 15.9408 29 14.6285C29 13.6978 28.3382 12.4494 27.6538 11.4664Z" fill="white"/>
</svg>

