<svg width="46" height="42" viewBox="0 0 46 42" fill="none" xmlns="http://www.w3.org/2000/svg">
<path fill-rule="evenodd" clip-rule="evenodd" d="M23.0001 3.19078L2.99634 39.8764H43.0038L23.0001 3.19078ZM24.3945 1.55739C23.7926 0.453525 22.2076 0.453526 21.6057 1.55739L0.897973 39.534C0.320877 40.5923 1.08692 41.8825 2.29239 41.8825H43.7078C44.9132 41.8825 45.6793 40.5923 45.1022 39.534L24.3945 1.55739Z" fill="#F35C58"/>
<path d="M22 16.0001C22 15.4478 22.4477 15.0001 23 15.0001C23.5523 15.0001 24 15.4478 24 16.0001V28.0001C24 28.5524 23.5523 29.0001 23 29.0001C22.4477 29.0001 22 28.5524 22 28.0001V16.0001Z" fill="#F35C58"/>
<path d="M22 32.0001C22 31.4478 22.4477 31.0001 23 31.0001C23.5523 31.0001 24 31.4478 24 32.0001C24 32.5524 23.5523 33.0001 23 33.0001C22.4477 33.0001 22 32.5524 22 32.0001Z" fill="#F35C58"/>
</svg>
