<svg width="32" height="32" viewBox="0 0 32 32" fill="none" xmlns="http://www.w3.org/2000/svg">
<path fill-rule="evenodd" clip-rule="evenodd" d="M22.3059 7.60723C18.1657 6.57217 13.8343 6.57217 9.69408 7.60723L9 7.78075L9 15H7V7.78075C7 6.86301 7.62459 6.06304 8.51493 5.84046L9.209 5.66694C13.6677 4.55226 18.3323 4.55226 22.791 5.66694L23.4851 5.84046C24.3754 6.06305 25 6.86301 25 7.78075V15H23V7.78075L22.3059 7.60723Z" fill="#387DC5"/>
<path d="M15 5H17V11H15V5Z" fill="#387DC5"/>
<path d="M8.16259 21.5917L6.41779 16.9159L6.44923 16.8941C9.39089 14.8556 12.6065 13.2443 16.0002 12.1082C19.3939 13.2443 22.6096 14.8556 25.5512 16.8941L25.5827 16.9159L23.8379 21.5918C24.5678 21.7753 25.3466 21.7124 26.043 21.4029L27.4853 17.5379C27.7882 16.7262 27.5017 15.8124 26.7896 15.3189L26.6904 15.2502C23.5795 13.0944 20.1775 11.3924 16.5868 10.1955C16.2061 10.0686 15.7944 10.0686 15.4137 10.1955C11.823 11.3924 8.42101 13.0944 5.31007 15.2502L5.2109 15.3189C4.49879 15.8124 4.2123 16.7262 4.51519 17.5379L5.95754 21.4032C6.65399 21.7125 7.43271 21.7753 8.16259 21.5917Z" fill="#387DC5"/>
<path fill-rule="evenodd" clip-rule="evenodd" d="M2.2652 22.3217C2.63981 21.9159 3.27246 21.8906 3.67829 22.2652C5.74249 24.1706 8.92418 24.1706 10.9884 22.2652C11.3715 21.9116 11.9619 21.9116 12.345 22.2652C14.4092 24.1706 17.5909 24.1706 19.6551 22.2652C20.0381 21.9116 20.6286 21.9116 21.0116 22.2652C23.0758 24.1706 26.2575 24.1706 28.3217 22.2652C28.7275 21.8906 29.3602 21.9159 29.7348 22.3217C30.1094 22.7275 30.0841 23.3602 29.6783 23.7348C27.0655 26.1466 23.1469 26.332 20.3333 24.2908C17.754 26.1621 14.246 26.1621 11.6667 24.2908C8.85315 26.332 4.93455 26.1466 2.32172 23.7348C1.9159 23.3602 1.8906 22.7275 2.2652 22.3217Z" fill="#387DC5"/>
</svg>
