<svg width="24" height="24" viewBox="0 0 24 24" fill="none" xmlns="http://www.w3.org/2000/svg">
<path d="M11 2C10.4477 2 10 2.44772 10 3C10 3.07544 10.0084 3.14894 10.0242 3.2196C9.52359 3.33226 9.03237 3.48779 8.55606 3.68508C7.46413 4.13737 6.47198 4.80031 5.63625 5.63604C5.44922 5.82306 5.27085 6.01791 5.10156 6.21997H8.05163C8.44913 5.94842 8.87453 5.71795 9.32143 5.53284C10.1707 5.18106 11.081 5 12.0002 5C12.9195 5 13.8297 5.18106 14.679 5.53284C15.5283 5.88463 16.2999 6.40024 16.95 7.05025C17.6 7.70026 18.1156 8.47194 18.4674 9.32122C18.8191 10.1705 19.0002 11.0807 19.0002 12C19.0002 12.9193 18.8191 13.8295 18.4674 14.6788C18.1156 15.5281 17.6 16.2997 16.95 16.9497C16.2999 17.5998 15.5283 18.1154 14.679 18.4672C14.0915 18.7105 13.4749 18.8721 12.8462 18.9487L13.5228 20.8703C14.1804 20.7574 14.825 20.5715 15.4444 20.3149C16.5363 19.8626 17.5284 19.1997 18.3642 18.364C19.1999 17.5282 19.8628 16.5361 20.3151 15.4442C20.7674 14.3522 21.0002 13.1819 21.0002 12C21.0002 10.8181 20.7674 9.64778 20.3151 8.55585C19.8628 7.46392 19.1999 6.47177 18.3642 5.63604C17.5284 4.80031 16.5363 4.13738 15.4444 3.68508C14.9679 3.48774 14.4766 3.33218 13.9758 3.21952C13.9917 3.14888 14 3.07541 14 3C14 2.44772 13.5523 2 13 2H11Z" fill="white"/>
<path d="M11.2929 11.2929C10.9024 11.6834 10.9024 12.3166 11.2929 12.7071C11.6834 13.0976 12.3166 13.0976 12.7071 12.7071L15.7071 9.70711C16.0976 9.31658 16.0976 8.68342 15.7071 8.29289C15.3166 7.90237 14.6834 7.90237 14.2929 8.29289L11.2929 11.2929Z" fill="white"/>
<path fill-rule="evenodd" clip-rule="evenodd" d="M11.4481 21H9.05407L7.97407 17.724H3.49207L2.41207 21H0.0180664L4.51807 8.21997H6.94807L11.4481 21ZM6.26407 12.414C6.03007 11.694 5.76007 10.434 5.76007 10.434H5.72407C5.72407 10.434 5.43607 11.694 5.18407 12.414L4.05007 15.834H7.39807L6.26407 12.414Z" fill="white"/>
</svg>
