<svg width="24" height="24" viewBox="0 0 24 24" fill="none" xmlns="http://www.w3.org/2000/svg">
<path d="M11.141 11.6279H10.2691L11.6476 8.55812C11.7062 8.42748 11.5458 8.30884 11.4381 8.40322L7.57554 11.7881C7.34415 11.9908 7.48757 12.3721 7.79523 12.3721H8.84364L7.47826 15.4127C7.41898 15.5447 7.58298 15.6634 7.68983 15.5658L11.3658 12.2073C11.5904 12.0021 11.4452 11.6279 11.141 11.6279Z" fill="white"/>
<path fill-rule="evenodd" clip-rule="evenodd" d="M4 2C3.44772 2 3 2.44772 3 3V21C3 21.5523 3.44772 22 4 22H15C15.5523 22 16 21.5523 16 21V15C16.5523 15 17 15.4477 17 16V18.5C17 19.8807 18.1193 21 19.5 21C20.8807 21 22 19.8807 22 18.5V6.5858L18.7071 3.29291L17.2929 4.70712L20 7.41423V18.5C20 18.7762 19.7761 19 19.5 19C19.2239 19 19 18.7762 19 18.5V16C19 14.3432 17.6569 13 16 13V3C16 2.44772 15.5523 2 15 2H4ZM5 4V20H14V4H5Z" fill="white"/>
</svg>
