<?xml version="1.0" encoding="UTF-8"?>
<svg xmlns="http://www.w3.org/2000/svg" viewBox="0 0 12 16">
  <path d="m 8.0195,1.0720339 2.938975,2.7788984 0,11.0007637 -9.7559326,0 0,-13.7796621 6.8169576,0 m 0.4999916,-1.14830508 -8.53644071,0 0,16.07627218 12.19491411,0 0,-12.6313569 -3.6584734,-3.44491528 z" style="fill:white"/>
  <path d="m 8.6366525,7.5100635 0,-1.8893008 a 2.5190678,2.5190678 0 1 0 -5.0381356,0 l 0,1.8893008 -1.2595339,0 0,5.6679025 7.5572034,0 0,-5.6679025 z M 4.8580508,5.6207627 a 1.2595339,1.2595339 0 1 1 2.5190678,0 l 0,1.8893008 -2.5190678,0 z m 1.5744173,4.9625633 0,1.335106 -0.6297669,0 0,-1.335106 a 0.91945974,0.91945974 0 0 1 -0.6297669,-0.8690782 0.94465042,0.94465042 0 1 1 1.8893008,0 0.91945974,0.91945974 0 0 1 -0.629767,0.8690782 z" style="fill:white"/>
</svg>
