<svg width="24" height="24" viewBox="0 0 24 24" fill="none" xmlns="http://www.w3.org/2000/svg">
<path d="M8 9C8 8.44772 7.55228 8 7 8C6.44772 8 6 8.44772 6 9V11.5C6 12.0523 6.44772 12.5 7 12.5C7.55228 12.5 8 12.0523 8 11.5V9Z" fill="white"/>
<path fill-rule="evenodd" clip-rule="evenodd" d="M16 4V5.25716C16.9509 4.47182 18.1704 4 19.5 4V6C17.567 6 16 7.567 16 9.5V21C16 21.5523 15.5523 22 15 22H3C2.44772 22 2 21.5523 2 21V9C2 5.68629 4.68629 3 8 3H15C15.5523 3 16 3.44772 16 4ZM14 5V20H4V9C4 6.79086 5.79086 5 8 5H14Z" fill="white"/>
<path d="M20.9231 9.25696C20.512 8.62434 20.1793 8.21414 20 8C19.8207 8.21414 19.488 8.62434 19.0769 9.25696C18.5295 10.0995 18 11.1695 18 11.9673C18 13.0922 18.8922 14 20 14C21.1078 14 22 13.0922 22 11.9673C22 11.1695 21.4705 10.0995 20.9231 9.25696Z" fill="white"/>
</svg>
