<svg width="24" height="24" viewBox="0 0 24 24" fill="none" xmlns="http://www.w3.org/2000/svg">
<path d="M13 3C13 2.44772 12.5523 2 12 2C11.4477 2 11 2.44772 11 3V6H8V8H16V6H13V3Z" fill="white"/>
<path d="M5 3C5.55228 3 6 3.44772 6 4V20H18V4C18 3.44772 18.4477 3 19 3C19.5523 3 20 3.44772 20 4V20C20 21.1046 19.1046 22 18 22H6C4.89543 22 4 21.1046 4 20V4C4 3.44772 4.44772 3 5 3Z" fill="white"/>
<path d="M13.3846 11.6759C12.768 10.8324 12.2689 10.2855 12 10C11.7311 10.2855 11.232 10.8324 10.6154 11.6759C9.79421 12.7993 9 14.226 9 15.2897C9 16.7895 10.3382 18 12 18C13.6618 18 15 16.7895 15 15.2897C15 14.226 14.2058 12.7993 13.3846 11.6759Z" fill="white"/>
</svg>
