<svg width="44" height="44" viewBox="0 0 44 44" fill="none" xmlns="http://www.w3.org/2000/svg">
<path d="M28.7485 13.7974C28.8813 13.6646 29.0363 13.576 29.2134 13.5317C29.3905 13.4819 29.5675 13.4819 29.7446 13.5317C29.9217 13.576 30.0767 13.6646 30.2095 13.7974C30.3478 13.9302 30.4391 14.0879 30.4834 14.2705C30.5277 14.4476 30.5277 14.6247 30.4834 14.8018C30.4391 14.9788 30.3506 15.1338 30.2178 15.2666L15.2349 30.2578C15.1076 30.3851 14.9554 30.4681 14.7783 30.5068C14.6012 30.5511 14.4214 30.5511 14.2388 30.5068C14.0617 30.4681 13.904 30.3823 13.7656 30.2495C13.6328 30.1167 13.5443 29.959 13.5 29.7764C13.4557 29.5993 13.4557 29.4222 13.5 29.2451C13.5443 29.068 13.63 28.9159 13.7573 28.7886L28.7485 13.7974ZM30.2178 28.7803C30.3506 28.9131 30.4364 29.0653 30.4751 29.2368C30.5194 29.4139 30.5194 29.591 30.4751 29.7681C30.4364 29.9507 30.3478 30.1112 30.2095 30.2495C30.0767 30.3823 29.9217 30.4709 29.7446 30.5151C29.5675 30.5594 29.3905 30.5594 29.2134 30.5151C29.0363 30.4709 28.8813 30.3823 28.7485 30.2495L13.7573 15.2583C13.6356 15.1366 13.5498 14.9871 13.5 14.8101C13.4557 14.633 13.4557 14.4531 13.5 14.2705C13.5498 14.0879 13.6383 13.9302 13.7656 13.7974C13.8984 13.6646 14.0562 13.576 14.2388 13.5317C14.4214 13.4875 14.5985 13.4875 14.77 13.5317C14.9471 13.576 15.1021 13.6618 15.2349 13.7891L30.2178 28.7803Z" fill="#999999" style="mix-blend-mode:plus-darker"/>
</svg>

