<svg width="32" height="32" viewBox="0 0 32 32" fill="none" xmlns="http://www.w3.org/2000/svg">
<path fill-rule="evenodd" clip-rule="evenodd" d="M2 16C2 9.3239 6.67297 3.73923 12.9265 2.33844C13.9155 2.11689 14.9441 2 16 2C16.3703 2 16.7373 2.01438 17.1003 2.0426C16.7228 2.21166 16.3556 2.39966 16 2.60539C15.2243 3.05411 14.5035 3.58718 13.8501 4.19205C11.4823 6.38402 10 9.51891 10 13C10 19.6274 15.3726 25 22 25C22.7341 25 23.4527 24.9341 24.1504 24.8079C25.4634 24.5703 26.702 24.1192 27.829 23.4917C27.0736 24.6818 26.1436 25.7502 25.075 26.6608C22.6311 28.7432 19.4623 30 16 30C8.26801 30 2 23.732 2 16ZM16 28C17.7453 28 19.4038 27.6277 20.9004 26.9574C13.6824 26.3966 8 20.3619 8 13C8 10.2434 8.79668 7.67382 10.1714 5.50811C6.49028 7.55748 4 11.4879 4 16C4 22.6274 9.37258 28 16 28Z" fill="white"/>
<path d="M20 16V14.6912L26.5637 4.9745C27.0849 4.1813 27.5483 3.68555 27.5483 3.68555V3.64589C27.5483 3.64589 27.1815 3.70538 26.5251 3.70538H20.3475V2H29.9228V3.28895L23.3591 13.0255C22.8378 13.7989 22.3745 14.2946 22.3745 14.2946V14.3343C22.3745 14.3343 22.7413 14.2946 23.3977 14.2946H30V16H20Z" fill="white"/>
<path d="M13.3799 19V18.17L16.5299 13.65C16.8099 13.24 17.0499 13.01 17.0499 13.01V12.99C17.0499 12.99 16.8499 13.01 16.5199 13.01H13.5399V11.9H18.6699V12.72L15.5199 17.25C15.2399 17.66 14.9999 17.89 14.9999 17.89V17.91C14.9999 17.91 15.1999 17.89 15.5299 17.89H18.7099V19H13.3799Z" fill="white"/>
</svg>
