<svg width="32" height="32" viewBox="0 0 32 32" fill="none" xmlns="http://www.w3.org/2000/svg">
<path d="M12.3955 7.00488C12.7452 7.01966 13.0823 7.03861 13.374 7.0918C13.6759 7.14684 14.0145 7.25153 14.3174 7.49414C14.624 7.73983 14.7979 8.0496 14.9121 8.33594C14.9663 8.47185 15.0135 8.61968 15.0566 8.77344L15.1768 9.24805V9.24902C15.298 9.76122 15.9705 10.2053 16.7266 9.94824C17.2292 9.77728 17.8648 9.57702 18.498 9.77246C19.1437 9.9718 19.5447 10.505 19.8496 10.9355C20.0914 11.2768 20.307 11.6319 20.4971 11.9902L20.7021 12.3916C20.7664 12.5253 20.8246 12.658 20.8701 12.7861C20.9661 13.0563 21.0426 13.4029 20.957 13.791C20.873 14.1717 20.6631 14.4539 20.4736 14.6592C20.3815 14.759 20.2757 14.8591 20.1631 14.96L19.8105 15.2627C19.3074 15.6829 19.2983 16.3429 19.8613 16.7871C20.084 16.9628 20.3072 17.1472 20.4863 17.3389C20.6713 17.5369 20.8683 17.8044 20.9551 18.1621C21.0437 18.5279 20.9873 18.8611 20.8994 19.1318C20.8165 19.3873 20.6854 19.6462 20.5537 19.8906C20.2602 20.4353 19.9146 20.9916 19.4961 21.5059C19.4435 21.5704 19.3874 21.6345 19.3262 21.6963C18.9145 22.1116 18.4014 22.2562 17.9609 22.2764C17.6378 22.2912 17.325 22.2417 17.0488 22.167L16.7861 22.085C16.3273 21.9236 15.9367 21.981 15.6729 22.126C15.4187 22.2657 15.2227 22.5165 15.1738 22.8994C15.1095 23.4031 14.9335 23.9385 14.5068 24.3496C14.1276 24.7149 13.6555 24.8807 13.1758 24.9336L12.9697 24.9502C12.5079 24.9718 11.8768 25.0276 11.2773 24.9834C10.9824 24.9616 10.687 24.9338 10.4268 24.875C10.1541 24.8134 9.84601 24.7022 9.57324 24.4639C9.30073 24.2256 9.1511 23.9366 9.05469 23.6797C8.963 23.4354 8.89635 23.1535 8.83496 22.877C8.67937 22.1765 8.01556 21.7759 7.21094 22.1006C6.67836 22.3155 6.09935 22.412 5.52246 22.2354C4.94651 22.059 4.54064 21.6617 4.24805 21.2363C3.98337 20.8515 3.71563 20.4389 3.47949 20.001C3.33898 19.7404 3.20172 19.4701 3.11328 19.208C3.02035 18.9324 2.95712 18.5962 3.03613 18.2246C3.11445 17.8567 3.30701 17.5754 3.49609 17.3623C3.67807 17.1573 3.90798 16.9597 4.13965 16.7686C4.45938 16.5047 4.55662 16.2213 4.55176 15.9961C4.54676 15.7682 4.43376 15.4742 4.08984 15.2031C3.70985 14.9037 3.20468 14.4822 3.05273 13.8428C2.89743 13.1887 3.17577 12.5907 3.39258 12.1631C3.5588 11.8352 3.7453 11.4989 3.96094 11.1719C4.14538 10.8922 4.33315 10.6197 4.5332 10.3994C4.74394 10.1673 5.01365 9.94152 5.37988 9.81543C5.74142 9.69097 6.09172 9.69988 6.39746 9.74512C6.69261 9.78879 7.01745 9.87804 7.35254 9.97656C8.10744 10.1983 8.7367 9.74609 8.81445 9.13867C8.88733 8.5687 9.09311 7.99828 9.57617 7.58496C10.0476 7.18167 10.6289 7.06243 11.1592 7.04395C11.4424 7.0341 11.9647 6.98675 12.3955 7.00488Z" stroke="white" stroke-width="2"/>
<circle cx="12" cy="16" r="2" fill="white"/>
<path d="M24 11L29 11" stroke="white" stroke-width="2" stroke-linecap="round"/>
<path d="M24 16L29 16" stroke="white" stroke-width="2" stroke-linecap="round"/>
<path d="M24 21H29" stroke="white" stroke-width="2" stroke-linecap="round"/>
</svg>

