<svg width="48" height="24" viewBox="0 0 48 24" fill="none" xmlns="http://www.w3.org/2000/svg">
<path d="M12 11C13.1046 11 14 10.1046 14 9C14 7.89543 13.1046 7 12 7C10.8954 7 10 7.89543 10 9C10 10.1046 10.8954 11 12 11Z" fill="white"/>
<path d="M10 15C10 15.5523 9.55229 16 9 16C8.44771 16 8 15.5523 8 15C8 14.4477 8.44771 14 9 14C9.55229 14 10 14.4477 10 15Z" fill="white"/>
<path d="M15 16C15.5523 16 16 15.5523 16 15C16 14.4477 15.5523 14 15 14C14.4477 14 14 14.4477 14 15C14 15.5523 14.4477 16 15 16Z" fill="white"/>
<path fill-rule="evenodd" clip-rule="evenodd" d="M22 12C22 17.5228 17.5228 22 12 22C6.47715 22 2 17.5228 2 12C2 6.47715 6.47715 2 12 2C17.5228 2 22 6.47715 22 12ZM20 12C20 16.4183 16.4183 20 12 20C7.58172 20 4 16.4183 4 12C4 7.58172 7.58172 4 12 4C16.4183 4 20 7.58172 20 12Z" fill="white"/>
<path d="M36.3104 10.4741C36.2687 10.3979 36.224 10.3168 36.1761 10.2299L34.7048 7.56144C34.0681 6.40666 33.7497 5.82927 33.8378 5.52631C33.9105 5.27638 34.1059 5.08218 34.3543 5.01285C34.6555 4.9288 35.2216 5.25997 36.3537 5.92231L44.9488 10.9509C45.5438 11.299 45.8412 11.473 45.9389 11.7013C46.0204 11.8919 46.0204 12.1081 45.9389 12.2987C45.8412 12.527 45.5438 12.701 44.9488 13.0491L36.3537 18.0777C35.2216 18.74 34.6555 19.0712 34.3543 18.9872C34.1059 18.9178 33.9105 18.7236 33.8378 18.4737C33.7497 18.1707 34.068 17.5934 34.7048 16.4386L36.1761 13.7701C36.224 13.6832 36.2687 13.6021 36.3104 13.5259L28.5303 18.0777C27.3982 18.74 26.8322 19.0712 26.531 18.9872C26.2825 18.9178 26.0871 18.7236 26.0144 18.4737C25.9263 18.1707 26.2447 17.5934 26.8814 16.4386L28.3527 13.7701C28.7126 13.1174 28.8925 12.791 28.9614 12.4449C29.0197 12.1512 29.0197 11.8488 28.9614 11.5551C28.8925 11.209 28.7126 10.8826 28.3527 10.2299L26.8814 7.56144C26.2447 6.40666 25.9263 5.82927 26.0144 5.52631C26.0871 5.27638 26.2825 5.08218 26.531 5.01285C26.8322 4.9288 27.3982 5.25997 28.5303 5.92231L36.3104 10.4741Z" fill="white"/>
</svg>
