<svg width="24" height="24" viewBox="0 0 24 24" fill="none" xmlns="http://www.w3.org/2000/svg">
<path d="M4.40691 10.6067C3.60843 11.069 3.2092 11.3001 3.07815 11.6033C2.96874 11.8565 2.96874 12.1436 3.07815 12.3968C3.2092 12.7 3.60843 12.9311 4.4069 13.3934L15.9427 20.072C17.4621 20.9517 18.2219 21.3915 18.6261 21.2799C18.9596 21.1878 19.2218 20.9299 19.3194 20.5979C19.4376 20.1956 19.0103 19.4287 18.1558 17.895L16.1811 14.3509C15.6981 13.4841 15.4566 13.0506 15.3642 12.5909C15.2859 12.2009 15.2859 11.7992 15.3642 11.4092C15.4566 10.9494 15.6981 10.516 16.1811 9.64913L18.1558 6.10505C19.0103 4.57135 19.4376 3.8045 19.3194 3.40214C19.2218 3.0702 18.9596 2.81227 18.6261 2.72019C18.2219 2.60857 17.4621 3.0484 15.9427 3.92807L4.40691 10.6067Z" fill="white"/>
</svg>
