<svg width="24" height="24" viewBox="0 0 24 24" fill="none" xmlns="http://www.w3.org/2000/svg">
<path fill-rule="evenodd" clip-rule="evenodd" d="M5 14.7324C5 14.2793 5.0396 13.8319 5.11855 13.393C5.18376 13.0305 5.27581 12.6738 5.39457 12.3246L5.39502 12.3233C5.43718 12.1994 5.4827 12.0764 5.53158 11.9544C5.54872 11.9117 5.56627 11.869 5.58424 11.8265L6.08152 10.6416L6.5788 11.8265C6.65411 12.0055 6.73696 12.1795 6.82689 12.348L6.82931 12.3525C6.95932 12.5957 7.10404 12.8276 7.26203 13.0471C7.93349 13.9803 8.84452 14.6916 9.88315 15.1048C8.90185 14.3089 8.1299 13.2479 7.66505 12.0366C7.59179 11.8457 7.52615 11.651 7.46853 11.4531C7.44366 11.3676 7.42006 11.2808 7.3982 11.1941C7.31376 10.8593 7.25208 10.5159 7.21494 10.1659C7.19994 10.0245 7.18894 9.8821 7.18207 9.73875C7.17663 9.61744 7.17391 9.4933 7.17391 9.37198C7.17391 9.23835 7.17747 9.10538 7.18449 8.97319C7.32912 6.25044 8.9449 3.85585 11.2797 2.75093C11.5484 2.62377 11.8267 2.51369 12.1133 2.42215L12.1172 2.42088C12.3222 2.35556 12.5315 2.29973 12.7446 2.25391L13.9212 2L13.3288 3.08337C13.2188 3.28556 13.1287 3.49476 13.0588 3.71023L13.0581 3.71243C12.9997 3.89312 12.9555 4.07823 12.9258 4.26733C12.8956 4.4593 12.8804 4.65538 12.8804 4.85513C12.8804 6.3109 13.2283 7.23346 15.1332 8.22937C17.519 9.47637 19 11.9676 19 14.7296C19 18.7358 15.8587 21.9972 12 21.9972V22C11.9343 22 11.8688 21.9991 11.8036 21.9972C11.1865 21.9794 10.589 21.8783 10.0213 21.7042C7.12252 20.8153 5 18.0255 5 14.7324ZM11.9104 19.9991C9.58239 19.9548 7.54946 18.187 7.09473 15.7602C7.71215 16.2616 8.40219 16.6681 9.14386 16.9632C10.0619 17.3284 11.1092 16.9685 11.6087 16.116C12.1083 15.2635 11.9104 14.174 11.143 13.5515C10.0125 12.6346 9.25626 11.2183 9.17992 9.64608C9.17594 9.55621 9.17391 9.46304 9.17391 9.37198C9.17391 7.7911 9.84538 6.36708 10.8957 5.39971C10.9404 6.13879 11.0998 6.95452 11.5814 7.75026C12.1743 8.72976 13.0979 9.42215 14.2065 10.0018C15.9104 10.8923 17 12.687 17 14.7296C17 17.7026 14.6841 19.9972 12 19.9972C11.97 19.9972 11.9401 19.9978 11.9104 19.9991Z" fill="white"/>
<path d="M16.0109 3.01647C15.6728 3.28982 15.0426 4.20218 15.0251 5.20707C15.0076 6.21196 15.5499 6.67298 16.0342 6.67523C16.5341 6.67757 17.0317 6.31402 17.0247 5.21639C17.0204 4.54629 16.5035 3.44387 16.0109 3.01647Z" fill="white"/>
</svg>
