<svg width="32" height="32" viewBox="0 0 32 32" fill="none" xmlns="http://www.w3.org/2000/svg">
<circle cx="16" cy="24" r="2" fill="white"/>
<path fill-rule="evenodd" clip-rule="evenodd" d="M21.4669 20.8202C20.7367 21.649 19.4729 21.7289 18.6441 20.9987C17.9123 20.3539 16.9702 19.9988 15.9948 20C15.0195 20.0012 14.0782 20.3588 13.3481 21.0054C12.5211 21.7376 11.2571 21.6609 10.5248 20.834C9.79255 20.007 9.86929 18.743 10.6962 18.0107C12.1566 16.7175 14.0392 16.0025 15.9898 16C17.9405 15.9976 19.8248 16.7079 21.2884 17.9974C22.1172 18.7276 22.1971 19.9914 21.4669 20.8202Z" fill="white"/>
<path fill-rule="evenodd" clip-rule="evenodd" d="M29.4352 11.8554C28.7026 12.6821 27.4386 12.7583 26.6119 12.0257C23.6821 9.42913 19.9019 7.99685 15.9869 8C12.072 8.00316 8.29416 9.44154 5.36847 12.0428C4.543 12.7768 3.27884 12.7026 2.5449 11.8771C1.81095 11.0517 1.88515 9.7875 2.71062 9.05356C6.36773 5.80193 11.0901 4.00395 15.9837 4.00001C20.8773 3.99606 25.6026 5.78641 29.265 9.03213C30.0916 9.76474 30.1679 11.0288 29.4352 11.8554Z" fill="white" fill-opacity="0.3"/>
<path fill-rule="evenodd" clip-rule="evenodd" d="M25.4482 16.3367C24.7164 17.164 23.4525 17.2415 22.6251 16.5097C20.7979 14.8935 18.4431 14.001 16.0037 14C13.5644 13.999 11.2088 14.8897 9.38034 16.5045C8.5524 17.2356 7.2885 17.1572 6.55734 16.3292C5.82618 15.5013 5.90463 14.2374 6.73256 13.5062C9.29237 11.2456 12.5902 9.99865 16.0053 10C19.4204 10.0013 22.7172 11.2509 25.2752 13.5136C26.1026 14.2454 26.1801 15.5093 25.4482 16.3367Z" fill="white"/>
</svg>
