<svg width="32" height="32" viewBox="0 0 32 32" fill="none" xmlns="http://www.w3.org/2000/svg">
<path d="M5 4.99997C5 4.99997 9 6.99997 16 4.99997C23 2.99997 27 4.99997 27 4.99997" stroke="white" stroke-width="2" stroke-linecap="round"/>
<path fill-rule="evenodd" clip-rule="evenodd" d="M20.4995 10C21.3279 10 21.9995 9.32843 21.9995 8.5C21.9995 7.67157 21.3279 7 20.4995 7C19.6711 7 18.9995 7.67157 18.9995 8.5C18.9995 9.32843 19.6711 10 20.4995 10ZM25.9995 11.5C25.9995 12.3284 25.3279 13 24.4995 13C23.6711 13 22.9995 12.3284 22.9995 11.5C22.9995 10.6716 23.6711 10 24.4995 10C25.3279 10 25.9995 10.6716 25.9995 11.5ZM12.4855 23.7808C11.6971 23.3287 11.0082 22.9081 10.4147 22.5294C11.0082 22.1507 11.6971 21.7301 12.4855 21.278C13.9622 20.4314 15.6162 19.612 17.2234 19.0094C18.8578 18.3966 20.3113 18.0588 21.4286 18.0588C24.7242 18.0588 26.8819 20.3066 26.8819 22.5294C26.8819 24.7522 24.7242 27 21.4286 27C20.3113 27 18.8578 26.6622 17.2234 26.0494C15.6162 25.4468 13.9622 24.6274 12.4855 23.7808ZM8.71079 21.2512L4.77918 19.067C4.29639 18.7988 3.68759 18.9727 3.41938 19.4555C3.15116 19.9383 3.32511 20.5471 3.80789 20.8153L6.77665 22.4646L3.77936 24.2595C3.30554 24.5433 3.15144 25.1574 3.43519 25.6312C3.71893 26.105 4.33306 26.2591 4.80688 25.9754L8.57612 23.7182C9.34594 24.2309 10.3133 24.8408 11.4908 25.5158C14.58 27.287 18.5035 29 21.4286 29C25.5532 29 28.8819 26.1136 28.8819 22.5294C28.8819 18.9452 25.5532 16.0588 21.4286 16.0588C18.5035 16.0588 14.58 17.7718 11.4908 19.543C10.3809 20.1793 9.45781 20.7576 8.71079 21.2512ZM22.4995 23C23.3279 23 23.9995 22.3284 23.9995 21.5C23.9995 20.6716 23.3279 20 22.4995 20C21.6711 20 20.9995 20.6716 20.9995 21.5C20.9995 22.3284 21.6711 23 22.4995 23Z" fill="white"/>
</svg>

