<svg width="46" height="40" viewBox="0 0 46 40" fill="none" xmlns="http://www.w3.org/2000/svg">
<path d="M42.0004 0C43.1047 0.000263325 44.0004 0.895593 44.0004 2V6H44.5824C45.3649 6.00026 46.0004 6.63541 46.0004 7.41797V8.91797C46.0004 9.49927 45.7162 10.0382 45.2504 10.3691L44.8988 10.584C44.5891 10.805 44.4008 11.1656 44.4008 11.5527V12.5723C44.4006 14.4653 43.767 15.9997 42.0004 16C42.0004 17.1044 41.1047 17.9997 40.0004 18V20C40.0004 24.2443 38.6499 28.3786 36.1449 31.8047C33.6398 35.2305 30.109 37.7716 26.0648 39.0586C22.0208 40.3451 17.6708 40.311 13.6469 38.9629C9.62301 37.6143 6.13052 35.0202 3.6781 31.5566C1.22604 28.093 -0.0623283 23.9387 0.00231925 19.6953C0.0671287 15.4517 1.48056 11.3366 4.03748 7.94922C6.59427 4.56244 10.1642 2.07681 14.2269 0.851562C18.29 -0.373217 22.6401 -0.274437 26.6429 1.13477C27.6843 1.50172 28.2319 2.64403 27.8656 3.68555C27.4987 4.72703 26.3564 5.27468 25.3148 4.9082C22.1127 3.78087 18.6335 3.70202 15.3832 4.68164C12.133 5.66174 9.27635 7.65003 7.23083 10.3594C5.18536 13.0693 4.05418 16.361 4.00232 19.7559C3.95052 23.1507 4.98005 26.475 6.94177 29.2461C8.9036 32.0168 11.6975 34.0929 14.9164 35.1719C18.1355 36.2504 21.6167 36.2753 24.8519 35.2461C28.0871 34.2165 30.9124 32.1839 32.9164 29.4434C34.9202 26.7026 36.0004 23.3952 36.0004 20V18C34.8963 17.9994 34.0004 17.1042 34.0004 16C32.2342 15.9994 31.6002 14.465 31.6 12.5723V11.5527C31.6 11.1654 31.4118 10.8049 31.1019 10.584L30.7504 10.3691C30.2848 10.0382 30.0004 9.4991 30.0004 8.91797V7.41797C30.0004 6.63561 30.6361 6.00059 31.4183 6H32.0004V2C32.0004 0.895797 32.8963 0.000593906 34.0004 0C35.1047 0.000263325 36.0004 0.895593 36.0004 2V6H40.0004V2C40.0004 0.895797 40.8963 0.000593906 42.0004 0Z" fill="#FFFFFF"/>
<path d="M20.0004 28C21.1049 28 22.0004 28.8954 22.0004 30C22.0004 31.1046 21.1049 32 20.0004 32C18.896 31.9998 18.0004 31.1044 18.0004 30C18.0004 28.8956 18.896 28.0002 20.0004 28Z" fill="#FFFFFF"/>
<path d="M20.0004 8C21.1049 8 22.0004 8.89543 22.0004 10V22C22.0004 23.1046 21.1049 24 20.0004 24C18.896 23.9998 18.0004 23.1044 18.0004 22V10C18.0004 8.89555 18.896 8.0002 20.0004 8Z" fill="#FFFFFF"/>
</svg>
