<svg width="32" height="32" viewBox="0 0 32 32" fill="none" xmlns="http://www.w3.org/2000/svg">
<path d="M22 6C20.8954 6 20 6.89543 20 8C20 9.10457 20.8954 10 22 10H24C25.1046 10 26 9.10457 26 8C26 6.89543 25.1046 6 24 6H22Z" fill="white"/>
<path fill-rule="evenodd" clip-rule="evenodd" d="M2 8C2 4.68629 4.68629 2 8 2H24C27.3137 2 30 4.68629 30 8C30 11.3137 27.3137 14 24 14H8C4.68629 14 2 11.3137 2 8ZM8 4H24C26.2091 4 28 5.79086 28 8C28 10.2091 26.2091 12 24 12H8C5.79086 12 4 10.2091 4 8C4 5.79086 5.79086 4 8 4Z" fill="white"/>
<path d="M8 22C6.89543 22 6 22.8954 6 24C6 25.1046 6.89543 26 8 26H10C11.1046 26 12 25.1046 12 24C12 22.8954 11.1046 22 10 22H8Z" fill="white"/>
<path fill-rule="evenodd" clip-rule="evenodd" d="M8 18C4.68629 18 2 20.6863 2 24C2 27.3137 4.68629 30 8 30H24C27.3137 30 30 27.3137 30 24C30 20.6863 27.3137 18 24 18H8ZM24 20H8C5.79086 20 4 21.7909 4 24C4 26.2091 5.79086 28 8 28H24C26.2091 28 28 26.2091 28 24C28 21.7909 26.2091 20 24 20Z" fill="white"/>
</svg>
