<svg width="32" height="32" viewBox="0 0 32 32" fill="none" xmlns="http://www.w3.org/2000/svg">
<path fill-rule="evenodd" clip-rule="evenodd" d="M2 8C2 4.68629 4.68629 2 8 2H24C27.3137 2 30 4.68629 30 8C30 11.3137 27.3137 14 24 14H8C4.68629 14 2 11.3137 2 8ZM8 18C4.68629 18 2 20.6863 2 24C2 27.3137 4.68629 30 8 30H24C27.3137 30 30 27.3137 30 24C30 20.6863 27.3137 18 24 18H8ZM22 22C20.8954 22 20 22.8954 20 24C20 25.1046 20.8954 26 22 26H24C25.1046 26 26 25.1046 26 24C26 22.8954 25.1046 22 24 22H22ZM6 8C6 6.89543 6.89543 6 8 6H10C11.1046 6 12 6.89543 12 8C12 9.10457 11.1046 10 10 10H8C6.89543 10 6 9.10457 6 8Z" fill="white"/>
</svg>
