<svg width="24" height="24" viewBox="0 0 24 24" fill="none" xmlns="http://www.w3.org/2000/svg">
<path d="M13 11C13 10.4477 12.5523 10 12 10C11.4477 10 11 10.4477 11 11V14C11 14.5523 11.4477 15 12 15C12.5523 15 13 14.5523 13 14V11Z" fill="white"/>
<path d="M11 17C11 16.4477 11.4477 16 12 16C12.5523 16 13 16.4477 13 17C13 17.5523 12.5523 18 12 18C11.4477 18 11 17.5523 11 17Z" fill="white"/>
<path fill-rule="evenodd" clip-rule="evenodd" d="M11.1142 2.69114C11.4885 1.97649 12.5115 1.97649 12.8859 2.69114L22.2332 20.536C22.5819 21.2018 22.099 22 21.3473 22H2.65272C1.90108 22 1.41812 21.2018 1.76689 20.536L11.1142 2.69114ZM4.30541 20L12 5.31029L19.6946 20H4.30541Z" fill="white"/>
</svg>
