<svg width="48" height="49" viewBox="0 0 48 49" fill="none" xmlns="http://www.w3.org/2000/svg">
<g clip-path="url(#clip0_12578_5512)">
<circle cx="24" cy="24.5" r="4.5" stroke="white" stroke-width="3"/>
<path d="M36.7031 36.6438C35.385 36.9733 33.1868 36.592 31.0611 35.2167C29.0308 33.9029 27.2552 31.7946 26.5713 28.9474C26.5879 28.6761 26.6499 28.4819 26.7425 28.3168C26.8579 28.1108 27.0769 27.8512 27.5269 27.5386C28.4777 26.8779 30.1492 26.1839 33.0178 25.2798C34.6302 24.7716 36.3726 24.5825 37.882 24.77C39.4087 24.9596 40.5213 25.5063 41.1455 26.2866C42.2266 27.638 42.4714 29.8574 41.6603 32.0472C40.8647 34.1952 39.1441 36.0336 36.7031 36.6438Z" stroke="white" stroke-width="3"/>
<path d="M6.97467 29.5107C7.34836 28.2045 8.77762 26.4914 11.0316 25.3382C13.1845 24.2367 15.8981 23.7532 18.7058 24.5846C18.9325 24.7346 19.0697 24.8853 19.1664 25.0481C19.287 25.2511 19.4023 25.5705 19.4481 26.1165C19.5449 27.2703 19.3101 29.0648 18.6588 32.0012C18.2927 33.6516 17.5853 35.2552 16.6682 36.4686C15.7407 37.696 14.7109 38.3862 13.723 38.5366C12.0122 38.7971 9.96771 37.8994 8.47685 36.1021C7.01443 34.3391 6.28263 31.9298 6.97467 29.5107Z" stroke="white" stroke-width="3"/>
<path d="M28.0137 7.32901C28.958 8.30575 29.727 10.4001 29.5987 12.9287C29.4761 15.3439 28.5381 17.9357 26.4143 19.9515C26.171 20.0729 25.9719 20.1163 25.7825 20.1187C25.5464 20.1217 25.2121 20.0618 24.7164 19.8284C23.6689 19.3353 22.2321 18.2348 20.0148 16.2025C18.7685 15.0603 17.7335 13.6459 17.1411 12.2449C16.542 10.828 16.4592 9.59105 16.8228 8.66031C17.4527 7.04842 19.2523 5.72673 21.5543 5.33426C23.8123 4.94927 26.2647 5.52015 28.0137 7.32901Z" stroke="white" stroke-width="3"/>
</g>
<defs>
<clipPath id="clip0_12578_5512">
<rect width="48" height="48" fill="white" transform="translate(0 0.5)"/>
</clipPath>
</defs>
</svg>
