<svg width="32" height="32" viewBox="0 0 32 32" fill="none" xmlns="http://www.w3.org/2000/svg">
<path d="M5.70711 4.29289C5.31658 3.90237 4.68342 3.90237 4.29289 4.29289C3.90237 4.68342 3.90237 5.31658 4.29289 5.70711L14.5858 16L4.29289 26.2929C3.90237 26.6834 3.90237 27.3166 4.29289 27.7071C4.68342 28.0976 5.31658 28.0976 5.70711 27.7071L16 17.4142L26.2929 27.7071C26.6834 28.0976 27.3166 28.0976 27.7071 27.7071C28.0976 27.3166 28.0976 26.6834 27.7071 26.2929L17.4142 16L27.7071 5.70711C28.0976 5.31658 28.0976 4.68342 27.7071 4.2929C27.3166 3.90237 26.6834 3.90237 26.2929 4.2929L16 14.5858L5.70711 4.29289Z" fill="#F0EFEB"/>
</svg>

