<svg width="32" height="32" viewBox="0 0 32 32" fill="none" xmlns="http://www.w3.org/2000/svg">
<path d="M16 25C16.5523 25 17 25.4477 17 26V29C17 29.5523 16.5523 30 16 30C15.4477 30 15 29.5523 15 29V26C15 25.4477 15.4477 25 16 25Z" fill="white"/>
<path d="M15.9668 1.99998C18.724 1.99355 21.4228 2.80141 23.7227 4.32224C26.0223 5.84308 27.822 8.00929 28.8955 10.5488C29.6253 12.2753 29.9963 14.1224 29.999 15.9795C29.9992 15.9863 30 15.9931 30 16C30 16.0032 29.9991 16.0065 29.999 16.0097C29.9984 16.8744 29.9188 17.7411 29.7568 18.5986C29.2451 21.3077 27.9443 23.8052 26.0186 25.7783C25.9961 25.8013 25.9722 25.8224 25.9482 25.8428C25.9314 25.8624 25.9141 25.8818 25.8955 25.9004C25.505 26.2909 24.872 26.2909 24.4814 25.9004L23.0674 24.4863C22.677 24.0958 22.6769 23.4627 23.0674 23.0722C23.4579 22.6819 24.091 22.6819 24.4814 23.0722L25.1602 23.751C26.4965 22.1716 27.4062 20.2698 27.792 18.2275C27.8689 17.8202 27.9228 17.4104 27.957 17H27C26.4477 17 26 16.5523 26 16C26 15.4477 26.4477 15 27 15H27.9561C27.8506 13.7426 27.5492 12.5027 27.0527 11.3281C26.5786 10.2065 25.9381 9.17087 25.1602 8.25095L24.4814 8.93064C24.0909 9.3209 23.4578 9.321 23.0674 8.93064C22.6769 8.5402 22.6771 7.90712 23.0674 7.51658L23.7461 6.83591C23.3884 6.53345 23.0126 6.25041 22.6191 5.99021C20.9349 4.87651 19.0013 4.2103 17 4.04295V4.99998C17 5.55226 16.5523 5.99998 16 5.99998C15.4477 5.99998 15 5.55226 15 4.99998V4.04295C12.9795 4.21185 11.0287 4.88936 9.33398 6.02146C8.95574 6.27415 8.59297 6.54696 8.24805 6.83884L8.92578 7.51658C9.31605 7.90708 9.31611 8.54018 8.92578 8.93064C8.53533 9.32109 7.90226 9.32095 7.51172 8.93064L6.83496 8.25486C6.04646 9.18794 5.4002 10.2404 4.9248 11.3799C4.44111 12.5393 4.14659 13.7613 4.04297 15H5C5.55227 15 5.99998 15.4477 6 16C6 16.5523 5.55228 17 5 17H4.04199C4.07785 17.4289 4.13637 17.8569 4.21875 18.2822C4.61013 20.3025 5.51479 22.1822 6.83691 23.7461L7.51172 23.0722C7.90223 22.682 8.53534 22.6819 8.92578 23.0722C9.31621 23.4627 9.31602 24.0958 8.92578 24.4863L7.51172 25.9013C7.12132 26.2917 6.48819 26.2915 6.09766 25.9013C6.07489 25.8786 6.05332 25.8544 6.0332 25.8301C6.03141 25.8283 6.02912 25.827 6.02734 25.8252C4.09237 23.8612 2.78032 21.3698 2.25586 18.6631C2.08637 17.7882 2.00232 16.9034 2.00098 16.0205C2.00084 16.0137 2 16.0068 2 16C2 15.9882 2.00057 15.9765 2.00098 15.9648C2.00546 14.1348 2.3678 12.3143 3.0791 10.6094C3.77366 8.9446 4.78125 7.43952 6.03613 6.16795C6.05503 6.14537 6.07547 6.12374 6.09668 6.10252C6.11364 6.08556 6.13158 6.06917 6.14941 6.05369C6.7824 5.42685 7.47589 4.85789 8.22363 4.35838C10.5162 2.82706 13.2099 2.00652 15.9668 1.99998Z" fill="white"/>
<path d="M17.7207 8.23923C17.8997 8.01566 18.2871 8.13232 18.2266 8.39158L16.8008 14.4863L18.6055 14.0029C19.2354 13.8341 19.7103 14.4028 19.3408 14.8838L13.292 22.7539C13.1162 22.9826 12.7219 22.8675 12.7832 22.6054L14.1953 16.5693L12.0254 17.1504C11.3884 17.321 10.9141 16.7392 11.2988 16.2588L17.7207 8.23923Z" fill="white"/>
</svg>

