<svg width="32" height="32" viewBox="0 0 32 32" fill="none" xmlns="http://www.w3.org/2000/svg">
<rect x="25.9648" y="4.62097" width="2" height="21.1691" rx="1" transform="rotate(45 25.9648 4.62097)" fill="white"/>
<path fill-rule="evenodd" clip-rule="evenodd" d="M6 4H13C13.5523 4 14 4.44772 14 5C14 5.55228 13.5523 6 13 6H6L6 26H26V19C26 18.4477 26.4477 18 27 18C27.5523 18 28 18.4477 28 19V26C28 27.1046 27.1046 28 26 28H6C4.89543 28 4 27.1046 4 26V6C4 4.89543 4.89543 4 6 4ZM27 14C27.5523 14 28 13.5523 28 13V6C28 4.89543 27.1046 4 26 4H19C18.4477 4 18 4.44772 18 5C18 5.55228 18.4477 6 19 6H26V13C26 13.5523 26.4477 14 27 14Z" fill="white"/>
</svg>
