<svg width="32" height="32" viewBox="0 0 32 32" fill="none" xmlns="http://www.w3.org/2000/svg">
<path fill-rule="evenodd" clip-rule="evenodd" d="M2 8C2 6.89543 2.89543 6 4 6H28C29.1046 6 30 6.89543 30 8V24C30 25.1046 29.1046 26 28 26H4C2.89543 26 2 25.1046 2 24V8ZM22 8H28V24H22V8ZM20 8L4 8V24H20V8Z" fill="white"/>
<path fill-rule="evenodd" clip-rule="evenodd" d="M13.2929 12.2929C13.6834 11.9024 14.3166 11.9024 14.7071 12.2929L18.4142 16L14.7071 19.7071C14.3166 20.0976 13.6834 20.0976 13.2929 19.7071C12.9024 19.3166 12.9024 18.6834 13.2929 18.2929L15.5858 16L13.2929 13.7071C12.9024 13.3166 12.9024 12.6834 13.2929 12.2929Z" fill="white"/>
</svg>
