<?xml version="1.0" encoding="utf-8"?>
<!-- Uploaded to: SVG Repo, www.svgrepo.com, Generator: SVG Repo Mixer Tools -->
<svg fill="#000000" version="1.1" id="Layer_1" xmlns="http://www.w3.org/2000/svg" xmlns:xlink="http://www.w3.org/1999/xlink" 
	 width="800px" height="800px" viewBox="0 0 210 256" enable-background="new 0 0 210 256" xml:space="preserve">
<path d="M174.55,144.5L174.55,144.5c-1.4-4-5-6.5-9.2-6.5H159V23c0-11.708-9.292-21-21-21H25C12.57,2,2,12.57,2,25v183
	c0,11.9,10.95,22,22.75,22l114.213,0c1.207,0,2.27,0.984,2.18,2.188c-0.095,1.266-1.153,1.812-2.393,1.812h-45.5L128,254h80
	L174.55,144.5z M82.05,220.2c-3.199,0-5.599-2.399-5.6-5.598c-0.001-3.045,2.557-5.602,5.602-5.602
	c3.199,0.001,5.598,2.401,5.598,5.6C87.55,217.8,85.25,220.2,82.05,220.2z M144,138h-19.65c-5.3,0-9.8,4.7-9.8,10l0,0
	c0,5.3,4.5,10,9.8,10h19.8v42H18V31h126V138z M68.357,75.357H38V45h30.357V75.357z M123,45v30.357H92.643V45H123z M38,99.643h30.357
	V130H38V99.643z M86.571,75.357V57.143H80.5v-6.072h6.071V45H74.428v18.214H80.5v6.071h-6.071v12.143H80.5v-6.071H86.571z
	 M38,81.429V87.5h6.071v-6.071H38z M116.929,87.5h-6.071v6.071v6.071H92.643v6.071h12.143v6.071v6.071h12.143v-6.071h-6.071v-6.071
	h6.071v-6.071v-6.071H123V87.5v-6.071h-6.071V87.5z M86.571,81.429H80.5V87.5h6.071V81.429z M98.714,93.571h6.071V87.5v-6.071
	H92.643V87.5h6.071L98.714,93.571L98.714,93.571z M44.071,93.571h6.071V87.5h-6.071V93.571z M80.5,87.5H62.286v-6.071H50.143V87.5
	h6.071v6.071h18.214v6.071H80.5v-6.071V87.5z M92.643,93.571h-6.071v6.071h6.071V93.571z M86.571,99.643H80.5v6.071h6.071V99.643z
	 M123,111.786v-6.071h-6.071v6.071H123z M86.571,111.786h6.071v-6.071h-6.071V111.786z M86.571,117.857v-6.071H80.5v-6.071h-6.071
	v6.071v6.071v6.071H80.5v-6.071H86.571z M98.714,117.857v-6.071h-6.071v6.071H98.714z M98.714,123.929H80.5V130h24.286v-6.071
	v-6.071h-6.071L98.714,123.929L98.714,123.929z M123,123.929v-6.071h-6.071v6.071H123z M110.857,130h6.071v-6.071h-6.071V130z"/>
</svg>