<svg width="24" height="24" viewBox="0 0 24 24" fill="none" xmlns="http://www.w3.org/2000/svg">
<path fill-rule="evenodd" clip-rule="evenodd" d="M6.58576 7.99988C6.85099 7.99989 7.10536 7.89454 7.29291 7.70699L11.2929 3.70701C11.9229 3.07704 13 3.52321 13 4.41411V19.5855C13 20.4764 11.9229 20.9226 11.2929 20.2926L7.29287 16.2928C7.10535 16.1052 6.85102 15.9999 6.58583 15.9999L3.9999 15.9998C2.89537 15.9997 2 15.1043 2 13.9998V9.99975C2 8.89515 2.89549 7.9997 4.0001 7.99975L6.58576 7.99988ZM11 17.1714V6.82833L8.70713 9.1212C8.14448 9.68385 7.38136 9.99992 6.58566 9.99988L4 9.99975V13.9998L6.58592 13.9999C7.3815 13.9999 8.14449 14.316 8.70706 14.8785L11 17.1714Z" fill="#FAF9F5"/>
<path d="M15.1718 9.17131C15.5623 8.78079 16.1955 8.78079 16.586 9.17131L18.0004 10.5857L19.4146 9.17144C19.8051 8.78091 20.4383 8.78091 20.8288 9.17144C21.2193 9.56196 21.2193 10.1951 20.8288 10.5857L19.4146 11.9999L20.8287 13.414C21.2192 13.8045 21.2192 14.4376 20.8287 14.8282C20.4381 15.2187 19.805 15.2187 19.4144 14.8282L18.0004 13.4141L16.5862 14.8283C16.1956 15.2188 15.5625 15.2188 15.172 14.8283C14.7814 14.4378 14.7814 13.8046 15.172 13.4141L16.5862 11.9999L15.1718 10.5855C14.7813 10.195 14.7813 9.56184 15.1718 9.17131Z" fill="#FAF9F5"/>
</svg>
