<svg width="48" height="48" viewBox="0 0 48 48" fill="none" xmlns="http://www.w3.org/2000/svg">
<path fill-rule="evenodd" clip-rule="evenodd" d="M30.3682 15.8438C31.0067 14.9426 32.255 14.7298 33.1562 15.3682C34.0574 16.0067 34.2702 17.255 33.6318 18.1562L22.4834 33.8955L13.7422 26.8262C12.8834 26.1315 12.7507 24.8715 13.4453 24.0127C14.14 23.1542 15.3991 23.0213 16.2578 23.7158L21.6836 28.1035L30.3682 15.8438Z" fill="#72B84C"/>
<path fill-rule="evenodd" clip-rule="evenodd" d="M24 2C36.1503 2 46 11.8497 46 24C46 36.1503 36.1503 46 24 46C11.8497 46 2 36.1503 2 24C2 11.8497 11.8497 2 24 2ZM24 6C14.0589 6 6 14.0589 6 24C6 33.9411 14.0589 42 24 42C33.9411 42 42 33.9411 42 24C42 14.0589 33.9411 6 24 6Z" fill="#72B84C"/>
</svg>

