<svg width="24" height="24" viewBox="0 0 24 24" fill="none" xmlns="http://www.w3.org/2000/svg">
<path fill-rule="evenodd" clip-rule="evenodd" d="M11.2611 2.8649C11.6461 2.4005 12.3539 2.4005 12.7389 2.8649C13.3833 3.64225 14.2423 4.74107 15.2308 6.18983C17.1468 8.99823 19 12.565 19 15.2242C19 18.9738 15.8774 22 12 22C8.12256 22 5 18.9738 5 15.2242C5 12.565 6.85317 8.99823 8.76923 6.18983C9.75767 4.74107 10.6167 3.64225 11.2611 2.8649ZM10.4213 7.31701C11.0019 6.46605 11.5344 5.74309 12 5.14162C12.4656 5.74309 12.9981 6.46605 13.5787 7.31701C14.4897 8.65228 15.3661 10.1404 16.0075 11.5779C16.6642 13.0499 17 14.3051 17 15.2242C17 17.8091 14.834 20 12 20C9.16596 20 7 17.8091 7 15.2242C7 14.3051 7.33577 13.0499 7.99254 11.5779C8.63391 10.1404 9.51033 8.65228 10.4213 7.31701Z" fill="white"/>
<path fill-rule="evenodd" clip-rule="evenodd" d="M10 14C10.5523 14 11 14.4477 11 15C11 15.1313 11.0259 15.2614 11.0761 15.3827C11.1264 15.504 11.2 15.6142 11.2929 15.7071C11.3858 15.8 11.496 15.8736 11.6173 15.9239C11.7386 15.9741 11.8687 16 12 16C12.5523 16 13 16.4477 13 17C13 17.5523 12.5523 18 12 18C11.606 18 11.2159 17.9224 10.8519 17.7716C10.488 17.6209 10.1573 17.3999 9.87868 17.1213C9.6001 16.8427 9.37913 16.512 9.22836 16.1481C9.0776 15.7841 9 15.394 9 15C9 14.4477 9.44772 14 10 14Z" fill="white"/>
</svg>
