<svg width="32" height="33" viewBox="0 0 32 33" fill="none" xmlns="http://www.w3.org/2000/svg">
<path fill-rule="evenodd" clip-rule="evenodd" d="M13 5.13977C13 3.48292 14.3431 2.13977 16 2.13977C17.6569 2.13977 19 3.48292 19 5.13977V13.1394C20.2144 14.0516 21 15.504 21 17.1398C21 19.9012 18.7614 22.1398 16 22.1398C13.2386 22.1398 11 19.9012 11 17.1398C11 15.504 11.7856 14.0516 13 13.1394V5.13977ZM15 14.1385L14.2012 14.7385C13.468 15.2893 13 16.1596 13 17.1398C13 18.7966 14.3431 20.1398 16 20.1398C17.6569 20.1398 19 18.7966 19 17.1398C19 16.1596 18.532 15.2892 17.7988 14.7385L17 14.1385V5.13977C17 4.58749 16.5523 4.13977 16 4.13977C15.4477 4.13977 15 4.58749 15 5.13977V14.1385Z" fill="white"/>
<path d="M21 4.13977C21 3.58749 21.4477 3.13977 22 3.13977H25C25.5523 3.13977 26 3.58749 26 4.13977C26 4.69206 25.5523 5.13977 25 5.13977H22C21.4477 5.13977 21 4.69206 21 4.13977Z" fill="white"/>
<path d="M22 7.13977C21.4477 7.13977 21 7.58749 21 8.13977C21 8.69206 21.4477 9.13977 22 9.13977H25C25.5523 9.13977 26 8.69206 26 8.13977C26 7.58749 25.5523 7.13977 25 7.13977H22Z" fill="white"/>
<path d="M21 12.1398C21 11.5875 21.4477 11.1398 22 11.1398H25C25.5523 11.1398 26 11.5875 26 12.1398C26 12.6921 25.5523 13.1398 25 13.1398H22C21.4477 13.1398 21 12.6921 21 12.1398Z" fill="white"/>
<path d="M13.758 25.9801C13.1444 25.5842 12.3559 25.5842 11.7422 25.9801C10.4685 26.8018 8.83171 26.8018 7.55799 25.9801C6.94439 25.5842 6.15585 25.5842 5.54225 25.9801C5.07816 26.2795 4.45923 26.146 4.15982 25.6819C3.86042 25.2178 3.99391 24.5989 4.45799 24.2995C5.73171 23.4777 7.36853 23.4777 8.64225 24.2995C9.25585 24.6954 10.0444 24.6954 10.658 24.2995C11.9317 23.4777 13.5685 23.4777 14.8422 24.2995C15.4559 24.6954 16.2444 24.6954 16.858 24.2995C18.1317 23.4777 19.7685 23.4777 21.0422 24.2995C21.6559 24.6954 22.4444 24.6954 23.058 24.2995C24.3317 23.4777 25.9685 23.4777 27.2422 24.2995C27.7063 24.5989 27.8398 25.2178 27.5404 25.6819C27.241 26.146 26.6221 26.2795 26.158 25.9801C25.5444 25.5842 24.7559 25.5842 24.1422 25.9801C22.8685 26.8018 21.2317 26.8018 19.958 25.9801C19.3444 25.5842 18.5559 25.5842 17.9422 25.9801C16.6685 26.8018 15.0317 26.8018 13.758 25.9801Z" fill="white"/>
<path d="M11.7423 29.9801C12.356 29.5842 13.1445 29.5842 13.7581 29.9801C15.0318 30.8018 16.6686 30.8018 17.9423 29.9801C18.556 29.5842 19.3445 29.5842 19.9581 29.9801C21.2318 30.8018 22.8686 30.8018 24.1423 29.9801C24.6064 29.6807 24.7399 29.0617 24.4405 28.5976C24.1411 28.1336 23.5222 28.0001 23.0581 28.2995C22.4445 28.6954 21.656 28.6954 21.0423 28.2995C19.7686 27.4777 18.1318 27.4777 16.8581 28.2995C16.2445 28.6954 15.4559 28.6954 14.8423 28.2995C13.5686 27.4777 11.9318 27.4777 10.6581 28.2995C10.0445 28.6954 9.25595 28.6954 8.64234 28.2995C8.17826 28.0001 7.55933 28.1336 7.25992 28.5976C6.96051 29.0617 7.09401 29.6807 7.55809 29.9801C8.8318 30.8018 10.4686 30.8018 11.7423 29.9801Z" fill="white"/>
</svg>
