<svg width="24" height="24" viewBox="0 0 24 24" fill="none" xmlns="http://www.w3.org/2000/svg">
<path d="M14 16C15.1046 16 16 15.1046 16 14C16 12.8954 15.1046 12 14 12C12.8954 12 12 12.8954 12 14C12 15.1046 12.8954 16 14 16Z" fill="white"/>
<path d="M11 13C11 13.5523 10.5523 14 10 14C9.44772 14 9 13.5523 9 13C9 12.4477 9.44772 12 10 12C10.5523 12 11 12.4477 11 13Z" fill="white"/>
<path d="M10.5 18C11.3284 18 12 17.3284 12 16.5C12 15.6716 11.3284 15 10.5 15C9.67157 15 9 15.6716 9 16.5C9 17.3284 9.67157 18 10.5 18Z" fill="white"/>
<path fill-rule="evenodd" clip-rule="evenodd" d="M11.2611 2.8649C11.6461 2.4005 12.3539 2.4005 12.7389 2.8649C13.3833 3.64225 14.2423 4.74107 15.2308 6.18983C17.1468 8.99823 19 12.565 19 15.2242C19 18.9738 15.8774 22 12 22C8.12256 22 5 18.9738 5 15.2242C5 12.565 6.85317 8.99823 8.76923 6.18983C9.75767 4.74107 10.6167 3.64225 11.2611 2.8649ZM10.4213 7.31701C11.0019 6.46605 11.5344 5.74309 12 5.14162C12.4656 5.74309 12.9981 6.46605 13.5787 7.31701C14.4897 8.65228 15.3661 10.1404 16.0075 11.5779C16.6642 13.0499 17 14.3051 17 15.2242C17 17.8091 14.834 20 12 20C9.16596 20 7 17.8091 7 15.2242C7 14.3051 7.33577 13.0499 7.99254 11.5779C8.63391 10.1404 9.51033 8.65228 10.4213 7.31701Z" fill="white"/>
</svg>
