<svg width="46" height="42" viewBox="0 0 46 42" fill="none" xmlns="http://www.w3.org/2000/svg">
<path fill-rule="evenodd" clip-rule="evenodd" d="M22.9998 3.19054L2.9961 39.8761H43.0036L22.9998 3.19054ZM24.3942 1.55715C23.7923 0.453281 22.2073 0.453282 21.6054 1.55715L0.897728 39.5337C0.320633 40.5921 1.08668 41.8823 2.29214 41.8823H43.7075C44.913 41.8823 45.679 40.5921 45.1019 39.5337L24.3942 1.55715Z" fill="white"/>
<path d="M21.9998 15.9999C21.9998 15.4476 22.4475 14.9999 22.9998 14.9999C23.5521 14.9999 23.9998 15.4476 23.9998 15.9999V27.9999C23.9998 28.5522 23.5521 28.9999 22.9998 28.9999C22.4475 28.9999 21.9998 28.5522 21.9998 27.9999V15.9999Z" fill="white"/>
<path d="M21.9998 31.9999C21.9998 31.4476 22.4475 30.9999 22.9998 30.9999C23.5521 30.9999 23.9998 31.4476 23.9998 31.9999C23.9998 32.5522 23.5521 32.9999 22.9998 32.9999C22.4475 32.9999 21.9998 32.5522 21.9998 31.9999Z" fill="white"/>
</svg>
