<svg width="32" height="32" viewBox="0 0 32 32" fill="none" xmlns="http://www.w3.org/2000/svg">
<path d="M19 23C20.6569 23 22 21.6568 22 20C22 18.3431 20.6569 17 19 17C17.3431 17 16 18.3431 16 20C16 21.6568 17.3431 23 19 23Z" fill="white"/>
<path d="M14 17C14 17.5523 13.5523 18 13 18C12.4477 18 12 17.5523 12 17C12 16.4477 12.4477 16 13 16C13.5523 16 14 16.4477 14 17Z" fill="white"/>
<path d="M12 24C13.1046 24 14 23.1046 14 22C14 20.8954 13.1046 20 12 20C10.8954 20 10 20.8954 10 22C10 23.1046 10.8954 24 12 24Z" fill="white"/>
<path fill-rule="evenodd" clip-rule="evenodd" d="M15.2641 2.83643C15.6526 2.38558 16.3474 2.38558 16.7359 2.83643C17.6826 3.93499 19.0329 5.59272 20.6154 7.86577C23.3526 11.7975 26 16.7911 26 20.5139C26 25.7634 21.5392 30 16 30C10.4608 30 6 25.7634 6 20.5139C6 16.7911 8.64738 11.7975 11.3846 7.86577C12.9671 5.59272 14.3174 3.93499 15.2641 2.83643ZM13.026 9.0085C14.1672 7.36936 15.1813 6.06348 16 5.06782C16.8187 6.06348 17.8328 7.36936 18.974 9.0085C20.2947 10.9055 21.5732 13.0306 22.5139 15.0969C23.4708 17.1987 24 19.0713 24 20.5139C24 24.5614 20.5347 28 16 28C11.4653 28 8 24.5614 8 20.5139C8 19.0713 8.52917 17.1987 9.48607 15.0969C10.4268 13.0306 11.7053 10.9055 13.026 9.0085Z" fill="white"/>
</svg>

