<?xml version="1.0" encoding="UTF-8"?>
<svg id="Layer_1" data-name="Layer 1" xmlns="http://www.w3.org/2000/svg" viewBox="0 0 28 26">
  <defs>
    <style>
      .cls-1 {
        fill-rule: evenodd;
      }

      .cls-1, .cls-2 {
        fill: #11263b;
      }
    </style>
  </defs>
  <path class="cls-2" d="M24,0c-2.21,0-4,1.79-4,4v18c0,2.21,1.79,4,4,4s4-1.79,4-4V4c0-2.21-1.79-4-4-4ZM24,2c1.1,0,2,.9,2,2v10h-4V4c0-1.1.9-2,2-2Z"/>
  <path class="cls-1" d="M14,0c-2.21,0-4,1.79-4,4v18c0,2.21,1.79,4,4,4s4-1.79,4-4V4c0-2.21-1.79-4-4-4ZM12,4c0-1.1.9-2,2-2s2,.9,2,2v18c0,.37-.11.7-.28,1h-3.45c-.17-.3-.28-.63-.28-1V4Z"/>
  <path class="cls-2" d="M4,0C1.79,0,0,1.79,0,4v18c0,2.21,1.79,4,4,4s4-1.79,4-4V4C8,1.79,6.21,0,4,0ZM4,24c-1.1,0-2-.9-2-2v-9h4v9c0,1.1-.9,2-2,2Z"/>
</svg>