<svg width="24" height="24" viewBox="0 0 24 24" fill="none" xmlns="http://www.w3.org/2000/svg">
<path d="M12.0001 5.14162C11.5345 5.74309 11.002 6.46605 10.4214 7.31701C9.64999 8.44769 8.90337 9.68797 8.30326 10.9143C7.38825 11.0432 6.65021 11.0093 6.09414 10.9263C6.80383 9.29825 7.77815 7.64257 8.7693 6.18983C9.75774 4.74107 10.6168 3.64225 11.2612 2.8649C11.6461 2.4005 12.354 2.4005 12.739 2.8649C13.3833 3.64225 14.2424 4.74107 15.2308 6.18983C15.8309 7.0693 16.4247 8.02314 16.9574 9.0002C16.2708 8.99623 15.5337 9.04395 14.7495 9.16023C14.3776 8.52767 13.9815 7.9074 13.5787 7.31701C12.9981 6.46605 12.4656 5.74309 12.0001 5.14162Z" fill="white"/>
<path d="M5.2041 16.8599C5.85661 16.9575 6.57541 17.0112 7.35595 16.9979C8.08196 18.7372 9.84848 20 12.0001 20C14.8341 20 17.0001 17.8091 17.0001 15.2242C17.0001 15.1518 16.998 15.0773 16.9938 15.0008C17.4297 15.0074 17.801 15.051 18.1068 15.107C18.4886 15.177 18.7873 15.2701 18.9989 15.3505C18.9297 19.0415 15.8339 22 12.0001 22C8.70607 22 5.95687 19.816 5.2041 16.8599Z" fill="white"/>
<path d="M12.3657 13.9307C15.0534 12.8749 17.1141 12.8917 18.4675 13.1399C19.1489 13.2648 19.6616 13.4504 19.9938 13.5977C20.1599 13.6714 20.2808 13.7355 20.3547 13.7774C20.3917 13.7984 20.4169 13.8138 20.4301 13.8221L20.4405 13.8287C20.895 14.1357 21.5128 14.0193 21.8241 13.5665C22.137 13.1114 22.0217 12.4888 21.5666 12.176L21.0001 13C21.5666 12.176 21.5656 12.1752 21.5656 12.1752L21.5644 12.1744L21.5619 12.1727L21.5559 12.1686L21.5401 12.1582C21.528 12.1502 21.5125 12.1402 21.4937 12.1284C21.4562 12.1048 21.4055 12.0741 21.3418 12.038C21.2144 11.9657 21.0349 11.8716 20.8047 11.7695C20.3443 11.5653 19.6808 11.329 18.8281 11.1726C17.1134 10.8583 14.6741 10.8751 11.6344 12.0692C8.94684 13.1251 6.88611 13.1083 5.53269 12.8601C4.85125 12.7352 4.33858 12.5496 4.0064 12.4023C3.84027 12.3286 3.71942 12.2645 3.64544 12.2226C3.60847 12.2016 3.58327 12.1861 3.57004 12.1778L3.55971 12.1712C3.10523 11.8642 2.48736 11.9807 2.17605 12.4335C1.86317 12.8886 1.97846 13.5112 2.43356 13.824L3.00009 13C2.43356 13.824 2.43464 13.8248 2.43464 13.8248L2.43579 13.8256L2.43832 13.8273L2.44432 13.8314L2.46007 13.8418C2.47222 13.8498 2.48769 13.8598 2.50645 13.8716C2.54396 13.8951 2.59467 13.9259 2.65837 13.962C2.78574 14.0343 2.96532 14.1284 3.19549 14.2305C3.65592 14.4347 4.31939 14.671 5.17204 14.8274C6.88681 15.1417 9.32608 15.1249 12.3657 13.9307Z" fill="white"/>
</svg>
