<svg width="241" height="241" viewBox="0 0 241 241" fill="none" xmlns="http://www.w3.org/2000/svg">
<g transform="rotate(-15 120.03 120.03)">
<circle cx="120.03" cy="120.03" r="114" transform="rotate(15 120.03 120.03)" fill="#FEF0DC" stroke="#F0962E" stroke-width="12"/>
<path d="M31.2815 96.0273C31.2563 95.8315 31.3094 95.6334 31.4291 95.4765C31.4099 95.5016 31.4531 95.4203 31.8433 95.2437C32.2379 95.0652 32.7918 94.8716 33.6585 94.5705L46.2024 90.2115C47.2713 89.8401 47.9751 89.597 48.503 89.4661C48.909 89.3654 49.0655 89.3719 49.0958 89.3742L49.1645 89.4007C49.3381 89.4793 49.476 89.6217 49.5489 89.7999C49.5273 89.7469 49.5919 89.8384 49.4971 90.3896C49.4048 90.9256 49.2131 91.6454 48.9203 92.7383L45.0603 107.144C44.7674 108.237 44.5735 108.956 44.3854 109.467C44.1919 109.991 44.0902 110.038 44.1354 110.003C43.9832 110.121 43.7925 110.176 43.603 110.157L43.5302 110.145C43.5028 110.132 43.364 110.06 43.0627 109.769C42.671 109.392 42.183 108.83 41.4431 107.974L32.7592 97.9267C32.1592 97.2325 31.7763 96.7879 31.5238 96.436C31.2742 96.088 31.2775 95.996 31.2815 96.0273Z" stroke="black" stroke-width="3" fill="none"/>
<path d="M210.338 144.005C210.458 143.848 210.511 143.65 210.486 143.455C210.49 143.486 210.493 143.394 210.243 143.046C209.991 142.694 209.608 142.249 209.008 141.555L200.324 131.508C199.584 130.652 199.096 130.09 198.704 129.713C198.403 129.422 198.264 129.35 198.237 129.337L198.164 129.325C197.975 129.306 197.784 129.361 197.632 129.479C197.677 129.444 197.575 129.491 197.382 130.015C197.194 130.526 197 131.245 196.707 132.338L192.847 146.744C192.554 147.837 192.362 148.556 192.27 149.092C192.175 149.643 192.24 149.735 192.218 149.682C192.291 149.86 192.429 150.003 192.603 150.081L192.671 150.108C192.702 150.11 192.858 150.116 193.264 150.016C193.792 149.885 194.496 149.642 195.565 149.27L208.109 144.911C208.975 144.61 209.529 144.417 209.924 144.238C210.314 144.062 210.357 143.98 210.338 144.005Z" stroke="black" stroke-width="3" fill="none"/>
<mask id="path-4-outside-1_pitch_tilted_light" maskUnits="userSpaceOnUse" x="45.4603" y="65.0825" width="149.622" height="110.024" fill="black">
<rect fill="white" x="45.4603" y="65.0825" width="149.622" height="110.024"/>
<path d="M153.966 91.8531C163.512 94.411 168.286 95.6901 171.655 98.9819C175.025 102.274 176.415 107.016 179.195 116.5L179.806 118.584C181.698 125.037 182.644 128.265 182.394 131.543C182.144 134.82 180.719 137.866 177.871 143.958L173.067 154.232C171.794 156.954 171.158 158.315 169.922 158.891C168.686 159.467 167.234 159.078 164.332 158.3L163.673 158.124C163.634 158.314 163.591 158.506 163.54 158.696C162.146 163.897 156.8 166.984 151.599 165.591C146.397 164.197 143.311 158.851 144.704 153.65C144.755 153.459 144.814 153.271 144.875 153.087L90.5901 138.541C90.5601 138.675 90.529 138.81 90.4931 138.945C89.0993 144.146 83.7529 147.232 78.5518 145.839C73.3506 144.445 70.264 139.099 71.6575 133.898C71.6935 133.763 71.7342 133.631 71.7753 133.5L59.0966 130.102C55.6817 129.187 53.9744 128.729 53.1977 127.384C52.4211 126.039 52.8783 124.332 53.7933 120.917L66.2166 74.5523C66.9486 71.8204 67.3149 70.4545 68.391 69.8332C69.4671 69.2121 70.8333 69.5777 73.5651 70.3097L153.966 91.8531Z"/>
</mask>
<path d="M153.966 91.8531L154.743 88.9553L153.966 91.8531ZM171.655 98.9819L173.752 96.836L173.752 96.836L171.655 98.9819ZM179.195 116.5L176.316 117.344L176.316 117.345L179.195 116.5ZM179.806 118.584L182.685 117.74L182.685 117.739L179.806 118.584ZM182.394 131.543L185.385 131.771L185.385 131.771L182.394 131.543ZM177.871 143.958L180.589 145.229L180.589 145.229L177.871 143.958ZM173.067 154.232L170.349 152.961L170.349 152.961L173.067 154.232ZM169.922 158.891L171.188 161.611L171.188 161.611L169.922 158.891ZM163.673 158.124L164.45 155.226L161.374 154.402L160.734 157.52L163.673 158.124ZM163.54 158.696L166.438 159.473L166.438 159.473L163.54 158.696ZM144.704 153.65L141.807 152.873L141.807 152.873L144.704 153.65ZM144.875 153.087L147.722 154.034L148.727 151.013L145.652 150.189L144.875 153.087ZM90.5901 138.541L91.3666 135.643L88.345 134.834L87.6624 137.886L90.5901 138.541ZM90.4931 138.945L93.3908 139.721L93.3909 139.721L90.4931 138.945ZM78.5518 145.839L77.7754 148.737L77.7754 148.737L78.5518 145.839ZM71.6575 133.898L68.7597 133.121L68.7597 133.121L71.6575 133.898ZM71.7753 133.5L74.6381 134.397L75.5734 131.411L72.5518 130.602L71.7753 133.5ZM59.0966 130.102L58.3201 133L59.0966 130.102ZM53.1977 127.384L50.5996 128.884L50.5997 128.885L53.1977 127.384ZM53.7933 120.917L50.8955 120.14L53.7933 120.917ZM66.2166 74.5523L63.3188 73.7759L66.2166 74.5523ZM68.391 69.8332L66.8913 67.235L66.8909 67.2352L68.391 69.8332ZM73.5651 70.3097L74.3415 67.4119L73.5651 70.3097ZM153.966 91.8531L153.19 94.7509C158.018 96.0446 161.434 96.9634 164.075 97.9519C166.656 98.9178 168.276 99.8746 169.559 101.128L171.655 98.9819L173.752 96.836C171.665 94.7975 169.214 93.4688 166.179 92.3327C163.204 91.2192 159.461 90.2195 154.743 88.9553L153.966 91.8531ZM171.655 98.9819L169.559 101.128C170.842 102.381 171.836 103.979 172.862 106.536C173.912 109.153 174.91 112.547 176.316 117.344L179.195 116.5L182.074 115.656C180.7 110.969 179.613 107.25 178.431 104.302C177.224 101.294 175.839 98.8746 173.752 96.836L171.655 98.9819ZM179.195 116.5L176.316 117.345L176.928 119.428L179.806 118.584L182.685 117.739L182.073 115.655L179.195 116.5ZM179.806 118.584L176.927 119.427C178.881 126.094 179.601 128.71 179.403 131.314L182.394 131.543L185.385 131.771C185.686 127.82 184.515 123.981 182.685 117.74L179.806 118.584ZM182.394 131.543L179.403 131.314C179.204 133.919 178.096 136.395 175.153 142.687L177.871 143.958L180.589 145.229C183.343 139.338 185.084 135.721 185.385 131.771L182.394 131.543ZM177.871 143.958L175.154 142.687L170.349 152.961L173.067 154.232L175.784 155.503L180.589 145.229L177.871 143.958ZM173.067 154.232L170.349 152.961C169.68 154.392 169.291 155.212 168.94 155.771C168.634 156.259 168.552 156.22 168.655 156.171L169.922 158.891L171.188 161.611C172.528 160.986 173.382 159.979 174.021 158.962C174.616 158.015 175.181 156.794 175.785 155.502L173.067 154.232ZM169.922 158.891L168.655 156.171C168.759 156.123 168.736 156.211 168.165 156.132C167.512 156.041 166.633 155.811 165.108 155.402L164.332 158.3L163.555 161.198C164.932 161.567 166.231 161.92 167.338 162.074C168.528 162.24 169.848 162.234 171.188 161.611L169.922 158.891ZM164.332 158.3L165.108 155.402L164.45 155.226L163.673 158.124L162.897 161.021L163.555 161.198L164.332 158.3ZM163.673 158.124L160.734 157.52C160.702 157.676 160.673 157.806 160.642 157.92L163.54 158.696L166.438 159.473C166.509 159.206 166.566 158.953 166.612 158.727L163.673 158.124ZM163.54 158.696L160.642 157.92C159.677 161.521 155.976 163.658 152.375 162.693L151.599 165.591L150.822 168.489C157.624 170.311 164.615 166.274 166.438 159.473L163.54 158.696ZM151.599 165.591L152.375 162.693C148.774 161.728 146.637 158.027 147.602 154.426L144.704 153.65L141.807 152.873C139.984 159.674 144.02 166.666 150.822 168.489L151.599 165.591ZM144.704 153.65L147.602 154.426C147.633 154.312 147.672 154.184 147.722 154.034L144.875 153.087L142.029 152.14C141.956 152.358 141.878 152.606 141.807 152.873L144.704 153.65ZM144.875 153.087L145.652 150.189L91.3666 135.643L90.5901 138.541L89.8137 141.439L144.099 155.984L144.875 153.087ZM90.5901 138.541L87.6624 137.886C87.6338 138.014 87.6141 138.098 87.5953 138.168L90.4931 138.945L93.3909 139.721C93.444 139.523 93.4864 139.336 93.5178 139.196L90.5901 138.541ZM90.4931 138.945L87.5953 138.168C86.6304 141.769 82.929 143.906 79.3282 142.941L78.5518 145.839L77.7754 148.737C84.5769 150.559 91.5682 146.523 93.3908 139.721L90.4931 138.945ZM78.5518 145.839L79.3283 142.941C75.7276 141.976 73.5906 138.275 74.5553 134.674L71.6575 133.898L68.7597 133.121C66.9375 139.923 70.9737 146.914 77.7754 148.737L78.5518 145.839ZM71.6575 133.898L74.5553 134.674C74.5741 134.604 74.5989 134.522 74.6381 134.397L71.7753 133.5L68.9126 132.603C68.8694 132.74 68.8129 132.923 68.7597 133.121L71.6575 133.898ZM71.7753 133.5L72.5518 130.602L59.8731 127.205L59.0966 130.102L58.3201 133L70.9989 136.397L71.7753 133.5ZM59.0966 130.102L59.8731 127.205C58.0839 126.725 57.035 126.437 56.3138 126.136C55.6728 125.869 55.7243 125.761 55.7957 125.884L53.1977 127.384L50.5997 128.885C51.4478 130.353 52.7414 131.147 54.0019 131.673C55.1822 132.166 56.6944 132.565 58.3201 133L59.0966 130.102ZM53.1977 127.384L55.7958 125.884C55.8672 126.008 55.7479 125.999 55.8366 125.31C55.9364 124.535 56.2117 123.482 56.6911 121.693L53.7933 120.917L50.8955 120.14C50.4599 121.766 50.0491 123.275 49.8857 124.544C49.7112 125.898 49.7516 127.415 50.5996 128.884L53.1977 127.384ZM53.7933 120.917L56.6911 121.693L69.1144 75.3288L66.2166 74.5523L63.3188 73.7759L50.8955 120.14L53.7933 120.917ZM66.2166 74.5523L69.1144 75.3288C69.5023 73.8811 69.7214 73.0883 69.9432 72.5572C70.1314 72.1064 70.1493 72.2822 69.8911 72.4313L68.391 69.8332L66.8909 67.2352C65.5567 68.0056 64.8533 69.175 64.4064 70.2454C63.993 71.2355 63.6629 72.4917 63.3188 73.7759L66.2166 74.5523ZM68.391 69.8332L69.8907 72.4315C69.6326 72.5804 69.4894 72.4771 69.9741 72.5395C70.5449 72.613 71.3411 72.8196 72.7886 73.2075L73.5651 70.3097L74.3415 67.4119C73.0573 67.0678 71.8045 66.7256 70.7403 66.5886C69.5898 66.4405 68.2255 66.4648 66.8913 67.235L68.391 69.8332ZM73.5651 70.3097L72.7886 73.2075L153.19 94.7509L153.966 91.8531L154.743 88.9553L74.3415 67.4119L73.5651 70.3097Z" fill="#F0962E" mask="url(#path-4-outside-1_pitch_tilted_light)"/>
<rect x="81.5113" y="79.427" width="30" height="18" rx="3" transform="rotate(15 81.5113 79.427)" stroke="#F0962E" stroke-width="3"/>
<path d="M159.309 100.273C162.354 101.089 163.592 101.434 164.621 102.047C165.718 102.7 166.663 103.58 167.394 104.626C168.08 105.608 168.515 106.818 169.55 109.796L170.562 112.709C171.295 114.818 171.809 116.303 172.091 117.441C172.377 118.595 172.351 119.131 172.252 119.437C171.978 120.274 171.351 120.949 170.536 121.282C170.238 121.404 169.705 121.469 168.533 121.267C167.377 121.068 165.859 120.663 163.702 120.085L154.803 117.7C153.562 117.368 152.718 117.14 152.08 116.912C151.459 116.69 151.159 116.509 150.964 116.333C150.493 115.909 150.169 115.347 150.037 114.728C149.982 114.47 149.975 114.12 150.093 113.471C150.215 112.805 150.44 111.96 150.772 110.719L152.521 104.192C152.834 103.024 153.048 102.23 153.26 101.628C153.466 101.041 153.633 100.755 153.793 100.567C154.24 100.042 154.855 99.6865 155.534 99.5616C155.777 99.517 156.108 99.5162 156.72 99.6306C157.347 99.748 158.141 99.9599 159.309 100.273Z" stroke="#F0962E" stroke-width="3"/>
<path d="M123.964 90.8021L141.205 95.4219C142.446 95.7545 143.29 95.9821 143.928 96.2101C144.549 96.4322 144.849 96.6132 145.045 96.7894C145.515 97.2132 145.84 97.7751 145.971 98.3945C146.026 98.652 146.033 99.0023 145.915 99.6511C145.793 100.318 145.568 101.162 145.236 102.403L135.569 138.48C135.237 139.721 135.009 140.565 134.781 141.203C134.559 141.824 134.378 142.124 134.202 142.32C133.778 142.79 133.216 143.115 132.597 143.246C132.339 143.301 131.989 143.308 131.34 143.19C130.673 143.068 129.829 142.843 128.588 142.511L111.346 137.891C110.105 137.558 109.262 137.331 108.624 137.103C108.003 136.881 107.703 136.7 107.507 136.524C107.036 136.1 106.712 135.538 106.58 134.918C106.526 134.661 106.519 134.311 106.637 133.662C106.758 132.995 106.983 132.151 107.316 130.91L116.983 94.8328C117.315 93.5917 117.543 92.7479 117.771 92.11C117.993 91.4889 118.174 91.189 118.35 90.9934C118.774 90.5228 119.336 90.1984 119.955 90.0667C120.213 90.0119 120.563 90.0051 121.212 90.1233C121.878 90.2448 122.723 90.4696 123.964 90.8021Z" stroke="#F0962E" stroke-width="3"/>
<rect x="121.606" y="94.829" width="20.25" height="15" rx="1.5" transform="rotate(15 121.606 94.829)" stroke="#F0962E" stroke-width="3"/>
<line x1="74.4758" y1="104.718" x2="103.454" y2="112.482" stroke="#F0962E" stroke-width="3" stroke-linecap="round"/>
<line x1="146.92" y1="124.129" x2="173.725" y2="131.311" stroke="#F0962E" stroke-width="3" stroke-linecap="round"/>
</g>
</svg>
