<svg width="32" height="32" viewBox="0 0 32 32" fill="none" xmlns="http://www.w3.org/2000/svg">
<g clip-path="url(#clip0_10290_269486)">
<circle cx="16" cy="16" r="3" stroke="white" stroke-width="2"/>
<path d="M24.4679 24.0948C23.5892 24.3145 22.1237 24.0603 20.7066 23.1434C19.353 22.2676 18.1693 20.8621 17.7134 18.9639C17.7244 18.783 17.7658 18.6536 17.8275 18.5435C17.9045 18.4062 18.0505 18.2331 18.3505 18.0247C18.9843 17.5843 20.0987 17.1216 22.0111 16.5189C23.086 16.1801 24.2476 16.054 25.2539 16.179C26.2717 16.3054 27.0134 16.6699 27.4296 17.1901C28.1502 18.091 28.3134 19.5706 27.7727 21.0304C27.2423 22.4624 26.0952 23.688 24.4679 24.0948Z" stroke="white" stroke-width="2"/>
<path d="M4.64897 19.3401C4.89809 18.4693 5.85093 17.3272 7.35358 16.5584C8.78885 15.8241 10.5979 15.5018 12.4697 16.056C12.6209 16.156 12.7123 16.2565 12.7768 16.365C12.8572 16.5003 12.9341 16.7133 12.9646 17.0773C13.0291 17.8465 12.8726 19.0429 12.4384 21.0004C12.1943 22.1007 11.7227 23.1697 11.1113 23.9787C10.493 24.7969 9.80645 25.2571 9.14786 25.3574C8.0073 25.531 6.64433 24.9326 5.65042 23.7343C4.67548 22.559 4.1876 20.9528 4.64897 19.3401Z" stroke="white" stroke-width="2"/>
<path d="M18.6766 4.554C19.3062 5.20516 19.8188 6.60137 19.7333 8.28709C19.6516 9.89724 19.0262 11.6251 17.6103 12.969C17.4481 13.0499 17.3154 13.0788 17.1892 13.0804C17.0318 13.0824 16.8089 13.0425 16.4784 12.8869C15.78 12.5582 14.8222 11.8245 13.344 10.4697C12.5132 9.70816 11.8231 8.76525 11.4282 7.83127C11.0288 6.88663 10.9736 6.06202 11.216 5.44153C11.6359 4.36693 12.8357 3.48581 14.3703 3.22416C15.8757 2.96751 17.5106 3.34809 18.6766 4.554Z" stroke="white" stroke-width="2"/>
</g>
<defs>
<clipPath id="clip0_10290_269486">
<rect width="32" height="32" fill="white"/>
</clipPath>
</defs>
</svg>
