<svg width="24" height="24" viewBox="0 0 24 24" fill="none" xmlns="http://www.w3.org/2000/svg">
<path d="M13.4594 4.56612C14.9657 4.21168 16.5338 4.21168 18.0402 4.56612L19.7707 4.97331C20.3083 5.09981 20.8467 4.76654 20.9732 4.22894C21.0997 3.69133 20.7664 3.15297 20.2288 3.02648L18.4982 2.61929C16.6906 2.19396 14.8089 2.19396 13.0013 2.61929L9.54015 3.43367C8.03379 3.78811 6.46573 3.78811 4.95937 3.43367L3.2288 3.02648C2.69119 2.89998 2.15284 3.23325 2.02634 3.77086C1.89985 4.30846 2.23312 4.84682 2.77072 4.97331L4.50129 5.38051C6.30892 5.80583 8.1906 5.80583 9.99823 5.38051L13.4594 4.56612Z" fill="white"/>
<path d="M17.9998 16.9999C17.9998 17.5522 17.5521 17.9999 16.9998 17.9999C16.4475 17.9999 15.9998 17.5522 15.9998 16.9999C15.9998 16.4476 16.4475 15.9999 16.9998 15.9999C17.5521 15.9999 17.9998 16.4476 17.9998 16.9999Z" fill="white"/>
<path fill-rule="evenodd" clip-rule="evenodd" d="M6.98497 15.6419L6.59979 15.8559L3.48546 14.1257C3.00268 13.8575 2.39388 14.0315 2.12566 14.5142C1.85745 14.997 2.03139 15.6058 2.51418 15.874L4.54055 16.9998L2.51409 18.1255C2.03129 18.3937 1.85732 19.0025 2.12552 19.4853C2.39371 19.9681 3.0025 20.1421 3.4853 19.8739L6.59974 18.1438L6.98501 18.3578C7.44308 18.6484 7.96756 18.9672 8.56115 19.3076C10.9483 20.6762 13.9801 21.9999 16.2404 21.9999C19.4275 21.9999 21.9998 19.7695 21.9998 16.9999C21.9998 14.2303 19.4275 11.9999 16.2404 11.9999C13.9801 11.9999 10.9483 13.3236 8.56115 14.6922C7.96754 15.0325 7.44306 15.3514 6.98497 15.6419ZM8.588 16.9999C8.88553 17.1816 9.20796 17.373 9.55591 17.5725C10.6815 18.2178 11.9371 18.8393 13.1505 19.2943C14.3911 19.7594 15.4555 19.9999 16.2404 19.9999C18.5986 19.9999 19.9998 18.4081 19.9998 16.9999C19.9998 15.5916 18.5986 13.9999 16.2404 13.9999C15.4555 13.9999 14.3911 14.2403 13.1505 14.7055C11.9371 15.1604 10.6815 15.7819 9.55591 16.4272C9.20796 16.6267 8.88553 16.8181 8.588 16.9999Z" fill="white"/>
<path d="M18.9998 8.99988C18.9998 9.55216 18.5521 9.99988 17.9998 9.99988C17.4475 9.99988 16.9998 9.55216 16.9998 8.99988C16.9998 8.44759 17.4475 7.99988 17.9998 7.99988C18.5521 7.99988 18.9998 8.44759 18.9998 8.99988Z" fill="white"/>
<path d="M14.9998 7.99988C15.5521 7.99988 15.9998 7.55216 15.9998 6.99988C15.9998 6.44759 15.5521 5.99988 14.9998 5.99988C14.4475 5.99988 13.9998 6.44759 13.9998 6.99988C13.9998 7.55216 14.4475 7.99988 14.9998 7.99988Z" fill="white"/>
</svg>
