<svg width="240" height="240" viewBox="0 0 240 240" fill="none" xmlns="http://www.w3.org/2000/svg">
<circle cx="120" cy="120" r="114" fill="#EEF8E6" stroke="#72B84C" stroke-width="12"/>
<path d="M29.14 122.479C27.6689 121.481 26.9333 120.982 26.6759 120.355C26.4508 119.807 26.4508 119.193 26.6759 118.645C26.9333 118.018 27.6689 117.519 29.14 116.521L40.1286 109.065C41.9522 107.827 42.8641 107.208 43.6212 107.249C44.2807 107.285 44.8913 107.608 45.2911 108.134C45.75 108.738 45.75 109.84 45.75 112.043L45.75 126.957C45.75 129.16 45.75 130.262 45.2911 130.866C44.8913 131.392 44.2807 131.715 43.6212 131.751C42.8641 131.792 41.9522 131.173 40.1286 129.935L29.14 122.479Z" fill="black"/>
<path d="M212.36 122.479C213.831 121.481 214.567 120.982 214.824 120.355C215.049 119.807 215.049 119.193 214.824 118.645C214.567 118.018 213.831 117.519 212.36 116.521L201.371 109.065C199.548 107.827 198.636 107.208 197.879 107.249C197.219 107.285 196.609 107.608 196.209 108.134C195.75 108.738 195.75 109.84 195.75 112.043L195.75 126.957C195.75 129.16 195.75 130.262 196.209 130.866C196.609 131.392 197.219 131.715 197.879 131.751C198.636 131.792 199.548 131.173 201.371 129.935L212.36 122.479Z" fill="black"/>
<path d="M95.0996 82.5H144.9C146.605 82.5 147.794 82.5016 148.719 82.5771C149.626 82.6513 150.148 82.789 150.543 82.9902C151.39 83.4217 152.078 84.1103 152.51 84.957C152.711 85.352 152.849 85.8737 152.923 86.7812C152.998 87.7064 153 88.8949 153 90.5996V153C153 154.075 152.999 154.791 152.954 155.341C152.911 155.873 152.834 156.117 152.755 156.271C152.539 156.695 152.195 157.039 151.771 157.255C151.617 157.334 151.373 157.411 150.841 157.454C150.291 157.499 149.575 157.5 148.5 157.5H145.5C144.425 157.5 143.709 157.499 143.159 157.454C142.76 157.421 142.523 157.369 142.364 157.312L142.229 157.255C141.805 157.039 141.461 156.695 141.245 156.271C141.166 156.117 141.089 155.873 141.046 155.341C141.001 154.791 141 154.075 141 153V147H99V153C99 154.075 98.999 154.791 98.9541 155.341C98.9106 155.873 98.8335 156.117 98.7549 156.271C98.5392 156.695 98.1949 157.039 97.7715 157.255C97.6171 157.334 97.3733 157.411 96.8408 157.454C96.2908 157.499 95.5748 157.5 94.5 157.5H91.5C90.4252 157.5 89.7092 157.499 89.1592 157.454C88.6267 157.411 88.3829 157.334 88.2285 157.255C87.8051 157.039 87.4608 156.695 87.2451 156.271C87.1665 156.117 87.0894 155.873 87.0459 155.341C87.001 154.791 87 154.075 87 153V90.5996C87 88.8949 87.0016 87.7064 87.0771 86.7812C87.1513 85.8737 87.289 85.352 87.4902 84.957C87.9217 84.1103 88.6103 83.4217 89.457 82.9902C89.852 82.789 90.3737 82.6513 91.2812 82.5771C92.2064 82.5016 93.3949 82.5 95.0996 82.5Z" stroke="#72B84C" stroke-width="3"/>
<rect x="103.25" y="90.75" width="34.5" height="14.25" rx="3" stroke="#72B84C" stroke-width="3"/>
<rect x="91.5" y="126.75" width="3" height="12" rx="1.5" fill="#72B84C"/>
<rect x="145.5" y="126.75" width="3" height="12" rx="1.5" fill="#72B84C"/>
<line x1="95" y1="117" x2="146" y2="117" stroke="#72B84C" stroke-width="3" stroke-linecap="round"/>
</svg>
