<svg width="32" height="32" viewBox="0 0 32 32" fill="none" xmlns="http://www.w3.org/2000/svg">
<path d="M15.0005 12C15.0005 11.4477 15.4482 11 16.0005 11C16.5528 11 17.0005 11.4477 17.0005 12V18C17.0005 18.5523 16.5528 19 16.0005 19C15.4482 19 15.0005 18.5523 15.0005 18V12Z" fill="#F35C58"/>
<path d="M16.0005 21C15.4482 21 15.0005 21.4477 15.0005 22C15.0005 22.5523 15.4482 23 16.0005 23C16.5528 23 17.0005 22.5523 17.0005 22C17.0005 21.4477 16.5528 21 16.0005 21Z" fill="#F35C58"/>
<path fill-rule="evenodd" clip-rule="evenodd" d="M16.8785 2.61014C16.4995 1.91511 15.5015 1.91511 15.1225 2.61014L2.08439 26.5213C1.72103 27.1877 2.20335 28 2.96235 28H29.0387C29.7977 28 30.28 27.1877 29.9166 26.5213L16.8785 2.61014ZM16.0005 5.17772L4.64663 26H27.3544L16.0005 5.17772Z" fill="#F35C58"/>
</svg>
