<svg width="61" height="76" viewBox="0 0 61 76" fill="none" xmlns="http://www.w3.org/2000/svg">
<g opacity="0.6">
<path fill-rule="evenodd" clip-rule="evenodd" d="M14.5 20C17.5376 20 20 17.5376 20 14.5C20 11.4624 17.5376 9 14.5 9C11.4624 9 9 11.4624 9 14.5C9 17.5376 11.4624 20 14.5 20ZM14.5 23C19.1944 23 23 19.1944 23 14.5C23 9.80558 19.1944 6 14.5 6C9.80558 6 6 9.80558 6 14.5C6 19.1944 9.80558 23 14.5 23Z" fill="white"/>
<path d="M14.5 4C15.3284 4 16 3.32843 16 2.5C16 1.67157 15.3284 1 14.5 1C13.6716 1 13 1.67157 13 2.5C13 3.32843 13.6716 4 14.5 4Z" fill="white"/>
<path d="M14.5 28C15.3284 28 16 27.3284 16 26.5C16 25.6716 15.3284 25 14.5 25C13.6716 25 13 25.6716 13 26.5C13 27.3284 13.6716 28 14.5 28Z" fill="white"/>
<path d="M26.5 16C25.6716 16 25 15.3284 25 14.5C25 13.6716 25.6716 13 26.5 13C27.3284 13 28 13.6716 28 14.5C28 15.3284 27.3284 16 26.5 16Z" fill="white"/>
<path d="M1 14.5C1 15.3284 1.67157 16 2.5 16C3.32843 16 4 15.3284 4 14.5C4 13.6716 3.32843 13 2.5 13C1.67157 13 1 13.6716 1 14.5Z" fill="white"/>
<path d="M24.045 7.07261C23.4592 7.65839 22.5095 7.65839 21.9237 7.07261C21.3379 6.48682 21.3379 5.53707 21.9237 4.95129C22.5095 4.3655 23.4592 4.3655 24.045 4.95129C24.6308 5.53707 24.6308 6.48682 24.045 7.07261Z" fill="white"/>
<path d="M4.95496 24.0492C5.54075 24.635 6.4905 24.635 7.07629 24.0492C7.66207 23.4634 7.66207 22.5136 7.07629 21.9278C6.4905 21.3421 5.54075 21.3421 4.95496 21.9278C4.36918 22.5136 4.36918 23.4634 4.95496 24.0492Z" fill="white"/>
<path d="M21.9254 24.045C21.3397 23.4592 21.3397 22.5095 21.9254 21.9237C22.5112 21.3379 23.461 21.3379 24.0468 21.9237C24.6325 22.5095 24.6325 23.4592 24.0468 24.045C23.461 24.6308 22.5112 24.6308 21.9254 24.045Z" fill="white"/>
<path d="M4.95474 4.95496C4.36895 5.54075 4.36895 6.4905 4.95474 7.07628C5.54052 7.66207 6.49027 7.66207 7.07606 7.07628C7.66185 6.4905 7.66185 5.54075 7.07606 4.95496C6.49027 4.36918 5.54052 4.36918 4.95474 4.95496Z" fill="white"/>
<path d="M40.5 5C39.6716 5 39 5.67157 39 6.5V22.256C39.4692 22.0902 39.9741 22 40.5 22C41.026 22 41.5309 22.0902 42 22.2561V6.5C42 5.67157 41.3285 5 40.5 5Z" fill="white"/>
<path d="M44.9244 27.3259C44.7329 28.3584 44.1888 29.2671 43.4219 29.9225L57.0682 37.8012C57.7856 38.2154 58.703 37.9696 59.1172 37.2522C59.5314 36.5347 59.2856 35.6173 58.5682 35.2031L44.9244 27.3259Z" fill="white"/>
<path d="M36.0749 27.322C36.2655 28.3547 36.8088 29.2639 37.5751 29.9199L23.9319 37.7969C23.2145 38.2111 22.2971 37.9653 21.8829 37.2478C21.4686 36.5304 21.7145 35.613 22.4319 35.1988L36.0749 27.322Z" fill="white"/>
<path d="M42 26.5C42 27.3284 41.3284 28 40.5 28C39.6716 28 39 27.3284 39 26.5C39 25.6716 39.6716 25 40.5 25C41.3284 25 42 25.6716 42 26.5Z" fill="white"/>
<path d="M40.5 30.9982C41.026 30.9982 41.5308 30.908 42 30.7422V71.9982H45.5C46.3284 71.9982 47 72.6698 47 73.4982C47 74.3267 46.3284 74.9982 45.5 74.9982H35.5C34.6716 74.9982 34 74.3267 34 73.4982C34 72.6698 34.6716 71.9982 35.5 71.9982H39V30.7422C39.4692 30.908 39.974 30.9982 40.5 30.9982Z" fill="white"/>
</g>
</svg>
