<svg width="24" height="24" viewBox="0 0 24 24" fill="none" xmlns="http://www.w3.org/2000/svg">
  <!-- Simplified Electric Vehicle icon optimized for small sizes -->
  
  <!-- Main car body - single stroke -->
  <path d="M4 15.5C4 14.6716 4.67157 14 5.5 14H18.5C19.3284 14 20 14.6716 20 15.5V16.5C20 17.3284 19.3284 18 18.5 18H5.5C4.67157 18 4 17.3284 4 16.5V15.5Z" 
        stroke="currentColor" 
        stroke-width="1.5"/>
  
  <!-- Car windshield/roof -->
  <path d="M6.5 14C6.5 14 7.5 10.5 8.5 10C9.5 9.5 14.5 9.5 15.5 10C16.5 10.5 17.5 14 17.5 14" 
        stroke="currentColor" 
        stroke-width="1.5" 
        stroke-linecap="round" 
        stroke-linejoin="round"/>
  
  <!-- Front wheel -->
  <circle cx="7.5" cy="16" r="1.2" 
          stroke="currentColor" 
          stroke-width="1.5" 
          fill="none"/>
  
  <!-- Rear wheel -->
  <circle cx="16.5" cy="16" r="1.2" 
          stroke="currentColor" 
          stroke-width="1.5" 
          fill="none"/>
  
  <!-- Electric lightning bolt - more prominent -->
  <path d="M12.5 4L10.5 7H13L11 10.5" 
        stroke="currentColor" 
        stroke-width="2" 
        stroke-linecap="round" 
        stroke-linejoin="round"/>
</svg>