<svg width="24" height="24" viewBox="0 0 24 24" fill="none" xmlns="http://www.w3.org/2000/svg">
<path d="M12 2C12.3375 2 12.6711 2.01672 13 2.04938V4.06189C12.6724 4.02104 12.3387 4 12 4C7.58172 4 4 7.58172 4 12C4 16.4183 7.58172 20 12 20C16.4183 20 20 16.4183 20 12C20 10.5937 19.6372 9.27224 19 8.12399V4.85857C20.8514 6.67349 22 9.20261 22 12C22 17.5228 17.5228 22 12 22C6.47715 22 2 17.5228 2 12C2 6.47715 6.47715 2 12 2Z" fill="white"/>
<path d="M8.25065 12.2802C8.98108 11.6958 10.019 11.6958 10.7494 12.2802L12.0013 13.2816C13.4621 14.4503 15.5379 14.4503 16.9988 13.2816L17.6247 12.7809C18.056 12.4359 18.1259 11.8066 17.7809 11.3753C17.4359 10.9441 16.8066 10.8742 16.3753 11.2192L15.7494 11.7199C15.019 12.3043 13.9811 12.3043 13.2506 11.7199L11.9988 10.7184C10.5379 9.54974 8.46213 9.54974 7.00126 10.7184L6.37534 11.2192C5.94408 11.5642 5.87416 12.1935 6.21917 12.6247C6.56418 13.056 7.19347 13.1259 7.62473 12.7809L8.25065 12.2802Z" fill="white"/>
<path d="M17 8C17 8.55229 16.5523 9 16 9C15.4477 9 15 8.55229 15 8C15 7.44772 15.4477 7 16 7C16.5523 7 17 7.44772 17 8Z" fill="white"/>
<path d="M16 2C15.4477 2 15 2.44772 15 3V5C15 5.55228 15.4477 6 16 6C16.5523 6 17 5.55228 17 5V3C17 2.44772 16.5523 2 16 2Z" fill="white"/>
</svg>
