<svg width="32" height="32" viewBox="0 0 32 32" fill="none" xmlns="http://www.w3.org/2000/svg">
<path fill-rule="evenodd" clip-rule="evenodd" d="M6 20.11C6 19.0589 6.16077 18.0302 6.48061 17.0424C6.50036 16.9814 6.52071 16.9206 6.54167 16.8599L6.54235 16.858C6.62936 16.6063 6.72679 16.3574 6.83463 16.1115L7.54503 14.4811L8.25543 16.1115C8.37449 16.3842 8.50676 16.6482 8.65131 16.9031L8.65534 16.9102L8.66264 16.923C9.64036 18.6361 11.1737 19.9318 12.9759 20.6224C11.3436 19.3471 10.1167 17.5774 9.51585 15.5624L9.51552 15.5613C9.34373 14.9849 9.22316 14.3885 9.15896 13.7779C9.14041 13.6015 9.12656 13.4238 9.11755 13.2452L9.11724 13.2389C9.10947 13.0719 9.10559 12.9011 9.10559 12.7342C9.10559 8.34705 11.9959 4.47963 16.1063 3.18869C16.1519 3.17438 16.1976 3.16038 16.2435 3.1467L16.2491 3.14502C16.5158 3.06569 16.7875 2.99715 17.0637 2.93996L18.7446 2.59058L17.8983 4.08126C17.7515 4.3411 17.6295 4.60935 17.5328 4.8852C17.3505 5.40471 17.2578 5.95116 17.2578 6.51915C17.2578 8.52225 17.7547 9.79166 20.4759 11.162C23.8843 12.8778 26 16.3056 26 20.1061C26 25.6185 21.5124 30.1061 16 30.1061V30.11C15.9062 30.11 15.8127 30.1087 15.7195 30.1061C15.1358 30.0899 14.5643 30.0234 14.0094 29.9108C9.44676 28.9849 6 24.941 6 20.11ZM8 20.11C8 19.9 8.00796 19.6913 8.02386 19.4843C9.16226 20.8292 10.6216 21.8621 12.2603 22.49C13.1849 22.8443 14.2296 22.4687 14.7169 21.6067C15.2043 20.7448 14.9875 19.656 14.2072 19.0464C12.4089 17.6414 11.2332 15.4973 11.1149 13.1426C11.1087 13.0083 11.1056 12.8697 11.1056 12.7342C11.1056 9.74834 12.784 7.06108 15.3062 5.69064C15.274 5.96333 15.2578 6.23971 15.2578 6.51915C15.2578 7.67097 15.3948 8.93542 16.1529 10.142C16.8945 11.3222 18.0667 12.1881 19.5766 12.9484C22.3129 14.3259 24 17.0643 24 20.1061C24 24.514 20.4079 28.1061 16 28.1061C15.9623 28.1061 15.9248 28.1071 15.8876 28.1092C11.5313 28.0488 8 24.4803 8 20.11Z" fill="white"/>
<path d="M20.4923 4.02444C19.9913 4.39735 19.0583 5.64306 19.0345 7.01648C19.0106 8.38989 19.8159 9.0211 20.5343 9.02517C21.2758 9.02937 22.0131 8.5335 22.0005 7.03328C21.9928 6.1174 21.2238 4.60959 20.4923 4.02444Z" fill="white"/>
</svg>
