<svg width="32" height="32" viewBox="0 0 32 32" fill="none" xmlns="http://www.w3.org/2000/svg">
<path fill-rule="evenodd" clip-rule="evenodd" d="M15.9997 2C18.2088 2 19.9997 3.79086 19.9997 6V17.2543C21.8131 18.5192 22.9997 20.6208 22.9997 22.9995C22.9997 26.8654 19.8657 29.9993 15.9998 29.9993C12.1339 29.9993 9 26.8654 9 22.9995C9 20.6209 10.1864 18.5194 11.9997 17.2545V6C11.9997 3.79086 13.7905 2 15.9997 2ZM18.8555 18.8946L17.9997 18.2977V6C17.9997 4.89543 17.1042 4 15.9997 4C14.8951 4 13.9997 4.89543 13.9997 6V18.2979L13.1439 18.8948C11.8438 19.8017 11 21.3022 11 22.9995C11 25.7608 13.2385 27.9993 15.9998 27.9993C18.7612 27.9993 20.9997 25.7608 20.9997 22.9995C20.9997 21.3021 20.1557 19.8015 18.8555 18.8946Z" fill="white"/>
<path d="M24.9997 6C25.5519 6 25.9997 6.44772 25.9997 7C25.9997 7.55228 25.5519 8 24.9997 8H22.9997C22.4474 8 21.9997 7.55228 21.9997 7C21.9997 6.44772 22.4474 6 22.9997 6H24.9997Z" fill="white"/>
<path d="M25.9997 11C25.9997 10.4477 25.5519 10 24.9997 10H22.9997C22.4474 10 21.9997 10.4477 21.9997 11C21.9997 11.5523 22.4474 12 22.9997 12H24.9997C25.5519 12 25.9997 11.5523 25.9997 11Z" fill="white"/>
<path d="M24.9997 14C25.5519 14 25.9997 14.4477 25.9997 15C25.9997 15.5523 25.5519 16 24.9997 16H22.9997C22.4474 16 21.9997 15.5523 21.9997 15C21.9997 14.4477 22.4474 14 22.9997 14H24.9997Z" fill="white"/>
</svg>
