<svg width="32" height="32" viewBox="0 0 32 32" fill="none" xmlns="http://www.w3.org/2000/svg">
<path fill-rule="evenodd" clip-rule="evenodd" d="M16 18C18.2091 18 20 19.7909 20 22C20 24.2091 18.2091 26 16 26C13.7909 26 12 24.2091 12 22C12 19.7909 13.7909 18 16 18ZM16 20C14.8954 20 14 20.8954 14 22C14 23.1046 14.8954 24 16 24C17.1046 24 18 23.1046 18 22C18 20.8954 17.1046 20 16 20Z" fill="white"/>
<path d="M16 7C16.5523 7 17 7.44772 17 8V12C17 12.5523 16.5523 13 16 13C15.4477 13 15 12.5523 15 12V8C15 7.44772 15.4477 7 16 7Z" fill="white"/>
<path fill-rule="evenodd" clip-rule="evenodd" d="M16 2C17.8597 2 18.7898 1.99972 19.5527 2.2041C21.6233 2.7589 23.2411 4.37671 23.7959 6.44727C24.0003 7.21022 24 8.14026 24 10V22C24 23.8597 24.0003 24.7898 23.7959 25.5527L23.6797 25.9355C23.0373 27.8215 21.494 29.2757 19.5527 29.7959L19.2578 29.8633C18.5432 30.0003 17.6277 30 16 30C14.3723 30 13.4568 30.0003 12.7422 29.8633L12.4473 29.7959C10.3767 29.2411 8.7589 27.6233 8.2041 25.5527C7.99972 24.7898 8 23.8597 8 22V10C8 8.37233 7.9997 7.45681 8.13672 6.74219L8.2041 6.44727C8.72425 4.50603 10.1785 2.96267 12.0645 2.32031L12.4473 2.2041C13.2102 1.99972 14.1403 2 16 2ZM16 4C14.0113 4 13.4094 4.0176 12.9648 4.13672C11.5845 4.50659 10.5066 5.58448 10.1367 6.96484C10.0176 7.4094 10 8.0113 10 10V22C10 23.9887 10.0176 24.5906 10.1367 25.0352C10.5066 26.4155 11.5845 27.4934 12.9648 27.8633C13.4094 27.9824 14.0113 28 16 28C17.9887 28 18.5906 27.9824 19.0352 27.8633C20.4155 27.4934 21.4934 26.4155 21.8633 25.0352C21.9824 24.5906 22 23.9887 22 22V10C22 8.0113 21.9824 7.4094 21.8633 6.96484C21.4934 5.58448 20.4155 4.50659 19.0352 4.13672C18.5906 4.0176 17.9887 4 16 4Z" fill="white"/>
</svg>

