<svg width="32" height="32" viewBox="0 0 32 32" fill="none" xmlns="http://www.w3.org/2000/svg">
<path fill-rule="evenodd" clip-rule="evenodd" d="M28 8H4V24H28V8ZM4 6C2.89543 6 2 6.89543 2 8V24C2 25.1046 2.89543 26 4 26H28C29.1046 26 30 25.1046 30 24V8C30 6.89543 29.1046 6 28 6H4Z" fill="white"/>
<path fill-rule="evenodd" clip-rule="evenodd" d="M25.7071 12.2929C25.3166 11.9024 24.6834 11.9024 24.2929 12.2929L20.5858 16L24.2929 19.7071C24.6834 20.0976 25.3166 20.0976 25.7071 19.7071C26.0976 19.3166 26.0976 18.6834 25.7071 18.2929L23.4142 16L25.7071 13.7071C26.0976 13.3166 26.0976 12.6834 25.7071 12.2929Z" fill="white"/>
</svg>
