<svg width="48" height="48" viewBox="0 0 48 48" fill="none" xmlns="http://www.w3.org/2000/svg">
<path d="M23 32C23 32.5523 23.4477 33 24 33C24.5523 33 25 32.5523 25 32V20C25 19.4477 24.5523 19 24 19C23.4477 19 23 19.4477 23 20V32Z" fill="white"/>
<path d="M24 17C24.5523 17 25 16.5523 25 16C25 15.4477 24.5523 15 24 15C23.4477 15 23 15.4477 23 16C23 16.5523 23.4477 17 24 17Z" fill="white"/>
<path fill-rule="evenodd" clip-rule="evenodd" d="M24 45C35.598 45 45 35.598 45 24C45 12.402 35.598 3 24 3C12.402 3 3 12.402 3 24C3 35.598 12.402 45 24 45ZM24 43C34.4934 43 43 34.4934 43 24C43 13.5066 34.4934 5 24 5C13.5066 5 5 13.5066 5 24C5 34.4934 13.5066 43 24 43Z" fill="white"/>
</svg>
