<svg width="32" height="32" viewBox="0 0 32 32" fill="none" xmlns="http://www.w3.org/2000/svg">
<mask id="path-1-inside-1_7943_131933" fill="white">
<path fill-rule="evenodd" clip-rule="evenodd" d="M10.4 26H4L4 4L17 4L17 13.2L12.4 13.2C11.2954 13.2 10.4 14.0954 10.4 15.2L10.4 26ZM10.4 28H4C2.89543 28 2 27.1046 2 26V4C2 2.89543 2.89543 2 4 2H17C18.1046 2 19 2.89543 19 4V13.2L28 13.2C29.1046 13.2 30 14.0954 30 15.2L30 28C30 29.1046 29.1046 30 28 30L12.4 30C11.2954 30 10.4 29.1046 10.4 28Z"/>
</mask>
<path d="M4 26H2L2 28H4V26ZM10.4 26V28H12.4V26H10.4ZM4 4L4 2L2 2L2 4L4 4ZM17 4L19 4L19 2L17 2V4ZM17 13.2V15.2H19V13.2H17ZM12.4 13.2V11.2V13.2ZM10.4 15.2H12.4H10.4ZM10.4 28H12.4V26H10.4V28ZM19 13.2H17V15.2H19V13.2ZM28 13.2V15.2V13.2ZM30 15.2H32H30ZM30 28H28H30ZM28 30V32V30ZM12.4 30V28V30ZM4 28H10.4V24H4V28ZM2 4L2 26H6L6 4L2 4ZM17 2L4 2L4 6L17 6V2ZM19 13.2V4L15 4L15 13.2H19ZM12.4 15.2L17 15.2V11.2L12.4 11.2V15.2ZM12.4 15.2L12.4 15.2V11.2C10.1909 11.2 8.4 12.9909 8.4 15.2H12.4ZM12.4 26L12.4 15.2H8.4L8.4 26H12.4ZM4 30H10.4V26H4V30ZM0 26C0 28.2091 1.79086 30 4 30V26H4H0ZM0 4V26H4V4H0ZM4 0C1.79086 0 0 1.79086 0 4H4L4 4V0ZM17 0H4V4H17V0ZM21 4C21 1.79087 19.2091 0 17 0V4L17 4H21ZM21 13.2V4H17V13.2H21ZM19 15.2L28 15.2V11.2L19 11.2V15.2ZM28 15.2H28H32C32 12.9909 30.2091 11.2 28 11.2V15.2ZM28 15.2L28 28H32L32 15.2H28ZM28 28V32C30.2091 32 32 30.2091 32 28H28ZM28 28L12.4 28V32L28 32V28ZM12.4 28H12.4H8.4C8.4 30.2091 10.1909 32 12.4 32V28Z" fill="white" mask="url(#path-1-inside-1_7943_131933)"/>
<circle cx="16" cy="25" r="1" fill="white"/>
<circle cx="19" cy="25" r="1" fill="white"/>
<rect x="8" y="8" width="5" height="2" rx="1" fill="white"/>
</svg>

