<svg width="32" height="33" viewBox="0 0 32 33" fill="none" xmlns="http://www.w3.org/2000/svg">
<path fill-rule="evenodd" clip-rule="evenodd" d="M26 17.8998V24.8998H27C27.5523 24.8998 28 25.3475 28 25.8998C28 26.4521 27.5523 26.8998 27 26.8998H26V28.8998C26 30.0043 25.1046 30.8998 24 30.8998H8C6.89543 30.8998 6 30.0043 6 28.8998V26.8998H5C4.44772 26.8998 4 26.4521 4 25.8998C4 25.3475 4.44772 24.8998 5 24.8998H6V17.8998H5C4.44772 17.8998 4 17.4521 4 16.8998C4 16.3475 4.44772 15.8998 5 15.8998H6V8.89978H5C4.44772 8.89978 4 8.45206 4 7.89978C4 7.3475 4.44772 6.89978 5 6.89978H6V4.89978C6 3.79521 6.89543 2.89978 8 2.89978H24C25.1046 2.89978 26 3.79521 26 4.89978V6.89978H27C27.5523 6.89978 28 7.3475 28 7.89978C28 8.45206 27.5523 8.89978 27 8.89978H26V15.8998H27C27.5523 15.8998 28 16.3475 28 16.8998C28 17.4521 27.5523 17.8998 27 17.8998H26ZM8 4.89978H24V15.8998H19L14.7071 11.6069C14.0771 10.9769 13 11.4231 13 12.314V13.8998H8V4.89978ZM19 17.8998H24V28.8998H8V19.8998H13V21.4856C13 22.3765 14.0771 22.8227 14.7071 22.1927L19 17.8998ZM8 17.8998H13V15.8998H8V17.8998ZM15 14.7282L17.1716 16.8998L15 19.0714V14.7282ZM17 7.89978C16.4477 7.89978 16 8.3475 16 8.89978C16 9.45206 16.4477 9.89978 17 9.89978H21C21.5523 9.89978 22 9.45206 22 8.89978C22 8.3475 21.5523 7.89978 21 7.89978H17ZM16 23.8998C16 23.3475 16.4477 22.8998 17 22.8998H18V21.8998C18 21.3475 18.4477 20.8998 19 20.8998C19.5523 20.8998 20 21.3475 20 21.8998V22.8998H21C21.5523 22.8998 22 23.3475 22 23.8998C22 24.4521 21.5523 24.8998 21 24.8998H20V25.8998C20 26.4521 19.5523 26.8998 19 26.8998C18.4477 26.8998 18 26.4521 18 25.8998V24.8998H17C16.4477 24.8998 16 24.4521 16 23.8998Z" fill="white"/>
</svg>
