<svg width="24" height="24" viewBox="0 0 24 24" fill="none" xmlns="http://www.w3.org/2000/svg">
<path d="M18.5931 10.6067C19.3916 11.069 19.7908 11.3001 19.9218 11.6033C20.0313 11.8565 20.0313 12.1436 19.9218 12.3968C19.7908 12.7 19.3916 12.9311 18.5931 13.3934L7.0573 20.072C5.53786 20.9517 4.77815 21.3915 4.37389 21.2799C4.0404 21.1878 3.77819 20.9299 3.68063 20.5979C3.56237 20.1956 3.98965 19.4287 4.84421 17.895L6.81891 14.3509C7.30193 13.4841 7.54343 13.0506 7.63579 12.5909C7.71414 12.2009 7.71414 11.7992 7.63579 11.4092C7.54343 10.9494 7.30193 10.516 6.81891 9.64913L4.84421 6.10505C3.98965 4.57135 3.56237 3.8045 3.68063 3.40214C3.77819 3.0702 4.0404 2.81227 4.3739 2.72019C4.77815 2.60857 5.53786 3.0484 7.05729 3.92807L18.5931 10.6067Z" fill="white"/>
</svg>
