<svg width="24" height="24" viewBox="0 0 24 24" fill="none" xmlns="http://www.w3.org/2000/svg">
<path d="M6 10C6 9.44771 6.44772 9 7 9H17C17.5523 9 18 9.44771 18 10C18 10.5523 17.5523 11 17 11H7C6.44772 11 6 10.5523 6 10Z" fill="white"/>
<path d="M7 13C6.44772 13 6 13.4477 6 14C6 14.5523 6.44772 15 7 15H8C8.55228 15 9 14.5523 9 14C9 13.4477 8.55228 13 8 13H7Z" fill="white"/>
<path d="M10 14C10 13.4477 10.4477 13 11 13H13C13.5523 13 14 13.4477 14 14C14 14.5523 13.5523 15 13 15H11C10.4477 15 10 14.5523 10 14Z" fill="white"/>
<path d="M16 13C15.4477 13 15 13.4477 15 14C15 14.5523 15.4477 15 16 15H17C17.5523 15 18 14.5523 18 14C18 13.4477 17.5523 13 17 13H16Z" fill="white"/>
<path fill-rule="evenodd" clip-rule="evenodd" d="M12 22C17.5228 22 22 17.5228 22 12C22 6.47715 17.5228 2 12 2C6.47715 2 2 6.47715 2 12C2 17.5228 6.47715 22 12 22ZM12 20C16.4183 20 20 16.4183 20 12C20 7.58172 16.4183 4 12 4C7.58172 4 4 7.58172 4 12C4 16.4183 7.58172 20 12 20Z" fill="white"/>
</svg>
