<svg width="20" height="28" viewBox="0 0 20 28" fill="none" xmlns="http://www.w3.org/2000/svg">
<path fill-rule="evenodd" clip-rule="evenodd" d="M10 3.06782C9.18129 4.06348 8.16716 5.36936 7.02601 7.0085C5.70532 8.90553 4.42682 11.0306 3.48607 13.0969C2.52917 15.1987 2 17.0713 2 18.5139C2 22.5614 5.46534 26 10 26C14.5347 26 18 22.5614 18 18.5139C18 17.0713 17.4708 15.1987 16.5139 13.0969C15.5732 11.0306 14.2947 8.90553 12.974 7.0085C11.8328 5.36936 10.8187 4.06348 10 3.06782ZM10.7359 0.836432C10.3474 0.385578 9.65264 0.385577 9.26412 0.836431C8.31744 1.93499 6.96709 3.59272 5.38461 5.86577C2.64738 9.79753 0 14.7911 0 18.5139C0 23.7634 4.4608 28 10 28C15.5392 28 20 23.7634 20 18.5139C20 14.7911 17.3526 9.79753 14.6154 5.86577C13.0329 3.59272 11.6826 1.93499 10.7359 0.836432Z" fill="white"/>
<path d="M9 14C9 15.1046 8.10457 16 7 16C5.89543 16 5 15.1046 5 14C5 12.8954 5.89543 12 7 12C8.10457 12 9 12.8954 9 14Z" fill="white"/>
<path d="M15 21C15 22.1046 14.1046 23 13 23C11.8954 23 11 22.1046 11 21C11 19.8954 11.8954 19 13 19C14.1046 19 15 19.8954 15 21Z" fill="white"/>
<path fill-rule="evenodd" clip-rule="evenodd" d="M6.4453 22.832C5.98577 22.5257 5.8616 21.9048 6.16795 21.4453L12.1679 12.4453C12.4743 11.9858 13.0952 11.8616 13.5547 12.1679C14.0142 12.4743 14.1384 13.0952 13.8321 13.5547L7.83205 22.5547C7.5257 23.0142 6.90483 23.1384 6.4453 22.832Z" fill="white"/>
</svg>
