<svg width="24" height="24" viewBox="0 0 24 24" fill="none" xmlns="http://www.w3.org/2000/svg">
<path d="M9 22C10.2199 22 11.3651 21.7004 12.3619 21.173C11.6298 20.8203 10.9587 20.3637 10.3738 19.8205C9.93983 19.9373 9.47948 20 9 20C6.16596 20 4 17.8091 4 15.2242C4 14.3051 4.33577 13.0499 4.99254 11.5779C5.63391 10.1404 6.51033 8.65228 7.42134 7.31701C8.00192 6.46605 8.53445 5.74309 9 5.14162C9.46555 5.74309 9.99808 6.46605 10.5787 7.31701L10.6015 7.35059C10.9276 6.8303 11.2652 6.32883 11.6016 5.85635C11.6698 5.76062 11.7373 5.66663 11.8041 5.57437C10.9948 4.42541 10.2887 3.52815 9.73889 2.8649C9.35394 2.4005 8.64606 2.4005 8.26111 2.8649C7.61674 3.64225 6.75767 4.74107 5.76923 6.18983C3.85317 8.99823 2 12.565 2 15.2242C2 18.9738 5.12256 22 9 22Z" fill="white"/>
<path fill-rule="evenodd" clip-rule="evenodd" d="M15.3667 4.28603C14.8143 4.9244 14.078 5.82676 13.2308 7.0165C11.5884 9.32279 10 12.2519 10 14.4356C10 17.5149 12.6765 20 16 20C19.3235 20 22 17.5149 22 14.4356C22 12.2519 20.4116 9.32279 18.7692 7.0165C17.922 5.82676 17.1857 4.9244 16.6333 4.28603C16.3034 3.90466 15.6966 3.90466 15.3667 4.28603ZM14.8599 8.17664C15.2717 7.59839 15.6548 7.093 16 6.65736C16.3452 7.093 16.7283 7.59839 17.1401 8.17664C17.9123 9.26108 18.6504 10.4631 19.1875 11.6164C19.7416 12.8063 20 13.7721 20 14.4356C20 16.2717 18.3629 18 16 18C13.6371 18 12 16.2717 12 14.4356C12 13.7721 12.2584 12.8063 12.8125 11.6164C13.3496 10.4631 14.0877 9.26108 14.8599 8.17664Z" fill="white"/>
</svg>
