<svg width="30" height="26" viewBox="0 0 30 26" fill="none" xmlns="http://www.w3.org/2000/svg">
<path d="M14.0005 10C14.0005 9.44772 14.4482 9 15.0005 9C15.5528 9 16.0005 9.44772 16.0005 10V16C16.0005 16.5523 15.5528 17 15.0005 17C14.4482 17 14.0005 16.5523 14.0005 16V10Z" fill="white"/>
<path d="M15.0005 19C14.4482 19 14.0005 19.4477 14.0005 20C14.0005 20.5523 14.4482 21 15.0005 21C15.5528 21 16.0005 20.5523 16.0005 20C16.0005 19.4477 15.5528 19 15.0005 19Z" fill="white"/>
<path fill-rule="evenodd" clip-rule="evenodd" d="M15.8785 0.610136C15.4995 -0.0848897 14.5015 -0.0848887 14.1225 0.610137L1.08439 24.5213C0.721033 25.1877 1.20335 26 1.96235 26H28.0387C28.7977 26 29.28 25.1877 28.9166 24.5213L15.8785 0.610136ZM15.0005 3.17772L3.64663 24H26.3544L15.0005 3.17772Z" fill="white"/>
</svg>
