<svg width="32" height="32" viewBox="0 0 32 32" fill="none" xmlns="http://www.w3.org/2000/svg">
<g id="icon_plus_32">
<g id="icon_add_32">
<path d="M17 3.44363C17 2.89135 16.5523 2.44363 16 2.44363C15.4477 2.44363 15 2.89135 15 3.44363L15 15L3.44365 15C2.89137 15 2.44365 15.4477 2.44365 16C2.44366 16.5523 2.89137 17 3.44365 17L15 17L15 28.5563C15 29.1086 15.4477 29.5563 16 29.5563C16.5523 29.5563 17 29.1086 17 28.5563V17L28.5563 17C29.1086 17 29.5563 16.5523 29.5563 16C29.5563 15.4477 29.1086 15 28.5563 15L17 15L17 3.44363Z" fill="white"/>
</g>
</g>
</svg>
