<svg width="30" height="26" viewBox="0 0 30 26" fill="none" xmlns="http://www.w3.org/2000/svg">
<path d="M14 10C14 9.44772 14.4477 9 15 9C15.5523 9 16 9.44772 16 10V16C16 16.5523 15.5523 17 15 17C14.4477 17 14 16.5523 14 16V10Z" fill="white"/>
<path d="M15 19C14.4477 19 14 19.4477 14 20C14 20.5523 14.4477 21 15 21C15.5523 21 16 20.5523 16 20C16 19.4477 15.5523 19 15 19Z" fill="white"/>
<path fill-rule="evenodd" clip-rule="evenodd" d="M15.878 0.610136C15.499 -0.0848897 14.501 -0.0848887 14.1221 0.610137L1.0839 24.5213C0.720544 25.1877 1.20286 26 1.96186 26H28.0382C28.7972 26 29.2795 25.1877 28.9161 24.5213L15.878 0.610136ZM15 3.17772L3.64614 24H26.3539L15 3.17772Z" fill="white"/>
</svg>
