<svg width="241" height="241" viewBox="0 0 241 241" fill="none" xmlns="http://www.w3.org/2000/svg">
<g transform="rotate(15 120.03 120.03)">
<circle cx="120.03" cy="120.03" r="114" transform="rotate(-15 120.03 120.03)" fill="#593912" stroke="#F0962E" stroke-width="12"/>
<path d="M31.1702 143.617C31.0505 143.46 30.9974 143.262 31.0226 143.066C31.0185 143.098 31.0153 143.006 31.2649 142.658C31.5173 142.306 31.9003 141.861 32.5003 141.167L41.1841 131.12C41.9241 130.264 42.4121 129.702 42.8038 129.324C43.1051 129.034 43.2439 128.961 43.2713 128.948L43.344 128.937C43.5336 128.918 43.7243 128.973 43.8765 129.09C43.8313 129.055 43.933 129.102 44.1265 129.627C44.3146 130.137 44.5085 130.856 44.8013 131.949L48.6614 146.355C48.9542 147.448 49.1459 148.168 49.2382 148.704C49.333 149.255 49.2684 149.347 49.29 149.294C49.2171 149.472 49.0792 149.614 48.9056 149.693L48.8369 149.719C48.8066 149.722 48.6501 149.728 48.2441 149.628C47.7162 149.497 47.0123 149.254 45.9435 148.882L33.3996 144.523C32.5328 144.222 31.9789 144.028 31.5844 143.85C31.1942 143.673 31.151 143.592 31.1702 143.617Z" stroke="white" stroke-width="3"/>
<path d="M210.227 95.6391C210.252 95.4433 210.199 95.2452 210.079 95.0882C210.098 95.1134 210.055 95.0321 209.665 94.8555C209.27 94.677 208.717 94.4834 207.85 94.1822L195.306 89.8233C194.237 89.4519 193.533 89.2088 193.005 89.0779C192.599 88.9772 192.443 88.9837 192.412 88.986L192.344 89.0125C192.17 89.0911 192.032 89.2335 191.959 89.4117C191.981 89.3587 191.916 89.4502 192.011 90.0014C192.104 90.5374 192.295 91.2572 192.588 92.3501L196.448 106.756C196.741 107.849 196.935 108.568 197.123 109.078C197.316 109.603 197.418 109.65 197.373 109.615C197.525 109.733 197.716 109.787 197.905 109.769L197.978 109.757C198.005 109.744 198.144 109.671 198.446 109.381C198.837 109.004 199.325 108.441 200.065 107.585L208.749 97.5384C209.349 96.8443 209.732 96.3997 209.984 96.0478C210.234 95.6997 210.231 95.6078 210.227 95.6391Z" stroke="white" stroke-width="3"/>
<path d="M86.2721 90.2523L134.376 77.3629C136.023 76.9217 137.171 76.6156 138.084 76.4491C138.98 76.2859 139.519 76.2838 139.953 76.376C140.883 76.5736 141.726 77.0605 142.362 77.7667C142.659 78.0962 142.927 78.5644 143.233 79.4219C143.546 80.296 143.855 81.4435 144.296 83.0902L160.446 143.364C160.724 144.403 160.909 145.094 161.008 145.637C161.104 146.163 161.092 146.418 161.056 146.588C160.957 147.053 160.714 147.474 160.361 147.792C160.232 147.908 160.017 148.046 159.513 148.225C158.994 148.411 158.303 148.597 157.264 148.876L154.367 149.652C153.328 149.93 152.637 150.115 152.094 150.214C151.699 150.285 151.457 150.296 151.289 150.283L151.143 150.262C150.678 150.163 150.257 149.92 149.939 149.567C149.823 149.438 149.685 149.222 149.505 148.719C149.32 148.2 149.133 147.508 148.855 146.47L147.302 140.675L106.733 151.545L108.286 157.341C108.564 158.379 108.749 159.071 108.848 159.613C108.944 160.139 108.932 160.395 108.896 160.564C108.797 161.029 108.554 161.45 108.201 161.768C108.072 161.884 107.857 162.022 107.353 162.202C106.834 162.387 106.143 162.574 105.104 162.852L102.207 163.628C101.168 163.907 100.477 164.091 99.9336 164.19C99.408 164.286 99.1526 164.274 98.9831 164.238C98.5183 164.14 98.0966 163.896 97.7787 163.543C97.6627 163.414 97.5252 163.199 97.3454 162.696C97.1596 162.176 96.9734 161.485 96.6952 160.446L80.5448 100.172C80.1036 98.5256 79.7975 97.3772 79.631 96.464C79.4678 95.5681 79.4657 95.0287 79.5579 94.595C79.7555 93.6655 80.2424 92.8221 80.9486 92.1862C81.2781 91.8896 81.7463 91.6216 82.6038 91.315C83.4779 91.0026 84.6255 90.6935 86.2721 90.2523Z" stroke="#F0962E" stroke-width="3"/>
<rect x="96.28" y="96.1117" width="34.5" height="14.25" rx="3" transform="rotate(-15 96.28 96.1117)" stroke="#F0962E" stroke-width="3"/>
<rect x="94.2478" y="133.926" width="3" height="12" rx="1.5" transform="rotate(-15 94.2478 133.926)" fill="#F0962E"/>
<rect x="146.408" y="119.95" width="3" height="12" rx="1.5" transform="rotate(-15 146.408 119.95)" fill="#F0962E"/>
<line x1="95.1051" y1="123.602" x2="144.367" y2="110.403" stroke="#F0962E" stroke-width="3" stroke-linecap="round"/>
</g>
</svg>
