<svg width="48" height="24" viewBox="0 0 48 24" fill="none" xmlns="http://www.w3.org/2000/svg">
<path fill-rule="evenodd" clip-rule="evenodd" d="M12.9323 2.63755C12.7828 2.25318 12.4127 2 12.0003 2C11.5879 2 11.2177 2.25318 11.0683 2.63755L10.1495 5H5.00024C4.44796 5 4.00024 5.44772 4.00024 6V7C4.00024 7.55228 4.44796 8 5.00024 8C5.55253 8 6.00024 7.55228 6.00024 7H9.37176L4.06826 20.6376C3.86809 21.1523 4.12309 21.7318 4.63782 21.932C5.02759 22.0836 5.45452 21.9742 5.72575 21.6886L12.0001 15.4143L18.2818 21.6959C18.5533 21.976 18.9763 22.0823 19.3627 21.932C19.8774 21.7318 20.1324 21.1523 19.9323 20.6376L14.6288 7H18.0002C18.0002 7.55228 18.448 8 19.0002 8C19.5525 8 20.0002 7.55228 20.0002 7V6C20.0002 5.44772 19.5525 5 19.0002 5H13.851L12.9323 2.63755ZM12.4829 7L13.9117 10.6742L12.0001 12.5858L10.0887 10.6744L11.5177 7H12.4829ZM10.5859 14L7.65604 16.9299L9.29677 12.7109L10.5859 14ZM16.3447 16.9304L13.4143 14L14.7037 12.7107L16.3447 16.9304Z" fill="white"/>
<path d="M36.3104 10.4741C36.2687 10.3979 36.224 10.3168 36.1761 10.2299L34.7048 7.56144C34.0681 6.40666 33.7497 5.82927 33.8378 5.52631C33.9105 5.27638 34.1059 5.08218 34.3543 5.01285C34.6555 4.9288 35.2216 5.25997 36.3537 5.92231L44.9488 10.9509C45.5438 11.299 45.8412 11.473 45.9389 11.7013C46.0204 11.8919 46.0204 12.1081 45.9389 12.2987C45.8412 12.527 45.5438 12.701 44.9488 13.0491L36.3537 18.0777C35.2216 18.74 34.6555 19.0712 34.3543 18.9872C34.1059 18.9178 33.9105 18.7236 33.8378 18.4737C33.7497 18.1707 34.068 17.5934 34.7048 16.4386L36.1761 13.7701C36.224 13.6832 36.2687 13.6021 36.3104 13.5259L28.5303 18.0777C27.3982 18.74 26.8322 19.0712 26.531 18.9872C26.2825 18.9178 26.0871 18.7236 26.0144 18.4737C25.9263 18.1707 26.2447 17.5934 26.8814 16.4386L28.3527 13.7701C28.7126 13.1174 28.8925 12.791 28.9614 12.4449C29.0197 12.1512 29.0197 11.8488 28.9614 11.5551C28.8925 11.209 28.7126 10.8826 28.3527 10.2299L26.8814 7.56144C26.2447 6.40666 25.9263 5.82927 26.0144 5.52631C26.0871 5.27638 26.2825 5.08218 26.531 5.01285C26.8322 4.9288 27.3982 5.25997 28.5303 5.92231L36.3104 10.4741Z" fill="white"/>
</svg>
