<svg width="24" height="24" viewBox="0 0 24 24" fill="none" xmlns="http://www.w3.org/2000/svg">
<path d="M11.2929 11.2929C10.9024 11.6834 10.9024 12.3166 11.2929 12.7071C11.6834 13.0976 12.3166 13.0976 12.7071 12.7071L15.7071 9.70711C16.0976 9.31658 16.0976 8.68342 15.7071 8.29289C15.3166 7.90237 14.6834 7.90237 14.2929 8.29289L11.2929 11.2929Z" fill="white"/>
<path fill-rule="evenodd" clip-rule="evenodd" d="M10 3C10 2.44772 10.4477 2 11 2H13C13.5523 2 14 2.44772 14 3C14 3.07543 13.9916 3.14891 13.9758 3.21956C14.4765 3.33222 14.9678 3.48776 15.4442 3.68508C16.5361 4.13738 17.5282 4.80031 18.364 5.63604C19.1997 6.47177 19.8626 7.46392 20.3149 8.55585C20.7672 9.64778 21 10.8181 21 12C21 13.1819 20.7672 14.3522 20.3149 15.4442C19.8626 16.5361 19.1997 17.5282 18.364 18.364C17.5282 19.1997 16.5361 19.8626 15.4441 20.3149C14.3522 20.7672 13.1819 21 12 21C10.8181 21 9.64778 20.7672 8.55585 20.3149C7.46392 19.8626 6.47176 19.1997 5.63604 18.364C4.80031 17.5282 4.13737 16.5361 3.68508 15.4441C3.23279 14.3522 3 13.1819 3 12C3 10.8181 3.23279 9.64777 3.68509 8.55584C4.13738 7.46391 4.80031 6.47176 5.63604 5.63604C6.47177 4.80031 7.46392 4.13737 8.55585 3.68508C9.03223 3.48776 9.52352 3.33222 10.0242 3.21956C10.0084 3.14891 10 3.07543 10 3ZM12 5C11.0808 5 10.1705 5.18106 9.32122 5.53284C8.47194 5.88462 7.70027 6.40024 7.05026 7.05025C6.40024 7.70026 5.88463 8.47193 5.53284 9.32121C5.18106 10.1705 5 11.0807 5 12C5 12.9192 5.18106 13.8295 5.53284 14.6788C5.88462 15.5281 6.40024 16.2997 7.05025 16.9497C7.70026 17.5998 8.47193 18.1154 9.32121 18.4672C10.1705 18.8189 11.0807 19 12 19C12.9193 19 13.8295 18.8189 14.6788 18.4672C15.5281 18.1154 16.2997 17.5998 16.9497 16.9497C17.5998 16.2997 18.1154 15.5281 18.4672 14.6788C18.8189 13.8295 19 12.9193 19 12C19 11.0807 18.8189 10.1705 18.4672 9.32122C18.1154 8.47194 17.5998 7.70026 16.9497 7.05025C16.2997 6.40024 15.5281 5.88463 14.6788 5.53284C13.8295 5.18106 12.9193 5 12 5Z" fill="white"/>
</svg>
