<svg width="32" height="32" viewBox="0 0 32 32" fill="none" xmlns="http://www.w3.org/2000/svg">
<path d="M15.1045 4C15.6775 4 16.1725 4.14299 16.6143 4.42676L16.8008 4.55664C17.2937 4.93055 17.6451 5.42909 17.8525 6.08984C17.9834 6.5067 18.3697 6.79102 18.8066 6.79102H24.7285C24.8876 6.79102 24.9814 6.83394 25.0732 6.92578L25.0742 6.92676C25.1661 7.01858 25.209 7.11244 25.209 7.27148V13.1934C25.209 13.6303 25.4933 14.0166 25.9102 14.1475C26.4882 14.3289 26.942 14.6204 27.2969 15.0205L27.4434 15.1992C27.8137 15.6873 28 16.2406 28 16.8955C28 17.5504 27.8137 18.1037 27.4434 18.5918C27.0695 19.0847 26.5708 19.4351 25.9102 19.6426C25.4934 19.7734 25.2091 20.1598 25.209 20.5967V26.5195C25.209 26.6786 25.1662 26.7724 25.0742 26.8643H25.0732C24.9814 26.9562 24.8877 27 24.7285 27H19.5674C19.224 26.2357 18.7209 25.5836 18.0547 25.0625H18.0537C17.1891 24.3867 16.1954 24.0391 15.1045 24.0391C14.0819 24.0391 13.1448 24.3445 12.3193 24.9395L12.1553 25.0625C11.4889 25.5837 10.985 26.2355 10.6416 27H5.48047C5.36118 27 5.27855 26.9758 5.20605 26.9248L5.13574 26.8643C5.04381 26.7724 5.00003 26.6786 5 26.5195V21.3574C5.72777 21.0264 6.35943 20.5395 6.88477 19.9023V19.9014C7.59858 19.0351 7.96089 18.02 7.96094 16.8955C7.96094 15.841 7.64286 14.8823 7.01465 14.0527L6.88477 13.8887C6.35937 13.2515 5.72788 12.7637 5 12.4326V7.27148L5.00781 7.16309C5.02435 7.06534 5.06678 6.99566 5.13574 6.92676V6.92578C5.22759 6.83385 5.32141 6.79104 5.48047 6.79102H11.4033C11.8402 6.79093 12.2266 6.50664 12.3574 6.08984C12.5649 5.42917 12.9153 4.93052 13.4082 4.55664C13.8963 4.18627 14.4496 4.00004 15.1045 4Z" stroke="white" stroke-width="2" stroke-linejoin="round"/>
</svg>

