<svg width="24" height="24" viewBox="0 0 24 24" fill="none" xmlns="http://www.w3.org/2000/svg">
<path fill-rule="evenodd" clip-rule="evenodd" d="M16 11V13C17.6569 13 19 14.3431 19 16V18.5C19 18.7761 19.2239 19 19.5 19C19.7761 19 20 18.7761 20 18.5V7.41421L19 6.41421C18.6095 6.02369 18.6095 5.39052 19 5C19.3905 4.60947 20.0237 4.60948 20.4142 5L22 6.58579V18.5C22 19.8807 20.8807 21 19.5 21C18.1193 21 17 19.8807 17 18.5V16C17 15.4477 16.5523 15 16 15V21C16 21.5523 15.5523 22 15 22H5C4.44771 22 4 21.5523 4 21V11H3C2.44772 11 2 10.5523 2 10V3C2 2.44772 2.44772 2 3 2H17C17.5523 2 18 2.44772 18 3V10C18 10.5523 17.5523 11 17 11H16ZM4 4V9H16V4H4ZM14 11H6V20H14V11Z" fill="white"/>
</svg>
