<svg width="32" height="33" viewBox="0 0 32 33" fill="none" xmlns="http://www.w3.org/2000/svg">
<path d="M20 4.38C20.5523 4.38 21 4.82772 21 5.38001C21 5.93229 20.5523 6.38001 20 6.38001L17 6.38V8.38H19C19.5523 8.38 20 8.82772 20 9.38001C20 9.93229 19.5523 10.38 19 10.38H11V13.38H8V23.1925H10.1129C10.8601 23.1925 11.5804 23.4714 12.1329 23.9745L14.2018 25.8587C14.5701 26.1941 15.0503 26.38 15.5485 26.38H18C18.5523 26.38 19 26.8277 19 27.38C19 27.9323 18.5523 28.38 18 28.38H15.5485C14.5522 28.38 13.5918 28.0082 12.8552 27.3374L10.7862 25.4532C10.6021 25.2855 10.362 25.1925 10.1129 25.1925H8C6.89543 25.1925 6 24.2971 6 23.1925V19.38H4V22.38C4 22.9323 3.55228 23.38 3 23.38C2.44772 23.38 2 22.9323 2 22.38V14.38C2 13.8277 2.44772 13.38 3 13.38C3.55228 13.38 4 13.8277 4 14.38V17.38H6V13.38C6 12.2754 6.89543 11.38 8 11.38H9V10.38C9 9.27544 9.89543 8.38 11 8.38H15V6.38H12C11.4477 6.38 11 5.93229 11 5.38C11 4.82772 11.4477 4.38 12 4.38H20Z" fill="white"/>
<path d="M17.2799 16.8219H18.9326C19.3023 16.8219 19.4741 17.2804 19.1955 17.5233L13.5567 22.4409C13.312 22.6543 12.9499 22.3809 13.0881 22.0871L15.0399 17.9381H13.1015C12.7277 17.9381 12.5582 17.4711 12.8448 17.2313L18.7974 12.2521C19.0438 12.0459 19.3981 12.3191 19.2613 12.6099L17.2799 16.8219Z" fill="white"/>
<path fill-rule="evenodd" clip-rule="evenodd" d="M25 8.38C23.3431 8.38 22 9.72315 22 11.38V19.3796C20.7856 20.2918 20 21.7442 20 23.38C20 26.1414 22.2386 28.38 25 28.38C27.7614 28.38 30 26.1414 30 23.38C30 21.7442 29.2144 20.2918 28 19.3796V11.38C28 9.72315 26.6569 8.38 25 8.38ZM23.2012 20.9788L24 20.3787V11.38C24 10.8277 24.4477 10.38 25 10.38C25.5523 10.38 26 10.8277 26 11.38V20.3787L26.7988 20.9788C27.532 21.5295 28 22.3998 28 23.38C28 25.0369 26.6569 26.38 25 26.38C23.3431 26.38 22 25.0369 22 23.38C22 22.3998 22.468 21.5295 23.2012 20.9788Z" fill="white"/>
</svg>
