<svg width="32" height="32" viewBox="0 0 32 32" fill="none" xmlns="http://www.w3.org/2000/svg">
<path d="M12 21C12 20.4477 11.5523 20 11 20C10.4477 20 10 20.4477 10 21C10 21.6566 10.1552 22.3067 10.4567 22.9134C10.7582 23.52 11.2002 24.0712 11.7574 24.5355C12.3145 24.9998 12.9759 25.3681 13.7039 25.6194C14.4318 25.8707 15.2121 26 16 26C16.5523 26 17 25.5523 17 25C17 24.4477 16.5523 24 16 24C15.4289 24 14.8696 23.906 14.3565 23.7288C13.8432 23.5517 13.3975 23.2989 13.0377 22.9991C12.6785 22.6997 12.4172 22.3641 12.2477 22.0232C12.0792 21.6841 12 21.3378 12 21Z" fill="white"/>
<path fill-rule="evenodd" clip-rule="evenodd" d="M15.2641 2.83643C15.6526 2.38558 16.3474 2.38558 16.7359 2.83643C17.6826 3.93499 19.0329 5.59272 20.6154 7.86577C23.3526 11.7975 26 16.7911 26 20.5139C26 25.7634 21.5392 30 16 30C10.4608 30 6 25.7634 6 20.5139C6 16.7911 8.64738 11.7975 11.3846 7.86577C12.9671 5.59272 14.3174 3.93499 15.2641 2.83643ZM13.026 9.0085C14.1672 7.36936 15.1813 6.06348 16 5.06782C16.8187 6.06348 17.8328 7.36936 18.974 9.0085C20.2947 10.9055 21.5732 13.0306 22.5139 15.0969C23.4708 17.1987 24 19.0713 24 20.5139C24 24.5614 20.5347 28 16 28C11.4653 28 8 24.5614 8 20.5139C8 19.0713 8.52917 17.1987 9.48607 15.0969C10.4268 13.0306 11.7053 10.9055 13.026 9.0085Z" fill="white"/>
</svg>

