<svg width="32" height="32" viewBox="0 0 32 32" fill="none" xmlns="http://www.w3.org/2000/svg">
<path d="M15 12C15 11.4477 15.4477 11 16 11C16.5523 11 17 11.4477 17 12V18C17 18.5523 16.5523 19 16 19C15.4477 19 15 18.5523 15 18V12Z" fill="white"/>
<path d="M16 21C15.4477 21 15 21.4477 15 22C15 22.5523 15.4477 23 16 23C16.5523 23 17 22.5523 17 22C17 21.4477 16.5523 21 16 21Z" fill="white"/>
<path fill-rule="evenodd" clip-rule="evenodd" d="M16.878 2.61014C16.499 1.91511 15.501 1.91511 15.1221 2.61014L2.0839 26.5213C1.72054 27.1877 2.20286 28 2.96186 28H29.0382C29.7972 28 30.2795 27.1877 29.9161 26.5213L16.878 2.61014ZM16 5.17772L4.64614 26H27.3539L16 5.17772Z" fill="white"/>
</svg>

