<svg width="24" height="24" viewBox="0 0 24 24" fill="none" xmlns="http://www.w3.org/2000/svg">
<path d="M13 3C13 2.44772 13.4477 2 14 2H20.9C21.5075 2 22 2.49249 22 3.1V20.9C22 21.5075 21.5075 22 20.9 22H14C13.4477 22 13 21.5523 13 21C13 20.4477 13.4477 20 14 20H20V4H14C13.4477 4 13 3.55228 13 3Z" fill="white"/>
<path d="M9.70711 3.29289L11.7071 5.29289C12.0976 5.68342 12.0976 6.31658 11.7071 6.70711L9.70711 8.70711C9.31658 9.09763 8.68342 9.09763 8.29289 8.70711C7.90237 8.31658 7.90237 7.68342 8.29289 7.29289L8.58579 7H3C2.44772 7 2 6.55228 2 6C2 5.44772 2.44772 5 3 5H8.58578L8.29289 4.70711C7.90237 4.31658 7.90237 3.68342 8.29289 3.29289C8.68342 2.90237 9.31658 2.90237 9.70711 3.29289Z" fill="white"/>
<path d="M3 17C2.44772 17 2 17.4477 2 18C2 18.5523 2.44772 19 3 19H8.58579L8.29289 19.2929C7.90237 19.6834 7.90237 20.3166 8.29289 20.7071C8.68342 21.0976 9.31658 21.0976 9.70711 20.7071L11.7071 18.7071C12.0976 18.3166 12.0976 17.6834 11.7071 17.2929L9.70711 15.2929C9.31658 14.9024 8.68342 14.9024 8.29289 15.2929C7.90237 15.6834 7.90237 16.3166 8.29289 16.7071L8.58579 17H3Z" fill="white"/>
<path d="M15.7071 9.2929C15.3166 8.90237 14.6834 8.90237 14.2929 9.29289C13.9024 9.68342 13.9024 10.3166 14.2929 10.7071L14.5858 11H3C2.44772 11 2 11.4477 2 12C2 12.5523 2.44772 13 3 13H14.5858L14.2929 13.2929C13.9024 13.6834 13.9024 14.3166 14.2929 14.7071C14.6834 15.0976 15.3166 15.0976 15.7071 14.7071L17.7071 12.7071C18.0976 12.3166 18.0976 11.6834 17.7071 11.2929L15.7071 9.2929Z" fill="white"/>
</svg>
