<svg width="24" height="24" viewBox="0 0 24 24" fill="none" xmlns="http://www.w3.org/2000/svg">
<path fill-rule="evenodd" clip-rule="evenodd" d="M13 6.2C13 5.53726 12.5523 5 12 5C11.4477 5 11 5.53726 11 6.2V9.8C11 10.4627 11.4477 11 12 11C12.5523 11 13 10.4627 13 9.8V6.2ZM13 16C13 16.5523 12.5523 17 12 17C11.4477 17 11 16.5523 11 16C11 15.4477 11.4477 15 12 15C12.5523 15 13 15.4477 13 16ZM15 16C15 17.6569 13.6569 19 12 19C10.3431 19 9 17.6569 9 16C9 14.3431 10.3431 13 12 13C13.6569 13 15 14.3431 15 16Z" fill="white"/>
<rect x="7" y="3" width="10" height="18" rx="3" stroke="white" stroke-width="2"/>
</svg>

