<svg width="20" height="20" viewBox="0 0 20 20" fill="none" xmlns="http://www.w3.org/2000/svg">
<path d="M9 15C9 15.5523 9.44771 16 10 16C10.5523 16 11 15.5523 11 15V9C11 8.44772 10.5523 8 10 8C9.44771 8 9 8.44771 9 9V15Z" fill="white"/>
<path d="M10 6C10.5523 6 11 5.55228 11 5C11 4.44772 10.5523 4 10 4C9.44771 4 9 4.44772 9 5C9 5.55228 9.44771 6 10 6Z" fill="white"/>
<path fill-rule="evenodd" clip-rule="evenodd" d="M10 20C15.5228 20 20 15.5228 20 10C20 4.47715 15.5228 0 10 0C4.47715 0 0 4.47715 0 10C0 15.5228 4.47715 20 10 20ZM10 18C14.4183 18 18 14.4183 18 10C18 5.58172 14.4183 2 10 2C5.58172 2 2 5.58172 2 10C2 14.4183 5.58172 18 10 18Z" fill="white"/>
</svg>

