<svg width="16" height="20" viewBox="0 0 16 20" fill="none" xmlns="http://www.w3.org/2000/svg">
<path d="M6.5 9C6.43434 9 6.36932 9.01293 6.30866 9.03806C6.248 9.06319 6.19288 9.10002 6.14645 9.14645C6.10002 9.19288 6.06319 9.248 6.03806 9.30866C6.01293 9.36932 6 9.43434 6 9.5C6 10.0523 5.55228 10.5 5 10.5C4.44772 10.5 4 10.0523 4 9.5C4 9.1717 4.06466 8.84661 4.1903 8.54329C4.31594 8.23998 4.50009 7.96438 4.73223 7.73223C4.96438 7.50009 5.23998 7.31594 5.54329 7.1903C5.84661 7.06466 6.1717 7 6.5 7C6.8283 7 7.15339 7.06466 7.45671 7.1903C7.76002 7.31594 8.03562 7.50009 8.26777 7.73223C8.49991 7.96438 8.68406 8.23998 8.8097 8.54329C8.93534 8.84661 9 9.1717 9 9.5C9 9.56566 9.01293 9.63068 9.03806 9.69134C9.06319 9.752 9.10002 9.80712 9.14645 9.85355C9.19288 9.89998 9.248 9.93681 9.30866 9.96194C9.36932 9.98707 9.43434 10 9.5 10C9.56566 10 9.63068 9.98707 9.69134 9.96194C9.752 9.93681 9.80712 9.89998 9.85355 9.85355C9.89998 9.80712 9.93681 9.752 9.96194 9.69134C9.98707 9.63068 10 9.56566 10 9.5C10 8.94772 10.4477 8.5 11 8.5C11.5523 8.5 12 8.94772 12 9.5C12 9.8283 11.9353 10.1534 11.8097 10.4567C11.6841 10.76 11.4999 11.0356 11.2678 11.2678C11.0356 11.4999 10.76 11.6841 10.4567 11.8097C10.1534 11.9353 9.8283 12 9.5 12C9.1717 12 8.84661 11.9353 8.54329 11.8097C8.23998 11.6841 7.96438 11.4999 7.73223 11.2678C7.50009 11.0356 7.31594 10.76 7.1903 10.4567C7.06466 10.1534 7 9.8283 7 9.5C7 9.43434 6.98707 9.36932 6.96194 9.30866C6.93681 9.248 6.89998 9.19288 6.85355 9.14645C6.80712 9.10002 6.752 9.06319 6.69134 9.03806C6.63068 9.01293 6.56566 9 6.5 9Z" fill="white"/>
<path fill-rule="evenodd" clip-rule="evenodd" d="M1 0C0.447715 0 0 0.447716 0 1V19C0 19.5523 0.447715 20 1 20H15C15.5523 20 16 19.5523 16 19V1C16 0.447715 15.5523 0 15 0H1ZM2 2V18H14V2H2Z" fill="white"/>
</svg>
