<svg width="24" height="25" viewBox="0 0 24 25" fill="none" xmlns="http://www.w3.org/2000/svg">
<path d="M5 3.5H19V21.5H5V3.5Z" stroke="white" stroke-width="2"/>
<path d="M9 9C9 8.80302 9.0388 8.60796 9.11418 8.42597C9.18956 8.24399 9.30005 8.07863 9.43934 7.93934C9.57863 7.80005 9.74399 7.68956 9.92597 7.61418C10.108 7.5388 10.303 7.5 10.5 7.5C10.697 7.5 10.892 7.5388 11.074 7.61418C11.256 7.68956 11.4214 7.80005 11.5607 7.93934C11.6999 8.07863 11.8104 8.24399 11.8858 8.42597C11.9612 8.60796 12 8.80302 12 9" stroke="white" stroke-width="2" stroke-linecap="round"/>
<path d="M15 9C15 9.19698 14.9612 9.39204 14.8858 9.57403C14.8104 9.75601 14.6999 9.92137 14.5607 10.0607C14.4214 10.1999 14.256 10.3104 14.074 10.3858C13.892 10.4612 13.697 10.5 13.5 10.5C13.303 10.5 13.108 10.4612 12.926 10.3858C12.744 10.3104 12.5786 10.1999 12.4393 10.0607C12.3001 9.92137 12.1896 9.75601 12.1142 9.57402C12.0388 9.39204 12 9.19698 12 9" stroke="white" stroke-width="2" stroke-linecap="round"/>
<path d="M10 17.5H14" stroke="white" stroke-width="2" stroke-linecap="round"/>
</svg>

