<svg width="32" height="32" viewBox="0 0 32 32" fill="none" xmlns="http://www.w3.org/2000/svg">
<path d="M5 5C5 5 9 7 16 5C23 3 27 5 27 5" stroke="white" stroke-width="2" stroke-linecap="round"/>
<path fill-rule="evenodd" clip-rule="evenodd" d="M20.5 10C21.3284 10 22 9.32843 22 8.5C22 7.67157 21.3284 7 20.5 7C19.6716 7 19 7.67157 19 8.5C19 9.32843 19.6716 10 20.5 10ZM26 11.5C26 12.3284 25.3284 13 24.5 13C23.6716 13 23 12.3284 23 11.5C23 10.6716 23.6716 10 24.5 10C25.3284 10 26 10.6716 26 11.5ZM12.486 23.7808C11.6975 23.3287 11.0087 22.9081 10.4152 22.5294C11.0087 22.1507 11.6975 21.7301 12.486 21.278C13.9627 20.4314 15.6167 19.612 17.2239 19.0094C18.8583 18.3966 20.3118 18.0588 21.4291 18.0588C24.7247 18.0588 26.8824 20.3066 26.8824 22.5294C26.8824 24.7522 24.7247 27 21.4291 27C20.3118 27 18.8583 26.6622 17.2239 26.0494C15.6167 25.4468 13.9627 24.6274 12.486 23.7808ZM8.71127 21.2512L4.77967 19.067C4.29688 18.7988 3.68808 18.9727 3.41987 19.4555C3.15165 19.9383 3.3256 20.5471 3.80838 20.8153L6.77714 22.4646L3.77985 24.2595C3.30603 24.5433 3.15193 25.1574 3.43567 25.6312C3.71942 26.105 4.33354 26.2591 4.80737 25.9754L8.5766 23.7182C9.34643 24.2309 10.3138 24.8408 11.4912 25.5158C14.5805 27.287 18.504 29 21.4291 29C25.5536 29 28.8824 26.1136 28.8824 22.5294C28.8824 18.9452 25.5536 16.0588 21.4291 16.0588C18.504 16.0588 14.5805 17.7718 11.4912 19.543C10.3814 20.1793 9.4583 20.7576 8.71127 21.2512ZM22.5 23C23.3284 23 24 22.3284 24 21.5C24 20.6716 23.3284 20 22.5 20C21.6716 20 21 20.6716 21 21.5C21 22.3284 21.6716 23 22.5 23Z" fill="white"/>
</svg>

