<?xml version="1.0" encoding="UTF-8"?>
<svg fill="none" viewBox="0 0 1200 840" xmlns="http://www.w3.org/2000/svg">
<g filter="url(#a)">
<rect x="20.562" y="52.018" width="1158" height="760" rx="32" fill="#070C10"/>
<rect x="18.562" y="50.018" width="1162" height="764" rx="34" stroke="#F4F4F6" stroke-width="4"/>
</g>
<rect transform="translate(88 120)" width="1024" height="600" fill="#070C10"/>
<rect x="88" y="120" width="1024" height="600" fill="#000"/>
<path d="m896.84 738.16s-4.314-1.653-8.68 1.774c0 0-5.196 3.402-6.149 17.74 0 0-0.291 2.385 1.87 2.738 0 0 2.17 0.413 2.461-1.378 0.283-1.791 0.23-10.833 4.34-15.474 0 0 0.397-0.586 1.491-1.042 0.909-0.551 1.632-1.55 2.17-2.343 0 0 0.803-1.042 2.505-2.006" fill="#F8F8F9"/>
<path d="m904.63 737.83s-3.838-1.188-7.966 1.886c0 0-4.905 2.928-6.042 14.545 0 0-0.424 2.867-0.195 4.323 0 0 0.186 1.696 1.985 1.851 0 0 2.161 0.164 2.294-1.817 0.132-1.972 0.185-2.781 0.185-2.781s0.344-7.725 3.555-11.643l0.776 0.569s1.094-4.056 5.408-6.941v8e-3z" fill="#F8F8F9"/>
<path d="m912.41 737.82s-5.134-1.171-8.848 2.773c0 0-3.687 3.212-4.772 11.186 0 0-0.459 4.288-0.538 6.372 0 0-0.035 2.024 1.95 2.282 0 0 2.055 0.121 2.187-1.998 0 0 0.133-9.765 3.837-14.234l0.918 0.559s1.605-4.512 5.266-6.932v-8e-3z" fill="#F8F8F9"/>
<path d="m918.32 737.72s-5.169-0.207-8.204 4.882c0 0-3.502 4.986-3.493 15.199 0 0-0.212 2.42 1.729 2.644 0 0 2.302 0.138 2.302-2.428 0 0 0.106-10.076 4.04-14.149 0 0 3.485 4.082 3.776 13.701 0 0 0.123 6.588 1.376 10.222 0 0 1.138-4.074 1.367-9.723 0 0-0.097-1.033 0.821-1.756 0 0 0.599-0.293 0.485-1.318 0 0-0.847-8.387-3.705-13.141 0 0 6.069-0.387 7.269 11.462 0 0 8e-3 1.731 0.996 2.807 0 0 0.724 0.5 0.794 1.714 0 0 0.177 1.679-0.335 7.096 0 0-0.123 1.188 0.415 2.876 0 0 1.499-4.048 1.102-8.017 0 0-0.194-3.221 1.447-4.306 0 0-0.141-8.99-3.802-13.907 0 0-2.902-4.082-8.38-3.858z" fill="#F8F8F9"/>
<path d="m936.39 778.43s4.313 1.653 8.68-1.774c0 0 5.187-3.402 6.139-17.74 0 0 0.291-2.385-1.87-2.738 0 0-2.17-0.413-2.461 1.378-0.282 1.791-0.229 10.833-4.34 15.466 0 0-0.397 0.585-1.491 1.042-0.908 0.551-1.632 1.55-2.17 2.342 0 0-0.803 1.042-2.505 2.006" fill="#F8F8F9"/>
<path d="m928.61 778.77s3.838 1.188 7.966-1.894c0 0 4.905-2.928 6.042-14.545 0 0 0.424-2.868 0.195-4.323 0 0-0.186-1.696-1.985-1.851 0 0-2.161-0.164-2.294 1.808-0.132 1.972-0.185 2.782-0.185 2.782s-0.344 7.724-3.555 11.642l-0.776-0.568s-1.094 4.056-5.408 6.94v9e-3z" fill="#F8F8F9"/>
<path d="m920.81 778.76s5.134 1.171 8.848-2.773c0 0 3.687-3.212 4.772-11.186 0 0 0.459-4.288 0.539-6.372 0 0 0.035-2.024-1.95-2.282 0 0-2.055-0.121-2.188 1.997 0 0-0.132 9.766-3.837 14.235l-0.917-0.56s-1.606 4.513-5.267 6.932v9e-3z" fill="#F8F8F9"/>
<path d="m914.92 778.88s5.17 0.207 8.204-4.883c0 0 3.502-4.986 3.493-15.199 0 0 0.212-2.419-1.729-2.643 0 0-2.302-0.138-2.302 2.428 0 0-0.106 10.075-4.04 14.149 0 0-3.484-4.082-3.776-13.701 0 0-0.123-6.588-1.376-10.222 0 0-1.138 4.073-1.367 9.722 0 0 0.097 1.034-0.82 1.757 0 0-0.609 0.293-0.486 1.318 0 0 0.847 8.387 3.705 13.141 0 0-6.069 0.387-7.268-11.462 0 0-9e-3 -1.731-0.997-2.807 0 0-0.723-0.5-0.794-1.714 0 0-0.176-1.679 0.335-7.096 0 0 0.124-1.188-0.414-2.876 0 0-1.5 4.047-1.103 8.017 0 0 0.194 3.221-1.447 4.306 0 0 0.141 8.99 3.802 13.916 0 0 2.902 4.082 8.38 3.858v-9e-3z" fill="#F8F8F9"/>
<path d="m958.3 749.34 2.196-6.579c0.37-1.137 1.605-1.636 2.664-1.111 0.935 0.431 1.332 1.447 0.917 2.463l-3.731 9.137c-0.565 1.352-1.508 1.86-2.814 1.395-0.591-0.19-0.988-0.603-1.305-1.395l-3.732-9.137c-0.423-1.016-0.026-2.024 0.918-2.463 1.058-0.534 2.293 0 2.664 1.111l2.223 6.579z" fill="#F8F8F9"/>
<path d="m965.24 743.32c0-0.508 0.194-0.991 0.565-1.326 0.741-0.75 1.949-0.724 2.69 0 0.344 0.361 0.547 0.844 0.547 1.326v9.644c0.027 1.034-0.811 1.861-1.879 1.878-1.058 0-1.923-0.844-1.923-1.86v-9.671 9e-3zm0.344-6.7c0.865-0.844 2.25-0.818 3.114 0.026 0.838 0.844 0.838 2.17 0 3.014-0.864 0.844-2.249 0.844-3.087 0.026-0.424-0.414-0.671-0.965-0.671-1.542s0.247-1.11 0.644-1.515v-9e-3z" fill="#F8F8F9"/>
<path d="m978.3 741.47c2.84 0.31 3.775 1.516 3.458 2.747-0.194 0.818-0.812 1.301-1.553 1.275-0.123-0.026-0.247-0.026-0.37-0.052l-0.194-0.069-0.344-0.12-0.247-0.069-0.345-0.121c-2.293-0.723-4.145 0.603-4.128 3.135 0.053 2.532 1.923 3.763 4.375 2.962l0.424-0.146 0.176-0.069c1.112-0.388 2.1 0.146 2.276 1.274 0.15 0.939-0.494 1.809-2.276 2.36-0.441 0.146-0.917 0.241-1.411 0.293-4.252 0.387-7.463-2.506-7.41-6.777 0.053-4.289 3.335-7.088 7.586-6.631l-0.017 8e-3z" fill="#F8F8F9"/>
<path d="m984.6 741.62-0.026-2.145c0-1.016 0.838-1.86 1.905-1.86 1.068 0 1.906 0.844 1.879 1.86v2.145h1.138c0.441 0 0.891 0.172 1.209 0.508 0.67 0.628 0.67 1.687 0 2.342-0.344 0.31-0.768 0.482-1.235 0.482h-1.112v8.009c0 0.482-0.194 0.964-0.547 1.326-0.741 0.723-1.923 0.723-2.646 0-0.371-0.362-0.565-0.844-0.565-1.326l0.027-8.026h-0.671c-0.467 0-0.917-0.172-1.261-0.508-0.67-0.629-0.67-1.662 0.026-2.317 0.318-0.31 0.768-0.482 1.235-0.482h0.644v-8e-3z" fill="#F8F8F9"/>
<path d="m991.92 743.25c0-0.896 0.767-1.714 1.923-1.783 1.182-0.095 1.905 0.629 1.852 1.326l-0.026 0.19c0.097-0.121 0.194-0.242 0.318-0.336 1.455-1.542 3.113-1.516 3.881-0.414 0.672 0.965 0.322 2.076-0.671 2.48l-0.194 0.095-0.52 0.172c-0.494 0.173-0.838 0.336-1.138 0.508-1.208 0.698-1.632 1.327-1.632 1.929v5.546c0 1.016-0.838 1.86-1.905 1.86-1.068 0-1.906-0.818-1.906-1.834v-9.739h0.018z" fill="#F8F8F9"/>
<path d="m1001 744.53c1.23-1.998 3.33-3.161 5.58-3.161 3.58 0 6.52 2.894 6.55 6.752 0 3.883-2.94 6.777-6.55 6.777s-6.54-2.894-6.54-6.777c0-1.396 0.31-2.584 0.96-3.591zm2.86 4.167c0.32 2.222 1.65 3.204 3.29 2.842 1.08-0.215 1.9-1.18 2.1-2.824 0.04-0.388 0.04-0.775 0-1.154-0.22-1.593-1.06-2.532-2.1-2.747-1.58-0.336-2.99 0.628-3.29 2.773-0.02 0.189-0.02 0.387-0.02 0.577 0 0.189 0 0.361 0.02 0.533z" fill="#F8F8F9"/>
<path d="m1014.8 743.34c0-0.913 0.8-1.782 1.91-1.877 1.01-0.095 1.7 0.534 1.7 1.206v0.146c0.59-0.698 1.41-1.154 2.57-1.352 0.62-0.121 1.23-0.121 1.82-0.026 2.62 0.413 4.05 2.101 4.05 4.633v6.924c0 1.033-0.83 1.86-1.88 1.877-1.05 0-1.92-0.818-1.92-1.86v-6.321c0-0.577-0.25-1.137-0.67-1.541-0.86-0.87-2.28-0.87-3.14-0.026-0.41 0.43-0.64 0.964-0.64 1.541v6.321c0 1.016-0.87 1.86-1.94 1.834-1.04 0-1.87-0.844-1.87-1.86v-9.619h0.01z" fill="#F8F8F9"/>
<path d="m1039.2 749.31c0.1 0.456 0.32 0.912 0.65 1.3 1.01 1.18 2.86 1.472 4.96 0.387 1.21-0.654 1.55-0.697 2.2-0.456 0.37 0.146 0.67 0.431 0.81 0.792 0.55 1.301-1.11 3.548-5.75 3.565-4.72 0-7.85-3.806-6.77-8.387 0.62-2.652 2.67-4.556 5.24-5.012 2.97-0.534 5.78 0.939 7.02 3.686 0.32 0.749 0.52 1.515 0.56 2.101 0.15 1.498-0.34 2.024-1.61 2.024h-7.31zm5.16-2.386c-0.02-0.069-0.02-0.172-0.05-0.241-0.4-1.757-1.68-2.583-3.13-2.239-0.92 0.215-1.71 0.99-2.03 2.196-0.03 0.095-0.03 0.189-0.05 0.293h5.26v-9e-3z" fill="#F8F8F9"/>
<path d="m1049.6 743.34c0-0.913 0.79-1.782 1.9-1.877 1.02-0.095 1.7 0.534 1.7 1.206v0.146c0.59-0.698 1.41-1.154 2.57-1.352 0.62-0.121 1.24-0.121 1.83-0.026 2.62 0.413 4.05 2.101 4.05 4.633v6.924c0 1.033-0.84 1.86-1.88 1.877-1.06 0-1.93-0.818-1.93-1.86v-6.321c0-0.577-0.24-1.137-0.67-1.541-0.86-0.87-2.27-0.87-3.14-0.026-0.41 0.43-0.64 0.964-0.64 1.541v6.321c0 1.016-0.87 1.86-1.92 1.834-1.05 0-1.88-0.844-1.88-1.86v-9.619h0.01z" fill="#F8F8F9"/>
<path d="m1067.3 749.31c0.09 0.456 0.32 0.912 0.64 1.3 1.02 1.18 2.87 1.472 4.97 0.387 1.21-0.654 1.56-0.697 2.19-0.456 0.37 0.146 0.67 0.431 0.82 0.792 0.54 1.301-1.12 3.548-5.76 3.565-4.72 0-7.85-3.806-6.76-8.387 0.62-2.652 2.66-4.556 5.24-5.012 2.96-0.534 5.78 0.939 7.01 3.686 0.32 0.749 0.52 1.515 0.57 2.101 0.15 1.498-0.35 2.024-1.61 2.024h-7.31zm5.16-2.386c-0.03-0.069-0.03-0.172-0.05-0.241-0.39-1.757-1.67-2.583-3.14-2.239-0.91 0.215-1.7 0.99-2.02 2.196-0.02 0.095-0.02 0.189-0.05 0.293h5.26v-9e-3z" fill="#F8F8F9"/>
<path d="m1077.7 743.25c0-0.896 0.77-1.714 1.93-1.783 1.19-0.095 1.9 0.629 1.85 1.326l-0.03 0.19c0.1-0.121 0.2-0.242 0.33-0.336 1.45-1.542 3.11-1.516 3.87-0.414 0.67 0.965 0.33 2.076-0.67 2.48l-0.19 0.095-0.52 0.172c-0.5 0.173-0.84 0.336-1.14 0.508-1.21 0.698-1.63 1.327-1.63 1.929v5.546c0 1.016-0.84 1.86-1.91 1.86s-1.91-0.818-1.91-1.834v-9.739h0.02z" fill="#F8F8F9"/>
<path d="m1095.2 742.72c0.03-0.697 0.72-1.326 1.73-1.231 1.11 0.095 1.91 0.964 1.91 1.903v9.67c0 4.823-2.91 7.449-8.06 6.924-1.04-0.121-1.97-0.362-2.86-0.749-1.83-0.818-2.15-2.076-1.26-2.988 0.49-0.534 1.11-0.655 1.95-0.388l0.02 0.026 0.77 0.336c0.18 0.069 0.34 0.146 0.52 0.189 3.24 1.137 5.09-0.172 5.16-2.583 0.03-0.172 0-0.336 0-0.508-1.41 1.955-4.89 2.29-7.29-0.026-1.53-1.498-2.29-3.953-1.8-6.631 0.18-0.964 0.5-1.782 0.94-2.48 2.1-3.307 6.35-3.617 8.27-1.3v-0.172 8e-3zm-4.79 7.888c1.07 1.257 3.02 1.232 4.01-0.069 0.44-0.577 0.67-1.274 0.69-2.29 0-1.636-0.62-2.678-1.61-3.161-1.65-0.792-3.5 0.267-3.8 2.463-0.03 0.215-0.05 0.457-0.05 0.672 0 1.016 0.3 1.808 0.76 2.385z" fill="#F8F8F9"/>
<path d="m1100.9 741.63c1.06-0.431 2.15 0.052 2.59 1.231l2.37 6.2 2.42-6.217c0.47-1.18 1.58-1.662 2.62-1.18 0.94 0.431 1.33 1.473 0.94 2.412l-6.15 14.708c-0.52 1.231-1.55 1.687-2.59 1.274-0.99-0.413-1.42-1.447-0.99-2.437l1.78-4.004-4.02-9.619c-0.37-0.913 0.07-1.981 1.04-2.36l-0.01-8e-3z" fill="#F8F8F9"/>
<defs>
<filter id="a" x="8.5625" y="48.018" width="1182" height="784" color-interpolation-filters="sRGB" filterUnits="userSpaceOnUse">
<feFlood flood-opacity="0" result="BackgroundImageFix"/>
<feColorMatrix in="SourceAlpha" result="hardAlpha" values="0 0 0 0 0 0 0 0 0 0 0 0 0 0 0 0 0 0 127 0"/>
<feOffset dy="8"/>
<feGaussianBlur stdDeviation="4"/>
<feComposite in2="hardAlpha" operator="out"/>
<feColorMatrix values="0 0 0 0 0 0 0 0 0 0 0 0 0 0 0 0 0 0 0.25 0"/>
<feBlend in2="BackgroundImageFix" result="effect1_dropShadow_1687_2671"/>
<feBlend in="SourceGraphic" in2="effect1_dropShadow_1687_2671" result="shape"/>
</filter>
</defs>
</svg>
