<svg width="30" height="32" viewBox="0 0 30 32" fill="none" xmlns="http://www.w3.org/2000/svg">
<path d="M15 2C15.239 2 15.432 2.207 15.432 2.461V2.823V4.31L16.855 4.739C19.598 5.565 21.513 8.171 21.513 11.078V12.309C21.513 15.258 22.22 20.921 26.955 25.715C27.055 25.817 27.146 25.912 27.229 26.001H15H2.77C2.853 25.912 2.944 25.816 3.044 25.715C7.779 20.923 8.486 15.259 8.486 12.309V11.078C8.486 8.172 10.402 5.566 13.144 4.739L14.567 4.31V2.823V2.461C14.567 2.207 14.761 2 15 2ZM15 0C13.658 0 12.568 1.102 12.568 2.461V2.823C9.053 3.882 6.486 7.174 6.486 11.077V12.308C6.486 16 5.271 20.615 1.621 24.308C-2.026 28 1.621 28 1.621 28H15H28.378C28.378 28 32.027 28 28.378 24.308C24.731 20.615 23.514 16 23.514 12.308V11.077C23.514 7.174 20.949 3.882 17.432 2.823V2.461C17.432 1.102 16.344 0 15 0ZM19 30H11C11 31.105 12.193 32 13.667 32H16.334C17.806 32 19 31.105 19 30Z" fill="white"/>
</svg>

