<svg width="32" height="32" viewBox="0 0 32 32" fill="none" xmlns="http://www.w3.org/2000/svg">
<path fill-rule="evenodd" clip-rule="evenodd" d="M14.0003 4C14.0003 2.89543 14.8958 2 16.0003 2C17.1049 2 18.0003 2.89543 18.0003 4V4.53893C18.2996 4.58552 18.5976 4.64263 18.8938 4.71026C18.9934 4.733 19.0939 4.75762 19.295 4.80685C19.5791 4.87642 19.7211 4.91121 19.8465 4.94777C22.3142 5.66729 24.0494 7.87876 24.1613 10.4468C24.167 10.5773 24.167 10.7235 24.167 11.016V11.5434C24.167 12.2099 24.167 12.5432 24.1824 12.8709C24.2777 14.9037 24.815 16.8912 25.7569 18.6951C25.9088 18.9859 26.0767 19.2738 26.4125 19.8494L28.2458 22.9923C29.0251 24.3282 29.4147 24.9961 29.1264 25.4981C28.8381 26 28.0648 26 26.5183 26H5.48241C3.93582 26 3.16253 26 2.87423 25.4981C2.58593 24.9961 2.97557 24.3282 3.75485 22.9923L5.58812 19.8495C5.92393 19.2738 6.09188 18.9859 6.24372 18.6951C7.18564 16.8912 7.72298 14.9037 7.8183 12.8709C7.83366 12.5432 7.83366 12.2099 7.83366 11.5434V11.016C7.83366 10.7235 7.83366 10.5773 7.83935 10.4468C7.95122 7.87876 9.68646 5.66729 12.1542 4.94777C12.2796 4.91121 12.4216 4.87642 12.7057 4.80685C12.9067 4.75762 13.0073 4.73299 13.1069 4.71026C13.4031 4.64263 13.7011 4.58552 14.0003 4.53893V4ZM9.83366 11.016L9.83367 11.5948C9.83368 12.2125 9.83368 12.5896 9.8161 12.9646C9.70716 15.2877 9.09307 17.5592 8.01658 19.6208C7.84282 19.9536 7.65284 20.2793 7.3415 20.813L5.48241 24H26.5183L24.6591 20.8129C24.3478 20.2792 24.1578 19.9536 23.9841 19.6208C22.9076 17.5592 22.2935 15.2877 22.1846 12.9646C22.167 12.5896 22.167 12.2126 22.167 11.5948V11.016C22.167 10.704 22.1665 10.6102 22.1632 10.5338C22.0886 8.82181 20.9318 7.3475 19.2867 6.86782C19.2133 6.84642 19.1223 6.82367 18.8192 6.74945C18.6124 6.69878 18.5294 6.67853 18.4487 6.66009C16.8372 6.29219 15.1635 6.29219 13.552 6.66009C13.4712 6.67853 13.3883 6.69878 13.1814 6.74945C12.8784 6.82367 12.7874 6.84642 12.714 6.86782C11.0689 7.3475 9.91204 8.82181 9.83745 10.5338C9.83413 10.6102 9.83366 10.704 9.83366 11.016Z" fill="white"/>
<path d="M16.0003 30C14.2911 30 12.7988 29.1956 12.0004 28H20.0003C19.2019 29.1956 17.7095 30 16.0003 30Z" fill="white"/>
</svg>

