<svg width="25" height="24" viewBox="0 0 25 24" fill="none" xmlns="http://www.w3.org/2000/svg">
<path d="M6 6C6 5.44772 5.55228 5 5 5C4.44772 5 4 5.44772 4 6V9.1579C4 9.71018 4.44772 10.1579 5 10.1579C5.55228 10.1579 6 9.71018 6 9.1579V6Z" fill="white"/>
<path fill-rule="evenodd" clip-rule="evenodd" d="M18 1.26316V3.91589C19.2061 2.73092 20.8598 2 22.6842 2V4C20.0972 4 18 6.09719 18 8.68421V22.7368C18 23.4345 17.4345 24 16.7368 24H1.26316C0.565535 24 0 23.4345 0 22.7368V7.57895C0 3.39321 3.39321 0 7.57895 0H16.7368C17.4345 0 18 0.565535 18 1.26316ZM16 22H2V7.57895C2 4.49778 4.49778 2 7.57895 2H16V22Z" fill="white"/>
<path d="M23.6538 7.46645C23.14 6.72839 22.7241 6.24983 22.5 6C22.2759 6.24983 21.86 6.72839 21.3462 7.46645C20.6618 8.44939 20 9.69777 20 10.6285C20 11.9408 21.1152 13 22.5 13C23.8848 13 25 11.9408 25 10.6285C25 9.69777 24.3382 8.44939 23.6538 7.46645Z" fill="white"/>
</svg>

