<svg width="32" height="32" viewBox="0 0 32 32" fill="none" xmlns="http://www.w3.org/2000/svg">
<path fill-rule="evenodd" clip-rule="evenodd" d="M6.55865 6C6.31051 5.99997 6.06884 5.99994 5.86408 6.0164C5.63931 6.03446 5.37395 6.07705 5.10605 6.21092C4.71862 6.4045 4.4045 6.71862 4.21092 7.10605C4.07705 7.37395 4.03446 7.63931 4.0164 7.86408C3.99994 8.06884 3.99997 8.31051 4 8.55865L4 15L3 15C2.44771 15 2 15.4477 2 16C2 16.5523 2.44772 17 3 17L4 17L4 23.4414C3.99997 23.6895 3.99994 23.9312 4.0164 24.1359C4.03446 24.3607 4.07705 24.6261 4.21092 24.894C4.4045 25.2814 4.71862 25.5955 5.10605 25.7891C5.37395 25.923 5.63931 25.9655 5.86407 25.9836C6.06885 26.0001 6.31053 26 6.55868 26L15 26V27C15 27.5523 15.4477 28 16 28C16.5523 28 17 27.5523 17 27V26L25.4413 26C25.6895 26 25.9312 26.0001 26.1359 25.9836C26.3607 25.9655 26.6261 25.923 26.894 25.7891C27.2814 25.5955 27.5955 25.2814 27.7891 24.894C27.923 24.6261 27.9655 24.3607 27.9836 24.1359C28.0001 23.9312 28 23.6895 28 23.4413V17H29C29.5523 17 30 16.5523 30 16C30 15.4477 29.5523 15 29 15H28V8.55868C28 8.31053 28.0001 8.06885 27.9836 7.86408C27.9655 7.63931 27.923 7.37395 27.7891 7.10605C27.5955 6.71862 27.2814 6.4045 26.894 6.21092C26.6261 6.07705 26.3607 6.03446 26.1359 6.0164C25.9312 5.99994 25.6895 5.99997 25.4414 6H6.55865ZM25.9999 16L26 15.9863V8.59C26 8.29848 25.9993 8.13897 25.99 8.02428L25.9889 8.0111L25.9757 8.00997C25.861 8.00076 25.7015 8 25.41 8H6.59C6.29848 8 6.13897 8.00076 6.02428 8.00997L6.0111 8.0111L6.00997 8.02428C6.00076 8.13897 6 8.29848 6 8.59001V23.41C6 23.7015 6.00076 23.861 6.00997 23.9757L6.0111 23.9889L6.02428 23.99C6.13897 23.9993 6.29848 24 6.59 24H25.41C25.7015 24 25.861 23.9993 25.9757 23.99L25.9889 23.9889L25.99 23.9757C25.9993 23.861 26 23.7015 26 23.41V16.0137L25.9999 16Z" fill="white"/>
</svg>

