<svg width="104" height="40" viewBox="0 0 104 40" fill="none" xmlns="http://www.w3.org/2000/svg">
<g>
<path d="M39.3672 16.041C39.3672 15.9434 39.4095 15.8392 39.4941 15.7285L43.9326 10.1865C44.014 10.0824 44.1019 10.0189 44.1963 9.99609C44.2939 9.97331 44.3802 9.98307 44.4551 10.0254C44.5332 10.0645 44.5869 10.1296 44.6162 10.2207C44.6488 10.3118 44.6406 10.4193 44.5918 10.543L43.1367 14.498H45.8955C45.9997 14.498 46.0843 14.5306 46.1494 14.5957C46.2145 14.6576 46.2471 14.7357 46.2471 14.8301C46.2471 14.931 46.2048 15.0352 46.1201 15.1426L41.6816 20.6895C41.6003 20.7904 41.5107 20.8522 41.4131 20.875C41.3187 20.901 41.2324 20.8929 41.1543 20.8506C41.0794 20.8115 41.0257 20.7464 40.9932 20.6553C40.9639 20.5641 40.9736 20.4551 41.0225 20.3281L42.4775 16.373H39.7188C39.6146 16.373 39.5299 16.3421 39.4648 16.2803C39.3997 16.2152 39.3672 16.1354 39.3672 16.041Z" fill="#387DC5"/>
<path d="M59.3672 16.041C59.3672 15.9434 59.4095 15.8392 59.4941 15.7285L63.9326 10.1865C64.014 10.0824 64.1019 10.0189 64.1963 9.99609C64.2939 9.97331 64.3802 9.98307 64.4551 10.0254C64.5332 10.0645 64.5869 10.1296 64.6162 10.2207C64.6488 10.3118 64.6406 10.4193 64.5918 10.543L63.1367 14.498H65.8955C65.9997 14.498 66.0843 14.5306 66.1494 14.5957C66.2145 14.6576 66.2471 14.7357 66.2471 14.8301C66.2471 14.931 66.2048 15.0352 66.1201 15.1426L61.6816 20.6895C61.6003 20.7904 61.5107 20.8522 61.4131 20.875C61.3187 20.901 61.2324 20.8929 61.1543 20.8506C61.0794 20.8115 61.0257 20.7464 60.9932 20.6553C60.9639 20.5641 60.9736 20.4551 61.0225 20.3281L62.4775 16.373H59.7188C59.6146 16.373 59.5299 16.3421 59.4648 16.2803C59.3997 16.2152 59.3672 16.1354 59.3672 16.041Z" fill="#387DC5"/>
<path d="M49.2305 32.3369C49.2305 32.249 49.2686 32.1553 49.3447 32.0557L53.3394 27.0679C53.4126 26.9741 53.4917 26.917 53.5767 26.8965C53.6646 26.876 53.7422 26.8848 53.8096 26.9229C53.8799 26.958 53.9282 27.0166 53.9546 27.0986C53.9839 27.1807 53.9766 27.2773 53.9326 27.3887L52.623 30.9482H55.106C55.1997 30.9482 55.2759 30.9775 55.3345 31.0361C55.3931 31.0918 55.4224 31.1621 55.4224 31.2471C55.4224 31.3379 55.3843 31.4316 55.3081 31.5283L51.3135 36.5205C51.2402 36.6113 51.1597 36.667 51.0718 36.6875C50.9868 36.7109 50.9092 36.7036 50.8389 36.6655C50.7715 36.6304 50.7231 36.5718 50.6938 36.4897C50.6675 36.4077 50.6763 36.3096 50.7202 36.1953L52.0298 32.6357H49.5469C49.4531 32.6357 49.377 32.6079 49.3184 32.5522C49.2598 32.4937 49.2305 32.4219 49.2305 32.3369Z" fill="#387DC5"/>
</g>
</svg>

