<svg width="32" height="24" viewBox="0 0 32 24" fill="none" xmlns="http://www.w3.org/2000/svg">
<path fill-rule="evenodd" clip-rule="evenodd" d="M24.1519 7.79939e-07H8.78906C8.27079 -1.57892e-05 7.82364 -3.00817e-05 7.45518 0.0295796C7.06638 0.0608237 6.67943 0.129779 6.306 0.316369C5.72486 0.606748 5.25368 1.07793 4.9633 1.65907C4.77672 2.03249 4.70776 2.41944 4.67652 2.80825C4.64691 3.17672 4.64692 3.62384 4.64694 4.14212L4.64694 9.4707L0.999878 9.4707C0.447593 9.4707 -0.00012207 9.91842 -0.00012207 10.4707C-0.00012207 11.023 0.447593 11.4707 0.999878 11.4707L4.64694 11.4707L4.64694 15.7402C4.64692 16.2585 4.64691 16.7056 4.67652 17.0741C4.70776 17.4629 4.77672 17.8499 4.9633 18.2233C5.25368 18.8044 5.72486 19.2756 6.306 19.566C6.67943 19.7526 7.06638 19.8215 7.45518 19.8528C7.82365 19.8824 8.27076 19.8824 8.78902 19.8824H15.8823V22.5881C15.8823 23.1404 16.33 23.5881 16.8823 23.5881C17.4346 23.5881 17.8823 23.1404 17.8823 22.5881V19.8824H24.1518C24.6701 19.8824 25.1173 19.8824 25.4858 19.8528C25.8746 19.8215 26.2615 19.7526 26.6349 19.566C27.2161 19.2756 27.6873 18.8044 27.9776 18.2233C28.1642 17.8499 28.2332 17.4629 28.2644 17.0741C28.294 16.7057 28.294 16.2585 28.294 15.7403V11.4707L31 11.4707C31.5522 11.4707 32 11.023 32 10.4707C32 9.91842 31.5522 9.4707 31 9.4707L28.294 9.4707V4.14215C28.294 3.62389 28.294 3.17671 28.2644 2.80824C28.2332 2.41944 28.1642 2.03249 27.9776 1.65907C27.6873 1.07793 27.2161 0.606748 26.6349 0.316369C26.2615 0.129779 25.8746 0.0608237 25.4858 0.0295796C25.1173 -3.00817e-05 24.6701 -1.57892e-05 24.1519 7.79939e-07ZM7.19996 2.10546C7.24863 2.08114 7.34804 2.04464 7.61538 2.02315C7.89411 2.00075 8.2601 2 8.82694 2H24.114C24.6808 2 25.0468 2.00075 25.3256 2.02315C25.5929 2.04464 25.6923 2.08114 25.741 2.10546C25.9347 2.20225 26.0917 2.35931 26.1885 2.55302C26.2129 2.6017 26.2494 2.70111 26.2708 2.96845C26.2932 3.24717 26.294 3.61317 26.294 4.18V15.7024C26.294 16.2692 26.2932 16.6352 26.2708 16.9139C26.2494 17.1813 26.2129 17.2807 26.1885 17.3293C26.0917 17.523 25.9347 17.6801 25.741 17.7769C25.6923 17.8012 25.5929 17.8377 25.3256 17.8592C25.0468 17.8816 24.6808 17.8824 24.114 17.8824H8.82694C8.26011 17.8824 7.89411 17.8816 7.61539 17.8592C7.34804 17.8377 7.24863 17.8012 7.19996 17.7769C7.00625 17.6801 6.84919 17.523 6.75239 17.3293C6.72807 17.2807 6.69157 17.1813 6.67009 16.9139C6.64769 16.6352 6.64694 16.2692 6.64694 15.7024V4.18001C6.64694 3.61317 6.64769 3.24717 6.67009 2.96845C6.69157 2.70111 6.72807 2.6017 6.75239 2.55302C6.84919 2.35931 7.00625 2.20225 7.19996 2.10546Z" fill="#64635F"/>
</svg>
