<svg width="218" height="218" viewBox="0 0 218 218" fill="none" xmlns="http://www.w3.org/2000/svg">
<rect x="58" y="2" width="103" height="214" rx="14" fill="none" stroke="#353535" stroke-width="4"/>
<rect x="217" y="56" width="105" height="216" rx="15" transform="rotate(90 217 56)" stroke="#353535" stroke-width="2" stroke-dasharray="8 4"/>
<path d="M118.094 93.2656C118.094 93.7656 117.927 94.0729 117.594 94.1875C117.271 94.3021 116.911 94.2135 116.516 93.9219L112.969 91.3438C112.667 91.1146 112.516 90.8854 112.516 90.6562C112.516 90.4167 112.667 90.1875 112.969 89.9688L116.516 87.3594C116.911 87.0677 117.271 86.9792 117.594 87.0938C117.927 87.2083 118.094 87.526 118.094 88.0469V93.2656ZM115.891 89.8906H118.359C119.682 89.8906 120.833 90.1667 121.812 90.7188C122.802 91.2604 123.568 92.026 124.109 93.0156C124.661 93.9948 124.938 95.1458 124.938 96.4688V98.375C124.938 98.6146 124.849 98.8229 124.672 99C124.495 99.1771 124.286 99.2656 124.047 99.2656C123.807 99.2656 123.599 99.1771 123.422 99C123.245 98.8229 123.156 98.6146 123.156 98.375V96.4688C123.156 95.4792 122.953 94.6146 122.547 93.875C122.151 93.1354 121.594 92.5625 120.875 92.1562C120.156 91.75 119.312 91.5469 118.344 91.5469H115.891C115.661 91.5469 115.464 91.4688 115.297 91.3125C115.141 91.1458 115.062 90.9479 115.062 90.7188C115.062 90.4896 115.141 90.2969 115.297 90.1406C115.464 89.974 115.661 89.8906 115.891 89.8906ZM99.8906 126.141C99.8906 125.641 100.052 125.333 100.375 125.219C100.708 125.104 101.073 125.193 101.469 125.484L105.016 128.078C105.318 128.297 105.464 128.526 105.453 128.766C105.453 129.005 105.307 129.234 105.016 129.453L101.469 132.047C101.073 132.339 100.708 132.427 100.375 132.312C100.052 132.198 99.8906 131.88 99.8906 131.359V126.141ZM102.094 129.516H99.6094C98.2969 129.516 97.1458 129.24 96.1562 128.688C95.1771 128.146 94.4115 127.38 93.8594 126.391C93.3177 125.411 93.0469 124.266 93.0469 122.953V121.047C93.0469 120.797 93.1354 120.583 93.3125 120.406C93.4896 120.229 93.6979 120.141 93.9375 120.141C94.1771 120.141 94.3854 120.229 94.5625 120.406C94.7396 120.583 94.8281 120.797 94.8281 121.047V122.938C94.8281 123.927 95.026 124.792 95.4219 125.531C95.8177 126.271 96.375 126.844 97.0938 127.25C97.8229 127.667 98.6667 127.875 99.625 127.875H102.094C102.323 127.875 102.516 127.953 102.672 128.109C102.839 128.276 102.922 128.469 102.922 128.688C102.922 128.917 102.839 129.109 102.672 129.266C102.516 129.432 102.323 129.516 102.094 129.516ZM102.75 122.109C101.802 122.109 101.021 121.818 100.406 121.234C99.7917 120.651 99.4844 119.906 99.4844 119V100.438C99.4844 99.5312 99.7917 98.7865 100.406 98.2031C101.021 97.6094 101.802 97.3125 102.75 97.3125H115.234C116.182 97.3125 116.964 97.6094 117.578 98.2031C118.203 98.7865 118.516 99.5312 118.516 100.438V119C118.516 119.906 118.203 120.651 117.578 121.234C116.964 121.818 116.182 122.109 115.234 122.109H102.75ZM102.969 119.75H115.016C115.359 119.75 115.635 119.656 115.844 119.469C116.062 119.271 116.172 119.021 116.172 118.719V100.719C116.172 100.406 116.062 100.151 115.844 99.9531C115.635 99.7552 115.359 99.6562 115.016 99.6562H102.969C102.635 99.6562 102.365 99.7552 102.156 99.9531C101.948 100.151 101.844 100.406 101.844 100.719V118.719C101.844 119.021 101.948 119.271 102.156 119.469C102.365 119.656 102.635 119.75 102.969 119.75Z" fill="#7E7E7E"/>
</svg>

