<svg width="19" height="20" viewBox="0 0 19 20" fill="none" xmlns="http://www.w3.org/2000/svg">
<path d="M14.8784 4.61208C14.3094 1.97785 12.0068 0 9.25665 0C6.50681 0 4.20361 1.97785 3.63489 4.61239C1.62396 4.65557 0 6.33489 0 8.39723C0 10.4869 1.66628 12.1867 3.71404 12.1867H5.58218V12.7819C5.58218 13.1249 5.85467 13.4032 6.19109 13.4032C6.52721 13.4032 6.8 13.1249 6.8 12.7819V12.1867H11.7136V12.7819C11.7136 13.1249 11.9861 13.4032 12.3225 13.4032C12.6586 13.4032 12.9314 13.1249 12.9314 12.7819V12.1867H14.7992C16.8473 12.1867 18.5133 10.4866 18.5133 8.39723C18.5133 6.33458 16.8893 4.65526 14.8784 4.61208ZM14.7992 10.9439H3.71404C2.3376 10.9439 1.21782 9.80133 1.21782 8.39692C1.21782 7.06707 2.22252 5.97362 3.49788 5.86148C3.49788 5.86645 3.49727 5.87111 3.49727 5.87608V6.16062V6.65143V6.7819C3.49727 7.12516 3.77006 7.40318 4.10618 7.40318C4.4423 7.40318 4.71509 7.12516 4.71509 6.7819V6.67256V6.16062V5.87608C4.71509 3.32106 6.7522 1.24256 9.25665 1.24256C11.7605 1.24256 13.7979 3.32106 13.7979 5.87608V6.13764C13.7985 6.13764 13.7997 6.13764 13.8003 6.13764C13.8003 6.1454 13.7979 6.15286 13.7979 6.16062V6.7819C13.7979 7.12516 14.0707 7.40318 14.4068 7.40318C14.7432 7.40318 15.0157 7.12516 15.0157 6.7819V6.35602V6.16062V5.87608C15.0157 5.87111 15.0151 5.86645 15.0151 5.86148C16.2905 5.97362 17.2955 7.06707 17.2955 8.39692C17.2955 9.80133 16.176 10.9439 14.7992 10.9439Z" fill="#969591"/>
<path d="M9.25637 12.5947C8.91995 12.5947 8.64746 12.8731 8.64746 13.216V15.0283C8.64746 15.3712 8.91995 15.6496 9.25637 15.6496C9.59218 15.6496 9.86528 15.3712 9.86528 15.0283V13.216C9.86528 12.8734 9.59249 12.5947 9.25637 12.5947Z" fill="#969591"/>
<path d="M6.19094 14.2148C5.85452 14.2148 5.58203 14.4932 5.58203 14.8361V16.6484C5.58203 16.9914 5.85452 17.2697 6.19094 17.2697C6.52706 17.2697 6.79985 16.9914 6.79985 16.6484V14.8361C6.79985 14.4935 6.52706 14.2148 6.19094 14.2148Z" fill="#969591"/>
<path d="M12.3228 14.2148C11.9864 14.2148 11.7139 14.4932 11.7139 14.8361V16.6484C11.7139 16.9914 11.9864 17.2697 12.3228 17.2697C12.6589 17.2697 12.9317 16.9914 12.9317 16.6484V14.8361C12.9317 14.4935 12.6589 14.2148 12.3228 14.2148Z" fill="#969591"/>
<path d="M9.25637 16.4609C8.91995 16.4609 8.64746 16.7393 8.64746 17.0822V18.8945C8.64746 19.2374 8.91995 19.5158 9.25637 19.5158C9.59218 19.5158 9.86528 19.2374 9.86528 18.8945V17.0822C9.86528 16.7393 9.59249 16.4609 9.25637 16.4609Z" fill="#969591"/>
</svg>
