<svg width="24" height="19" viewBox="0 0 24 19" fill="none" xmlns="http://www.w3.org/2000/svg">
<path d="M20.0578 8.38756C20.0578 5.94686 18.1114 3.96094 15.7193 3.96094C13.7522 3.96094 12.0951 5.30632 11.5662 7.14096C10.8587 6.82318 10.0784 6.64301 9.25664 6.64301C6.50711 6.64301 4.20391 8.62117 3.63489 11.2551C1.62396 11.2989 0 12.9782 0 15.0402C0 17.1299 1.66628 18.8297 3.71404 18.8297H14.7992C16.8473 18.8297 18.5133 17.1296 18.5133 15.0402C18.5133 14.026 18.119 13.1056 17.4803 12.4256C18.9965 11.7356 20.0578 10.188 20.0578 8.38756ZM14.7995 17.5875H3.71435C2.33791 17.5875 1.21812 16.445 1.21812 15.0406C1.21812 13.711 2.22313 12.6176 3.49849 12.5054C3.49849 12.5104 3.49788 12.515 3.49788 12.52V12.8046V13.2954V13.4258C3.49788 13.7688 3.77037 14.0471 4.10679 14.0471C4.44291 14.0471 4.7157 13.7688 4.7157 13.4258V13.3165V12.8042V12.5197C4.7157 9.96437 6.75281 7.88588 9.25695 7.88588C11.7611 7.88588 13.7982 9.96437 13.7982 12.5197V12.7813C13.7988 12.7813 13.8 12.7813 13.8006 12.7813C13.8006 12.789 13.7982 12.7965 13.7982 12.8042V13.4255C13.7982 13.7685 14.071 14.0468 14.4071 14.0468C14.7435 14.0468 15.016 13.7685 15.016 13.4255V12.9996V12.8042V12.5197C15.016 12.5147 15.0154 12.5101 15.0154 12.5051C16.2908 12.6172 17.2958 13.7107 17.2958 15.0402C17.2958 16.445 16.176 17.5875 14.7995 17.5875ZM16.1857 11.5322C15.7802 11.3647 15.3403 11.2653 14.8787 11.2551C14.573 9.83981 13.7638 8.61806 12.6565 7.78647C12.9329 6.31746 14.2001 5.2035 15.7196 5.2035C17.4404 5.2035 18.8403 6.63213 18.8403 8.38756C18.84 9.98146 17.6858 11.3014 16.1857 11.5322Z" fill="#969591"/>
<path d="M15.7191 3.05453C16.0553 3.05453 16.3281 2.77619 16.3281 2.43325V0.621281C16.3281 0.278334 16.0553 0 15.7191 0C15.3827 0 15.1102 0.278334 15.1102 0.621281V2.43325C15.1102 2.7765 15.3827 3.05453 15.7191 3.05453Z" fill="#969591"/>
<path d="M23.3308 7.76611H21.5546C21.2185 7.76611 20.9457 8.04414 20.9457 8.3874C20.9457 8.73035 21.2185 9.00868 21.5546 9.00868H23.3308C23.667 9.00868 23.9398 8.73035 23.9398 8.3874C23.9398 8.04414 23.667 7.76611 23.3308 7.76611Z" fill="#969591"/>
<path d="M20.2759 4.61674L21.5317 3.33535C21.7695 3.09274 21.7689 2.69915 21.5317 2.45685C21.294 2.21393 20.9085 2.21424 20.6708 2.45685L19.4149 3.73794C19.1771 3.98055 19.1771 4.37382 19.4149 4.61674C19.6527 4.85904 20.0381 4.85904 20.2759 4.61674Z" fill="#969591"/>
<path d="M20.2768 12.1585C20.0391 11.9159 19.6536 11.9159 19.4152 12.1585C19.1781 12.4008 19.1781 12.7947 19.4152 13.037L20.6711 14.3181C20.9089 14.5607 21.2949 14.5607 21.5321 14.3181C21.7705 14.0755 21.7699 13.6822 21.5321 13.4396L20.2768 12.1585Z" fill="#969591"/>
<path d="M11.163 4.61681C11.4007 4.85942 11.7862 4.85911 12.024 4.61681C12.2617 4.37389 12.2617 3.98093 12.024 3.73801L10.7681 2.45662C10.5303 2.21432 10.1449 2.21401 9.90709 2.45662C9.66931 2.69892 9.66931 3.09281 9.90709 3.33511L11.163 4.61681Z" fill="#969591"/>
</svg>
