<svg width="32" height="32" viewBox="0 0 32 32" fill="none" xmlns="http://www.w3.org/2000/svg">
<g clip-path="url(#clip0_73_111)">
<path fill-rule="evenodd" clip-rule="evenodd" d="M16 20C18.2091 20 20 18.2091 20 16C20 13.7909 18.2091 12 16 12C13.7909 12 12 13.7909 12 16C12 18.2091 13.7909 20 16 20ZM16 22C19.3137 22 22 19.3137 22 16C22 12.6863 19.3137 10 16 10C12.6863 10 10 12.6863 10 16C10 19.3137 12.6863 22 16 22Z" fill="white"/>
<path d="M28.3033 10.2192C28.5165 10.6215 28.711 11.0012 28.8336 11.346C28.9611 11.7048 29.0475 12.1225 28.9471 12.5779C28.8483 13.026 28.5989 13.3712 28.3428 13.6488C28.092 13.9205 27.7605 14.2043 27.3948 14.5098C26.3886 15.3502 26.3963 16.7167 27.4822 17.5733C27.8157 17.8364 28.1243 18.0915 28.3646 18.3487C28.6108 18.6123 28.8451 18.9397 28.9473 19.3612C29.0513 19.7905 28.9881 20.1908 28.8737 20.5431C28.7643 20.88 28.587 21.2346 28.3909 21.5986C27.9605 22.3974 27.4589 23.2029 26.8568 23.9427C26.7868 24.0287 26.7132 24.1117 26.6342 24.1913C26.128 24.7023 25.491 24.8877 24.9185 24.9139C24.3559 24.9397 23.8037 24.8171 23.3453 24.6558C22.536 24.3712 21.8001 24.4574 21.268 24.7498C20.7455 25.037 20.3578 25.5532 20.2644 26.2848C20.1761 26.9761 19.942 27.6544 19.4134 28.1637C18.8781 28.6794 18.1782 28.8903 17.4316 28.9249M28.3033 10.2192C28.027 9.69835 27.7159 9.1838 27.367 8.69138M28.3033 10.2192L27.367 8.69138M17.4316 28.9249C17.2832 28.9319 17.1271 28.9407 16.9661 28.9499M17.4316 28.9249L16.9661 28.9499M27.367 8.69138C26.9019 8.03477 26.3866 7.37898 25.5998 7.13608C24.8253 6.89696 24.0213 7.13281 23.2504 7.39501C21.8785 7.86143 20.5373 7.08415 20.2783 5.9872C20.1638 5.50285 20.0504 5.05859 19.9031 4.6893C19.75 4.30557 19.5319 3.92687 19.1633 3.63154C18.7985 3.33921 18.3807 3.20455 17.9711 3.12987C17.5716 3.05704 17.0988 3.02819 16.5729 3.00597M16.5729 3.00597C16.1347 2.98748 15.6504 3.01567 15.2359 3.03981C15.0604 3.05003 14.8975 3.05952 14.7557 3.06444M16.5729 3.00597L14.7557 3.06444M14.7557 3.06444C14.0154 3.09025 13.2743 3.25571 12.6889 3.75663C12.0918 4.26751 11.8183 4.98701 11.7181 5.7706C11.5574 7.0278 10.2745 7.85214 8.88735 7.44442C8.38407 7.29645 7.92736 7.17206 7.52293 7.11222C7.1079 7.0508 6.67125 7.04441 6.23271 7.19538C5.78944 7.34797 5.45232 7.62388 5.17021 7.93455C4.89869 8.23356 4.63583 8.61326 4.35894 9.0332M4.35894 9.0332C4.04865 9.50381 3.77782 9.99026 3.53425 10.4708M4.35894 9.0332L3.53425 10.4708M3.53425 10.4708C3.20488 11.1204 2.87962 11.8642 3.066 12.6485C3.24886 13.4181 3.8627 13.9532 4.4437 14.411C5.06252 14.8985 5.31625 15.4738 5.32724 15.9834C5.33817 16.4902 5.11211 17.0553 4.52718 17.5379C4.18012 17.8243 3.86243 18.0996 3.61762 18.3753C3.36575 18.6592 3.13556 19.0038 3.04272 19.4399C2.94904 19.88 3.02142 20.2892 3.144 20.6525C3.26199 21.0022 3.44968 21.3746 3.65961 21.764M3.65961 21.764C4.00183 22.3986 4.39178 23.001 4.78396 23.5712M3.65961 21.764L4.78396 23.5712M4.78396 23.5712C5.18463 24.1537 5.71109 24.6535 6.43056 24.8738C7.15089 25.0943 7.89593 24.983 8.62901 24.6871C10.109 24.0897 11.4367 24.8401 11.7402 26.2066M11.7402 26.2066C11.8327 26.6234 11.9262 27.0141 12.0497 27.3435M11.7402 26.2066L12.0497 27.3435M12.0497 27.3435C12.1781 27.6856 12.3652 28.0359 12.6895 28.3193M12.0497 27.3435L12.6895 28.3193M16.9661 28.9499C16.3416 28.9856 15.6356 29.0259 14.9522 28.9755M16.9661 28.9499L14.9522 28.9755M12.6895 28.3193C13.0139 28.6028 13.3878 28.7427 13.7506 28.8246M12.6895 28.3193L13.7506 28.8246M13.7506 28.8246C14.1009 28.9037 14.5097 28.9429 14.9522 28.9755M13.7506 28.8246L14.9522 28.9755" stroke="white" stroke-width="2"/>
</g>
<defs>
<clipPath id="clip0_73_111">
<rect width="28" height="28" fill="white" transform="translate(2 2)"/>
</clipPath>
</defs>
</svg>
