<svg width="28" height="30" viewBox="0 0 28 30" fill="none" xmlns="http://www.w3.org/2000/svg">
<path d="M25.4247 13.2961L25.4246 13.2962C24.374 14.2469 24.3908 15.8366 25.5125 16.7952C25.8466 17.0806 26.1534 17.3556 26.3912 17.6314C26.6364 17.9157 26.8565 18.2546 26.9513 18.6785C27.0469 19.1061 26.9903 19.5082 26.8805 19.8747C26.7748 20.2273 26.602 20.6028 26.4059 20.9971L25.4247 13.2961ZM25.4247 13.2961C25.791 12.9646 26.1206 12.6587 26.3691 12.3671C26.6249 12.0668 26.8588 11.7096 26.9505 11.2594C27.0427 10.8062 26.965 10.3862 26.8415 10.0097C26.7223 9.64654 26.532 9.24323 26.3182 8.80622L26.318 8.80589M25.4247 13.2961L26.318 8.80589M26.318 8.80589C26.0435 8.24543 25.7345 7.69173 25.388 7.16175M26.318 8.80589L18.2821 4.18932M18.2821 4.18932L18.2822 4.18958C18.564 5.48249 19.9359 6.24111 21.2267 5.76572C21.9923 5.48362 22.8208 5.21669 23.622 5.48467C24.4192 5.7513 24.93 6.46114 25.388 7.16175M18.2821 4.18932C18.1676 3.66432 18.0561 3.1926 17.9126 2.80308C17.7654 2.40322 17.5555 2.00579 17.1935 1.69156C16.8287 1.37489 16.405 1.22543 15.9855 1.14256C15.5801 1.0625 15.1022 1.0311 14.5764 1.00703L14.5763 1.00703M18.2821 4.18932L14.5763 1.00703M25.388 7.16175L24.551 7.70894M25.388 7.16175C25.388 7.16172 25.3879 7.16168 25.3879 7.16165L24.551 7.70894M24.551 7.70894C24.8722 8.20018 25.1612 8.71743 25.42 9.24573L17.3051 4.40255C17.7193 6.30251 19.7253 7.38436 21.5723 6.70409C23.1815 6.11113 23.5902 6.23927 24.551 7.70894ZM14.5763 1.00703C14.1337 0.986801 13.6412 1.01785 13.2251 1.04408C13.0513 1.05504 12.8908 1.06516 12.7528 1.07035L12.7526 1.07036M14.5763 1.00703L12.7526 1.07036M12.7526 1.07036C11.9967 1.0989 11.2448 1.28372 10.6592 1.82659C10.0752 2.36786 9.81352 3.11962 9.71684 3.93882L9.71684 3.93888M12.7526 1.07036L9.71684 3.93888M9.71684 3.93888C9.541 5.42955 8.20284 6.23051 6.90872 5.81845L9.71684 3.93888ZM2.33953 7.52955L2.33954 7.52954C2.61609 7.07517 2.87618 6.66843 3.1441 6.3488C3.42009 6.01955 3.75634 5.71823 4.20873 5.54952C4.66114 5.3808 5.11207 5.38856 5.53478 5.45633C5.9449 5.52207 6.40577 5.65825 6.90865 5.81843L2.33953 7.52955ZM2.33953 7.52955C2.03162 8.03546 1.76266 8.55874 1.5204 9.07648L2.33953 7.52955ZM2.41331 13.1887L2.41326 13.1886C1.82101 12.6831 1.23437 12.119 1.06208 11.3335C0.889383 10.5462 1.18749 9.78783 1.52037 9.07654L2.41331 13.1887ZM2.41331 13.1887C3.61241 14.2121 3.62319 15.75 2.49713 16.7566C2.14955 17.0673 1.83397 17.3637 1.59193 17.6592C1.34175 17.9646 1.12575 18.321 1.03952 18.7599C0.953185 19.1993 1.01843 19.6119 1.1367 19.9916C1.25107 20.3588 1.43451 20.7542 1.64451 21.1762L1.64453 21.1762M2.41331 13.1887L1.64453 21.1762M1.64453 21.1762C1.98432 21.8588 2.37215 22.5081 2.76361 23.1247L2.76364 23.1248M1.64453 21.1762L2.76364 23.1248M2.76364 23.1248C3.15406 23.7396 3.67579 24.2841 4.40845 24.5271C5.15106 24.7734 5.91623 24.6464 6.6553 24.3233L6.65541 24.3232M2.76364 23.1248L6.65541 24.3232M6.65541 24.3232C7.40082 23.9972 8.07787 24.0614 8.59653 24.3469M6.65541 24.3232L8.59653 24.3469M18.2656 26.1223L18.2656 26.1224C18.1803 26.8451 17.9562 27.5523 17.4416 28.0894C16.9099 28.6443 16.2013 28.8807 15.435 28.9191C15.2883 28.9265 15.1339 28.9361 14.9737 28.946C14.3488 28.9847 13.6355 29.0288 12.9461 28.9737C12.5034 28.9383 12.0894 28.8955 11.7332 28.8084C11.3605 28.7172 10.9825 28.5621 10.66 28.2568C10.3434 27.9571 10.1642 27.5915 10.0411 27.2361C9.92103 26.8895 9.82934 26.4754 9.73674 26.0235L18.2656 26.1223ZM18.2656 26.1223C18.3656 25.2734 18.7806 24.6972 19.2979 24.3892C19.818 24.0796 20.5299 23.9888 21.3207 24.29C21.5427 24.3747 21.7587 24.4612 22.0246 24.5678C22.1634 24.6234 22.3157 24.6845 22.4897 24.7536L22.9957 24.9547M18.2656 26.1223L22.9957 24.9547M22.9957 24.9547L23.4391 24.6388M22.9957 24.9547L23.4391 24.6388M23.4391 24.6388C23.5415 24.5658 23.6189 24.5197 23.7199 24.4594C23.8037 24.4095 23.9036 24.3499 24.0473 24.2574C24.2935 24.099 24.6216 23.8665 24.8805 23.5223L24.8807 23.5219M23.4391 24.6388L24.8807 23.5219M24.8807 23.5219C25.4791 22.7254 25.9777 21.858 26.4059 20.9971L24.8807 23.5219ZM8.59653 24.3469C9.12204 24.6362 9.5678 25.1997 9.73672 26.0234L8.59653 24.3469ZM14 20.4244C11.0874 20.4244 8.69455 18.0135 8.69455 15.0001C8.69455 11.9867 11.0874 9.57576 14 9.57576C16.9126 9.57576 19.3054 11.9866 19.3054 15C19.3054 18.0135 16.9126 20.4244 14 20.4244Z" stroke="white" stroke-width="2"/>
</svg>

