<svg width="182" height="55" viewBox="0 0 182 55" fill="none" xmlns="http://www.w3.org/2000/svg">
  <mask id="mask0_15631_9041" style="mask-type:alpha" maskUnits="userSpaceOnUse" x="1" y="2" width="178" height="52">
    <path d="M154.479 4.3242C162.449 -0.0936534 172.492 2.78598 176.91 10.7558C181.328 18.7259 178.448 28.7685 170.478 33.1865C146.023 46.7422 118.54 53.9014 90.579 53.999C62.6183 54.0965 35.0861 47.1297 10.537 33.7451C2.53623 29.3829 -0.413027 19.3611 3.94907 11.3603C8.31123 3.35957 18.3331 0.409364 26.3338 4.77147C46.0027 15.4953 68.0616 21.0771 90.4637 20.999C112.866 20.9208 134.886 15.1851 154.479 4.3242Z" fill="white"/>
  </mask>
  <g mask="url(#mask0_15631_9041)">
    <path d="M-9.66608 53.0244C-9.66608 52.7776 -9.86566 52.5775 -10.1118 52.5775C-10.358 52.5775 -10.5576 52.7776 -10.5576 53.0244C-10.5576 53.2711 -10.358 53.4712 -10.1118 53.4712C-9.86566 53.4712 -9.66608 53.2711 -9.66608 53.0244Z" fill="#FAF9F5"/>
    <path d="M-9.66608 46.7683C-9.66608 46.5215 -9.86566 46.3214 -10.1119 46.3214C-10.358 46.3214 -10.5576 46.5215 -10.5576 46.7683C-10.5576 47.0151 -10.358 47.2151 -10.1119 47.2151C-9.86566 47.2151 -9.66608 47.0151 -9.66608 46.7683Z" fill="#FAF9F5"/>
    <path d="M-9.66608 40.5122C-9.66608 40.2654 -9.86566 40.0653 -10.1119 40.0653C-10.358 40.0653 -10.5576 40.2654 -10.5576 40.5122C-10.5576 40.759 -10.358 40.959 -10.1119 40.959C-9.86566 40.959 -9.66608 40.759 -9.66608 40.5122Z" fill="#FAF9F5"/>
    <path d="M-9.66608 34.2561C-9.66608 34.0093 -9.86566 33.8092 -10.1119 33.8092C-10.358 33.8092 -10.5576 34.0093 -10.5576 34.2561C-10.5576 34.5029 -10.358 34.7029 -10.1119 34.7029C-9.86566 34.7029 -9.66608 34.5029 -9.66608 34.2561Z" fill="#FAF9F5"/>
    <path d="M-9.66608 28C-9.66608 27.7532 -9.86566 27.5531 -10.1119 27.5531C-10.358 27.5531 -10.5576 27.7532 -10.5576 28C-10.5576 28.2468 -10.358 28.4469 -10.1119 28.4469C-9.86566 28.4469 -9.66608 28.2468 -9.66608 28Z" fill="#FAF9F5"/>
    <path d="M-9.66608 21.7439C-9.66608 21.4971 -9.86566 21.297 -10.1119 21.297C-10.358 21.297 -10.5576 21.4971 -10.5576 21.7439C-10.5576 21.9907 -10.358 22.1908 -10.1119 22.1908C-9.86566 22.1908 -9.66608 21.9907 -9.66608 21.7439Z" fill="#FAF9F5"/>
    <path d="M-9.66608 15.4878C-9.66608 15.241 -9.86566 15.0409 -10.1119 15.0409C-10.358 15.0409 -10.5576 15.241 -10.5576 15.4878C-10.5576 15.7346 -10.358 15.9347 -10.1119 15.9347C-9.86566 15.9347 -9.66608 15.7346 -9.66608 15.4878Z" fill="#FAF9F5"/>
    <path d="M-9.66608 9.23172C-9.66608 8.98492 -9.86566 8.78486 -10.1119 8.78486C-10.358 8.78486 -10.5576 8.98492 -10.5576 9.23172C-10.5576 9.47852 -10.358 9.67859 -10.1119 9.67859C-9.86566 9.67859 -9.66608 9.47852 -9.66608 9.23172Z" fill="#FAF9F5"/>
    <path d="M-9.66608 2.97563C-9.66608 2.72884 -9.86566 2.52877 -10.1119 2.52877C-10.358 2.52877 -10.5576 2.72884 -10.5576 2.97563C-10.5576 3.22243 -10.358 3.42249 -10.1119 3.42249C-9.86566 3.42249 -9.66608 3.22243 -9.66608 2.97563Z" fill="#FAF9F5"/>
    <path d="M-3.42534 53.0244C-3.42534 52.7776 -3.62491 52.5775 -3.87111 52.5775C-4.1173 52.5775 -4.31687 52.7776 -4.31687 53.0244C-4.31687 53.2711 -4.1173 53.4712 -3.87111 53.4712C-3.62491 53.4712 -3.42534 53.2711 -3.42534 53.0244Z" fill="#FAF9F5"/>
    <path d="M-3.42534 46.7683C-3.42534 46.5215 -3.62492 46.3214 -3.87111 46.3214C-4.1173 46.3214 -4.31687 46.5215 -4.31687 46.7683C-4.31687 47.0151 -4.1173 47.2151 -3.87111 47.2151C-3.62492 47.2151 -3.42534 47.0151 -3.42534 46.7683Z" fill="#FAF9F5"/>
    <path d="M-3.42534 40.5122C-3.42534 40.2654 -3.62492 40.0653 -3.87111 40.0653C-4.1173 40.0653 -4.31687 40.2654 -4.31687 40.5122C-4.31687 40.759 -4.1173 40.959 -3.87111 40.959C-3.62492 40.959 -3.42534 40.759 -3.42534 40.5122Z" fill="#FAF9F5"/>
    <path d="M-3.42534 34.2561C-3.42534 34.0093 -3.62492 33.8092 -3.87111 33.8092C-4.1173 33.8092 -4.31687 34.0093 -4.31687 34.2561C-4.31687 34.5029 -4.1173 34.7029 -3.87111 34.7029C-3.62492 34.7029 -3.42534 34.5029 -3.42534 34.2561Z" fill="#FAF9F5"/>
    <path d="M-3.42534 28C-3.42534 27.7532 -3.62492 27.5531 -3.87111 27.5531C-4.1173 27.5531 -4.31687 27.7532 -4.31687 28C-4.31687 28.2468 -4.1173 28.4469 -3.87111 28.4469C-3.62492 28.4469 -3.42534 28.2468 -3.42534 28Z" fill="#FAF9F5"/>
    <path d="M-3.42534 21.7439C-3.42534 21.4971 -3.62492 21.297 -3.87111 21.297C-4.1173 21.297 -4.31687 21.4971 -4.31687 21.7439C-4.31687 21.9907 -4.1173 22.1908 -3.87111 22.1908C-3.62492 22.1908 -3.42534 21.9907 -3.42534 21.7439Z" fill="#FAF9F5"/>
    <path d="M-3.42534 15.4878C-3.42534 15.241 -3.62492 15.0409 -3.87111 15.0409C-4.1173 15.0409 -4.31687 15.241 -4.31687 15.4878C-4.31687 15.7346 -4.1173 15.9347 -3.87111 15.9347C-3.62492 15.9347 -3.42534 15.7346 -3.42534 15.4878Z" fill="#FAF9F5"/>
    <path d="M-3.42534 9.23172C-3.42534 8.98492 -3.62492 8.78486 -3.87111 8.78486C-4.1173 8.78486 -4.31687 8.98492 -4.31687 9.23172C-4.31687 9.47852 -4.1173 9.67858 -3.87111 9.67858C-3.62492 9.67858 -3.42534 9.47852 -3.42534 9.23172Z" fill="#FAF9F5"/>
    <path d="M-3.42534 2.97563C-3.42534 2.72884 -3.62492 2.52877 -3.87111 2.52877C-4.1173 2.52877 -4.31687 2.72884 -4.31687 2.97563C-4.31687 3.22243 -4.1173 3.42249 -3.87111 3.42249C-3.62492 3.42249 -3.42534 3.22243 -3.42534 2.97563Z" fill="#FAF9F5"/>
    <path d="M2.81541 53.0244C2.81541 52.7776 2.61583 52.5775 2.36964 52.5775C2.12345 52.5775 1.92387 52.7776 1.92387 53.0244C1.92387 53.2711 2.12345 53.4712 2.36964 53.4712C2.61583 53.4712 2.81541 53.2711 2.81541 53.0244Z" fill="#FAF9F5"/>
    <path d="M2.81541 46.7683C2.81541 46.5215 2.61583 46.3214 2.36964 46.3214C2.12345 46.3214 1.92387 46.5215 1.92387 46.7683C1.92387 47.0151 2.12345 47.2151 2.36964 47.2151C2.61583 47.2151 2.81541 47.0151 2.81541 46.7683Z" fill="#FAF9F5"/>
    <path d="M2.81541 40.5122C2.81541 40.2654 2.61583 40.0653 2.36964 40.0653C2.12345 40.0653 1.92387 40.2654 1.92387 40.5122C1.92387 40.759 2.12345 40.959 2.36964 40.959C2.61583 40.959 2.81541 40.759 2.81541 40.5122Z" fill="#FAF9F5"/>
    <path d="M2.81541 34.2561C2.81541 34.0093 2.61583 33.8092 2.36964 33.8092C2.12345 33.8092 1.92387 34.0093 1.92387 34.2561C1.92387 34.5029 2.12345 34.7029 2.36964 34.7029C2.61583 34.7029 2.81541 34.5029 2.81541 34.2561Z" fill="#FAF9F5"/>
    <path d="M2.81541 28C2.81541 27.7532 2.61583 27.5531 2.36964 27.5531C2.12345 27.5531 1.92387 27.7532 1.92387 28C1.92387 28.2468 2.12345 28.4469 2.36964 28.4469C2.61583 28.4469 2.81541 28.2468 2.81541 28Z" fill="#FAF9F5"/>
    <path d="M2.81541 21.7439C2.81541 21.4971 2.61583 21.297 2.36964 21.297C2.12345 21.297 1.92387 21.4971 1.92387 21.7439C1.92387 21.9907 2.12345 22.1908 2.36964 22.1908C2.61583 22.1908 2.81541 21.9907 2.81541 21.7439Z" fill="#FAF9F5"/>
    <path d="M2.8154 15.4878C2.8154 15.241 2.61583 15.0409 2.36964 15.0409C2.12345 15.0409 1.92387 15.241 1.92387 15.4878C1.92387 15.7346 2.12345 15.9347 2.36964 15.9347C2.61583 15.9347 2.8154 15.7346 2.8154 15.4878Z" fill="#FAF9F5"/>
    <path d="M2.8154 9.23172C2.8154 8.98492 2.61583 8.78486 2.36964 8.78486C2.12345 8.78486 1.92387 8.98492 1.92387 9.23172C1.92387 9.47852 2.12345 9.67858 2.36964 9.67858C2.61583 9.67858 2.8154 9.47852 2.8154 9.23172Z" fill="#FAF9F5"/>
    <path d="M2.8154 2.97563C2.8154 2.72884 2.61583 2.52877 2.36964 2.52877C2.12345 2.52877 1.92387 2.72884 1.92387 2.97563C1.92387 3.22243 2.12345 3.42249 2.36964 3.42249C2.61583 3.42249 2.8154 3.22243 2.8154 2.97563Z" fill="#FAF9F5"/>
    <path d="M9.1415 53.0244C9.1415 52.7303 8.90371 52.4919 8.61038 52.4919C8.31705 52.4919 8.07927 52.7303 8.07927 53.0244C8.07927 53.3184 8.31705 53.5568 8.61038 53.5568C8.90371 53.5568 9.1415 53.3184 9.1415 53.0244Z" fill="#FAF9F5"/>
    <path d="M9.16484 46.7683C9.16484 46.4613 8.9166 46.2124 8.61039 46.2124C8.30417 46.2124 8.05593 46.4613 8.05593 46.7683C8.05593 47.0752 8.30417 47.3241 8.61039 47.3241C8.9166 47.3241 9.16484 47.0752 9.16484 46.7683Z" fill="#FAF9F5"/>
    <path d="M9.16484 40.5122C9.16484 40.2052 8.9166 39.9564 8.61039 39.9564C8.30417 39.9564 8.05593 40.2052 8.05593 40.5122C8.05593 40.8191 8.30417 41.068 8.61039 41.068C8.9166 41.068 9.16484 40.8191 9.16484 40.5122Z" fill="#FAF9F5"/>
    <path d="M9.16484 34.2561C9.16484 33.9491 8.9166 33.7003 8.61038 33.7003C8.30417 33.7003 8.05593 33.9491 8.05593 34.2561C8.05593 34.5631 8.30417 34.8119 8.61038 34.8119C8.9166 34.8119 9.16484 34.5631 9.16484 34.2561Z" fill="#FAF9F5"/>
    <path d="M9.1415 28C9.1415 27.7059 8.90371 27.4676 8.61038 27.4676C8.31705 27.4676 8.07926 27.7059 8.07926 28C8.07926 28.294 8.31705 28.5324 8.61038 28.5324C8.90371 28.5324 9.1415 28.294 9.1415 28Z" fill="#FAF9F5"/>
    <path d="M9.16484 21.7439C9.16484 21.4369 8.9166 21.1881 8.61038 21.1881C8.30417 21.1881 8.05593 21.4369 8.05593 21.7439C8.05593 22.0509 8.30417 22.2997 8.61038 22.2997C8.9166 22.2997 9.16484 22.0509 9.16484 21.7439Z" fill="#FAF9F5"/>
    <path d="M9.1415 15.4878C9.1415 15.1938 8.90371 14.9554 8.61038 14.9554C8.31705 14.9554 8.07926 15.1938 8.07926 15.4878C8.07926 15.7819 8.31705 16.0202 8.61038 16.0202C8.90371 16.0202 9.1415 15.7819 9.1415 15.4878Z" fill="#FAF9F5"/>
    <path d="M9.16484 9.23172C9.16484 8.92475 8.9166 8.6759 8.61038 8.6759C8.30416 8.6759 8.05593 8.92475 8.05593 9.23172C8.05593 9.53869 8.30416 9.78754 8.61038 9.78754C8.9166 9.78754 9.16484 9.53869 9.16484 9.23172Z" fill="#FAF9F5"/>
    <path d="M9.16484 2.97563C9.16484 2.66866 8.9166 2.41981 8.61038 2.41981C8.30416 2.41981 8.05593 2.66866 8.05593 2.97563C8.05593 3.2826 8.30416 3.53146 8.61038 3.53146C8.9166 3.53146 9.16484 3.2826 9.16484 2.97563Z" fill="#FAF9F5"/>
    <path d="M15.543 53.0244C15.543 52.6413 15.2332 52.3308 14.8511 52.3308C14.469 52.3308 14.1593 52.6413 14.1593 53.0244C14.1593 53.4074 14.469 53.7179 14.8511 53.7179C15.2332 53.7179 15.543 53.4074 15.543 53.0244Z" fill="#FAF9F5"/>
    <path d="M15.543 46.7683C15.543 46.3852 15.2332 46.0747 14.8511 46.0747C14.469 46.0747 14.1593 46.3852 14.1593 46.7683C14.1593 47.1513 14.469 47.4618 14.8511 47.4618C15.2332 47.4618 15.543 47.1513 15.543 46.7683Z" fill="#FAF9F5"/>
    <path d="M15.543 40.5122C15.543 40.1291 15.2332 39.8186 14.8511 39.8186C14.469 39.8186 14.1593 40.1291 14.1593 40.5122C14.1593 40.8952 14.469 41.2057 14.8511 41.2057C15.2332 41.2057 15.543 40.8952 15.543 40.5122Z" fill="#FAF9F5"/>
    <path d="M15.543 34.2561C15.543 33.873 15.2332 33.5625 14.8511 33.5625C14.469 33.5625 14.1593 33.873 14.1593 34.2561C14.1593 34.6391 14.469 34.9496 14.8511 34.9496C15.2332 34.9496 15.543 34.6391 15.543 34.2561Z" fill="#FAF9F5"/>
    <path d="M15.543 28C15.543 27.617 15.2332 27.3064 14.8511 27.3064C14.469 27.3064 14.1593 27.617 14.1593 28C14.1593 28.383 14.469 28.6935 14.8511 28.6935C15.2332 28.6935 15.543 28.383 15.543 28Z" fill="#FAF9F5"/>
    <path d="M15.543 21.7439C15.543 21.3609 15.2332 21.0503 14.8511 21.0503C14.469 21.0503 14.1593 21.3609 14.1593 21.7439C14.1593 22.1269 14.469 22.4375 14.8511 22.4375C15.2332 22.4375 15.543 22.1269 15.543 21.7439Z" fill="#FAF9F5"/>
    <path d="M15.5204 15.4878C15.5204 15.1173 15.2207 14.8169 14.8511 14.8169C14.4815 14.8169 14.1819 15.1173 14.1819 15.4878C14.1819 15.8583 14.4815 16.1587 14.8511 16.1587C15.2207 16.1587 15.5204 15.8583 15.5204 15.4878Z" fill="#FAF9F5"/>
    <path d="M15.543 9.23173C15.543 8.84869 15.2332 8.53817 14.8511 8.53817C14.469 8.53817 14.1593 8.84869 14.1593 9.23173C14.1593 9.61476 14.469 9.92528 14.8511 9.92528C15.2332 9.92528 15.543 9.61476 15.543 9.23173Z" fill="#FAF9F5"/>
    <path d="M15.543 2.97563C15.543 2.5926 15.2332 2.28208 14.8511 2.28208C14.469 2.28208 14.1593 2.5926 14.1593 2.97563C14.1593 3.35867 14.469 3.66918 14.8511 3.66918C15.2332 3.66918 15.543 3.35867 15.543 2.97563Z" fill="#FAF9F5"/>
    <path d="M21.9174 53.0244C21.9174 52.5673 21.5478 52.1968 21.0919 52.1968C20.636 52.1968 20.2664 52.5673 20.2664 53.0244C20.2664 53.4814 20.636 53.8519 21.0919 53.8519C21.5478 53.8519 21.9174 53.4814 21.9174 53.0244Z" fill="#FAF9F5"/>
    <path d="M21.9174 46.7683C21.9174 46.3112 21.5478 45.9407 21.0919 45.9407C20.636 45.9407 20.2664 46.3112 20.2664 46.7683C20.2664 47.2253 20.636 47.5958 21.0919 47.5958C21.5478 47.5958 21.9174 47.2253 21.9174 46.7683Z" fill="#FAF9F5"/>
    <path d="M21.9174 40.5122C21.9174 40.0551 21.5478 39.6846 21.0919 39.6846C20.636 39.6846 20.2664 40.0551 20.2664 40.5122C20.2664 40.9692 20.636 41.3397 21.0919 41.3397C21.5478 41.3397 21.9174 40.9692 21.9174 40.5122Z" fill="#FAF9F5"/>
    <path d="M21.9174 34.2561C21.9174 33.799 21.5478 33.4286 21.0919 33.4286C20.636 33.4286 20.2664 33.799 20.2664 34.2561C20.2664 34.7131 20.636 35.0836 21.0919 35.0836C21.5478 35.0836 21.9174 34.7131 21.9174 34.2561Z" fill="#FAF9F5"/>
    <path d="M21.9174 28C21.9174 27.543 21.5478 27.1725 21.0919 27.1725C20.636 27.1725 20.2664 27.543 20.2664 28C20.2664 28.457 20.636 28.8275 21.0919 28.8275C21.5478 28.8275 21.9174 28.457 21.9174 28Z" fill="#FAF9F5"/>
    <path d="M21.9174 21.7439C21.9174 21.2869 21.5478 20.9164 21.0919 20.9164C20.636 20.9164 20.2664 21.2869 20.2664 21.7439C20.2664 22.2009 20.636 22.5714 21.0919 22.5714C21.5478 22.5714 21.9174 22.2009 21.9174 21.7439Z" fill="#FAF9F5"/>
    <path d="M21.8953 15.4878C21.8953 15.043 21.5356 14.6824 21.0919 14.6824C20.6481 14.6824 20.2884 15.043 20.2884 15.4878C20.2884 15.9326 20.6481 16.2932 21.0919 16.2932C21.5356 16.2932 21.8953 15.9326 21.8953 15.4878Z" fill="#FAF9F5"/>
    <path d="M21.9174 9.23172C21.9174 8.77469 21.5478 8.40419 21.0919 8.40419C20.636 8.40419 20.2664 8.77469 20.2664 9.23172C20.2664 9.68875 20.636 10.0593 21.0919 10.0593C21.5478 10.0593 21.9174 9.68875 21.9174 9.23172Z" fill="#FAF9F5"/>
    <path d="M21.9174 2.97563C21.9174 2.5186 21.5478 2.1481 21.0919 2.1481C20.636 2.1481 20.2664 2.5186 20.2664 2.97563C20.2664 3.43266 20.636 3.80316 21.0919 3.80316C21.5478 3.80316 21.9174 3.43266 21.9174 2.97563Z" fill="#FAF9F5"/>
    <path d="M28.2888 53.0244C28.2888 52.495 27.8607 52.0658 27.3326 52.0658C26.8045 52.0658 26.3764 52.495 26.3764 53.0244C26.3764 53.5537 26.8045 53.9829 27.3326 53.9829C27.8607 53.9829 28.2888 53.5537 28.2888 53.0244Z" fill="#FAF9F5"/>
    <path d="M28.2888 46.7683C28.2888 46.2389 27.8607 45.8097 27.3326 45.8097C26.8045 45.8097 26.3764 46.2389 26.3764 46.7683C26.3764 47.2976 26.8045 47.7268 27.3326 47.7268C27.8607 47.7268 28.2888 47.2976 28.2888 46.7683Z" fill="#FAF9F5"/>
    <path d="M28.2888 40.5122C28.2888 39.9828 27.8607 39.5536 27.3326 39.5536C26.8045 39.5536 26.3764 39.9828 26.3764 40.5122C26.3764 41.0416 26.8045 41.4707 27.3326 41.4707C27.8607 41.4707 28.2888 41.0416 28.2888 40.5122Z" fill="#FAF9F5"/>
    <path d="M28.2888 34.2561C28.2888 33.7267 27.8607 33.2976 27.3326 33.2976C26.8045 33.2976 26.3764 33.7267 26.3764 34.2561C26.3764 34.7855 26.8045 35.2146 27.3326 35.2146C27.8607 35.2146 28.2888 34.7855 28.2888 34.2561Z" fill="#FAF9F5"/>
    <path d="M28.2888 28C28.2888 27.4706 27.8607 27.0415 27.3326 27.0415C26.8045 27.0415 26.3764 27.4706 26.3764 28C26.3764 28.5294 26.8045 28.9585 27.3326 28.9585C27.8607 28.9585 28.2888 28.5294 28.2888 28Z" fill="#FAF9F5"/>
    <path d="M28.2888 21.7439C28.2888 21.2145 27.8607 20.7854 27.3326 20.7854C26.8045 20.7854 26.3764 21.2145 26.3764 21.7439C26.3764 22.2733 26.8045 22.7024 27.3326 22.7024C27.8607 22.7024 28.2888 22.2733 28.2888 21.7439Z" fill="#FAF9F5"/>
    <path d="M28.2888 15.4878C28.2888 14.9584 27.8607 14.5293 27.3326 14.5293C26.8045 14.5293 26.3764 14.9584 26.3764 15.4878C26.3764 16.0172 26.8045 16.4463 27.3326 16.4463C27.8607 16.4463 28.2888 16.0172 28.2888 15.4878Z" fill="#FAF9F5"/>
    <path d="M28.2888 9.23173C28.2888 8.70235 27.8607 8.2732 27.3326 8.2732C26.8045 8.2732 26.3764 8.70235 26.3764 9.23173C26.3764 9.7611 26.8045 10.1902 27.3326 10.1902C27.8607 10.1902 28.2888 9.7611 28.2888 9.23173Z" fill="#FAF9F5"/>
    <path d="M28.2888 2.97563C28.2888 2.44625 27.8607 2.0171 27.3326 2.0171C26.8045 2.0171 26.3764 2.44625 26.3764 2.97563C26.3764 3.50501 26.8045 3.93416 27.3326 3.93416C27.8607 3.93416 28.2888 3.50501 28.2888 2.97563Z" fill="#FAF9F5"/>
    <path d="M34.6578 53.0244C34.6578 52.424 34.1723 51.9373 33.5734 51.9373C32.9745 51.9373 32.489 52.424 32.489 53.0244C32.489 53.6247 32.9745 54.1114 33.5734 54.1114C34.1723 54.1114 34.6578 53.6247 34.6578 53.0244Z" fill="#FAF9F5"/>
    <path d="M34.6578 46.7683C34.6578 46.1679 34.1723 45.6812 33.5734 45.6812C32.9745 45.6812 32.489 46.1679 32.489 46.7683C32.489 47.3686 32.9745 47.8553 33.5734 47.8553C34.1723 47.8553 34.6578 47.3686 34.6578 46.7683Z" fill="#FAF9F5"/>
    <path d="M34.6578 40.5122C34.6578 39.9118 34.1723 39.4251 33.5734 39.4251C32.9745 39.4251 32.489 39.9118 32.489 40.5122C32.489 41.1125 32.9745 41.5992 33.5734 41.5992C34.1723 41.5992 34.6578 41.1125 34.6578 40.5122Z" fill="#FAF9F5"/>
    <path d="M34.6578 34.2561C34.6578 33.6557 34.1723 33.169 33.5734 33.169C32.9745 33.169 32.489 33.6557 32.489 34.2561C32.489 34.8564 32.9745 35.3431 33.5734 35.3431C34.1723 35.3431 34.6578 34.8564 34.6578 34.2561Z" fill="#FAF9F5"/>
    <path d="M34.6578 28C34.6578 27.3996 34.1723 26.9129 33.5734 26.9129C32.9745 26.9129 32.489 27.3996 32.489 28C32.489 28.6004 32.9745 29.087 33.5734 29.087C34.1723 29.087 34.6578 28.6004 34.6578 28Z" fill="#FAF9F5"/>
    <path d="M34.6789 21.7439C34.6789 21.1318 34.1839 20.6356 33.5734 20.6356C32.9628 20.6356 32.4678 21.1318 32.4678 21.7439C32.4678 22.356 32.9628 22.8522 33.5734 22.8522C34.1839 22.8522 34.6789 22.356 34.6789 21.7439Z" fill="#FAF9F5"/>
    <path d="M34.6578 15.4878C34.6578 14.8874 34.1723 14.4008 33.5734 14.4008C32.9745 14.4008 32.489 14.8874 32.489 15.4878C32.489 16.0882 32.9745 16.5749 33.5734 16.5749C34.1723 16.5749 34.6578 16.0882 34.6578 15.4878Z" fill="#FAF9F5"/>
    <path d="M34.6578 9.23172C34.6578 8.63136 34.1723 8.14467 33.5734 8.14467C32.9745 8.14467 32.489 8.63136 32.489 9.23172C32.489 9.83208 32.9745 10.3188 33.5734 10.3188C34.1723 10.3188 34.6578 9.83208 34.6578 9.23172Z" fill="#FAF9F5"/>
    <path d="M34.6578 2.97563C34.6578 2.37527 34.1723 1.88858 33.5734 1.88858C32.9745 1.88858 32.489 2.37527 32.489 2.97563C32.489 3.57599 32.9745 4.06269 33.5734 4.06268C34.1723 4.06268 34.6578 3.57599 34.6578 2.97563Z" fill="#FAF9F5"/>
    <path d="M41.0246 53.0244C41.0246 52.3542 40.4826 51.8109 39.8141 51.8109C39.1456 51.8109 38.6036 52.3542 38.6036 53.0244C38.6036 53.6945 39.1456 54.2378 39.8141 54.2378C40.4826 54.2378 41.0246 53.6945 41.0246 53.0244Z" fill="#FAF9F5"/>
    <path d="M41.0246 46.7683C41.0246 46.0981 40.4826 45.5548 39.8141 45.5548C39.1456 45.5548 38.6036 46.0981 38.6036 46.7683C38.6036 47.4384 39.1456 47.9817 39.8141 47.9817C40.4826 47.9817 41.0246 47.4384 41.0246 46.7683Z" fill="#FAF9F5"/>
    <path d="M41.0246 40.5122C41.0246 39.842 40.4826 39.2987 39.8141 39.2987C39.1456 39.2987 38.6036 39.842 38.6036 40.5122C38.6036 41.1824 39.1456 41.7256 39.8141 41.7256C40.4826 41.7256 41.0246 41.1824 41.0246 40.5122Z" fill="#FAF9F5"/>
    <path d="M41.0246 34.2561C41.0246 33.5859 40.4826 33.0426 39.8141 33.0426C39.1456 33.0426 38.6036 33.5859 38.6036 34.2561C38.6036 34.9263 39.1456 35.4696 39.8141 35.4696C40.4826 35.4696 41.0246 34.9263 41.0246 34.2561Z" fill="#FAF9F5"/>
    <path d="M41.0246 28C41.0246 27.3298 40.4826 26.7865 39.8141 26.7865C39.1456 26.7865 38.6036 27.3298 38.6036 28C38.6036 28.6702 39.1456 29.2135 39.8141 29.2135C40.4826 29.2135 41.0246 28.6702 41.0246 28Z" fill="#FAF9F5"/>
    <path d="M41.0246 21.7439C41.0246 21.0737 40.4826 20.5304 39.8141 20.5304C39.1456 20.5304 38.6036 21.0737 38.6036 21.7439C38.6036 22.4141 39.1456 22.9574 39.8141 22.9574C40.4826 22.9574 41.0246 22.4141 41.0246 21.7439Z" fill="#FAF9F5"/>
    <path d="M41.0246 15.4878C41.0246 14.8176 40.4826 14.2743 39.8141 14.2743C39.1456 14.2743 38.6036 14.8176 38.6036 15.4878C38.6036 16.158 39.1456 16.7013 39.8141 16.7013C40.4826 16.7013 41.0246 16.158 41.0246 15.4878Z" fill="#FAF9F5"/>
    <path d="M41.0454 9.23172C41.0454 8.55 40.4941 7.99735 39.8141 7.99735C39.1341 7.99735 38.5828 8.55 38.5828 9.23172C38.5828 9.91344 39.1341 10.4661 39.8141 10.4661C40.4942 10.4661 41.0454 9.91344 41.0454 9.23172Z" fill="#FAF9F5"/>
    <path d="M41.0246 2.97563C41.0246 2.30545 40.4826 1.76215 39.8141 1.76215C39.1456 1.76215 38.6036 2.30545 38.6036 2.97563C38.6036 3.64582 39.1456 4.18911 39.8141 4.18911C40.4826 4.18911 41.0246 3.64582 41.0246 2.97563Z" fill="#FAF9F5"/>
    <path d="M47.3896 53.0244C47.3896 52.2853 46.792 51.6863 46.0548 51.6863C45.3177 51.6863 44.72 52.2853 44.72 53.0244C44.72 53.7634 45.3177 54.3624 46.0548 54.3624C46.792 54.3624 47.3896 53.7634 47.3896 53.0244Z" fill="#FAF9F5"/>
    <path d="M47.3896 46.7683C47.3896 46.0293 46.792 45.4302 46.0548 45.4302C45.3177 45.4302 44.72 46.0293 44.72 46.7683C44.72 47.5073 45.3177 48.1063 46.0548 48.1063C46.792 48.1063 47.3896 47.5073 47.3896 46.7683Z" fill="#FAF9F5"/>
    <path d="M47.3896 40.5122C47.3896 39.7732 46.792 39.1741 46.0548 39.1741C45.3177 39.1741 44.72 39.7732 44.72 40.5122C44.72 41.2512 45.3177 41.8503 46.0548 41.8503C46.792 41.8503 47.3896 41.2512 47.3896 40.5122Z" fill="#FAF9F5"/>
    <path d="M47.3896 34.2561C47.3896 33.5171 46.792 32.918 46.0548 32.918C45.3177 32.918 44.72 33.5171 44.72 34.2561C44.72 34.9951 45.3177 35.5942 46.0548 35.5942C46.792 35.5942 47.3896 34.9951 47.3896 34.2561Z" fill="#FAF9F5"/>
    <path d="M47.3896 28C47.3896 27.261 46.792 26.6619 46.0548 26.6619C45.3177 26.6619 44.72 27.261 44.72 28C44.72 28.739 45.3177 29.3381 46.0548 29.3381C46.792 29.3381 47.3896 28.739 47.3896 28Z" fill="#FAF9F5"/>
    <path d="M47.3691 21.7439C47.3691 21.0163 46.7807 20.4265 46.0548 20.4265C45.329 20.4265 44.7406 21.0163 44.7406 21.7439C44.7406 22.4715 45.329 23.0613 46.0549 23.0613C46.7807 23.0613 47.3691 22.4715 47.3691 21.7439Z" fill="#FAF9F5"/>
    <path d="M47.3896 15.4878C47.3896 14.7488 46.792 14.1497 46.0548 14.1497C45.3177 14.1497 44.72 14.7488 44.72 15.4878C44.72 16.2268 45.3177 16.8259 46.0548 16.8259C46.792 16.8259 47.3896 16.2268 47.3896 15.4878Z" fill="#FAF9F5"/>
    <path d="M47.3896 9.23173C47.3896 8.49272 46.792 7.89364 46.0548 7.89364C45.3177 7.89364 44.72 8.49272 44.72 9.23173C44.72 9.97073 45.3177 10.5698 46.0548 10.5698C46.792 10.5698 47.3896 9.97073 47.3896 9.23173Z" fill="#FAF9F5"/>
    <path d="M47.3896 2.97563C47.3896 2.23663 46.792 1.63755 46.0548 1.63755C45.3177 1.63755 44.72 2.23663 44.72 2.97563C44.72 3.71464 45.3177 4.31372 46.0548 4.31372C46.792 4.31372 47.3896 3.71464 47.3896 2.97563Z" fill="#FAF9F5"/>
    <path d="M53.7531 53.0244C53.7531 52.2174 53.1005 51.5633 52.2956 51.5633C51.4906 51.5633 50.8381 52.2174 50.8381 53.0244C50.8381 53.8313 51.4906 54.4854 52.2956 54.4854C53.1005 54.4854 53.7531 53.8313 53.7531 53.0244Z" fill="#FAF9F5"/>
    <path d="M53.7531 46.7683C53.7531 45.9613 53.1005 45.3072 52.2956 45.3072C51.4906 45.3072 50.8381 45.9613 50.8381 46.7683C50.8381 47.5752 51.4906 48.2293 52.2956 48.2293C53.1005 48.2293 53.7531 47.5752 53.7531 46.7683Z" fill="#FAF9F5"/>
    <path d="M53.7734 40.5122C53.7734 39.694 53.1118 39.0307 52.2956 39.0307C51.4794 39.0307 50.8178 39.694 50.8178 40.5122C50.8178 41.3303 51.4794 41.9936 52.2956 41.9936C53.1118 41.9936 53.7734 41.3303 53.7734 40.5122Z" fill="#FAF9F5"/>
    <path d="M53.7531 34.2561C53.7531 33.4491 53.1005 32.795 52.2956 32.795C51.4906 32.795 50.8381 33.4491 50.8381 34.2561C50.8381 35.063 51.4906 35.7172 52.2956 35.7172C53.1005 35.7172 53.7531 35.063 53.7531 34.2561Z" fill="#FAF9F5"/>
    <path d="M53.7531 28C53.7531 27.1931 53.1005 26.5389 52.2956 26.5389C51.4906 26.5389 50.8381 27.1931 50.8381 28C50.8381 28.8069 51.4906 29.4611 52.2956 29.4611C53.1005 29.4611 53.7531 28.8069 53.7531 28Z" fill="#FAF9F5"/>
    <path d="M53.7531 21.7439C53.7531 20.937 53.1005 20.2828 52.2956 20.2828C51.4906 20.2828 50.8381 20.937 50.8381 21.7439C50.8381 22.5508 51.4906 23.205 52.2956 23.205C53.1005 23.205 53.7531 22.5508 53.7531 21.7439Z" fill="#FAF9F5"/>
    <path d="M53.7531 15.4878C53.7531 14.6809 53.1005 14.0267 52.2956 14.0267C51.4906 14.0267 50.8381 14.6809 50.8381 15.4878C50.8381 16.2947 51.4906 16.9489 52.2956 16.9489C53.1005 16.9489 53.7531 16.2947 53.7531 15.4878Z" fill="#FAF9F5"/>
    <path d="M53.7327 9.23172C53.7327 8.43605 53.0893 7.79104 52.2956 7.79104C51.5019 7.79104 50.8584 8.43605 50.8584 9.23172C50.8584 10.0274 51.5019 10.6724 52.2956 10.6724C53.0893 10.6724 53.7327 10.0274 53.7327 9.23172Z" fill="#FAF9F5"/>
    <path d="M53.7531 2.97563C53.7531 2.1687 53.1005 1.51455 52.2956 1.51455C51.4906 1.51455 50.8381 2.1687 50.8381 2.97563C50.8381 3.78257 51.4906 4.43672 52.2956 4.43672C53.1005 4.43672 53.7531 3.78257 53.7531 2.97563Z" fill="#FAF9F5"/>
    <path d="M60.1151 53.0244C60.1151 52.1503 59.4083 51.4417 58.5363 51.4417C57.6644 51.4417 56.9576 52.1503 56.9576 53.0244C56.9576 53.8984 57.6644 54.607 58.5363 54.607C59.4083 54.607 60.1151 53.8984 60.1151 53.0244Z" fill="#FAF9F5"/>
    <path d="M60.1352 46.7683C60.1352 45.8831 59.4194 45.1655 58.5363 45.1655C57.6533 45.1655 56.9375 45.8831 56.9375 46.7683C56.9375 47.6535 57.6533 48.371 58.5363 48.371C59.4194 48.371 60.1352 47.6535 60.1352 46.7683Z" fill="#FAF9F5"/>
    <path d="M60.1151 40.5122C60.1151 39.6381 59.4083 38.9295 58.5363 38.9295C57.6644 38.9295 56.9576 39.6381 56.9576 40.5122C56.9576 41.3862 57.6644 42.0948 58.5363 42.0948C59.4083 42.0948 60.1151 41.3862 60.1151 40.5122Z" fill="#FAF9F5"/>
    <path d="M60.1151 34.2561C60.1151 33.382 59.4083 32.6734 58.5363 32.6734C57.6644 32.6734 56.9576 33.382 56.9576 34.2561C56.9576 35.1302 57.6644 35.8387 58.5363 35.8387C59.4083 35.8387 60.1151 35.1302 60.1151 34.2561Z" fill="#FAF9F5"/>
    <path d="M60.1352 28C60.1352 27.1148 59.4194 26.3972 58.5363 26.3972C57.6533 26.3972 56.9375 27.1148 56.9375 28C56.9375 28.8852 57.6533 29.6028 58.5363 29.6028C59.4194 29.6028 60.1352 28.8852 60.1352 28Z" fill="#FAF9F5"/>
    <path d="M60.1352 21.7439C60.1352 20.8587 59.4194 20.1411 58.5363 20.1411C57.6533 20.1411 56.9375 20.8587 56.9375 21.7439C56.9375 22.6291 57.6533 23.3467 58.5363 23.3467C59.4194 23.3467 60.1352 22.6291 60.1352 21.7439Z" fill="#FAF9F5"/>
    <path d="M60.1352 15.4878C60.1352 14.6026 59.4194 13.885 58.5363 13.885C57.6533 13.885 56.9375 14.6026 56.9375 15.4878C56.9375 16.373 57.6533 17.0906 58.5363 17.0906C59.4194 17.0906 60.1352 16.373 60.1352 15.4878Z" fill="#FAF9F5"/>
    <path d="M60.1151 9.23172C60.1151 8.35765 59.4083 7.64908 58.5363 7.64908C57.6644 7.64908 56.9576 8.35765 56.9576 9.23172C56.9576 10.1058 57.6644 10.8144 58.5363 10.8144C59.4083 10.8144 60.1151 10.1058 60.1151 9.23172Z" fill="#FAF9F5"/>
    <path d="M60.1352 2.97563C60.1352 2.09044 59.4194 1.37285 58.5363 1.37285C57.6533 1.37285 56.9375 2.09044 56.9375 2.97563C56.9375 3.86082 57.6533 4.57841 58.5363 4.57841C59.4194 4.57841 60.1352 3.86082 60.1352 2.97563Z" fill="#FAF9F5"/>
    <path d="M66.4758 53.0244C66.4758 52.0839 65.7153 51.3214 64.7771 51.3214C63.8389 51.3214 63.0783 52.0839 63.0783 53.0244C63.0783 53.9648 63.8389 54.7273 64.7771 54.7273C65.7153 54.7273 66.4758 53.9648 66.4758 53.0244Z" fill="#FAF9F5"/>
    <path d="M66.4758 46.7683C66.4758 45.8278 65.7153 45.0653 64.7771 45.0653C63.8389 45.0653 63.0783 45.8278 63.0783 46.7683C63.0783 47.7088 63.8389 48.4712 64.7771 48.4712C65.7153 48.4712 66.4758 47.7088 66.4758 46.7683Z" fill="#FAF9F5"/>
    <path d="M66.4758 40.5122C66.4758 39.5717 65.7153 38.8093 64.7771 38.8093C63.8389 38.8093 63.0783 39.5717 63.0783 40.5122C63.0783 41.4527 63.8389 42.2151 64.7771 42.2151C65.7153 42.2151 66.4758 41.4527 66.4758 40.5122Z" fill="#FAF9F5"/>
    <path d="M66.4758 34.2561C66.4758 33.3156 65.7153 32.5532 64.7771 32.5532C63.8389 32.5532 63.0783 33.3156 63.0783 34.2561C63.0783 35.1966 63.8389 35.959 64.7771 35.959C65.7153 35.959 66.4758 35.1966 66.4758 34.2561Z" fill="#FAF9F5"/>
    <path d="M66.4758 28C66.4758 27.0595 65.7153 26.2971 64.7771 26.2971C63.8389 26.2971 63.0783 27.0595 63.0783 28C63.0783 28.9405 63.8389 29.7029 64.7771 29.7029C65.7153 29.7029 66.4758 28.9405 66.4758 28Z" fill="#FAF9F5"/>
    <path d="M66.4758 21.7439C66.4758 20.8034 65.7153 20.041 64.7771 20.041C63.8389 20.041 63.0783 20.8034 63.0783 21.7439C63.0783 22.6844 63.8389 23.4468 64.7771 23.4468C65.7153 23.4468 66.4758 22.6844 66.4758 21.7439Z" fill="#FAF9F5"/>
    <path d="M66.4957 15.4878C66.4957 14.5363 65.7262 13.765 64.7771 13.765C63.8279 13.765 63.0585 14.5363 63.0585 15.4878C63.0585 16.4393 63.8279 17.2107 64.7771 17.2107C65.7262 17.2107 66.4957 16.4393 66.4957 15.4878Z" fill="#FAF9F5"/>
    <path d="M66.4957 9.23172C66.4957 8.28022 65.7262 7.50888 64.7771 7.50888C63.8279 7.50888 63.0585 8.28022 63.0585 9.23172C63.0585 10.1832 63.8279 10.9546 64.7771 10.9546C65.7262 10.9546 66.4957 10.1832 66.4957 9.23172Z" fill="#FAF9F5"/>
    <path d="M66.4758 2.97563C66.4758 2.03514 65.7153 1.27271 64.7771 1.27271C63.8389 1.27271 63.0783 2.03514 63.0783 2.97563C63.0783 3.91613 63.8389 4.67855 64.7771 4.67855C65.7153 4.67855 66.4758 3.91613 66.4758 2.97563Z" fill="#FAF9F5"/>
    <path d="M72.8354 53.0244C72.8354 52.0181 72.0216 51.2023 71.0178 51.2023C70.014 51.2023 69.2003 52.0181 69.2003 53.0244C69.2003 54.0306 70.014 54.8464 71.0178 54.8464C72.0216 54.8464 72.8354 54.0306 72.8354 53.0244Z" fill="#FAF9F5"/>
    <path d="M72.855 46.7683C72.855 45.7511 72.0325 44.9265 71.0178 44.9265C70.0032 44.9265 69.1806 45.7511 69.1806 46.7683C69.1806 47.7854 70.0032 48.61 71.0178 48.61C72.0325 48.61 72.855 47.7854 72.855 46.7683Z" fill="#FAF9F5"/>
    <path d="M72.855 40.5122C72.855 39.495 72.0325 38.6704 71.0178 38.6704C70.0032 38.6704 69.1806 39.495 69.1806 40.5122C69.1806 41.5293 70.0032 42.3539 71.0178 42.3539C72.0325 42.3539 72.855 41.5293 72.855 40.5122Z" fill="#FAF9F5"/>
    <path d="M72.8354 34.2561C72.8354 33.2498 72.0216 32.4341 71.0178 32.4341C70.014 32.4341 69.2003 33.2498 69.2003 34.2561C69.2003 35.2623 70.014 36.0781 71.0178 36.0781C72.0216 36.0781 72.8354 35.2623 72.8354 34.2561Z" fill="#FAF9F5"/>
    <path d="M72.8354 28C72.8354 26.9937 72.0216 26.178 71.0178 26.178C70.014 26.178 69.2003 26.9937 69.2003 28C69.2003 29.0063 70.014 29.822 71.0178 29.822C72.0216 29.822 72.8354 29.0063 72.8354 28Z" fill="#FAF9F5"/>
    <path d="M72.8354 21.7439C72.8354 20.7376 72.0216 19.9219 71.0178 19.9219C70.014 19.9219 69.2003 20.7376 69.2003 21.7439C69.2003 22.7502 70.014 23.5659 71.0178 23.5659C72.0216 23.5659 72.8354 22.7502 72.8354 21.7439Z" fill="#FAF9F5"/>
    <path d="M72.855 15.4878C72.855 14.4706 72.0325 13.6461 71.0178 13.6461C70.0031 13.6461 69.1806 14.4706 69.1806 15.4878C69.1806 16.505 70.0031 17.3296 71.0178 17.3296C72.0325 17.3296 72.855 16.505 72.855 15.4878Z" fill="#FAF9F5"/>
    <path d="M72.855 9.23172C72.855 8.21455 72.0325 7.38997 71.0178 7.38997C70.0031 7.38997 69.1806 8.21455 69.1806 9.23172C69.1806 10.2489 70.0031 11.0735 71.0178 11.0735C72.0325 11.0735 72.855 10.2489 72.855 9.23172Z" fill="#FAF9F5"/>
    <path d="M72.8354 2.97563C72.8354 1.96936 72.0216 1.15363 71.0178 1.15363C70.014 1.15363 69.2003 1.96936 69.2003 2.97563C69.2003 3.9819 70.014 4.79764 71.0178 4.79764C72.0216 4.79764 72.8354 3.9819 72.8354 2.97563Z" fill="#FAF9F5"/>
    <path d="M79.2133 53.0244C79.2133 51.9421 78.3382 51.0648 77.2586 51.0648C76.179 51.0648 75.3038 51.9421 75.3038 53.0244C75.3038 54.1066 76.179 54.9839 77.2586 54.9839C78.3382 54.9839 79.2133 54.1066 79.2133 53.0244Z" fill="#FAF9F5"/>
    <path d="M79.2133 46.7683C79.2133 45.686 78.3382 44.8087 77.2586 44.8087C76.179 44.8087 75.3038 45.686 75.3038 46.7683C75.3038 47.8505 76.179 48.7278 77.2586 48.7278C78.3382 48.7278 79.2133 47.8505 79.2133 46.7683Z" fill="#FAF9F5"/>
    <path d="M79.2133 40.5122C79.2133 39.4299 78.3382 38.5526 77.2586 38.5526C76.179 38.5526 75.3038 39.4299 75.3038 40.5122C75.3038 41.5944 76.179 42.4718 77.2586 42.4718C78.3382 42.4718 79.2133 41.5944 79.2133 40.5122Z" fill="#FAF9F5"/>
    <path d="M79.2133 34.2561C79.2133 33.1738 78.3382 32.2965 77.2586 32.2965C76.179 32.2965 75.3038 33.1738 75.3038 34.2561C75.3038 35.3383 76.179 36.2157 77.2586 36.2157C78.3382 36.2157 79.2133 35.3383 79.2133 34.2561Z" fill="#FAF9F5"/>
    <path d="M79.1938 28C79.1938 26.9285 78.3274 26.06 77.2586 26.06C76.1897 26.06 75.3233 26.9285 75.3233 28C75.3233 29.0714 76.1897 29.94 77.2586 29.94C78.3274 29.94 79.1938 29.0714 79.1938 28Z" fill="#FAF9F5"/>
    <path d="M79.1938 21.7439C79.1938 20.6725 78.3274 19.8039 77.2586 19.8039C76.1897 19.8039 75.3233 20.6725 75.3233 21.7439C75.3233 22.8153 76.1897 23.6839 77.2586 23.6839C78.3274 23.6839 79.1938 22.8153 79.1938 21.7439Z" fill="#FAF9F5"/>
    <path d="M79.2133 15.4878C79.2133 14.4056 78.3382 13.5282 77.2586 13.5282C76.179 13.5282 75.3038 14.4056 75.3038 15.4878C75.3038 16.5701 76.179 17.4474 77.2586 17.4474C78.3382 17.4474 79.2133 16.5701 79.2133 15.4878Z" fill="#FAF9F5"/>
    <path d="M79.1938 9.23172C79.1938 8.16028 78.3274 7.2917 77.2586 7.2917C76.1897 7.2917 75.3233 8.16028 75.3233 9.23172C75.3233 10.3032 76.1897 11.1717 77.2586 11.1717C78.3274 11.1717 79.1938 10.3032 79.1938 9.23172Z" fill="#FAF9F5"/>
    <path d="M79.2133 2.97563C79.2133 1.89338 78.3382 1.01604 77.2586 1.01604C76.179 1.01604 75.3038 1.89338 75.3038 2.97563C75.3038 4.05788 76.179 4.93522 77.2586 4.93522C78.3382 4.93522 79.2133 4.05788 79.2133 2.97563Z" fill="#FAF9F5"/>
    <path d="M85.5707 53.0243C85.5707 51.8776 84.6433 50.9479 83.4993 50.9479C82.3553 50.9479 81.428 51.8776 81.428 53.0243C81.428 54.1711 82.3553 55.1008 83.4993 55.1008C84.6433 55.1008 85.5707 54.1711 85.5707 53.0243Z" fill="#FAF9F5"/>
    <path d="M85.5707 46.7683C85.5707 45.6215 84.6433 44.6918 83.4993 44.6918C82.3553 44.6918 81.428 45.6215 81.428 46.7683C81.428 47.915 82.3553 48.8447 83.4993 48.8447C84.6433 48.8447 85.5707 47.915 85.5707 46.7683Z" fill="#FAF9F5"/>
    <path d="M85.5707 40.5122C85.5707 39.3654 84.6433 38.4357 83.4993 38.4357C82.3553 38.4357 81.428 39.3654 81.428 40.5122C81.428 41.659 82.3553 42.5886 83.4993 42.5886C84.6433 42.5886 85.5707 41.659 85.5707 40.5122Z" fill="#FAF9F5"/>
    <path d="M85.5707 34.2561C85.5707 33.1093 84.6433 32.1796 83.4993 32.1796C82.3553 32.1796 81.428 33.1093 81.428 34.2561C81.428 35.4029 82.3553 36.3325 83.4993 36.3325C84.6433 36.3325 85.5707 35.4029 85.5707 34.2561Z" fill="#FAF9F5"/>
    <path d="M85.5707 28C85.5707 26.8532 84.6433 25.9235 83.4993 25.9235C82.3553 25.9235 81.428 26.8532 81.428 28C81.428 29.1468 82.3553 30.0764 83.4993 30.0764C84.6433 30.0764 85.5707 29.1468 85.5707 28Z" fill="#FAF9F5"/>
    <path d="M85.5707 21.7439C85.5707 20.5971 84.6433 19.6675 83.4993 19.6675C82.3553 19.6675 81.428 20.5971 81.428 21.7439C81.428 22.8907 82.3553 23.8203 83.4993 23.8203C84.6433 23.8203 85.5707 22.8907 85.5707 21.7439Z" fill="#FAF9F5"/>
    <path d="M85.5707 15.4878C85.5707 14.341 84.6433 13.4114 83.4993 13.4114C82.3553 13.4114 81.428 14.341 81.428 15.4878C81.428 16.6346 82.3553 17.5643 83.4993 17.5643C84.6433 17.5643 85.5707 16.6346 85.5707 15.4878Z" fill="#FAF9F5"/>
    <path d="M85.5707 9.23172C85.5707 8.08493 84.6433 7.15528 83.4993 7.15528C82.3553 7.15528 81.428 8.08493 81.428 9.23172C81.428 10.3785 82.3553 11.3082 83.4993 11.3082C84.6433 11.3082 85.5707 10.3785 85.5707 9.23172Z" fill="#FAF9F5"/>
    <path d="M85.5513 2.97563C85.5513 1.83956 84.6326 0.918598 83.4993 0.918598C82.366 0.918598 81.4473 1.83957 81.4473 2.97563C81.4473 4.1117 82.366 5.03266 83.4993 5.03266C84.6326 5.03266 85.5513 4.1117 85.5513 2.97563Z" fill="#FAF9F5"/>
    <path d="M91.9271 53.0243C91.9271 51.8135 90.9479 50.832 89.74 50.832C88.5322 50.832 87.553 51.8135 87.553 53.0243C87.553 54.2352 88.5322 55.2167 89.74 55.2167C90.9479 55.2167 91.9271 54.2352 91.9271 53.0243Z" fill="#FAF9F5"/>
    <path d="M91.9078 46.7683C91.9078 45.5681 90.9373 44.5951 89.74 44.5951C88.5428 44.5951 87.5723 45.5681 87.5723 46.7683C87.5723 47.9684 88.5428 48.9414 89.74 48.9414C90.9373 48.9414 91.9078 47.9684 91.9078 46.7683Z" fill="#FAF9F5"/>
    <path d="M91.9271 40.5122C91.9271 39.3014 90.9479 38.3198 89.74 38.3198C88.5322 38.3198 87.553 39.3014 87.553 40.5122C87.553 41.723 88.5322 42.7046 89.74 42.7046C90.9479 42.7046 91.9271 41.723 91.9271 40.5122Z" fill="#FAF9F5"/>
    <path d="M91.9078 34.2561C91.9078 33.0559 90.9373 32.083 89.74 32.083C88.5428 32.083 87.5723 33.0559 87.5723 34.2561C87.5723 35.4563 88.5428 36.4292 89.74 36.4292C90.9373 36.4292 91.9078 35.4563 91.9078 34.2561Z" fill="#FAF9F5"/>
    <path d="M91.9271 28C91.9271 26.7892 90.9479 25.8076 89.74 25.8076C88.5322 25.8076 87.553 26.7892 87.553 28C87.553 29.2108 88.5322 30.1924 89.74 30.1924C90.9479 30.1924 91.9271 29.2108 91.9271 28Z" fill="#FAF9F5"/>
    <path d="M91.9078 21.7439C91.9078 20.5437 90.9373 19.5708 89.74 19.5708C88.5428 19.5708 87.5723 20.5437 87.5723 21.7439C87.5723 22.9441 88.5428 23.917 89.74 23.917C90.9373 23.917 91.9078 22.9441 91.9078 21.7439Z" fill="#FAF9F5"/>
    <path d="M91.9271 15.4878C91.9271 14.277 90.9479 13.2954 89.74 13.2954C88.5322 13.2954 87.553 14.277 87.553 15.4878C87.553 16.6986 88.5322 17.6802 89.74 17.6802C90.9479 17.6802 91.9271 16.6986 91.9271 15.4878Z" fill="#FAF9F5"/>
    <path d="M91.9271 9.23172C91.9271 8.0209 90.9479 7.03934 89.74 7.03934C88.5322 7.03934 87.553 8.0209 87.553 9.23172C87.553 10.4425 88.5322 11.4241 89.74 11.4241C90.9479 11.4241 91.9271 10.4425 91.9271 9.23172Z" fill="#FAF9F5"/>
    <path d="M91.9078 2.97563C91.9078 1.77544 90.9373 0.802509 89.74 0.802509C88.5428 0.802509 87.5723 1.77544 87.5723 2.97563C87.5723 4.17581 88.5428 5.14875 89.74 5.14875C90.9373 5.14875 91.9078 4.17581 91.9078 2.97563Z" fill="#FAF9F5"/>
    <path d="M98.2826 53.0243C98.2826 51.75 97.2521 50.7169 95.9808 50.7169C94.7095 50.7169 93.679 51.75 93.679 53.0243C93.679 54.2987 94.7095 55.3318 95.9808 55.3318C97.2521 55.3318 98.2826 54.2987 98.2826 53.0243Z" fill="#FAF9F5"/>
    <path d="M98.2826 46.7683C98.2826 45.4939 97.2521 44.4608 95.9808 44.4608C94.7095 44.4608 93.679 45.4939 93.679 46.7683C93.679 48.0426 94.7095 49.0757 95.9808 49.0757C97.2521 49.0757 98.2826 48.0426 98.2826 46.7683Z" fill="#FAF9F5"/>
    <path d="M98.2826 40.5122C98.2826 39.2378 97.2521 38.2047 95.9808 38.2047C94.7095 38.2047 93.679 39.2378 93.679 40.5122C93.679 41.7865 94.7095 42.8196 95.9808 42.8196C97.2521 42.8196 98.2826 41.7865 98.2826 40.5122Z" fill="#FAF9F5"/>
    <path d="M98.2826 34.2561C98.2826 32.9817 97.2521 31.9486 95.9808 31.9486C94.7095 31.9486 93.679 32.9817 93.679 34.2561C93.679 35.5305 94.7095 36.5635 95.9808 36.5635C97.2521 36.5635 98.2826 35.5305 98.2826 34.2561Z" fill="#FAF9F5"/>
    <path d="M98.2826 28C98.2826 26.7256 97.2521 25.6925 95.9808 25.6925C94.7095 25.6925 93.679 26.7256 93.679 28C93.679 29.2744 94.7095 30.3075 95.9808 30.3075C97.2521 30.3075 98.2826 29.2744 98.2826 28Z" fill="#FAF9F5"/>
    <path d="M98.2826 21.7439C98.2826 20.4695 97.2521 19.4364 95.9808 19.4364C94.7095 19.4364 93.679 20.4695 93.679 21.7439C93.679 23.0183 94.7095 24.0514 95.9808 24.0514C97.2521 24.0514 98.2826 23.0183 98.2826 21.7439Z" fill="#FAF9F5"/>
    <path d="M98.2826 15.4878C98.2826 14.2134 97.2521 13.1803 95.9808 13.1803C94.7095 13.1803 93.679 14.2134 93.679 15.4878C93.679 16.7622 94.7095 17.7953 95.9808 17.7953C97.2521 17.7953 98.2826 16.7622 98.2826 15.4878Z" fill="#FAF9F5"/>
    <path d="M98.2826 9.23172C98.2826 7.95734 97.2521 6.92425 95.9808 6.92425C94.7095 6.92425 93.679 7.95734 93.679 9.23172C93.679 10.5061 94.7095 11.5392 95.9808 11.5392C97.2521 11.5392 98.2826 10.5061 98.2826 9.23172Z" fill="#FAF9F5"/>
    <path d="M98.2826 2.97563C98.2826 1.70125 97.2521 0.668155 95.9808 0.668155C94.7095 0.668155 93.679 1.70125 93.679 2.97563C93.679 4.25001 94.7095 5.2831 95.9808 5.2831C97.2521 5.2831 98.2826 4.25001 98.2826 2.97563Z" fill="#FAF9F5"/>
    <path d="M104.637 53.0243C104.637 51.6868 103.556 50.6026 102.222 50.6026C100.887 50.6026 99.8057 51.6868 99.8057 53.0243C99.8057 54.3618 100.887 55.4461 102.222 55.4461C103.556 55.4461 104.637 54.3618 104.637 53.0243Z" fill="#FAF9F5"/>
    <path d="M104.637 46.7683C104.637 45.4308 103.556 44.3465 102.222 44.3465C100.887 44.3465 99.8057 45.4308 99.8057 46.7683C99.8057 48.1058 100.887 49.19 102.222 49.19C103.556 49.19 104.637 48.1058 104.637 46.7683Z" fill="#FAF9F5"/>
    <path d="M104.637 40.5122C104.637 39.1747 103.556 38.0904 102.222 38.0904C100.887 38.0904 99.8057 39.1747 99.8057 40.5122C99.8057 41.8497 100.887 42.9339 102.222 42.9339C103.556 42.9339 104.637 41.8497 104.637 40.5122Z" fill="#FAF9F5"/>
    <path d="M104.637 34.2561C104.637 32.9186 103.556 31.8343 102.222 31.8343C100.887 31.8343 99.8057 32.9186 99.8057 34.2561C99.8057 35.5936 100.887 36.6778 102.222 36.6778C103.556 36.6778 104.637 35.5936 104.637 34.2561Z" fill="#FAF9F5"/>
    <path d="M104.637 28C104.637 26.6625 103.556 25.5782 102.222 25.5782C100.887 25.5782 99.8057 26.6625 99.8057 28C99.8057 29.3375 100.887 30.4217 102.222 30.4217C103.556 30.4217 104.637 29.3375 104.637 28Z" fill="#FAF9F5"/>
    <path d="M104.637 21.7439C104.637 20.4064 103.556 19.3221 102.222 19.3221C100.887 19.3221 99.8057 20.4064 99.8057 21.7439C99.8057 23.0814 100.887 24.1657 102.222 24.1657C103.556 24.1657 104.637 23.0814 104.637 21.7439Z" fill="#FAF9F5"/>
    <path d="M104.637 15.4878C104.637 14.1503 103.556 13.066 102.222 13.066C100.887 13.066 99.8057 14.1503 99.8057 15.4878C99.8057 16.8253 100.887 17.9096 102.222 17.9096C103.556 17.9096 104.637 16.8253 104.637 15.4878Z" fill="#FAF9F5"/>
    <path d="M104.637 9.23172C104.637 7.89422 103.556 6.80996 102.222 6.80996C100.887 6.80996 99.8057 7.89422 99.8057 9.23172C99.8057 10.5692 100.887 11.6535 102.222 11.6535C103.556 11.6535 104.637 10.5692 104.637 9.23172Z" fill="#FAF9F5"/>
    <path d="M104.637 2.97563C104.637 1.63813 103.556 0.55387 102.222 0.55387C100.887 0.55387 99.8057 1.63813 99.8057 2.97563C99.8057 4.31313 100.887 5.39739 102.222 5.39739C103.556 5.39739 104.637 4.31313 104.637 2.97563Z" fill="#FAF9F5"/>
    <path d="M110.991 53.0243C110.991 51.6241 109.859 50.4891 108.462 50.4891C107.066 50.4891 105.933 51.6241 105.933 53.0243C105.933 54.4246 107.066 55.5596 108.462 55.5596C109.859 55.5596 110.991 54.4246 110.991 53.0243Z" fill="#FAF9F5"/>
    <path d="M110.991 46.7683C110.991 45.3681 109.859 44.233 108.462 44.233C107.066 44.233 105.933 45.3681 105.933 46.7683C105.933 48.1685 107.066 49.3036 108.462 49.3036C109.859 49.3036 110.991 48.1685 110.991 46.7683Z" fill="#FAF9F5"/>
    <path d="M110.991 40.5122C110.991 39.112 109.859 37.9769 108.462 37.9769C107.066 37.9769 105.933 39.112 105.933 40.5122C105.933 41.9124 107.066 43.0475 108.462 43.0475C109.859 43.0475 110.991 41.9124 110.991 40.5122Z" fill="#FAF9F5"/>
    <path d="M110.991 34.2561C110.991 32.8559 109.859 31.7208 108.462 31.7208C107.066 31.7208 105.933 32.8559 105.933 34.2561C105.933 35.6563 107.066 36.7914 108.462 36.7914C109.859 36.7914 110.991 35.6563 110.991 34.2561Z" fill="#FAF9F5"/>
    <path d="M110.991 28C110.991 26.5998 109.859 25.4647 108.462 25.4647C107.066 25.4647 105.933 26.5998 105.933 28C105.933 29.4002 107.066 30.5353 108.462 30.5353C109.859 30.5353 110.991 29.4002 110.991 28Z" fill="#FAF9F5"/>
    <path d="M110.991 21.7439C110.991 20.3437 109.859 19.2086 108.462 19.2086C107.066 19.2086 105.933 20.3437 105.933 21.7439C105.933 23.1441 107.066 24.2792 108.462 24.2792C109.859 24.2792 110.991 23.1441 110.991 21.7439Z" fill="#FAF9F5"/>
    <path d="M110.991 15.4878C110.991 14.0876 109.859 12.9525 108.462 12.9525C107.066 12.9525 105.933 14.0876 105.933 15.4878C105.933 16.888 107.066 18.0231 108.462 18.0231C109.859 18.0231 110.991 16.888 110.991 15.4878Z" fill="#FAF9F5"/>
    <path d="M110.991 9.23172C110.991 7.83151 109.859 6.69642 108.462 6.69643C107.066 6.69643 105.933 7.83151 105.933 9.23172C105.933 10.6319 107.066 11.767 108.462 11.767C109.859 11.767 110.991 10.6319 110.991 9.23172Z" fill="#FAF9F5"/>
    <path d="M110.991 2.97563C110.991 1.57542 109.859 0.440333 108.462 0.440333C107.066 0.440333 105.933 1.57542 105.933 2.97563C105.933 4.37584 107.066 5.51093 108.462 5.51093C109.859 5.51093 110.991 4.37584 110.991 2.97563Z" fill="#FAF9F5"/>
    <path d="M117.345 53.0243C117.345 51.5618 116.162 50.3762 114.703 50.3762C113.244 50.3762 112.061 51.5618 112.061 53.0243C112.061 54.4869 113.244 55.6725 114.703 55.6725C116.162 55.6725 117.345 54.4869 117.345 53.0243Z" fill="#FAF9F5"/>
    <path d="M117.345 46.7683C117.345 45.3057 116.162 44.1201 114.703 44.1201C113.244 44.1201 112.061 45.3057 112.061 46.7683C112.061 48.2308 113.244 49.4164 114.703 49.4164C116.162 49.4164 117.345 48.2308 117.345 46.7683Z" fill="#FAF9F5"/>
    <path d="M117.363 40.5122C117.363 39.0393 116.172 37.8453 114.703 37.8453C113.234 37.8453 112.043 39.0393 112.043 40.5122C112.043 41.985 113.234 43.179 114.703 43.179C116.172 43.179 117.363 41.985 117.363 40.5122Z" fill="#FAF9F5"/>
    <path d="M117.345 34.2561C117.345 32.7936 116.162 31.608 114.703 31.608C113.244 31.608 112.061 32.7936 112.061 34.2561C112.061 35.7186 113.244 36.9042 114.703 36.9042C116.162 36.9042 117.345 35.7186 117.345 34.2561Z" fill="#FAF9F5"/>
    <path d="M117.345 28C117.345 26.5375 116.162 25.3519 114.703 25.3519C113.244 25.3519 112.061 26.5375 112.061 28C112.061 29.4625 113.244 30.6481 114.703 30.6481C116.162 30.6481 117.345 29.4625 117.345 28Z" fill="#FAF9F5"/>
    <path d="M117.345 21.7439C117.345 20.2814 116.162 19.0958 114.703 19.0958C113.244 19.0958 112.061 20.2814 112.061 21.7439C112.061 23.2064 113.244 24.392 114.703 24.392C116.162 24.392 117.345 23.2064 117.345 21.7439Z" fill="#FAF9F5"/>
    <path d="M117.345 15.4878C117.345 14.0253 116.162 12.8397 114.703 12.8397C113.244 12.8397 112.061 14.0253 112.061 15.4878C112.061 16.9503 113.244 18.1359 114.703 18.1359C116.162 18.1359 117.345 16.9503 117.345 15.4878Z" fill="#FAF9F5"/>
    <path d="M117.345 9.23171C117.345 7.76919 116.162 6.58359 114.703 6.58359C113.244 6.58359 112.061 7.76919 112.061 9.23171C112.061 10.6942 113.244 11.8798 114.703 11.8798C116.162 11.8798 117.345 10.6942 117.345 9.23171Z" fill="#FAF9F5"/>
    <path d="M117.345 2.97563C117.345 1.51311 116.162 0.327501 114.703 0.327502C113.244 0.327502 112.061 1.51311 112.061 2.97563C112.061 4.43815 113.244 5.62375 114.703 5.62375C116.162 5.62375 117.345 4.43815 117.345 2.97563Z" fill="#FAF9F5"/>
    <path d="M123.697 53.0243C123.697 51.4999 122.464 50.2641 120.944 50.2641C119.423 50.2641 118.19 51.4999 118.19 53.0243C118.19 54.5488 119.423 55.7846 120.944 55.7846C122.464 55.7846 123.697 54.5488 123.697 53.0243Z" fill="#FAF9F5"/>
    <path d="M123.697 46.7683C123.697 45.2438 122.464 44.008 120.944 44.008C119.423 44.008 118.19 45.2438 118.19 46.7683C118.19 48.2927 119.423 49.5285 120.944 49.5285C122.464 49.5285 123.697 48.2927 123.697 46.7683Z" fill="#FAF9F5"/>
    <path d="M123.697 40.5122C123.697 38.9877 122.464 37.7519 120.944 37.7519C119.423 37.7519 118.19 38.9877 118.19 40.5122C118.19 42.0366 119.423 43.2725 120.944 43.2725C122.464 43.2725 123.697 42.0366 123.697 40.5122Z" fill="#FAF9F5"/>
    <path d="M123.697 34.2561C123.697 32.7316 122.464 31.4958 120.944 31.4958C119.423 31.4958 118.19 32.7316 118.19 34.2561C118.19 35.7805 119.423 37.0164 120.944 37.0164C122.464 37.0164 123.697 35.7805 123.697 34.2561Z" fill="#FAF9F5"/>
    <path d="M123.697 28C123.697 26.4755 122.464 25.2397 120.944 25.2397C119.423 25.2397 118.19 26.4755 118.19 28C118.19 29.5245 119.423 30.7603 120.944 30.7603C122.464 30.7603 123.697 29.5245 123.697 28Z" fill="#FAF9F5"/>
    <path d="M123.716 21.7439C123.716 20.2091 122.475 18.965 120.944 18.965C119.413 18.965 118.172 20.2091 118.172 21.7439C118.172 23.2787 119.413 24.5228 120.944 24.5228C122.475 24.5228 123.716 23.2787 123.716 21.7439Z" fill="#FAF9F5"/>
    <path d="M123.697 15.4878C123.697 13.9633 122.464 12.7275 120.944 12.7275C119.423 12.7275 118.19 13.9633 118.19 15.4878C118.19 17.0123 119.423 18.2481 120.944 18.2481C122.464 18.2481 123.697 17.0123 123.697 15.4878Z" fill="#FAF9F5"/>
    <path d="M123.697 9.23171C123.697 7.70725 122.464 6.47143 120.944 6.47143C119.423 6.47143 118.19 7.70725 118.19 9.23171C118.19 10.7562 119.423 11.992 120.944 11.992C122.464 11.992 123.697 10.7562 123.697 9.23171Z" fill="#FAF9F5"/>
    <path d="M123.697 2.97563C123.697 1.45116 122.464 0.215334 120.944 0.215334C119.423 0.215334 118.19 1.45116 118.19 2.97563C118.19 4.50009 119.423 5.73591 120.944 5.73591C122.464 5.73591 123.697 4.50009 123.697 2.97563Z" fill="#FAF9F5"/>
    <path d="M130.049 53.0243C130.049 51.4383 128.767 50.1525 127.185 50.1525C125.602 50.1525 124.32 51.4383 124.32 53.0243C124.32 54.6104 125.602 55.8962 127.185 55.8962C128.767 55.8962 130.049 54.6104 130.049 53.0243Z" fill="#FAF9F5"/>
    <path d="M130.049 46.7683C130.049 45.1822 128.767 43.8964 127.185 43.8964C125.602 43.8964 124.32 45.1822 124.32 46.7683C124.32 48.3543 125.602 49.6401 127.185 49.6401C128.767 49.6401 130.049 48.3543 130.049 46.7683Z" fill="#FAF9F5"/>
    <path d="M130.049 40.5122C130.049 38.9261 128.767 37.6404 127.185 37.6404C125.602 37.6404 124.32 38.9261 124.32 40.5122C124.32 42.0982 125.602 43.384 127.185 43.384C128.767 43.384 130.049 42.0982 130.049 40.5122Z" fill="#FAF9F5"/>
    <path d="M130.049 34.2561C130.049 32.67 128.767 31.3843 127.185 31.3843C125.602 31.3843 124.32 32.67 124.32 34.2561C124.32 35.8421 125.602 37.1279 127.185 37.1279C128.767 37.1279 130.049 35.8421 130.049 34.2561Z" fill="#FAF9F5"/>
    <path d="M130.049 28C130.049 26.4139 128.767 25.1282 127.185 25.1282C125.602 25.1282 124.32 26.4139 124.32 28C124.32 29.586 125.602 30.8718 127.185 30.8718C128.767 30.8718 130.049 29.586 130.049 28Z" fill="#FAF9F5"/>
    <path d="M130.049 21.7439C130.049 20.1578 128.767 18.8721 127.185 18.8721C125.602 18.8721 124.32 20.1578 124.32 21.7439C124.32 23.33 125.602 24.6157 127.185 24.6157C128.767 24.6157 130.049 23.33 130.049 21.7439Z" fill="#FAF9F5"/>
    <path d="M130.049 15.4878C130.049 13.9017 128.767 12.616 127.185 12.616C125.602 12.616 124.32 13.9017 124.32 15.4878C124.32 17.0739 125.602 18.3596 127.185 18.3596C128.767 18.3596 130.049 17.0739 130.049 15.4878Z" fill="#FAF9F5"/>
    <path d="M130.068 9.23171C130.068 7.63542 128.777 6.34137 127.185 6.34137C125.592 6.34137 124.301 7.63542 124.301 9.23171C124.301 10.828 125.592 12.1221 127.185 12.1221C128.777 12.1221 130.068 10.828 130.068 9.23171Z" fill="#FAF9F5"/>
    <path d="M130.049 2.97563C130.049 1.38957 128.767 0.103811 127.185 0.103811C125.602 0.103811 124.32 1.38957 124.32 2.97563C124.32 4.56169 125.602 5.84744 127.185 5.84744C128.767 5.84744 130.049 4.56169 130.049 2.97563Z" fill="#FAF9F5"/>
    <path d="M136.401 53.0243C136.401 51.377 135.069 50.0416 133.425 50.0416C131.782 50.0416 130.45 51.377 130.45 53.0243C130.45 54.6717 131.782 56.0071 133.425 56.0071C135.069 56.0071 136.401 54.6717 136.401 53.0243Z" fill="#FAF9F5"/>
    <path d="M136.401 46.7683C136.401 45.1209 135.069 43.7855 133.425 43.7855C131.782 43.7855 130.45 45.1209 130.45 46.7683C130.45 48.4156 131.782 49.751 133.425 49.751C135.069 49.751 136.401 48.4156 136.401 46.7683Z" fill="#FAF9F5"/>
    <path d="M136.401 40.5122C136.401 38.8648 135.069 37.5294 133.425 37.5294C131.782 37.5294 130.45 38.8648 130.45 40.5122C130.45 42.1595 131.782 43.4949 133.425 43.4949C135.069 43.4949 136.401 42.1595 136.401 40.5122Z" fill="#FAF9F5"/>
    <path d="M136.401 34.2561C136.401 32.6088 135.069 31.2733 133.425 31.2733C131.782 31.2733 130.45 32.6088 130.45 34.2561C130.45 35.9034 131.782 37.2388 133.425 37.2388C135.069 37.2388 136.401 35.9034 136.401 34.2561Z" fill="#FAF9F5"/>
    <path d="M136.419 28C136.419 26.3425 135.079 24.9988 133.425 24.9988C131.772 24.9988 130.431 26.3425 130.431 28C130.431 29.6575 131.772 31.0012 133.425 31.0012C135.079 31.0012 136.419 29.6575 136.419 28Z" fill="#FAF9F5"/>
    <path d="M136.401 21.7439C136.401 20.0966 135.069 18.7612 133.425 18.7612C131.782 18.7612 130.45 20.0966 130.45 21.7439C130.45 23.3912 131.782 24.7266 133.425 24.7266C135.069 24.7266 136.401 23.3912 136.401 21.7439Z" fill="#FAF9F5"/>
    <path d="M136.401 15.4878C136.401 13.8405 135.069 12.5051 133.425 12.5051C131.782 12.5051 130.45 13.8405 130.45 15.4878C130.45 17.1351 131.782 18.4705 133.425 18.4705C135.069 18.4705 136.401 17.1351 136.401 15.4878Z" fill="#FAF9F5"/>
    <path d="M136.401 9.23171C136.401 7.58439 135.069 6.24898 133.425 6.24898C131.782 6.24898 130.45 7.58439 130.45 9.23171C130.45 10.879 131.782 12.2145 133.425 12.2145C135.069 12.2145 136.401 10.879 136.401 9.23171Z" fill="#FAF9F5"/>
    <path d="M136.419 2.97563C136.419 1.31812 135.079 -0.0255458 133.425 -0.0255457C131.772 -0.0255456 130.431 1.31812 130.431 2.97563C130.431 4.63313 131.772 5.9768 133.425 5.9768C135.079 5.9768 136.419 4.63313 136.419 2.97563Z" fill="#FAF9F5"/>
    <path d="M142.77 53.0243C142.77 51.306 141.38 49.9129 139.666 49.9129C137.952 49.9129 136.562 51.306 136.562 53.0243C136.562 54.7427 137.952 56.1358 139.666 56.1358C141.38 56.1358 142.77 54.7427 142.77 53.0243Z" fill="#FAF9F5"/>
    <path d="M142.77 46.7683C142.77 45.0499 141.38 43.6568 139.666 43.6568C137.952 43.6568 136.562 45.0499 136.562 46.7683C136.562 48.4866 137.952 49.8797 139.666 49.8797C141.38 49.8797 142.77 48.4866 142.77 46.7683Z" fill="#FAF9F5"/>
    <path d="M142.77 40.5122C142.77 38.7938 141.38 37.4007 139.666 37.4007C137.952 37.4007 136.562 38.7938 136.562 40.5122C136.562 42.2306 137.952 43.6236 139.666 43.6236C141.38 43.6236 142.77 42.2306 142.77 40.5122Z" fill="#FAF9F5"/>
    <path d="M142.77 34.2561C142.77 32.5377 141.38 31.1446 139.666 31.1446C137.952 31.1446 136.562 32.5377 136.562 34.2561C136.562 35.9745 137.952 37.3675 139.666 37.3675C141.38 37.3675 142.77 35.9745 142.77 34.2561Z" fill="#FAF9F5"/>
    <path d="M142.752 28C142.752 26.2917 141.37 24.9069 139.666 24.9069C137.962 24.9069 136.581 26.2917 136.581 28C136.581 29.7083 137.962 31.0931 139.666 31.0931C141.37 31.0931 142.752 29.7083 142.752 28Z" fill="#FAF9F5"/>
    <path d="M142.77 21.7439C142.77 20.0255 141.38 18.6325 139.666 18.6325C137.952 18.6325 136.562 20.0255 136.562 21.7439C136.562 23.4623 137.952 24.8553 139.666 24.8553C141.38 24.8553 142.77 23.4623 142.77 21.7439Z" fill="#FAF9F5"/>
    <path d="M142.752 15.4878C142.752 13.7795 141.37 12.3947 139.666 12.3947C137.962 12.3947 136.581 13.7795 136.581 15.4878C136.581 17.1961 137.962 18.5809 139.666 18.5809C141.37 18.5809 142.752 17.1961 142.752 15.4878Z" fill="#FAF9F5"/>
    <path d="M142.77 9.23171C142.77 7.51332 141.38 6.12029 139.666 6.12029C137.952 6.12029 136.562 7.51332 136.562 9.23171C136.562 10.9501 137.952 12.3431 139.666 12.3431C141.38 12.3431 142.77 10.9501 142.77 9.23171Z" fill="#FAF9F5"/>
    <path d="M142.752 2.97563C142.752 1.26736 141.37 -0.117461 139.666 -0.117461C137.962 -0.117461 136.581 1.26736 136.581 2.97563C136.581 4.6839 137.962 6.06872 139.666 6.06872C141.37 6.06872 142.752 4.6839 142.752 2.97563Z" fill="#FAF9F5"/>
    <path d="M149.12 53.0243C149.12 51.2454 147.681 49.8032 145.907 49.8032C144.132 49.8032 142.694 51.2454 142.694 53.0243C142.694 54.8033 144.132 56.2455 145.907 56.2455C147.681 56.2455 149.12 54.8033 149.12 53.0243Z" fill="#FAF9F5"/>
    <path d="M149.102 46.7683C149.102 44.9994 147.671 43.5654 145.907 43.5654C144.142 43.5654 142.712 44.9994 142.712 46.7683C142.712 48.5372 144.142 49.9711 145.907 49.9711C147.671 49.9711 149.102 48.5372 149.102 46.7683Z" fill="#FAF9F5"/>
    <path d="M149.12 40.5122C149.12 38.7332 147.681 37.291 145.907 37.291C144.132 37.291 142.694 38.7332 142.694 40.5122C142.694 42.2912 144.132 43.7333 145.907 43.7333C147.681 43.7333 149.12 42.2912 149.12 40.5122Z" fill="#FAF9F5"/>
    <path d="M149.102 34.2561C149.102 32.4872 147.671 31.0532 145.907 31.0532C144.142 31.0532 142.712 32.4872 142.712 34.2561C142.712 36.025 144.142 37.459 145.907 37.459C147.671 37.459 149.102 36.025 149.102 34.2561Z" fill="#FAF9F5"/>
    <path d="M149.12 28C149.12 26.221 147.681 24.7789 145.907 24.7789C144.132 24.7789 142.694 26.221 142.694 28C142.694 29.779 144.132 31.2211 145.907 31.2211C147.681 31.2211 149.12 29.779 149.12 28Z" fill="#FAF9F5"/>
    <path d="M149.12 21.7439C149.12 19.9649 147.681 18.5228 145.907 18.5228C144.132 18.5228 142.694 19.9649 142.694 21.7439C142.694 23.5229 144.132 24.965 145.907 24.965C147.681 24.965 149.12 23.5229 149.12 21.7439Z" fill="#FAF9F5"/>
    <path d="M149.12 15.4878C149.12 13.7088 147.681 12.2667 145.907 12.2667C144.132 12.2667 142.694 13.7088 142.694 15.4878C142.694 17.2668 144.132 18.7089 145.907 18.7089C147.681 18.7089 149.12 17.2668 149.12 15.4878Z" fill="#FAF9F5"/>
    <path d="M149.102 9.23171C149.102 7.46281 147.671 6.02883 145.907 6.02883C144.142 6.02883 142.712 7.46281 142.712 9.23171C142.712 11.0006 144.142 12.4346 145.907 12.4346C147.671 12.4346 149.102 11.0006 149.102 9.23171Z" fill="#FAF9F5"/>
    <path d="M149.12 2.97562C149.12 1.19664 147.681 -0.245509 145.907 -0.245509C144.132 -0.245509 142.694 1.19664 142.694 2.97563C142.694 4.75461 144.132 6.19676 145.907 6.19676C147.681 6.19676 149.12 4.75461 149.12 2.97562Z" fill="#FAF9F5"/>
    <path d="M155.452 53.0243C155.452 51.1951 153.972 49.7122 152.147 49.7122C150.323 49.7122 148.843 51.1951 148.843 53.0243C148.843 54.8536 150.323 56.3365 152.147 56.3365C153.972 56.3365 155.452 54.8536 155.452 53.0243Z" fill="#FAF9F5"/>
    <path d="M155.47 46.7683C155.47 44.929 153.982 43.4379 152.147 43.4379C150.313 43.4379 148.825 44.929 148.825 46.7683C148.825 48.6075 150.313 50.0986 152.147 50.0986C153.982 50.0986 155.47 48.6075 155.47 46.7683Z" fill="#FAF9F5"/>
    <path d="M155.452 40.5122C155.452 38.6829 153.972 37.2 152.147 37.2C150.323 37.2 148.843 38.6829 148.843 40.5122C148.843 42.3414 150.323 43.8243 152.147 43.8243C153.972 43.8243 155.452 42.3414 155.452 40.5122Z" fill="#FAF9F5"/>
    <path d="M155.47 34.2561C155.47 32.4168 153.982 30.9257 152.147 30.9257C150.313 30.9257 148.825 32.4168 148.825 34.2561C148.825 36.0954 150.313 37.5864 152.147 37.5864C153.982 37.5864 155.47 36.0954 155.47 34.2561Z" fill="#FAF9F5"/>
    <path d="M155.47 28C155.47 26.1607 153.982 24.6697 152.147 24.6697C150.313 24.6697 148.825 26.1607 148.825 28C148.825 29.8393 150.313 31.3303 152.147 31.3303C153.982 31.3303 155.47 29.8393 155.47 28Z" fill="#FAF9F5"/>
    <path d="M155.452 21.7439C155.452 19.9146 153.972 18.4317 152.147 18.4317C150.323 18.4317 148.843 19.9146 148.843 21.7439C148.843 23.5732 150.323 25.0561 152.147 25.0561C153.972 25.0561 155.452 23.5732 155.452 21.7439Z" fill="#FAF9F5"/>
    <path d="M155.452 15.4878C155.452 13.6585 153.972 12.1756 152.147 12.1756C150.323 12.1756 148.843 13.6585 148.843 15.4878C148.843 17.3171 150.323 18.8 152.147 18.8C153.972 18.8 155.452 17.3171 155.452 15.4878Z" fill="#FAF9F5"/>
    <path d="M155.452 9.23171C155.452 7.40245 153.972 5.91955 152.147 5.91955C150.323 5.91955 148.843 7.40246 148.843 9.23171C148.843 11.061 150.323 12.5439 152.147 12.5439C153.972 12.5439 155.452 11.061 155.452 9.23171Z" fill="#FAF9F5"/>
    <path d="M155.47 2.97563C155.47 1.13634 153.982 -0.354702 152.147 -0.354701C150.313 -0.354701 148.825 1.13634 148.825 2.97563C148.825 4.81492 150.313 6.30596 152.147 6.30596C153.982 6.30596 155.47 4.81492 155.47 2.97563Z" fill="#FAF9F5"/>
    <path d="M161.801 53.0243C161.801 51.135 160.273 49.6034 158.388 49.6034C156.504 49.6034 154.976 51.135 154.976 53.0243C154.976 54.9137 156.504 56.4453 158.388 56.4453C160.273 56.4453 161.801 54.9137 161.801 53.0243Z" fill="#FAF9F5"/>
    <path d="M161.819 46.7683C161.819 44.8689 160.283 43.3292 158.388 43.3292C156.494 43.3292 154.958 44.8689 154.958 46.7683C154.958 48.6676 156.494 50.2073 158.388 50.2073C160.283 50.2073 161.819 48.6676 161.819 46.7683Z" fill="#FAF9F5"/>
    <path d="M161.801 40.5122C161.801 38.6228 160.273 37.0912 158.388 37.0912C156.504 37.0912 154.976 38.6228 154.976 40.5122C154.976 42.4015 156.504 43.9331 158.388 43.9331C160.273 43.9331 161.801 42.4015 161.801 40.5122Z" fill="#FAF9F5"/>
    <path d="M161.801 34.2561C161.801 32.3667 160.273 30.8351 158.388 30.8351C156.504 30.8351 154.976 32.3667 154.976 34.2561C154.976 36.1454 156.504 37.677 158.388 37.677C160.273 37.677 161.801 36.1454 161.801 34.2561Z" fill="#FAF9F5"/>
    <path d="M161.819 28C161.819 26.1007 160.283 24.561 158.388 24.561C156.494 24.561 154.958 26.1007 154.958 28C154.958 29.8993 156.494 31.439 158.388 31.439C160.283 31.439 161.819 29.8993 161.819 28Z" fill="#FAF9F5"/>
    <path d="M161.819 21.7439C161.819 19.8446 160.283 18.3049 158.388 18.3049C156.494 18.3049 154.958 19.8446 154.958 21.7439C154.958 23.6432 156.494 25.1829 158.388 25.1829C160.283 25.1829 161.819 23.6432 161.819 21.7439Z" fill="#FAF9F5"/>
    <path d="M161.819 15.4878C161.819 13.5885 160.283 12.0488 158.388 12.0488C156.494 12.0488 154.958 13.5885 154.958 15.4878C154.958 17.3871 156.494 18.9268 158.388 18.9268C160.283 18.9268 161.819 17.3871 161.819 15.4878Z" fill="#FAF9F5"/>
    <path d="M161.801 9.23171C161.801 7.34238 160.273 5.81078 158.388 5.81078C156.504 5.81078 154.976 7.34238 154.976 9.23171C154.976 11.121 156.504 12.6527 158.388 12.6527C160.273 12.6527 161.801 11.121 161.801 9.23171Z" fill="#FAF9F5"/>
    <path d="M161.819 2.97563C161.819 1.07631 160.283 -0.463394 158.388 -0.463394C156.494 -0.463394 154.958 1.07631 154.958 2.97563C154.958 4.87495 156.494 6.41465 158.388 6.41465C160.283 6.41465 161.819 4.87495 161.819 2.97563Z" fill="#FAF9F5"/>
    <path d="M168.167 53.0243C168.167 51.0653 166.583 49.4771 164.629 49.4771C162.675 49.4771 161.09 51.0653 161.09 53.0243C161.09 54.9834 162.675 56.5716 164.629 56.5716C166.583 56.5716 168.167 54.9834 168.167 53.0243Z" fill="#FAF9F5"/>
    <path d="M168.167 46.7683C168.167 44.8092 166.583 43.221 164.629 43.221C162.675 43.221 161.09 44.8092 161.09 46.7683C161.09 48.7273 162.675 50.3155 164.629 50.3155C166.583 50.3155 168.167 48.7273 168.167 46.7683Z" fill="#FAF9F5"/>
    <path d="M168.15 40.5122C168.15 38.563 166.573 36.9829 164.629 36.9829C162.685 36.9829 161.108 38.563 161.108 40.5122C161.108 42.4613 162.685 44.0414 164.629 44.0414C166.573 44.0414 168.15 42.4613 168.15 40.5122Z" fill="#FAF9F5"/>
    <path d="M168.167 34.2561C168.167 32.297 166.583 30.7088 164.629 30.7088C162.675 30.7088 161.09 32.297 161.09 34.2561C161.09 36.2152 162.675 37.8033 164.629 37.8033C166.583 37.8033 168.167 36.2152 168.167 34.2561Z" fill="#FAF9F5"/>
    <path d="M168.167 28C168.167 26.0409 166.583 24.4528 164.629 24.4528C162.675 24.4528 161.09 26.0409 161.09 28C161.09 29.9591 162.675 31.5472 164.629 31.5472C166.583 31.5472 168.167 29.9591 168.167 28Z" fill="#FAF9F5"/>
    <path d="M168.167 21.7439C168.167 19.7848 166.583 18.1967 164.629 18.1967C162.675 18.1967 161.09 19.7848 161.09 21.7439C161.09 23.703 162.675 25.2911 164.629 25.2911C166.583 25.2911 168.167 23.703 168.167 21.7439Z" fill="#FAF9F5"/>
    <path d="M168.15 15.4878C168.15 13.5387 166.573 11.9586 164.629 11.9586C162.685 11.9586 161.108 13.5387 161.108 15.4878C161.108 17.4369 162.685 19.017 164.629 19.017C166.573 19.017 168.15 17.4369 168.15 15.4878Z" fill="#FAF9F5"/>
    <path d="M168.15 9.23172C168.15 7.28258 166.573 5.70249 164.629 5.70249C162.685 5.70249 161.108 7.28258 161.108 9.23172C161.108 11.1809 162.685 12.7609 164.629 12.7609C166.573 12.7609 168.15 11.1809 168.15 9.23172Z" fill="#FAF9F5"/>
    <path d="M168.167 2.97563C168.167 1.01654 166.583 -0.571606 164.629 -0.571606C162.675 -0.571606 161.09 1.01654 161.09 2.97563C161.09 4.93471 162.675 6.52286 164.629 6.52286C166.583 6.52286 168.167 4.93471 168.167 2.97563Z" fill="#FAF9F5"/>
    <path d="M174.516 53.0243C174.516 51.0058 172.883 49.3694 170.87 49.3694C168.856 49.3694 167.224 51.0058 167.224 53.0243C167.224 55.0429 168.856 56.6793 170.87 56.6793C172.883 56.6793 174.516 55.0429 174.516 53.0243Z" fill="#FAF9F5"/>
    <path d="M174.516 46.7683C174.516 44.7497 172.883 43.1133 170.87 43.1133C168.856 43.1133 167.224 44.7497 167.224 46.7683C167.224 48.7868 168.856 50.4232 170.87 50.4232C172.883 50.4232 174.516 48.7868 174.516 46.7683Z" fill="#FAF9F5"/>
    <path d="M174.516 40.5122C174.516 38.4936 172.883 36.8572 170.87 36.8572C168.856 36.8572 167.224 38.4936 167.224 40.5122C167.224 42.5308 168.856 44.1671 170.87 44.1671C172.883 44.1671 174.516 42.5308 174.516 40.5122Z" fill="#FAF9F5"/>
    <path d="M174.516 34.2561C174.516 32.2375 172.883 30.6011 170.87 30.6011C168.856 30.6011 167.224 32.2375 167.224 34.2561C167.224 36.2747 168.856 37.9111 170.87 37.9111C172.883 37.9111 174.516 36.2747 174.516 34.2561Z" fill="#FAF9F5"/>
    <path d="M174.516 28C174.516 25.9814 172.883 24.345 170.87 24.345C168.856 24.345 167.224 25.9814 167.224 28C167.224 30.0186 168.856 31.655 170.87 31.655C172.883 31.655 174.516 30.0186 174.516 28Z" fill="#FAF9F5"/>
    <path d="M174.498 21.7439C174.498 19.7352 172.874 18.1068 170.87 18.1068C168.866 18.1068 167.242 19.7352 167.242 21.7439C167.242 23.7526 168.866 25.381 170.87 25.381C172.874 25.381 174.498 23.7526 174.498 21.7439Z" fill="#FAF9F5"/>
    <path d="M174.516 15.4878C174.516 13.4692 172.883 11.8328 170.87 11.8328C168.856 11.8328 167.224 13.4692 167.224 15.4878C167.224 17.5064 168.856 19.1428 170.87 19.1428C172.883 19.1428 174.516 17.5064 174.516 15.4878Z" fill="#FAF9F5"/>
    <path d="M174.516 9.23171C174.516 7.21312 172.883 5.57673 170.87 5.57673C168.856 5.57673 167.224 7.21312 167.224 9.23171C167.224 11.2503 168.856 12.8867 170.87 12.8867C172.883 12.8867 174.516 11.2503 174.516 9.23171Z" fill="#FAF9F5"/>
    <path d="M174.516 2.97563C174.516 0.957035 172.883 -0.679364 170.87 -0.679364C168.856 -0.679363 167.224 0.957035 167.224 2.97563C167.224 4.99422 168.856 6.63061 170.87 6.63061C172.883 6.63061 174.516 4.99422 174.516 2.97563Z" fill="#FAF9F5"/>
    <path d="M180.864 53.0243C180.864 50.9465 179.183 49.2621 177.11 49.2621C175.038 49.2621 173.357 50.9465 173.357 53.0243C173.357 55.1022 175.038 56.7866 177.11 56.7866C179.183 56.7866 180.864 55.1022 180.864 53.0243Z" fill="#FAF9F5"/>
    <path d="M180.864 46.7683C180.864 44.6904 179.183 43.006 177.11 43.006C175.038 43.006 173.357 44.6904 173.357 46.7683C173.357 48.8461 175.038 50.5305 177.11 50.5305C179.183 50.5305 180.864 48.8461 180.864 46.7683Z" fill="#FAF9F5"/>
    <path d="M180.864 40.5122C180.864 38.4343 179.183 36.7499 177.11 36.7499C175.038 36.7499 173.357 38.4343 173.357 40.5122C173.357 42.59 175.038 44.2745 177.11 44.2745C179.183 44.2745 180.864 42.59 180.864 40.5122Z" fill="#FAF9F5"/>
    <path d="M180.864 34.2561C180.864 32.1782 179.183 30.4938 177.11 30.4938C175.038 30.4938 173.357 32.1782 173.357 34.2561C173.357 36.3339 175.038 38.0184 177.11 38.0184C179.183 38.0184 180.864 36.3339 180.864 34.2561Z" fill="#FAF9F5"/>
    <path d="M180.864 28C180.864 25.9221 179.183 24.2377 177.11 24.2377C175.038 24.2377 173.357 25.9221 173.357 28C173.357 30.0778 175.038 31.7623 177.11 31.7623C179.183 31.7623 180.864 30.0778 180.864 28Z" fill="#FAF9F5"/>
    <path d="M180.846 21.7439C180.846 19.6759 179.173 17.9995 177.11 17.9995C175.048 17.9995 173.375 19.6759 173.375 21.7439C173.375 23.8119 175.048 25.4883 177.11 25.4883C179.173 25.4883 180.846 23.8119 180.846 21.7439Z" fill="#FAF9F5"/>
    <path d="M180.846 15.4878C180.846 13.4198 179.173 11.7434 177.11 11.7434C175.048 11.7434 173.375 13.4198 173.375 15.4878C173.375 17.5558 175.048 19.2322 177.11 19.2322C179.173 19.2322 180.846 17.5558 180.846 15.4878Z" fill="#FAF9F5"/>
    <path d="M180.864 9.23171C180.864 7.15386 179.183 5.46942 177.11 5.46942C175.038 5.46942 173.357 7.15386 173.357 9.23171C173.357 11.3096 175.038 12.994 177.11 12.994C179.183 12.994 180.864 11.3096 180.864 9.23171Z" fill="#FAF9F5"/>
    <path d="M180.864 2.97563C180.864 0.897769 179.183 -0.786664 177.11 -0.786664C175.038 -0.786664 173.357 0.89777 173.357 2.97563C173.357 5.05349 175.038 6.73792 177.11 6.73792C179.183 6.73792 180.864 5.05349 180.864 2.97563Z" fill="#FAF9F5"/>
    <path d="M187.193 53.0243C187.193 50.8973 185.473 49.173 183.351 49.173C181.229 49.173 179.509 50.8973 179.509 53.0243C179.509 55.1514 181.229 56.8757 183.351 56.8757C185.473 56.8757 187.193 55.1514 187.193 53.0243Z" fill="#FAF9F5"/>
    <path d="M187.211 46.7683C187.211 44.6314 185.483 42.8991 183.351 42.8991C181.22 42.8991 179.492 44.6314 179.492 46.7683C179.492 48.9051 181.22 50.6374 183.351 50.6374C185.483 50.6374 187.211 48.9051 187.211 46.7683Z" fill="#FAF9F5"/>
    <path d="M187.211 40.5122C187.211 38.3753 185.483 36.643 183.351 36.643C181.22 36.643 179.492 38.3753 179.492 40.5122C179.492 42.6491 181.22 44.3813 183.351 44.3813C185.483 44.3813 187.211 42.6491 187.211 40.5122Z" fill="#FAF9F5"/>
    <path d="M187.211 34.2561C187.211 32.1192 185.483 30.3869 183.351 30.3869C181.22 30.3869 179.492 32.1192 179.492 34.2561C179.492 36.393 181.22 38.1253 183.351 38.1253C185.483 38.1253 187.211 36.393 187.211 34.2561Z" fill="#FAF9F5"/>
    <path d="M187.211 28C187.211 25.8631 185.483 24.1308 183.351 24.1308C181.22 24.1308 179.492 25.8631 179.492 28C179.492 30.1369 181.22 31.8692 183.351 31.8692C185.483 31.8692 187.211 30.1369 187.211 28Z" fill="#FAF9F5"/>
    <path d="M187.193 21.7439C187.193 19.6168 185.473 17.8925 183.351 17.8925C181.229 17.8925 179.509 19.6168 179.509 21.7439C179.509 23.871 181.229 25.5953 183.351 25.5953C185.473 25.5953 187.193 23.871 187.193 21.7439Z" fill="#FAF9F5"/>
    <path d="M187.211 15.4878C187.211 13.3509 185.483 11.6186 183.351 11.6186C181.22 11.6186 179.492 13.3509 179.492 15.4878C179.492 17.6247 181.22 19.357 183.351 19.357C185.483 19.357 187.211 17.6247 187.211 15.4878Z" fill="#FAF9F5"/>
    <path d="M187.193 9.23171C187.193 7.10465 185.473 5.38032 183.351 5.38032C181.229 5.38032 179.509 7.10465 179.509 9.23171C179.509 11.3588 181.229 13.0831 183.351 13.0831C185.473 13.0831 187.193 11.3588 187.193 9.23171Z" fill="#FAF9F5"/>
    <path d="M187.211 2.97562C187.211 0.838736 185.483 -0.893556 183.351 -0.893556C181.22 -0.893555 179.492 0.838737 179.492 2.97562C179.492 5.11251 181.22 6.8448 183.351 6.8448C185.483 6.8448 187.211 5.11251 187.211 2.97562Z" fill="#FAF9F5"/>
    <path d="M193.558 53.0243C193.558 50.8287 191.782 49.0487 189.592 49.0487C187.402 49.0487 185.626 50.8287 185.626 53.0243C185.626 55.22 187.402 57 189.592 57C191.782 57 193.558 55.22 193.558 53.0243Z" fill="#FAF9F5"/>
    <path d="M193.558 46.7683C193.558 44.5726 191.782 42.7926 189.592 42.7926C187.402 42.7926 185.626 44.5726 185.626 46.7683C185.626 48.9639 187.402 50.7439 189.592 50.7439C191.782 50.7439 193.558 48.9639 193.558 46.7683Z" fill="#FAF9F5"/>
    <path d="M193.558 40.5122C193.558 38.3165 191.782 36.5365 189.592 36.5365C187.402 36.5365 185.626 38.3165 185.626 40.5122C185.626 42.7079 187.402 44.4878 189.592 44.4878C191.782 44.4878 193.558 42.7079 193.558 40.5122Z" fill="#FAF9F5"/>
    <path d="M193.558 34.2561C193.558 32.0604 191.782 30.2804 189.592 30.2804C187.402 30.2804 185.626 32.0604 185.626 34.2561C185.626 36.4518 187.402 38.2317 189.592 38.2317C191.782 38.2317 193.558 36.4518 193.558 34.2561Z" fill="#FAF9F5"/>
    <path d="M193.558 28C193.558 25.8043 191.782 24.0243 189.592 24.0243C187.402 24.0243 185.626 25.8043 185.626 28C185.626 30.1957 187.402 31.9756 189.592 31.9756C191.782 31.9756 193.558 30.1957 193.558 28Z" fill="#FAF9F5"/>
    <path d="M193.558 21.7439C193.558 19.5482 191.782 17.7682 189.592 17.7682C187.402 17.7682 185.626 19.5482 185.626 21.7439C185.626 23.9396 187.402 25.7195 189.592 25.7195C191.782 25.7195 193.558 23.9396 193.558 21.7439Z" fill="#FAF9F5"/>
    <path d="M193.558 15.4878C193.558 13.2921 191.782 11.5122 189.592 11.5122C187.402 11.5122 185.626 13.2921 185.626 15.4878C185.626 17.6835 187.402 19.4635 189.592 19.4635C191.782 19.4635 193.558 17.6835 193.558 15.4878Z" fill="#FAF9F5"/>
    <path d="M193.54 9.23171C193.54 7.04581 191.773 5.27378 189.592 5.27378C187.411 5.27378 185.644 7.04581 185.644 9.23171C185.644 11.4176 187.411 13.1896 189.592 13.1896C191.773 13.1896 193.54 11.4176 193.54 9.23171Z" fill="#FAF9F5"/>
    <path d="M193.558 2.97563C193.558 0.779936 191.782 -1.00002 189.592 -1.00002C187.402 -1.00002 185.626 0.779937 185.626 2.97563C185.626 5.17132 187.402 6.95127 189.592 6.95127C191.782 6.95127 193.558 5.17132 193.558 2.97563Z" fill="#FAF9F5"/>
    <path d="M154.964 5.19873C162.451 1.04864 171.885 3.75393 176.035 11.2407C180.185 18.7278 177.48 28.1618 169.993 32.312C145.685 45.7859 118.367 52.9015 90.5752 52.9985C62.7831 53.0954 35.4168 46.1706 11.0156 32.8667C3.50004 28.7689 0.729612 19.3552 4.82715 11.8394C8.92496 4.32343 18.3396 1.5522 25.8555 5.6499C45.6719 16.4541 67.8965 22.0772 90.4668 21.9985C113.037 21.9197 135.223 16.1412 154.964 5.19873Z" stroke="#FAF9F5" stroke-width="2" stroke-linecap="round"/>
  </g>
</svg>
