<svg width="173" height="49" viewBox="0 0 173 49" fill="none" xmlns="http://www.w3.org/2000/svg">
<mask id="mask0_15106_8076" style="mask-type:alpha" maskUnits="userSpaceOnUse" x="0" y="0" width="173" height="49">
<path d="M170.241 7.5376C166.118 0.352217 156.951 -2.13067 149.765 1.9917C130.394 13.106 108.451 18.9591 86.1176 18.9683C63.7842 18.9775 41.837 13.1427 22.4564 2.04444C15.2676 -2.07208 6.10254 0.418275 1.98573 7.60694C-2.13104 14.7959 0.359268 23.9618 7.54823 28.0786C31.4711 41.7781 58.5625 48.9796 86.1303 48.9683C113.698 48.9569 140.783 41.7324 164.695 28.0132C171.88 23.8904 174.363 14.7231 170.241 7.5376Z" fill="white"/>
</mask>
<g mask="url(#mask0_15106_8076)">
<path d="M175.433 47.4356C175.433 47.2144 175.612 47.035 175.833 47.035C176.053 47.035 176.232 47.2144 176.232 47.4356C176.232 47.6569 176.053 47.8363 175.833 47.8363C175.612 47.8363 175.433 47.6569 175.433 47.4356Z" fill="#1D1D1B"/>
<path d="M175.433 41.8267C175.433 41.6055 175.612 41.4261 175.833 41.4261C176.053 41.4261 176.232 41.6055 176.232 41.8267C176.232 42.048 176.053 42.2274 175.833 42.2274C175.612 42.2274 175.433 42.048 175.433 41.8267Z" fill="#1D1D1B"/>
<path d="M175.433 36.2178C175.433 35.9965 175.612 35.8172 175.833 35.8172C176.053 35.8172 176.232 35.9965 176.232 36.2178C176.232 36.4391 176.053 36.6185 175.833 36.6185C175.612 36.6185 175.433 36.4391 175.433 36.2178Z" fill="#1D1D1B"/>
<path d="M175.433 30.6089C175.433 30.3876 175.612 30.2083 175.833 30.2083C176.053 30.2083 176.232 30.3876 176.232 30.6089C176.232 30.8302 176.053 31.0095 175.833 31.0095C175.612 31.0095 175.433 30.8302 175.433 30.6089Z" fill="#1D1D1B"/>
<path d="M175.433 25C175.433 24.7787 175.612 24.5994 175.833 24.5994C176.053 24.5994 176.232 24.7787 176.232 25C176.232 25.2213 176.053 25.4006 175.833 25.4006C175.612 25.4006 175.433 25.2213 175.433 25Z" fill="#1D1D1B"/>
<path d="M175.433 19.3911C175.433 19.1698 175.612 18.9905 175.833 18.9905C176.053 18.9905 176.232 19.1698 176.232 19.3911C176.232 19.6124 176.053 19.7917 175.833 19.7917C175.612 19.7917 175.433 19.6124 175.433 19.3911Z" fill="#1D1D1B"/>
<path d="M175.433 13.7822C175.433 13.5609 175.612 13.3816 175.833 13.3816C176.053 13.3816 176.232 13.5609 176.232 13.7822C176.232 14.0035 176.053 14.1828 175.833 14.1828C175.612 14.1828 175.433 14.0035 175.433 13.7822Z" fill="#1D1D1B"/>
<path d="M175.433 8.17328C175.433 7.95202 175.612 7.77265 175.833 7.77265C176.053 7.77265 176.232 7.95202 176.232 8.17328C176.232 8.39455 176.053 8.57392 175.833 8.57392C175.612 8.57392 175.433 8.39455 175.433 8.17328Z" fill="#1D1D1B"/>
<path d="M175.433 2.56438C175.433 2.34311 175.612 2.16374 175.833 2.16374C176.053 2.16374 176.232 2.34311 176.232 2.56438C176.232 2.78564 176.053 2.96501 175.833 2.96501C175.612 2.96501 175.433 2.78564 175.433 2.56438Z" fill="#1D1D1B"/>
<path d="M169.838 47.4356C169.838 47.2144 170.017 47.035 170.238 47.035C170.458 47.035 170.637 47.2144 170.637 47.4356C170.637 47.6569 170.458 47.8363 170.238 47.8363C170.017 47.8363 169.838 47.6569 169.838 47.4356Z" fill="#1D1D1B"/>
<path d="M169.838 41.8267C169.838 41.6055 170.017 41.4261 170.238 41.4261C170.458 41.4261 170.637 41.6055 170.637 41.8267C170.637 42.048 170.458 42.2274 170.238 42.2274C170.017 42.2274 169.838 42.048 169.838 41.8267Z" fill="#1D1D1B"/>
<path d="M169.838 36.2178C169.838 35.9965 170.017 35.8172 170.238 35.8172C170.458 35.8172 170.637 35.9965 170.637 36.2178C170.637 36.4391 170.458 36.6185 170.238 36.6185C170.017 36.6185 169.838 36.4391 169.838 36.2178Z" fill="#1D1D1B"/>
<path d="M169.838 30.6089C169.838 30.3876 170.017 30.2083 170.238 30.2083C170.458 30.2083 170.637 30.3876 170.637 30.6089C170.637 30.8302 170.458 31.0095 170.238 31.0095C170.017 31.0095 169.838 30.8302 169.838 30.6089Z" fill="#1D1D1B"/>
<path d="M169.838 25C169.838 24.7787 170.017 24.5994 170.238 24.5994C170.458 24.5994 170.637 24.7787 170.637 25C170.637 25.2213 170.458 25.4006 170.238 25.4006C170.017 25.4006 169.838 25.2213 169.838 25Z" fill="#1D1D1B"/>
<path d="M169.838 19.3911C169.838 19.1698 170.017 18.9905 170.238 18.9905C170.458 18.9905 170.637 19.1698 170.637 19.3911C170.637 19.6124 170.458 19.7917 170.238 19.7917C170.017 19.7917 169.838 19.6124 169.838 19.3911Z" fill="#1D1D1B"/>
<path d="M169.838 13.7822C169.838 13.5609 170.017 13.3816 170.238 13.3816C170.458 13.3816 170.637 13.5609 170.637 13.7822C170.637 14.0035 170.458 14.1828 170.238 14.1828C170.017 14.1828 169.838 14.0035 169.838 13.7822Z" fill="#1D1D1B"/>
<path d="M169.838 8.17328C169.838 7.95202 170.017 7.77265 170.238 7.77265C170.458 7.77265 170.637 7.95202 170.637 8.17328C170.637 8.39455 170.458 8.57392 170.238 8.57392C170.017 8.57392 169.838 8.39455 169.838 8.17328Z" fill="#1D1D1B"/>
<path d="M169.838 2.56438C169.838 2.34311 170.017 2.16374 170.238 2.16374C170.458 2.16374 170.637 2.34311 170.637 2.56438C170.637 2.78564 170.458 2.96501 170.238 2.96501C170.017 2.96501 169.838 2.78564 169.838 2.56438Z" fill="#1D1D1B"/>
<path d="M164.243 47.4356C164.243 47.2144 164.422 47.035 164.642 47.035C164.863 47.035 165.042 47.2144 165.042 47.4356C165.042 47.6569 164.863 47.8363 164.642 47.8363C164.422 47.8363 164.243 47.6569 164.243 47.4356Z" fill="#1D1D1B"/>
<path d="M164.243 41.8267C164.243 41.6055 164.422 41.4261 164.642 41.4261C164.863 41.4261 165.042 41.6055 165.042 41.8267C165.042 42.048 164.863 42.2274 164.642 42.2274C164.422 42.2274 164.243 42.048 164.243 41.8267Z" fill="#1D1D1B"/>
<path d="M164.243 36.2178C164.243 35.9965 164.422 35.8172 164.642 35.8172C164.863 35.8172 165.042 35.9965 165.042 36.2178C165.042 36.4391 164.863 36.6185 164.642 36.6185C164.422 36.6185 164.243 36.4391 164.243 36.2178Z" fill="#1D1D1B"/>
<path d="M164.243 30.6089C164.243 30.3876 164.422 30.2083 164.642 30.2083C164.863 30.2083 165.042 30.3876 165.042 30.6089C165.042 30.8302 164.863 31.0095 164.642 31.0095C164.422 31.0095 164.243 30.8302 164.243 30.6089Z" fill="#1D1D1B"/>
<path d="M164.243 25C164.243 24.7787 164.422 24.5994 164.642 24.5994C164.863 24.5994 165.042 24.7787 165.042 25C165.042 25.2213 164.863 25.4006 164.642 25.4006C164.422 25.4006 164.243 25.2213 164.243 25Z" fill="#1D1D1B"/>
<path d="M164.243 19.3911C164.243 19.1698 164.422 18.9905 164.642 18.9905C164.863 18.9905 165.042 19.1698 165.042 19.3911C165.042 19.6124 164.863 19.7917 164.642 19.7917C164.422 19.7917 164.243 19.6124 164.243 19.3911Z" fill="#1D1D1B"/>
<path d="M164.243 13.7822C164.243 13.5609 164.422 13.3816 164.642 13.3816C164.863 13.3816 165.042 13.5609 165.042 13.7822C165.042 14.0035 164.863 14.1828 164.642 14.1828C164.422 14.1828 164.243 14.0035 164.243 13.7822Z" fill="#1D1D1B"/>
<path d="M164.243 8.17328C164.243 7.95202 164.422 7.77265 164.642 7.77265C164.863 7.77265 165.042 7.95202 165.042 8.17328C165.042 8.39455 164.863 8.57392 164.642 8.57392C164.422 8.57392 164.243 8.39455 164.243 8.17328Z" fill="#1D1D1B"/>
<path d="M164.243 2.56438C164.243 2.34311 164.422 2.16374 164.642 2.16374C164.863 2.16374 165.042 2.34311 165.042 2.56438C165.042 2.78564 164.863 2.96501 164.642 2.96501C164.422 2.96501 164.243 2.78564 164.243 2.56438Z" fill="#1D1D1B"/>
<path d="M158.571 47.4356C158.571 47.172 158.784 46.9583 159.047 46.9583C159.31 46.9583 159.523 47.172 159.523 47.4356C159.523 47.6993 159.31 47.913 159.047 47.913C158.784 47.913 158.571 47.6993 158.571 47.4356Z" fill="#1D1D1B"/>
<path d="M158.55 41.8267C158.55 41.5515 158.773 41.3284 159.047 41.3284C159.322 41.3284 159.544 41.5515 159.544 41.8267C159.544 42.1019 159.322 42.325 159.047 42.325C158.773 42.325 158.55 42.1019 158.55 41.8267Z" fill="#1D1D1B"/>
<path d="M158.55 36.2178C158.55 35.9426 158.773 35.7195 159.047 35.7195C159.322 35.7195 159.544 35.9426 159.544 36.2178C159.544 36.493 159.322 36.7161 159.047 36.7161C158.773 36.7161 158.55 36.493 158.55 36.2178Z" fill="#1D1D1B"/>
<path d="M158.55 30.6089C158.55 30.3337 158.773 30.1106 159.047 30.1106C159.322 30.1106 159.544 30.3337 159.544 30.6089C159.544 30.8841 159.322 31.1072 159.047 31.1072C158.773 31.1072 158.55 30.8841 158.55 30.6089Z" fill="#1D1D1B"/>
<path d="M158.571 25C158.571 24.7364 158.784 24.5227 159.047 24.5227C159.31 24.5227 159.523 24.7364 159.523 25C159.523 25.2636 159.31 25.4773 159.047 25.4773C158.784 25.4773 158.571 25.2636 158.571 25Z" fill="#1D1D1B"/>
<path d="M158.55 19.3911C158.55 19.1159 158.773 18.8928 159.047 18.8928C159.322 18.8928 159.544 19.1159 159.544 19.3911C159.544 19.6663 159.322 19.8894 159.047 19.8894C158.773 19.8894 158.55 19.6663 158.55 19.3911Z" fill="#1D1D1B"/>
<path d="M158.571 13.7822C158.571 13.5186 158.784 13.3048 159.047 13.3048C159.31 13.3048 159.524 13.5186 159.524 13.7822C159.524 14.0458 159.31 14.2595 159.047 14.2595C158.784 14.2595 158.571 14.0458 158.571 13.7822Z" fill="#1D1D1B"/>
<path d="M158.55 8.17328C158.55 7.89807 158.773 7.67496 159.047 7.67496C159.322 7.67496 159.544 7.89807 159.544 8.17328C159.544 8.4485 159.322 8.67161 159.047 8.67161C158.773 8.67161 158.55 8.4485 158.55 8.17328Z" fill="#1D1D1B"/>
<path d="M158.55 2.56438C158.55 2.28916 158.773 2.06605 159.047 2.06605C159.322 2.06605 159.544 2.28916 159.544 2.56438C159.544 2.83959 159.322 3.0627 159.047 3.0627C158.773 3.0627 158.55 2.83959 158.55 2.56438Z" fill="#1D1D1B"/>
<path d="M152.832 47.4356C152.832 47.0922 153.11 46.8138 153.452 46.8138C153.795 46.8138 154.072 47.0922 154.072 47.4356C154.072 47.779 153.795 48.0574 153.452 48.0574C153.11 48.0574 152.832 47.779 152.832 47.4356Z" fill="#1D1D1B"/>
<path d="M152.832 41.8267C152.832 41.4833 153.11 41.2049 153.452 41.2049C153.795 41.2049 154.072 41.4833 154.072 41.8267C154.072 42.1701 153.795 42.4485 153.452 42.4485C153.11 42.4485 152.832 42.1701 152.832 41.8267Z" fill="#1D1D1B"/>
<path d="M152.832 36.2178C152.832 35.8744 153.11 35.596 153.452 35.596C153.795 35.596 154.072 35.8744 154.072 36.2178C154.072 36.5612 153.795 36.8396 153.452 36.8396C153.11 36.8396 152.832 36.5612 152.832 36.2178Z" fill="#1D1D1B"/>
<path d="M152.832 30.6089C152.832 30.2655 153.11 29.9871 153.452 29.9871C153.795 29.9871 154.072 30.2655 154.072 30.6089C154.072 30.9523 153.795 31.2307 153.452 31.2307C153.11 31.2307 152.832 30.9523 152.832 30.6089Z" fill="#1D1D1B"/>
<path d="M152.832 25C152.832 24.6566 153.11 24.3782 153.452 24.3782C153.795 24.3782 154.072 24.6566 154.072 25C154.072 25.3434 153.795 25.6218 153.452 25.6218C153.11 25.6218 152.832 25.3434 152.832 25Z" fill="#1D1D1B"/>
<path d="M152.832 19.3911C152.832 19.0477 153.11 18.7693 153.452 18.7693C153.795 18.7693 154.072 19.0477 154.072 19.3911C154.072 19.7345 153.795 20.0129 153.452 20.0129C153.11 20.0129 152.832 19.7345 152.832 19.3911Z" fill="#1D1D1B"/>
<path d="M152.852 13.7822C152.852 13.45 153.121 13.1807 153.452 13.1807C153.784 13.1807 154.052 13.45 154.052 13.7822C154.052 14.1144 153.784 14.3837 153.452 14.3837C153.121 14.3837 152.852 14.1144 152.852 13.7822Z" fill="#1D1D1B"/>
<path d="M152.832 8.17329C152.832 7.82987 153.11 7.55148 153.452 7.55148C153.795 7.55148 154.072 7.82987 154.072 8.17329C154.072 8.5167 153.795 8.79509 153.452 8.79509C153.11 8.79509 152.832 8.5167 152.832 8.17329Z" fill="#1D1D1B"/>
<path d="M152.832 2.56438C152.832 2.22097 153.11 1.94257 153.452 1.94257C153.795 1.94257 154.072 2.22097 154.072 2.56438C154.072 2.90779 153.795 3.18618 153.452 3.18618C153.11 3.18618 152.832 2.90779 152.832 2.56438Z" fill="#1D1D1B"/>
<path d="M147.117 47.4356C147.117 47.0259 147.448 46.6937 147.857 46.6937C148.266 46.6937 148.597 47.0259 148.597 47.4356C148.597 47.8454 148.266 48.1776 147.857 48.1776C147.448 48.1776 147.117 47.8454 147.117 47.4356Z" fill="#1D1D1B"/>
<path d="M147.117 41.8267C147.117 41.417 147.448 41.0848 147.857 41.0848C148.266 41.0848 148.597 41.417 148.597 41.8267C148.597 42.2365 148.266 42.5686 147.857 42.5686C147.448 42.5686 147.117 42.2365 147.117 41.8267Z" fill="#1D1D1B"/>
<path d="M147.117 36.2178C147.117 35.8081 147.448 35.4759 147.857 35.4759C148.266 35.4759 148.597 35.8081 148.597 36.2178C148.597 36.6276 148.266 36.9597 147.857 36.9597C147.448 36.9597 147.117 36.6276 147.117 36.2178Z" fill="#1D1D1B"/>
<path d="M147.117 30.6089C147.117 30.1992 147.448 29.867 147.857 29.867C148.266 29.867 148.597 30.1992 148.597 30.6089C148.597 31.0187 148.266 31.3508 147.857 31.3508C147.448 31.3508 147.117 31.0187 147.117 30.6089Z" fill="#1D1D1B"/>
<path d="M147.117 25C147.117 24.5902 147.448 24.2581 147.857 24.2581C148.266 24.2581 148.597 24.5902 148.597 25C148.597 25.4098 148.266 25.7419 147.857 25.7419C147.448 25.7419 147.117 25.4098 147.117 25Z" fill="#1D1D1B"/>
<path d="M147.117 19.3911C147.117 18.9813 147.448 18.6492 147.857 18.6492C148.266 18.6492 148.597 18.9813 148.597 19.3911C148.597 19.8009 148.266 20.133 147.857 20.133C147.448 20.133 147.117 19.8009 147.117 19.3911Z" fill="#1D1D1B"/>
<path d="M147.137 13.7822C147.137 13.3834 147.459 13.0601 147.857 13.0601C148.255 13.0601 148.577 13.3834 148.577 13.7822C148.577 14.181 148.255 14.5043 147.857 14.5043C147.459 14.5043 147.137 14.181 147.137 13.7822Z" fill="#1D1D1B"/>
<path d="M147.117 8.17328C147.117 7.76353 147.448 7.43136 147.857 7.43136C148.266 7.43136 148.597 7.76353 148.597 8.17328C148.597 8.58304 148.266 8.91521 147.857 8.91521C147.448 8.91521 147.117 8.58304 147.117 8.17328Z" fill="#1D1D1B"/>
<path d="M147.117 2.56438C147.117 2.15462 147.448 1.82245 147.857 1.82245C148.266 1.82245 148.597 2.15462 148.597 2.56438C148.597 2.97413 148.266 3.3063 147.857 3.3063C147.448 3.3063 147.117 2.97413 147.117 2.56438Z" fill="#1D1D1B"/>
<path d="M141.405 47.4356C141.405 46.961 141.788 46.5763 142.262 46.5763C142.735 46.5763 143.119 46.961 143.119 47.4356C143.119 47.9102 142.735 48.295 142.262 48.295C141.788 48.295 141.405 47.9102 141.405 47.4356Z" fill="#1D1D1B"/>
<path d="M141.405 41.8267C141.405 41.3521 141.788 40.9674 142.262 40.9674C142.735 40.9674 143.119 41.3521 143.119 41.8267C143.119 42.3013 142.735 42.6861 142.262 42.6861C141.788 42.6861 141.405 42.3013 141.405 41.8267Z" fill="#1D1D1B"/>
<path d="M141.405 36.2178C141.405 35.7432 141.788 35.3584 142.262 35.3584C142.735 35.3584 143.119 35.7432 143.119 36.2178C143.119 36.6924 142.735 37.0772 142.262 37.0772C141.788 37.0772 141.405 36.6924 141.405 36.2178Z" fill="#1D1D1B"/>
<path d="M141.405 30.6089C141.405 30.1343 141.788 29.7495 142.262 29.7495C142.735 29.7495 143.119 30.1343 143.119 30.6089C143.119 31.0835 142.735 31.4683 142.262 31.4683C141.788 31.4683 141.405 31.0835 141.405 30.6089Z" fill="#1D1D1B"/>
<path d="M141.405 25C141.405 24.5254 141.788 24.1406 142.262 24.1406C142.735 24.1406 143.119 24.5254 143.119 25C143.119 25.4746 142.735 25.8594 142.262 25.8594C141.788 25.8594 141.405 25.4746 141.405 25Z" fill="#1D1D1B"/>
<path d="M141.405 19.3911C141.405 18.9165 141.788 18.5317 142.262 18.5317C142.735 18.5317 143.119 18.9165 143.119 19.3911C143.119 19.8657 142.735 20.2505 142.262 20.2505C141.788 20.2505 141.405 19.8657 141.405 19.3911Z" fill="#1D1D1B"/>
<path d="M141.405 13.7822C141.405 13.3076 141.788 12.9228 142.262 12.9228C142.735 12.9228 143.119 13.3076 143.119 13.7822C143.119 14.2568 142.735 14.6416 142.262 14.6416C141.788 14.6416 141.405 14.2568 141.405 13.7822Z" fill="#1D1D1B"/>
<path d="M141.405 8.17328C141.405 7.69867 141.788 7.31391 142.262 7.31391C142.735 7.31391 143.119 7.69867 143.119 8.17328C143.119 8.6479 142.735 9.03265 142.262 9.03265C141.788 9.03265 141.405 8.6479 141.405 8.17328Z" fill="#1D1D1B"/>
<path d="M141.405 2.56438C141.405 2.08976 141.788 1.70501 142.262 1.70501C142.735 1.70501 143.119 2.08976 143.119 2.56438C143.119 3.03899 142.735 3.42375 142.262 3.42375C141.788 3.42375 141.405 3.03899 141.405 2.56438Z" fill="#1D1D1B"/>
<path d="M135.695 47.4356C135.695 46.8974 136.13 46.461 136.667 46.461C137.204 46.461 137.639 46.8974 137.639 47.4356C137.639 47.9739 137.204 48.4102 136.667 48.4102C136.13 48.4102 135.695 47.9739 135.695 47.4356Z" fill="#1D1D1B"/>
<path d="M135.695 41.8267C135.695 41.2885 136.13 40.8521 136.667 40.8521C137.204 40.8521 137.639 41.2885 137.639 41.8267C137.639 42.365 137.204 42.8013 136.667 42.8013C136.13 42.8013 135.695 42.365 135.695 41.8267Z" fill="#1D1D1B"/>
<path d="M135.695 36.2178C135.695 35.6796 136.13 35.2432 136.667 35.2432C137.204 35.2432 137.639 35.6796 137.639 36.2178C137.639 36.7561 137.204 37.1924 136.667 37.1924C136.13 37.1924 135.695 36.7561 135.695 36.2178Z" fill="#1D1D1B"/>
<path d="M135.695 30.6089C135.695 30.0707 136.13 29.6343 136.667 29.6343C137.204 29.6343 137.639 30.0707 137.639 30.6089C137.639 31.1472 137.204 31.5835 136.667 31.5835C136.13 31.5835 135.695 31.1472 135.695 30.6089Z" fill="#1D1D1B"/>
<path d="M135.695 25C135.695 24.4617 136.13 24.0254 136.667 24.0254C137.204 24.0254 137.639 24.4617 137.639 25C137.639 25.5383 137.204 25.9746 136.667 25.9746C136.13 25.9746 135.695 25.5383 135.695 25Z" fill="#1D1D1B"/>
<path d="M135.676 19.3911C135.676 18.8423 136.119 18.3975 136.667 18.3975C137.214 18.3975 137.658 18.8423 137.658 19.3911C137.658 19.9399 137.214 20.3847 136.667 20.3847C136.119 20.3847 135.676 19.9398 135.676 19.3911Z" fill="#1D1D1B"/>
<path d="M135.695 13.7822C135.695 13.2439 136.13 12.8076 136.667 12.8076C137.204 12.8076 137.639 13.2439 137.639 13.7822C137.639 14.3204 137.204 14.7568 136.667 14.7568C136.13 14.7568 135.695 14.3204 135.695 13.7822Z" fill="#1D1D1B"/>
<path d="M135.695 8.17328C135.695 7.63503 136.13 7.19868 136.667 7.19868C137.204 7.19868 137.639 7.63503 137.639 8.17328C137.639 8.71154 137.204 9.14788 136.667 9.14788C136.13 9.14788 135.695 8.71154 135.695 8.17328Z" fill="#1D1D1B"/>
<path d="M135.695 2.56438C135.695 2.02612 136.13 1.58978 136.667 1.58978C137.204 1.58978 137.639 2.02612 137.639 2.56438C137.639 3.10263 137.204 3.53898 136.667 3.53898C136.13 3.53898 135.695 3.10263 135.695 2.56438Z" fill="#1D1D1B"/>
<path d="M129.986 47.4356C129.986 46.8348 130.472 46.3477 131.072 46.3477C131.671 46.3477 132.157 46.8348 132.157 47.4356C132.157 48.0365 131.671 48.5236 131.072 48.5236C130.472 48.5236 129.986 48.0365 129.986 47.4356Z" fill="#1D1D1B"/>
<path d="M129.986 41.8267C129.986 41.2259 130.472 40.7388 131.072 40.7388C131.671 40.7388 132.157 41.2259 132.157 41.8267C132.157 42.4276 131.671 42.9147 131.072 42.9147C130.472 42.9147 129.986 42.4276 129.986 41.8267Z" fill="#1D1D1B"/>
<path d="M129.986 36.2178C129.986 35.617 130.472 35.1299 131.072 35.1299C131.671 35.1299 132.157 35.617 132.157 36.2178C132.157 36.8187 131.671 37.3058 131.072 37.3058C130.472 37.3058 129.986 36.8187 129.986 36.2178Z" fill="#1D1D1B"/>
<path d="M129.986 30.6089C129.986 30.0081 130.472 29.521 131.072 29.521C131.671 29.521 132.157 30.0081 132.157 30.6089C132.157 31.2098 131.671 31.6969 131.072 31.6969C130.472 31.6969 129.986 31.2098 129.986 30.6089Z" fill="#1D1D1B"/>
<path d="M129.986 25C129.986 24.3991 130.472 23.9121 131.072 23.9121C131.671 23.9121 132.157 24.3991 132.157 25C132.157 25.6009 131.671 26.0879 131.072 26.0879C130.472 26.0879 129.986 25.6009 129.986 25Z" fill="#1D1D1B"/>
<path d="M129.986 19.3911C129.986 18.7902 130.472 18.3031 131.072 18.3031C131.671 18.3031 132.157 18.7902 132.157 19.3911C132.157 19.9919 131.671 20.479 131.072 20.479C130.472 20.479 129.986 19.9919 129.986 19.3911Z" fill="#1D1D1B"/>
<path d="M129.986 13.7822C129.986 13.1813 130.472 12.6942 131.072 12.6942C131.671 12.6942 132.157 13.1813 132.157 13.7822C132.157 14.383 131.671 14.8701 131.072 14.8701C130.472 14.8701 129.986 14.383 129.986 13.7822Z" fill="#1D1D1B"/>
<path d="M129.968 8.17328C129.968 7.56208 130.462 7.06661 131.072 7.06661C131.681 7.06661 132.176 7.56208 132.176 8.17328C132.176 8.78448 131.681 9.27995 131.072 9.27995C130.462 9.27995 129.968 8.78448 129.968 8.17328Z" fill="#1D1D1B"/>
<path d="M129.986 2.56438C129.986 1.96352 130.472 1.47643 131.072 1.47643C131.671 1.47643 132.157 1.96352 132.157 2.56438C132.157 3.16524 131.671 3.65232 131.072 3.65232C130.472 3.65232 129.986 3.16524 129.986 2.56438Z" fill="#1D1D1B"/>
<path d="M124.28 47.4356C124.28 46.7731 124.816 46.236 125.476 46.236C126.137 46.236 126.673 46.7731 126.673 47.4356C126.673 48.0982 126.137 48.6353 125.476 48.6353C124.816 48.6353 124.28 48.0982 124.28 47.4356Z" fill="#1D1D1B"/>
<path d="M124.28 41.8267C124.28 41.1642 124.816 40.6271 125.476 40.6271C126.137 40.6271 126.673 41.1642 126.673 41.8267C126.673 42.4893 126.137 43.0264 125.476 43.0264C124.816 43.0264 124.28 42.4893 124.28 41.8267Z" fill="#1D1D1B"/>
<path d="M124.28 36.2178C124.28 35.5553 124.816 35.0182 125.476 35.0182C126.137 35.0182 126.673 35.5553 126.673 36.2178C126.673 36.8804 126.137 37.4175 125.476 37.4175C124.816 37.4175 124.28 36.8804 124.28 36.2178Z" fill="#1D1D1B"/>
<path d="M124.28 30.6089C124.28 29.9464 124.816 29.4092 125.476 29.4092C126.137 29.4092 126.673 29.9464 126.673 30.6089C126.673 31.2715 126.137 31.8086 125.476 31.8086C124.816 31.8086 124.28 31.2715 124.28 30.6089Z" fill="#1D1D1B"/>
<path d="M124.28 25C124.28 24.3374 124.816 23.8003 125.476 23.8003C126.137 23.8003 126.673 24.3374 126.673 25C126.673 25.6626 126.137 26.1997 125.476 26.1997C124.816 26.1997 124.28 25.6626 124.28 25Z" fill="#1D1D1B"/>
<path d="M124.298 19.3911C124.298 18.7388 124.826 18.2099 125.476 18.2099C126.127 18.2099 126.655 18.7388 126.655 19.3911C126.655 20.0434 126.127 20.5722 125.476 20.5722C124.826 20.5722 124.298 20.0434 124.298 19.3911Z" fill="#1D1D1B"/>
<path d="M124.28 13.7822C124.28 13.1196 124.816 12.5825 125.476 12.5825C126.137 12.5825 126.673 13.1196 126.673 13.7822C126.673 14.4447 126.137 14.9818 125.476 14.9818C124.816 14.9818 124.28 14.4447 124.28 13.7822Z" fill="#1D1D1B"/>
<path d="M124.28 8.17328C124.28 7.51073 124.816 6.97362 125.476 6.97362C126.137 6.97362 126.673 7.51073 126.673 8.17328C126.673 8.83584 126.137 9.37295 125.476 9.37295C124.816 9.37295 124.28 8.83584 124.28 8.17328Z" fill="#1D1D1B"/>
<path d="M124.28 2.56438C124.28 1.90182 124.816 1.36472 125.476 1.36472C126.137 1.36472 126.673 1.90182 126.673 2.56438C126.673 3.22693 126.137 3.76404 125.476 3.76404C124.816 3.76404 124.28 3.22693 124.28 2.56438Z" fill="#1D1D1B"/>
<path d="M118.575 47.4356C118.575 46.7122 119.16 46.1257 119.881 46.1257C120.603 46.1257 121.188 46.7122 121.188 47.4356C121.188 48.1591 120.603 48.7456 119.881 48.7456C119.16 48.7456 118.575 48.1591 118.575 47.4356Z" fill="#1D1D1B"/>
<path d="M118.575 41.8267C118.575 41.1033 119.16 40.5168 119.881 40.5168C120.603 40.5168 121.188 41.1033 121.188 41.8267C121.188 42.5502 120.603 43.1367 119.881 43.1367C119.16 43.1367 118.575 42.5502 118.575 41.8267Z" fill="#1D1D1B"/>
<path d="M118.556 36.2178C118.556 35.4843 119.15 34.8896 119.881 34.8896C120.613 34.8896 121.206 35.4843 121.206 36.2178C121.206 36.9514 120.613 37.546 119.881 37.546C119.15 37.546 118.556 36.9514 118.556 36.2178Z" fill="#1D1D1B"/>
<path d="M118.575 30.6089C118.575 29.8854 119.16 29.299 119.881 29.299C120.603 29.299 121.188 29.8854 121.188 30.6089C121.188 31.3324 120.603 31.9188 119.881 31.9188C119.16 31.9188 118.575 31.3324 118.575 30.6089Z" fill="#1D1D1B"/>
<path d="M118.575 25C118.575 24.2765 119.16 23.6901 119.881 23.6901C120.603 23.6901 121.188 24.2765 121.188 25C121.188 25.7235 120.603 26.3099 119.881 26.3099C119.16 26.3099 118.575 25.7235 118.575 25Z" fill="#1D1D1B"/>
<path d="M118.575 19.3911C118.575 18.6676 119.16 18.0812 119.881 18.0812C120.603 18.0812 121.188 18.6676 121.188 19.3911C121.188 20.1146 120.603 20.701 119.881 20.701C119.16 20.701 118.575 20.1146 118.575 19.3911Z" fill="#1D1D1B"/>
<path d="M118.575 13.7822C118.575 13.0587 119.16 12.4722 119.881 12.4722C120.603 12.4722 121.188 13.0587 121.188 13.7822C121.188 14.5056 120.603 15.0921 119.881 15.0921C119.16 15.0921 118.575 14.5056 118.575 13.7822Z" fill="#1D1D1B"/>
<path d="M118.593 8.17328C118.593 7.45992 119.17 6.88163 119.881 6.88163C120.593 6.88163 121.17 7.45992 121.17 8.17328C121.17 8.88664 120.593 9.46493 119.881 9.46493C119.17 9.46493 118.593 8.88664 118.593 8.17328Z" fill="#1D1D1B"/>
<path d="M118.575 2.56438C118.575 1.84092 119.16 1.25444 119.881 1.25444C120.603 1.25444 121.188 1.84092 121.188 2.56438C121.188 3.28784 120.603 3.87431 119.881 3.87431C119.16 3.87431 118.575 3.28784 118.575 2.56438Z" fill="#1D1D1B"/>
<path d="M112.871 47.4356C112.871 46.652 113.504 46.0167 114.286 46.0167C115.068 46.0167 115.702 46.652 115.702 47.4356C115.702 48.2193 115.068 48.8546 114.286 48.8546C113.504 48.8546 112.871 48.2193 112.871 47.4356Z" fill="#1D1D1B"/>
<path d="M112.853 41.8267C112.853 41.0331 113.494 40.3897 114.286 40.3897C115.078 40.3897 115.72 41.0331 115.72 41.8267C115.72 42.6203 115.078 43.2637 114.286 43.2637C113.494 43.2637 112.853 42.6203 112.853 41.8267Z" fill="#1D1D1B"/>
<path d="M112.871 36.2178C112.871 35.4342 113.504 34.7989 114.286 34.7989C115.068 34.7989 115.702 35.4342 115.702 36.2178C115.702 37.0015 115.068 37.6367 114.286 37.6367C113.504 37.6367 112.871 37.0015 112.871 36.2178Z" fill="#1D1D1B"/>
<path d="M112.871 30.6089C112.871 29.8253 113.504 29.19 114.286 29.19C115.068 29.19 115.702 29.8253 115.702 30.6089C115.702 31.3926 115.068 32.0278 114.286 32.0278C113.504 32.0278 112.871 31.3926 112.871 30.6089Z" fill="#1D1D1B"/>
<path d="M112.853 25C112.853 24.2064 113.494 23.563 114.286 23.563C115.078 23.563 115.72 24.2064 115.72 25C115.72 25.7936 115.078 26.437 114.286 26.437C113.494 26.437 112.853 25.7936 112.853 25Z" fill="#1D1D1B"/>
<path d="M112.853 19.3911C112.853 18.5975 113.494 17.9541 114.286 17.9541C115.078 17.9541 115.72 18.5975 115.72 19.3911C115.72 20.1847 115.078 20.8281 114.286 20.8281C113.494 20.8281 112.853 20.1847 112.853 19.3911Z" fill="#1D1D1B"/>
<path d="M112.853 13.7822C112.853 12.9886 113.494 12.3452 114.286 12.3452C115.078 12.3452 115.72 12.9886 115.72 13.7822C115.72 14.5758 115.078 15.2192 114.286 15.2192C113.494 15.2192 112.853 14.5758 112.853 13.7822Z" fill="#1D1D1B"/>
<path d="M112.871 8.17328C112.871 7.38963 113.504 6.75436 114.286 6.75436C115.068 6.75436 115.702 7.38963 115.702 8.17328C115.702 8.95693 115.068 9.59221 114.286 9.59221C113.504 9.59221 112.871 8.95693 112.871 8.17328Z" fill="#1D1D1B"/>
<path d="M112.853 2.56437C112.853 1.77075 113.494 1.1274 114.286 1.1274C115.078 1.1274 115.72 1.77075 115.72 2.56437C115.72 3.35799 115.078 4.00135 114.286 4.00135C113.494 4.00135 112.853 3.35799 112.853 2.56437Z" fill="#1D1D1B"/>
<path d="M107.168 47.4356C107.168 46.5924 107.85 45.9089 108.691 45.9089C109.532 45.9089 110.214 46.5924 110.214 47.4356C110.214 48.2788 109.532 48.9624 108.691 48.9624C107.85 48.9624 107.168 48.2788 107.168 47.4356Z" fill="#1D1D1B"/>
<path d="M107.168 41.8267C107.168 40.9835 107.85 40.3 108.691 40.3C109.532 40.3 110.214 40.9835 110.214 41.8267C110.214 42.6699 109.532 43.3535 108.691 43.3535C107.85 43.3535 107.168 42.6699 107.168 41.8267Z" fill="#1D1D1B"/>
<path d="M107.168 36.2178C107.168 35.3746 107.85 34.6911 108.691 34.6911C109.532 34.6911 110.214 35.3746 110.214 36.2178C110.214 37.061 109.532 37.7446 108.691 37.7446C107.85 37.7446 107.168 37.061 107.168 36.2178Z" fill="#1D1D1B"/>
<path d="M107.168 30.6089C107.168 29.7657 107.85 29.0822 108.691 29.0822C109.532 29.0822 110.214 29.7657 110.214 30.6089C110.214 31.4521 109.532 32.1357 108.691 32.1357C107.85 32.1357 107.168 31.4521 107.168 30.6089Z" fill="#1D1D1B"/>
<path d="M107.168 25C107.168 24.1568 107.85 23.4732 108.691 23.4732C109.532 23.4732 110.214 24.1568 110.214 25C110.214 25.8432 109.532 26.5268 108.691 26.5268C107.85 26.5268 107.168 25.8432 107.168 25Z" fill="#1D1D1B"/>
<path d="M107.168 19.3911C107.168 18.5479 107.85 17.8643 108.691 17.8643C109.532 17.8643 110.214 18.5479 110.214 19.3911C110.214 20.2343 109.532 20.9178 108.691 20.9178C107.85 20.9178 107.168 20.2343 107.168 19.3911Z" fill="#1D1D1B"/>
<path d="M107.15 13.7822C107.15 12.9291 107.84 12.2376 108.691 12.2376C109.542 12.2376 110.232 12.9291 110.232 13.7822C110.232 14.6353 109.542 15.3268 108.691 15.3268C107.84 15.3268 107.15 14.6353 107.15 13.7822Z" fill="#1D1D1B"/>
<path d="M107.15 8.17328C107.15 7.32021 107.84 6.62867 108.691 6.62867C109.542 6.62867 110.232 7.32021 110.232 8.17328C110.232 9.02635 109.542 9.7179 108.691 9.7179C107.84 9.7179 107.15 9.02635 107.15 8.17328Z" fill="#1D1D1B"/>
<path d="M107.168 2.56438C107.168 1.72117 107.85 1.03762 108.691 1.03762C109.532 1.03762 110.214 1.72117 110.214 2.56438C110.214 3.40758 109.532 4.09113 108.691 4.09113C107.85 4.09113 107.168 3.40758 107.168 2.56438Z" fill="#1D1D1B"/>
<path d="M101.466 47.4356C101.466 46.5335 102.196 45.8021 103.096 45.8021C103.996 45.8021 104.725 46.5335 104.725 47.4356C104.725 48.3378 103.996 49.0692 103.096 49.0692C102.196 49.0692 101.466 48.3378 101.466 47.4356Z" fill="#1D1D1B"/>
<path d="M101.449 41.8267C101.449 40.9148 102.186 40.1755 103.096 40.1755C104.006 40.1755 104.743 40.9148 104.743 41.8267C104.743 42.7387 104.006 43.4779 103.096 43.4779C102.186 43.4779 101.449 42.7387 101.449 41.8267Z" fill="#1D1D1B"/>
<path d="M101.449 36.2178C101.449 35.3059 102.186 34.5666 103.096 34.5666C104.006 34.5666 104.743 35.3059 104.743 36.2178C104.743 37.1298 104.006 37.869 103.096 37.869C102.186 37.869 101.449 37.1298 101.449 36.2178Z" fill="#1D1D1B"/>
<path d="M101.466 30.6089C101.466 29.7067 102.196 28.9754 103.096 28.9754C103.996 28.9754 104.725 29.7067 104.725 30.6089C104.725 31.5111 103.996 32.2424 103.096 32.2424C102.196 32.2424 101.466 31.5111 101.466 30.6089Z" fill="#1D1D1B"/>
<path d="M101.466 25C101.466 24.0978 102.196 23.3665 103.096 23.3665C103.996 23.3665 104.725 24.0978 104.725 25C104.725 25.9022 103.996 26.6335 103.096 26.6335C102.196 26.6335 101.466 25.9022 101.466 25Z" fill="#1D1D1B"/>
<path d="M101.466 19.3911C101.466 18.4889 102.196 17.7576 103.096 17.7576C103.996 17.7576 104.725 18.4889 104.725 19.3911C104.725 20.2933 103.996 21.0246 103.096 21.0246C102.196 21.0246 101.466 20.2933 101.466 19.3911Z" fill="#1D1D1B"/>
<path d="M101.449 13.7822C101.449 12.8702 102.186 12.131 103.096 12.131C104.006 12.131 104.743 12.8702 104.743 13.7822C104.743 14.6941 104.006 15.4334 103.096 15.4334C102.186 15.4334 101.449 14.6941 101.449 13.7822Z" fill="#1D1D1B"/>
<path d="M101.449 8.17328C101.449 7.26134 102.186 6.52206 103.096 6.52206C104.006 6.52206 104.743 7.26134 104.743 8.17328C104.743 9.08523 104.006 9.82451 103.096 9.82451C102.186 9.82451 101.449 9.08523 101.449 8.17328Z" fill="#1D1D1B"/>
<path d="M101.466 2.56438C101.466 1.66221 102.196 0.930855 103.096 0.930855C103.996 0.930855 104.725 1.66221 104.725 2.56438C104.725 3.46655 103.996 4.1979 103.096 4.1979C102.196 4.1979 101.466 3.46655 101.466 2.56438Z" fill="#1D1D1B"/>
<path d="M95.7481 47.4356C95.7481 46.4653 96.5328 45.6788 97.5007 45.6788C98.4686 45.6788 99.2533 46.4653 99.2533 47.4356C99.2533 48.4059 98.4686 49.1925 97.5007 49.1925C96.5328 49.1925 95.7481 48.4059 95.7481 47.4356Z" fill="#1D1D1B"/>
<path d="M95.7481 41.8267C95.7481 40.8564 96.5328 40.0698 97.5007 40.0698C98.4686 40.0698 99.2533 40.8564 99.2533 41.8267C99.2533 42.797 98.4686 43.5836 97.5007 43.5836C96.5328 43.5836 95.7481 42.797 95.7481 41.8267Z" fill="#1D1D1B"/>
<path d="M95.7481 36.2178C95.7481 35.2475 96.5328 34.4609 97.5007 34.4609C98.4686 34.4609 99.2533 35.2475 99.2533 36.2178C99.2533 37.1881 98.4686 37.9747 97.5007 37.9747C96.5328 37.9747 95.7481 37.1881 95.7481 36.2178Z" fill="#1D1D1B"/>
<path d="M95.7481 30.6089C95.7481 29.6386 96.5328 28.852 97.5007 28.852C98.4686 28.852 99.2533 29.6386 99.2533 30.6089C99.2533 31.5792 98.4686 32.3658 97.5007 32.3658C96.5328 32.3658 95.7481 31.5792 95.7481 30.6089Z" fill="#1D1D1B"/>
<path d="M95.7656 25C95.7656 24.0394 96.5425 23.2607 97.5007 23.2607C98.459 23.2607 99.2358 24.0394 99.2358 25C99.2358 25.9606 98.459 26.7393 97.5007 26.7393C96.5425 26.7393 95.7656 25.9606 95.7656 25Z" fill="#1D1D1B"/>
<path d="M95.7656 19.3911C95.7656 18.4305 96.5425 17.6518 97.5007 17.6518C98.459 17.6518 99.2358 18.4305 99.2358 19.3911C99.2358 20.3517 98.459 21.1304 97.5007 21.1304C96.5425 21.1304 95.7656 20.3517 95.7656 19.3911Z" fill="#1D1D1B"/>
<path d="M95.7481 13.7822C95.7481 12.8119 96.5328 12.0253 97.5007 12.0253C98.4686 12.0253 99.2533 12.8119 99.2533 13.7822C99.2533 14.7525 98.4686 15.5391 97.5007 15.5391C96.5328 15.5391 95.7481 14.7525 95.7481 13.7822Z" fill="#1D1D1B"/>
<path d="M95.7656 8.17328C95.7656 7.21268 96.5425 6.43395 97.5007 6.43395C98.459 6.43395 99.2358 7.21268 99.2358 8.17328C99.2358 9.13389 98.459 9.91261 97.5007 9.91261C96.5425 9.91261 95.7656 9.13389 95.7656 8.17328Z" fill="#1D1D1B"/>
<path d="M95.7481 2.56438C95.7481 1.59408 96.5328 0.807503 97.5007 0.807503C98.4686 0.807503 99.2533 1.59408 99.2533 2.56438C99.2533 3.53467 98.4686 4.32125 97.5007 4.32125C96.5328 4.32125 95.7481 3.53467 95.7481 2.56438Z" fill="#1D1D1B"/>
<path d="M90.0485 47.4356C90.0485 46.4075 90.8799 45.574 91.9056 45.574C92.9312 45.574 93.7626 46.4075 93.7626 47.4356C93.7626 48.4638 92.9312 49.2973 91.9056 49.2973C90.8799 49.2973 90.0485 48.4638 90.0485 47.4356Z" fill="#1D1D1B"/>
<path d="M90.0485 41.8267C90.0485 40.7986 90.8799 39.9651 91.9056 39.9651C92.9312 39.9651 93.7626 40.7986 93.7626 41.8267C93.7626 42.8549 92.9312 43.6884 91.9056 43.6884C90.8799 43.6884 90.0485 42.8549 90.0485 41.8267Z" fill="#1D1D1B"/>
<path d="M90.0485 36.2178C90.0485 35.1897 90.8799 34.3562 91.9056 34.3562C92.9312 34.3562 93.7626 35.1897 93.7626 36.2178C93.7626 37.246 92.9312 38.0794 91.9056 38.0794C90.8799 38.0794 90.0485 37.246 90.0485 36.2178Z" fill="#1D1D1B"/>
<path d="M90.0485 30.6089C90.0485 29.5808 90.8799 28.7473 91.9056 28.7473C92.9312 28.7473 93.7626 29.5808 93.7626 30.6089C93.7626 31.6371 92.9312 32.4705 91.9056 32.4705C90.8799 32.4705 90.0485 31.6371 90.0485 30.6089Z" fill="#1D1D1B"/>
<path d="M90.0485 25C90.0485 23.9718 90.8799 23.1384 91.9056 23.1384C92.9312 23.1384 93.7626 23.9718 93.7626 25C93.7626 26.0282 92.9312 26.8616 91.9056 26.8616C90.8799 26.8616 90.0485 26.0282 90.0485 25Z" fill="#1D1D1B"/>
<path d="M90.0485 19.3911C90.0485 18.3629 90.8799 17.5295 91.9056 17.5295C92.9312 17.5295 93.7626 18.3629 93.7626 19.3911C93.7626 20.4192 92.9312 21.2527 91.9056 21.2527C90.8799 21.2527 90.0485 20.4192 90.0485 19.3911Z" fill="#1D1D1B"/>
<path d="M90.0485 13.7822C90.0485 12.754 90.8799 11.9206 91.9056 11.9206C92.9312 11.9206 93.7626 12.754 93.7626 13.7822C93.7626 14.8103 92.9312 15.6438 91.9056 15.6438C90.8799 15.6438 90.0485 14.8103 90.0485 13.7822Z" fill="#1D1D1B"/>
<path d="M90.0485 8.17328C90.0485 7.14513 90.8799 6.31164 91.9056 6.31164C92.9312 6.31164 93.7626 7.14513 93.7626 8.17328C93.7626 9.20143 92.9312 10.0349 91.9056 10.0349C90.8799 10.0349 90.0485 9.20143 90.0485 8.17328Z" fill="#1D1D1B"/>
<path d="M90.0658 2.56438C90.0658 1.54583 90.8895 0.720139 91.9056 0.720139C92.9216 0.720139 93.7453 1.54583 93.7453 2.56438C93.7453 3.58292 92.9216 4.40861 91.9056 4.40861C90.8895 4.40861 90.0658 3.58292 90.0658 2.56438Z" fill="#1D1D1B"/>
<path d="M84.3496 47.4356C84.3496 46.3501 85.2275 45.47 86.3104 45.47C87.3933 45.47 88.2712 46.3501 88.2712 47.4356C88.2712 48.5212 87.3933 49.4012 86.3104 49.4012C85.2275 49.4012 84.3496 48.5212 84.3496 47.4356Z" fill="#1D1D1B"/>
<path d="M84.3669 41.8267C84.3669 40.7507 85.237 39.8784 86.3104 39.8784C87.3838 39.8784 88.2539 40.7507 88.2539 41.8267C88.2539 42.9027 87.3838 43.775 86.3104 43.775C85.237 43.775 84.3669 42.9027 84.3669 41.8267Z" fill="#1D1D1B"/>
<path d="M84.3496 36.2178C84.3496 35.1323 85.2275 34.2522 86.3104 34.2522C87.3933 34.2522 88.2712 35.1323 88.2712 36.2178C88.2712 37.3034 87.3933 38.1834 86.3104 38.1834C85.2275 38.1834 84.3496 37.3034 84.3496 36.2178Z" fill="#1D1D1B"/>
<path d="M84.3669 30.6089C84.3669 29.5329 85.237 28.6606 86.3104 28.6606C87.3838 28.6606 88.2539 29.5329 88.2539 30.6089C88.2539 31.6849 87.3838 32.5572 86.3104 32.5572C85.237 32.5572 84.3669 31.6849 84.3669 30.6089Z" fill="#1D1D1B"/>
<path d="M84.3496 25C84.3496 23.9144 85.2275 23.0344 86.3104 23.0344C87.3933 23.0344 88.2712 23.9144 88.2712 25C88.2712 26.0856 87.3933 26.9656 86.3104 26.9656C85.2275 26.9656 84.3496 26.0856 84.3496 25Z" fill="#1D1D1B"/>
<path d="M84.3669 19.3911C84.3669 18.3151 85.237 17.4428 86.3104 17.4428C87.3838 17.4428 88.2539 18.3151 88.2539 19.3911C88.2539 20.4671 87.3838 21.3394 86.3104 21.3394C85.237 21.3394 84.3669 20.4671 84.3669 19.3911Z" fill="#1D1D1B"/>
<path d="M84.3496 13.7822C84.3496 12.6966 85.2275 11.8166 86.3104 11.8166C87.3933 11.8166 88.2712 12.6966 88.2712 13.7822C88.2712 14.8677 87.3933 15.7478 86.3104 15.7478C85.2275 15.7478 84.3496 14.8677 84.3496 13.7822Z" fill="#1D1D1B"/>
<path d="M84.3496 8.17328C84.3496 7.08772 85.2275 6.2077 86.3104 6.2077C87.3933 6.2077 88.2712 7.08772 88.2712 8.17328C88.2712 9.25884 87.3933 10.1389 86.3104 10.1389C85.2275 10.1389 84.3496 9.25884 84.3496 8.17328Z" fill="#1D1D1B"/>
<path d="M84.3669 2.56437C84.3669 1.48835 85.237 0.616058 86.3104 0.616058C87.3838 0.616058 88.2539 1.48835 88.2539 2.56437C88.2539 3.6404 87.3838 4.51269 86.3104 4.51269C85.237 4.51269 84.3669 3.6404 84.3669 2.56437Z" fill="#1D1D1B"/>
<path d="M78.6516 47.4356C78.6516 46.2931 79.5755 45.3669 80.7153 45.3669C81.855 45.3669 82.779 46.2931 82.779 47.4356C82.779 48.5782 81.855 49.5044 80.7153 49.5044C79.5755 49.5044 78.6516 48.5782 78.6516 47.4356Z" fill="#1D1D1B"/>
<path d="M78.6516 41.8267C78.6516 40.6842 79.5755 39.758 80.7153 39.758C81.855 39.758 82.779 40.6842 82.779 41.8267C82.779 42.9693 81.855 43.8955 80.7153 43.8955C79.5755 43.8955 78.6516 42.9693 78.6516 41.8267Z" fill="#1D1D1B"/>
<path d="M78.6516 36.2178C78.6516 35.0753 79.5755 34.149 80.7153 34.149C81.855 34.149 82.779 35.0753 82.779 36.2178C82.779 37.3604 81.855 38.2866 80.7153 38.2866C79.5755 38.2866 78.6516 37.3604 78.6516 36.2178Z" fill="#1D1D1B"/>
<path d="M78.6516 30.6089C78.6516 29.4664 79.5755 28.5401 80.7153 28.5401C81.855 28.5401 82.779 29.4664 82.779 30.6089C82.779 31.7515 81.855 32.6777 80.7153 32.6777C79.5755 32.6777 78.6516 31.7515 78.6516 30.6089Z" fill="#1D1D1B"/>
<path d="M78.6516 25C78.6516 23.8575 79.5755 22.9312 80.7153 22.9312C81.855 22.9312 82.779 23.8575 82.779 25C82.779 26.1425 81.855 27.0688 80.7153 27.0688C79.5755 27.0688 78.6516 26.1425 78.6516 25Z" fill="#1D1D1B"/>
<path d="M78.6516 19.3911C78.6516 18.2485 79.5755 17.3223 80.7153 17.3223C81.855 17.3223 82.779 18.2485 82.779 19.3911C82.779 20.5336 81.855 21.4599 80.7153 21.4599C79.5755 21.4599 78.6516 20.5336 78.6516 19.3911Z" fill="#1D1D1B"/>
<path d="M78.6516 13.7822C78.6516 12.6396 79.5755 11.7134 80.7153 11.7134C81.855 11.7134 82.779 12.6396 82.779 13.7822C82.779 14.9247 81.855 15.851 80.7153 15.851C79.5755 15.851 78.6516 14.9247 78.6516 13.7822Z" fill="#1D1D1B"/>
<path d="M78.6516 8.17328C78.6516 7.03073 79.5755 6.10451 80.7153 6.10451C81.855 6.10451 82.779 7.03073 82.779 8.17328C82.779 9.31583 81.855 10.242 80.7153 10.242C79.5755 10.242 78.6516 9.31583 78.6516 8.17328Z" fill="#1D1D1B"/>
<path d="M78.6516 2.56437C78.6516 1.42182 79.5755 0.495605 80.7153 0.495605C81.855 0.495605 82.779 1.42183 82.779 2.56437C82.779 3.70692 81.855 4.63314 80.7153 4.63314C79.5755 4.63314 78.6516 3.70692 78.6516 2.56437Z" fill="#1D1D1B"/>
<path d="M72.9542 47.4356C72.9542 46.2365 73.9239 45.2644 75.1201 45.2644C76.3163 45.2644 77.286 46.2365 77.286 47.4356C77.286 48.6348 76.3163 49.6069 75.1201 49.6069C73.9239 49.6069 72.9542 48.6348 72.9542 47.4356Z" fill="#1D1D1B"/>
<path d="M72.9542 41.8267C72.9542 40.6276 73.9239 39.6555 75.1201 39.6555C76.3163 39.6555 77.286 40.6276 77.286 41.8267C77.286 43.0259 76.3163 43.9979 75.1201 43.9979C73.9239 43.9979 72.9542 43.0259 72.9542 41.8267Z" fill="#1D1D1B"/>
<path d="M72.9542 36.2178C72.9542 35.0187 73.9239 34.0466 75.1201 34.0466C76.3163 34.0466 77.286 35.0187 77.286 36.2178C77.286 37.417 76.3163 38.389 75.1201 38.389C73.9239 38.389 72.9542 37.417 72.9542 36.2178Z" fill="#1D1D1B"/>
<path d="M72.9542 30.6089C72.9542 29.4098 73.9239 28.4377 75.1201 28.4377C76.3163 28.4377 77.286 29.4098 77.286 30.6089C77.286 31.808 76.3163 32.7801 75.1201 32.7801C73.9239 32.7801 72.9542 31.808 72.9542 30.6089Z" fill="#1D1D1B"/>
<path d="M72.9542 25C72.9542 23.8009 73.9239 22.8288 75.1201 22.8288C76.3163 22.8288 77.286 23.8009 77.286 25C77.286 26.1991 76.3163 27.1712 75.1201 27.1712C73.9239 27.1712 72.9542 26.1991 72.9542 25Z" fill="#1D1D1B"/>
<path d="M72.9542 19.3911C72.9542 18.192 73.9239 17.2199 75.1201 17.2199C76.3163 17.2199 77.286 18.192 77.286 19.3911C77.286 20.5902 76.3163 21.5623 75.1201 21.5623C73.9239 21.5623 72.9542 20.5902 72.9542 19.3911Z" fill="#1D1D1B"/>
<path d="M72.9542 13.7822C72.9542 12.583 73.9239 11.611 75.1201 11.611C76.3163 11.611 77.286 12.583 77.286 13.7822C77.286 14.9813 76.3163 15.9534 75.1201 15.9534C73.9239 15.9534 72.9542 14.9813 72.9542 13.7822Z" fill="#1D1D1B"/>
<path d="M72.9542 8.17328C72.9542 6.97414 73.9239 6.00205 75.1201 6.00205C76.3163 6.00205 77.286 6.97414 77.286 8.17328C77.286 9.37242 76.3163 10.3445 75.1201 10.3445C73.9239 10.3445 72.9542 9.37242 72.9542 8.17328Z" fill="#1D1D1B"/>
<path d="M72.9542 2.56438C72.9542 1.36524 73.9239 0.393142 75.1201 0.393142C76.3163 0.393142 77.286 1.36524 77.286 2.56438C77.286 3.76351 76.3163 4.7356 75.1201 4.7356C73.9239 4.7356 72.9542 3.76351 72.9542 2.56438Z" fill="#1D1D1B"/>
<path d="M67.2575 47.4356C67.2575 46.1803 68.2727 45.1626 69.525 45.1626C70.7773 45.1626 71.7924 46.1803 71.7924 47.4356C71.7924 48.691 70.7773 49.7086 69.525 49.7086C68.2727 49.7086 67.2575 48.691 67.2575 47.4356Z" fill="#1D1D1B"/>
<path d="M67.2575 41.8267C67.2575 40.5714 68.2727 39.5537 69.525 39.5537C70.7773 39.5537 71.7924 40.5714 71.7924 41.8267C71.7924 43.0821 70.7773 44.0997 69.525 44.0997C68.2727 44.0997 67.2575 43.0821 67.2575 41.8267Z" fill="#1D1D1B"/>
<path d="M67.2575 36.2178C67.2575 34.9625 68.2727 33.9448 69.525 33.9448C70.7773 33.9448 71.7924 34.9625 71.7924 36.2178C71.7924 37.4732 70.7773 38.4908 69.525 38.4908C68.2727 38.4908 67.2575 37.4732 67.2575 36.2178Z" fill="#1D1D1B"/>
<path d="M67.2575 30.6089C67.2575 29.3535 68.2727 28.3359 69.525 28.3359C70.7773 28.3359 71.7924 29.3535 71.7924 30.6089C71.7924 31.8643 70.7773 32.8819 69.525 32.8819C68.2727 32.8819 67.2575 31.8643 67.2575 30.6089Z" fill="#1D1D1B"/>
<path d="M67.2575 25C67.2575 23.7446 68.2727 22.727 69.525 22.727C70.7773 22.727 71.7924 23.7446 71.7924 25C71.7924 26.2554 70.7773 27.273 69.525 27.273C68.2727 27.273 67.2575 26.2554 67.2575 25Z" fill="#1D1D1B"/>
<path d="M67.2575 19.3911C67.2575 18.1357 68.2727 17.1181 69.525 17.1181C70.7773 17.1181 71.7924 18.1357 71.7924 19.3911C71.7924 20.6464 70.7773 21.6641 69.525 21.6641C68.2727 21.6641 67.2575 20.6464 67.2575 19.3911Z" fill="#1D1D1B"/>
<path d="M67.2575 13.7822C67.2575 12.5268 68.2727 11.5092 69.525 11.5092C70.7773 11.5092 71.7924 12.5268 71.7924 13.7822C71.7924 15.0375 70.7773 16.0552 69.525 16.0552C68.2727 16.0552 67.2575 15.0375 67.2575 13.7822Z" fill="#1D1D1B"/>
<path d="M67.2575 8.17328C67.2575 6.91793 68.2727 5.90026 69.525 5.90026C70.7773 5.90026 71.7924 6.91793 71.7924 8.17328C71.7924 9.42864 70.7773 10.4463 69.525 10.4463C68.2727 10.4463 67.2575 9.42864 67.2575 8.17328Z" fill="#1D1D1B"/>
<path d="M67.2575 2.56438C67.2575 1.30902 68.2727 0.29135 69.525 0.29135C70.7773 0.291351 71.7924 1.30902 71.7924 2.56438C71.7924 3.81973 70.7773 4.8374 69.525 4.8374C68.2727 4.8374 67.2575 3.81973 67.2575 2.56438Z" fill="#1D1D1B"/>
<path d="M61.5615 47.4356C61.5615 46.1244 62.6218 45.0614 63.9298 45.0614C65.2378 45.0614 66.2982 46.1244 66.2982 47.4356C66.2982 48.7468 65.2378 49.8098 63.9298 49.8098C62.6218 49.8098 61.5615 48.7468 61.5615 47.4356Z" fill="#1D1D1B"/>
<path d="M61.5615 41.8267C61.5615 40.5155 62.6218 39.4525 63.9298 39.4525C65.2378 39.4525 66.2982 40.5155 66.2982 41.8267C66.2982 43.1379 65.2378 44.2009 63.9298 44.2009C62.6218 44.2009 61.5615 43.1379 61.5615 41.8267Z" fill="#1D1D1B"/>
<path d="M61.5447 36.2178C61.5447 34.8973 62.6126 33.8268 63.9298 33.8268C65.2471 33.8268 66.3149 34.8973 66.3149 36.2178C66.3149 37.5383 65.2471 38.6088 63.9298 38.6088C62.6126 38.6088 61.5447 37.5383 61.5447 36.2178Z" fill="#1D1D1B"/>
<path d="M61.5615 30.6089C61.5615 29.2977 62.6218 28.2347 63.9298 28.2347C65.2378 28.2347 66.2982 29.2977 66.2982 30.6089C66.2982 31.9201 65.2378 32.9831 63.9298 32.9831C62.6218 32.9831 61.5615 31.9201 61.5615 30.6089Z" fill="#1D1D1B"/>
<path d="M61.5615 25C61.5615 23.6888 62.6218 22.6258 63.9298 22.6258C65.2378 22.6258 66.2982 23.6888 66.2982 25C66.2982 26.3112 65.2378 27.3742 63.9298 27.3742C62.6218 27.3742 61.5615 26.3112 61.5615 25Z" fill="#1D1D1B"/>
<path d="M61.5615 19.3911C61.5615 18.0799 62.6218 17.0169 63.9298 17.0169C65.2378 17.0169 66.2982 18.0799 66.2982 19.3911C66.2982 20.7023 65.2378 21.7653 63.9298 21.7653C62.6218 21.7653 61.5615 20.7023 61.5615 19.3911Z" fill="#1D1D1B"/>
<path d="M61.5615 13.7822C61.5615 12.471 62.6218 11.408 63.9298 11.408C65.2378 11.408 66.2982 12.471 66.2982 13.7822C66.2982 15.0934 65.2378 16.1564 63.9298 16.1564C62.6218 16.1564 61.5615 15.0934 61.5615 13.7822Z" fill="#1D1D1B"/>
<path d="M61.5615 8.17328C61.5615 6.86205 62.6218 5.79909 63.9298 5.79909C65.2378 5.79909 66.2982 6.86205 66.2982 8.17328C66.2982 9.4845 65.2378 10.5475 63.9298 10.5475C62.6218 10.5475 61.5615 9.4845 61.5615 8.17328Z" fill="#1D1D1B"/>
<path d="M61.5615 2.56437C61.5615 1.25315 62.6218 0.190192 63.9298 0.190192C65.2378 0.190192 66.2982 1.25315 66.2982 2.56437C66.2982 3.87559 65.2378 4.93856 63.9298 4.93856C62.6218 4.93856 61.5615 3.87559 61.5615 2.56437Z" fill="#1D1D1B"/>
<path d="M55.866 47.4356C55.866 46.0689 56.9713 44.9609 58.3347 44.9609C59.6981 44.9609 60.8034 46.0689 60.8034 47.4356C60.8034 48.8024 59.6981 49.9104 58.3347 49.9104C56.9713 49.9104 55.866 48.8024 55.866 47.4356Z" fill="#1D1D1B"/>
<path d="M55.866 41.8267C55.866 40.46 56.9713 39.352 58.3347 39.352C59.6981 39.352 60.8034 40.46 60.8034 41.8267C60.8034 43.1935 59.6981 44.3015 58.3347 44.3015C56.9713 44.3015 55.866 43.1935 55.866 41.8267Z" fill="#1D1D1B"/>
<path d="M55.866 36.2178C55.866 34.851 56.9713 33.7431 58.3347 33.7431C59.6981 33.7431 60.8034 34.8511 60.8034 36.2178C60.8034 37.5846 59.6981 38.6926 58.3347 38.6926C56.9713 38.6926 55.866 37.5846 55.866 36.2178Z" fill="#1D1D1B"/>
<path d="M55.866 30.6089C55.866 29.2421 56.9713 28.1342 58.3347 28.1342C59.6981 28.1342 60.8034 29.2421 60.8034 30.6089C60.8034 31.9757 59.6981 33.0836 58.3347 33.0836C56.9713 33.0836 55.866 31.9757 55.866 30.6089Z" fill="#1D1D1B"/>
<path d="M55.866 25C55.866 23.6332 56.9713 22.5253 58.3347 22.5253C59.6981 22.5253 60.8034 23.6332 60.8034 25C60.8034 26.3668 59.6981 27.4747 58.3347 27.4747C56.9713 27.4747 55.866 26.3668 55.866 25Z" fill="#1D1D1B"/>
<path d="M55.8493 19.3911C55.8493 18.0151 56.9621 16.8996 58.3347 16.8996C59.7073 16.8996 60.82 18.0151 60.82 19.3911C60.82 20.7671 59.7073 21.8825 58.3347 21.8825C56.9621 21.8825 55.8493 20.7671 55.8493 19.3911Z" fill="#1D1D1B"/>
<path d="M55.866 13.7822C55.866 12.4154 56.9713 11.3074 58.3347 11.3074C59.6981 11.3074 60.8034 12.4154 60.8034 13.7822C60.8034 15.1489 59.6981 16.2569 58.3347 16.2569C56.9713 16.2569 55.866 15.1489 55.866 13.7822Z" fill="#1D1D1B"/>
<path d="M55.866 8.17328C55.866 6.80652 56.9713 5.69853 58.3347 5.69853C59.6981 5.69853 60.8034 6.80652 60.8034 8.17328C60.8034 9.54004 59.6981 10.648 58.3347 10.648C56.9713 10.648 55.866 9.54004 55.866 8.17328Z" fill="#1D1D1B"/>
<path d="M55.866 2.56437C55.866 1.19761 56.9713 0.0896287 58.3347 0.0896288C59.6981 0.0896288 60.8034 1.19761 60.8034 2.56437C60.8034 3.93113 59.6981 5.03911 58.3347 5.03911C56.9713 5.03911 55.866 3.93113 55.866 2.56437Z" fill="#1D1D1B"/>
<path d="M50.1711 47.4356C50.1711 46.0136 51.321 44.8609 52.7395 44.8609C54.158 44.8609 55.3079 46.0136 55.3079 47.4356C55.3079 48.8576 54.158 50.0104 52.7395 50.0104C51.321 50.0104 50.1711 48.8576 50.1711 47.4356Z" fill="#1D1D1B"/>
<path d="M50.1711 41.8267C50.1711 40.4047 51.321 39.252 52.7395 39.252C54.158 39.252 55.3079 40.4047 55.3079 41.8267C55.3079 43.2487 54.158 44.4014 52.7395 44.4014C51.321 44.4014 50.1711 43.2487 50.1711 41.8267Z" fill="#1D1D1B"/>
<path d="M50.1711 36.2178C50.1711 34.7958 51.321 33.6431 52.7395 33.6431C54.158 33.6431 55.3079 34.7958 55.3079 36.2178C55.3079 37.6398 54.158 38.7925 52.7395 38.7925C51.321 38.7925 50.1711 37.6398 50.1711 36.2178Z" fill="#1D1D1B"/>
<path d="M50.1711 30.6089C50.1711 29.1869 51.321 28.0342 52.7395 28.0342C54.158 28.0342 55.3079 29.1869 55.3079 30.6089C55.3079 32.0309 54.158 33.1836 52.7395 33.1836C51.321 33.1836 50.1711 32.0309 50.1711 30.6089Z" fill="#1D1D1B"/>
<path d="M50.1711 25C50.1711 23.578 51.321 22.4253 52.7395 22.4253C54.158 22.4253 55.3079 23.578 55.3079 25C55.3079 26.422 54.158 27.5747 52.7395 27.5747C51.321 27.5747 50.1711 26.422 50.1711 25Z" fill="#1D1D1B"/>
<path d="M50.1711 19.3911C50.1711 17.9691 51.321 16.8164 52.7395 16.8164C54.158 16.8164 55.3079 17.9691 55.3079 19.3911C55.3079 20.8131 54.158 21.9658 52.7395 21.9658C51.321 21.9658 50.1711 20.8131 50.1711 19.3911Z" fill="#1D1D1B"/>
<path d="M50.1711 13.7822C50.1711 12.3602 51.321 11.2075 52.7395 11.2075C54.158 11.2075 55.3079 12.3602 55.3079 13.7822C55.3079 15.2042 54.158 16.3569 52.7395 16.3569C51.321 16.3569 50.1711 15.2042 50.1711 13.7822Z" fill="#1D1D1B"/>
<path d="M50.1545 8.17328C50.1545 6.74212 51.3119 5.58193 52.7395 5.58193C54.1672 5.58193 55.3245 6.74212 55.3245 8.17328C55.3245 9.60444 54.1672 10.7646 52.7395 10.7646C51.3119 10.7646 50.1545 9.60444 50.1545 8.17328Z" fill="#1D1D1B"/>
<path d="M50.1711 2.56437C50.1711 1.14239 51.321 -0.0103585 52.7395 -0.0103585C54.158 -0.0103584 55.3079 1.14239 55.3079 2.56437C55.3079 3.98635 54.158 5.1391 52.7395 5.1391C51.321 5.1391 50.1711 3.98635 50.1711 2.56437Z" fill="#1D1D1B"/>
<path d="M44.4768 47.4356C44.4768 45.9587 45.6711 44.7614 47.1444 44.7614C48.6177 44.7614 49.812 45.9587 49.812 47.4356C49.812 48.9125 48.6177 50.1098 47.1444 50.1098C45.6711 50.1098 44.4768 48.9125 44.4768 47.4356Z" fill="#1D1D1B"/>
<path d="M44.4768 41.8267C44.4768 40.3498 45.6711 39.1525 47.1444 39.1525C48.6177 39.1525 49.812 40.3498 49.812 41.8267C49.812 43.3036 48.6177 44.5009 47.1444 44.5009C45.6711 44.5009 44.4768 43.3036 44.4768 41.8267Z" fill="#1D1D1B"/>
<path d="M44.4768 36.2178C44.4768 34.7409 45.6711 33.5436 47.1444 33.5436C48.6177 33.5436 49.812 34.7409 49.812 36.2178C49.812 37.6947 48.6177 38.892 47.1444 38.892C45.6711 38.892 44.4768 37.6947 44.4768 36.2178Z" fill="#1D1D1B"/>
<path d="M44.4768 30.6089C44.4768 29.132 45.6711 27.9347 47.1444 27.9347C48.6177 27.9347 49.812 29.132 49.812 30.6089C49.812 32.0858 48.6177 33.2831 47.1444 33.2831C45.6711 33.2831 44.4768 32.0858 44.4768 30.6089Z" fill="#1D1D1B"/>
<path d="M44.4603 25C44.4603 23.514 45.662 22.3093 47.1444 22.3093C48.6268 22.3093 49.8285 23.514 49.8285 25C49.8285 26.486 48.6268 27.6907 47.1444 27.6907C45.662 27.6907 44.4603 26.486 44.4603 25Z" fill="#1D1D1B"/>
<path d="M44.4768 19.3911C44.4768 17.9142 45.6711 16.7169 47.1444 16.7169C48.6177 16.7169 49.812 17.9142 49.812 19.3911C49.812 20.868 48.6177 22.0653 47.1444 22.0653C45.6711 22.0653 44.4768 20.868 44.4768 19.3911Z" fill="#1D1D1B"/>
<path d="M44.4768 13.7822C44.4768 12.3053 45.6711 11.108 47.1444 11.108C48.6177 11.108 49.812 12.3053 49.812 13.7822C49.812 15.2591 48.6177 16.4564 47.1444 16.4564C45.6711 16.4564 44.4768 15.2591 44.4768 13.7822Z" fill="#1D1D1B"/>
<path d="M44.4768 8.17328C44.4768 6.69637 45.6711 5.4991 47.1444 5.4991C48.6177 5.4991 49.812 6.69637 49.812 8.17328C49.812 9.65019 48.6177 10.8475 47.1444 10.8475C45.6711 10.8475 44.4768 9.65019 44.4768 8.17328Z" fill="#1D1D1B"/>
<path d="M44.4603 2.56437C44.4603 1.07834 45.662 -0.126333 47.1444 -0.126333C48.6268 -0.126333 49.8285 1.07834 49.8285 2.56437C49.8285 4.05041 48.6268 5.25508 47.1444 5.25508C45.662 5.25508 44.4603 4.05041 44.4603 2.56437Z" fill="#1D1D1B"/>
<path d="M38.7665 47.4356C38.7665 45.895 40.0124 44.6461 41.5492 44.6461C43.0861 44.6461 44.3319 45.895 44.3319 47.4356C44.3319 48.9763 43.0861 50.2252 41.5492 50.2252C40.0124 50.2252 38.7665 48.9763 38.7665 47.4356Z" fill="#1D1D1B"/>
<path d="M38.7665 41.8267C38.7665 40.2861 40.0124 39.0372 41.5492 39.0372C43.0861 39.0372 44.3319 40.2861 44.3319 41.8267C44.3319 43.3673 43.0861 44.6163 41.5492 44.6163C40.0124 44.6163 38.7665 43.3673 38.7665 41.8267Z" fill="#1D1D1B"/>
<path d="M38.7665 36.2178C38.7665 34.6772 40.0124 33.4283 41.5492 33.4283C43.0861 33.4283 44.3319 34.6772 44.3319 36.2178C44.3319 37.7584 43.0861 39.0074 41.5492 39.0074C40.0124 39.0074 38.7665 37.7584 38.7665 36.2178Z" fill="#1D1D1B"/>
<path d="M38.7665 30.6089C38.7665 29.0683 40.0124 27.8193 41.5492 27.8193C43.0861 27.8193 44.3319 29.0683 44.3319 30.6089C44.3319 32.1495 43.0861 33.3985 41.5492 33.3985C40.0124 33.3985 38.7665 32.1495 38.7665 30.6089Z" fill="#1D1D1B"/>
<path d="M38.7829 25C38.7829 23.4684 40.0214 22.2269 41.5492 22.2269C43.077 22.2269 44.3155 23.4684 44.3155 25C44.3155 26.5315 43.077 27.7731 41.5492 27.7731C40.0214 27.7731 38.7829 26.5315 38.7829 25Z" fill="#1D1D1B"/>
<path d="M38.7665 19.3911C38.7665 17.8505 40.0124 16.6015 41.5492 16.6015C43.0861 16.6015 44.3319 17.8505 44.3319 19.3911C44.3319 20.9317 43.0861 22.1806 41.5492 22.1806C40.0124 22.1806 38.7665 20.9317 38.7665 19.3911Z" fill="#1D1D1B"/>
<path d="M38.7829 13.7822C38.7829 12.2506 40.0214 11.0091 41.5492 11.0091C43.077 11.0091 44.3155 12.2506 44.3155 13.7822C44.3155 15.3137 43.077 16.5553 41.5492 16.5553C40.0214 16.5553 38.7829 15.3137 38.7829 13.7822Z" fill="#1D1D1B"/>
<path d="M38.7665 8.17328C38.7665 6.63265 40.0124 5.38373 41.5492 5.38373C43.0861 5.38373 44.3319 6.63265 44.3319 8.17328C44.3319 9.7139 43.0861 10.9628 41.5492 10.9628C40.0124 10.9628 38.7665 9.7139 38.7665 8.17328Z" fill="#1D1D1B"/>
<path d="M38.7829 2.56437C38.7829 1.03283 40.0214 -0.208739 41.5492 -0.208738C43.077 -0.208738 44.3155 1.03283 44.3155 2.56437C44.3155 4.09592 43.077 5.33749 41.5492 5.33749C40.0214 5.33749 38.7829 4.09592 38.7829 2.56437Z" fill="#1D1D1B"/>
<path d="M33.0733 47.4356C33.0733 45.8407 34.363 44.5477 35.9541 44.5477C37.5451 44.5477 38.8349 45.8407 38.8349 47.4356C38.8349 49.0306 37.5451 50.3235 35.9541 50.3235C34.363 50.3235 33.0733 49.0306 33.0733 47.4356Z" fill="#1D1D1B"/>
<path d="M33.0896 41.8267C33.0896 40.2408 34.3721 38.9552 35.9541 38.9552C37.5361 38.9552 38.8186 40.2408 38.8186 41.8267C38.8186 43.4126 37.5361 44.6983 35.9541 44.6983C34.3721 44.6983 33.0896 43.4126 33.0896 41.8267Z" fill="#1D1D1B"/>
<path d="M33.0733 36.2178C33.0733 34.6229 34.363 33.3299 35.9541 33.3299C37.5451 33.3299 38.8349 34.6229 38.8349 36.2178C38.8349 37.8128 37.5451 39.1057 35.9541 39.1057C34.363 39.1057 33.0733 37.8128 33.0733 36.2178Z" fill="#1D1D1B"/>
<path d="M33.0896 30.6089C33.0896 29.023 34.3721 27.7373 35.9541 27.7373C37.5361 27.7373 38.8186 29.023 38.8186 30.6089C38.8186 32.1948 37.5361 33.4805 35.9541 33.4805C34.3721 33.4805 33.0896 32.1948 33.0896 30.6089Z" fill="#1D1D1B"/>
<path d="M33.0733 25C33.0733 23.405 34.363 22.1121 35.9541 22.1121C37.5451 22.1121 38.8349 23.405 38.8349 25C38.8349 26.5949 37.5451 27.8879 35.9541 27.8879C34.363 27.8879 33.0733 26.5949 33.0733 25Z" fill="#1D1D1B"/>
<path d="M33.0733 19.3911C33.0733 17.7961 34.363 16.5032 35.9541 16.5032C37.5451 16.5032 38.8349 17.7961 38.8349 19.3911C38.8349 20.986 37.5451 22.279 35.9541 22.279C34.363 22.279 33.0733 20.986 33.0733 19.3911Z" fill="#1D1D1B"/>
<path d="M33.0733 13.7822C33.0733 12.1872 34.363 10.8943 35.9541 10.8943C37.5451 10.8943 38.8349 12.1872 38.8349 13.7822C38.8349 15.3771 37.5451 16.6701 35.9541 16.6701C34.363 16.6701 33.0733 15.3771 33.0733 13.7822Z" fill="#1D1D1B"/>
<path d="M33.0896 8.17328C33.0896 6.58736 34.3721 5.30172 35.9541 5.30172C37.5361 5.30173 38.8186 6.58736 38.8186 8.17328C38.8186 9.75919 37.5361 11.0448 35.9541 11.0448C34.3721 11.0448 33.0896 9.75919 33.0896 8.17328Z" fill="#1D1D1B"/>
<path d="M33.0733 2.56437C33.0733 0.969419 34.363 -0.323542 35.9541 -0.323542C37.5451 -0.323542 38.8349 0.969419 38.8349 2.56437C38.8349 4.15932 37.5451 5.45228 35.9541 5.45228C34.363 5.45228 33.0733 4.15932 33.0733 2.56437Z" fill="#1D1D1B"/>
<path d="M27.3967 47.4356C27.3967 45.7956 28.7229 44.4661 30.3589 44.4661C31.9949 44.4661 33.3212 45.7956 33.3212 47.4356C33.3212 49.0756 31.9949 50.4051 30.3589 50.4051C28.7229 50.4051 27.3967 49.0756 27.3967 47.4356Z" fill="#1D1D1B"/>
<path d="M27.3805 41.8267C27.3805 40.1777 28.714 38.8409 30.3589 38.8409C32.0039 38.8409 33.3374 40.1777 33.3374 41.8267C33.3374 43.4757 32.0039 44.8125 30.3589 44.8125C28.714 44.8125 27.3805 43.4757 27.3805 41.8267Z" fill="#1D1D1B"/>
<path d="M27.3967 36.2178C27.3967 34.5778 28.7229 33.2483 30.3589 33.2483C31.9949 33.2483 33.3212 34.5778 33.3212 36.2178C33.3212 37.8578 31.9949 39.1873 30.3589 39.1873C28.7229 39.1873 27.3967 37.8578 27.3967 36.2178Z" fill="#1D1D1B"/>
<path d="M27.3805 30.6089C27.3805 28.9599 28.714 27.6231 30.3589 27.6231C32.0039 27.6231 33.3374 28.9599 33.3374 30.6089C33.3374 32.2579 32.0039 33.5947 30.3589 33.5947C28.714 33.5947 27.3805 32.2579 27.3805 30.6089Z" fill="#1D1D1B"/>
<path d="M27.3805 25C27.3805 23.351 28.714 22.0142 30.3589 22.0142C32.0039 22.0142 33.3374 23.351 33.3374 25C33.3374 26.649 32.0039 27.9858 30.3589 27.9858C28.714 27.9858 27.3805 26.649 27.3805 25Z" fill="#1D1D1B"/>
<path d="M27.3967 19.3911C27.3967 17.7511 28.7229 16.4216 30.3589 16.4216C31.9949 16.4216 33.3212 17.7511 33.3212 19.3911C33.3212 21.0311 31.9949 22.3606 30.3589 22.3606C28.7229 22.3606 27.3967 21.0311 27.3967 19.3911Z" fill="#1D1D1B"/>
<path d="M27.3967 13.7822C27.3967 12.1422 28.7229 10.8127 30.3589 10.8127C31.9949 10.8127 33.3212 12.1422 33.3212 13.7822C33.3212 15.4222 31.9949 16.7517 30.3589 16.7517C28.7229 16.7517 27.3967 15.4222 27.3967 13.7822Z" fill="#1D1D1B"/>
<path d="M27.3967 8.17328C27.3967 6.53325 28.7229 5.20375 30.3589 5.20375C31.9949 5.20375 33.3212 6.53325 33.3212 8.17328C33.3212 9.8133 31.9949 11.1428 30.3589 11.1428C28.7229 11.1428 27.3967 9.8133 27.3967 8.17328Z" fill="#1D1D1B"/>
<path d="M27.3805 2.56437C27.3805 0.915357 28.714 -0.421439 30.3589 -0.421439C32.0039 -0.421439 33.3374 0.915357 33.3374 2.56437C33.3374 4.21339 32.0039 5.55018 30.3589 5.55018C28.714 5.55018 27.3805 4.21339 27.3805 2.56437Z" fill="#1D1D1B"/>
<path d="M21.7043 47.4356C21.7043 45.7417 23.0741 44.3686 24.7638 44.3686C26.4535 44.3686 27.8233 45.7417 27.8233 47.4356C27.8233 49.1295 26.4535 50.5027 24.7638 50.5027C23.0741 50.5027 21.7043 49.1295 21.7043 47.4356Z" fill="#1D1D1B"/>
<path d="M21.6881 41.8267C21.6881 40.1239 23.0651 38.7435 24.7638 38.7435C26.4624 38.7435 27.8395 40.1239 27.8395 41.8267C27.8395 43.5296 26.4624 44.91 24.7638 44.91C23.0651 44.91 21.6881 43.5296 21.6881 41.8267Z" fill="#1D1D1B"/>
<path d="M21.7043 36.2178C21.7043 34.5239 23.0741 33.1508 24.7638 33.1508C26.4535 33.1508 27.8233 34.5239 27.8233 36.2178C27.8233 37.9117 26.4535 39.2849 24.7638 39.2849C23.0741 39.2849 21.7043 37.9117 21.7043 36.2178Z" fill="#1D1D1B"/>
<path d="M21.7043 30.6089C21.7043 28.915 23.0741 27.5419 24.7638 27.5419C26.4535 27.5419 27.8233 28.915 27.8233 30.6089C27.8233 32.3028 26.4535 33.676 24.7638 33.676C23.0741 33.676 21.7043 32.3028 21.7043 30.6089Z" fill="#1D1D1B"/>
<path d="M21.6881 25C21.6881 23.2972 23.0651 21.9167 24.7638 21.9167C26.4624 21.9167 27.8395 23.2972 27.8395 25C27.8395 26.7028 26.4624 28.0833 24.7638 28.0833C23.0651 28.0833 21.6881 26.7028 21.6881 25Z" fill="#1D1D1B"/>
<path d="M21.6881 19.3911C21.6881 17.6883 23.0651 16.3078 24.7638 16.3078C26.4624 16.3078 27.8395 17.6883 27.8395 19.3911C27.8395 21.0939 26.4624 22.4743 24.7638 22.4743C23.0651 22.4743 21.6881 21.0939 21.6881 19.3911Z" fill="#1D1D1B"/>
<path d="M21.6881 13.7822C21.6881 12.0793 23.0651 10.6989 24.7638 10.6989C26.4624 10.6989 27.8395 12.0793 27.8395 13.7822C27.8395 15.485 26.4624 16.8654 24.7638 16.8654C23.0651 16.8654 21.6881 15.485 21.6881 13.7822Z" fill="#1D1D1B"/>
<path d="M21.7043 8.17328C21.7043 6.47939 23.0741 5.10623 24.7638 5.10623C26.4535 5.10623 27.8233 6.47939 27.8233 8.17328C27.8233 9.86716 26.4535 11.2403 24.7638 11.2403C23.0741 11.2403 21.7043 9.86716 21.7043 8.17328Z" fill="#1D1D1B"/>
<path d="M21.6881 2.56437C21.6881 0.861535 23.0651 -0.518886 24.7638 -0.518886C26.4624 -0.518885 27.8395 0.861535 27.8395 2.56437C27.8395 4.26721 26.4624 5.64763 24.7638 5.64763C23.0651 5.64763 21.6881 4.26721 21.6881 2.56437Z" fill="#1D1D1B"/>
<path d="M15.9962 47.4356C15.9962 45.6792 17.4165 44.2553 19.1687 44.2553C20.9208 44.2553 22.3411 45.6792 22.3411 47.4356C22.3411 49.192 20.9208 50.6159 19.1687 50.6159C17.4165 50.6159 15.9962 49.192 15.9962 47.4356Z" fill="#1D1D1B"/>
<path d="M15.9962 41.8267C15.9962 40.0703 17.4165 38.6464 19.1687 38.6464C20.9208 38.6464 22.3411 40.0703 22.3411 41.8267C22.3411 43.5831 20.9208 45.007 19.1687 45.007C17.4165 45.007 15.9962 43.5831 15.9962 41.8267Z" fill="#1D1D1B"/>
<path d="M16.0123 36.2178C16.0123 34.4703 17.4254 33.0537 19.1687 33.0537C20.9119 33.0537 22.325 34.4703 22.325 36.2178C22.325 37.9653 20.9119 39.3819 19.1687 39.3819C17.4254 39.3819 16.0123 37.9653 16.0123 36.2178Z" fill="#1D1D1B"/>
<path d="M15.9962 30.6089C15.9962 28.8525 17.4165 27.4286 19.1687 27.4286C20.9208 27.4286 22.3411 28.8525 22.3411 30.6089C22.3411 32.3653 20.9208 33.7892 19.1687 33.7892C17.4165 33.7892 15.9962 32.3653 15.9962 30.6089Z" fill="#1D1D1B"/>
<path d="M15.9962 25C15.9962 23.2436 17.4165 21.8197 19.1687 21.8197C20.9208 21.8197 22.3411 23.2436 22.3411 25C22.3411 26.7564 20.9208 28.1803 19.1687 28.1803C17.4165 28.1803 15.9962 26.7564 15.9962 25Z" fill="#1D1D1B"/>
<path d="M15.9962 19.3911C15.9962 17.6347 17.4165 16.2108 19.1687 16.2108C20.9208 16.2108 22.3411 17.6347 22.3411 19.3911C22.3411 21.1475 20.9208 22.5714 19.1687 22.5714C17.4165 22.5714 15.9962 21.1475 15.9962 19.3911Z" fill="#1D1D1B"/>
<path d="M16.0123 13.7822C16.0123 12.0347 17.4254 10.6181 19.1687 10.6181C20.9119 10.6181 22.325 12.0347 22.325 13.7822C22.325 15.5297 20.9119 16.9463 19.1687 16.9463C17.4254 16.9463 16.0123 15.5297 16.0123 13.7822Z" fill="#1D1D1B"/>
<path d="M16.0123 8.17328C16.0123 6.42578 17.4254 5.00915 19.1687 5.00915C20.9119 5.00915 22.325 6.42578 22.325 8.17328C22.325 9.92078 20.9119 11.3374 19.1687 11.3374C17.4254 11.3374 16.0123 9.92078 16.0123 8.17328Z" fill="#1D1D1B"/>
<path d="M15.9962 2.56437C15.9962 0.807954 17.4165 -0.615901 19.1687 -0.615901C20.9208 -0.615901 22.3411 0.807954 22.3411 2.56437C22.3411 4.32079 20.9208 5.74465 19.1687 5.74465C17.4165 5.74465 15.9962 4.32079 15.9962 2.56437Z" fill="#1D1D1B"/>
<path d="M10.3047 47.4356C10.3047 45.6259 11.7682 44.1587 13.5735 44.1587C15.3788 44.1587 16.8423 45.6259 16.8423 47.4356C16.8423 49.2454 15.3788 50.7125 13.5735 50.7125C11.7682 50.7125 10.3047 49.2454 10.3047 47.4356Z" fill="#1D1D1B"/>
<path d="M10.3047 41.8267C10.3047 40.0169 11.7682 38.5498 13.5735 38.5498C15.3788 38.5498 16.8423 40.0169 16.8423 41.8267C16.8423 43.6365 15.3788 45.1036 13.5735 45.1036C11.7682 45.1036 10.3047 43.6365 10.3047 41.8267Z" fill="#1D1D1B"/>
<path d="M10.3047 36.2178C10.3047 34.408 11.7682 32.9409 13.5735 32.9409C15.3788 32.9409 16.8423 34.408 16.8423 36.2178C16.8423 38.0276 15.3788 39.4947 13.5735 39.4947C11.7682 39.4947 10.3047 38.0276 10.3047 36.2178Z" fill="#1D1D1B"/>
<path d="M10.3047 30.6089C10.3047 28.7991 11.7682 27.332 13.5735 27.332C15.3788 27.332 16.8423 28.7991 16.8423 30.6089C16.8423 32.4187 15.3788 33.8858 13.5735 33.8858C11.7682 33.8858 10.3047 32.4187 10.3047 30.6089Z" fill="#1D1D1B"/>
<path d="M10.3047 25C10.3047 23.1902 11.7682 21.7231 13.5735 21.7231C15.3788 21.7231 16.8423 23.1902 16.8423 25C16.8423 26.8098 15.3788 28.2769 13.5735 28.2769C11.7682 28.2769 10.3047 26.8098 10.3047 25Z" fill="#1D1D1B"/>
<path d="M10.3207 19.3911C10.3207 17.5902 11.777 16.1303 13.5735 16.1303C15.37 16.1303 16.8263 17.5902 16.8263 19.3911C16.8263 21.192 15.37 22.6519 13.5735 22.6519C11.777 22.6519 10.3207 21.192 10.3207 19.3911Z" fill="#1D1D1B"/>
<path d="M10.3047 13.7822C10.3047 11.9724 11.7682 10.5053 13.5735 10.5053C15.3788 10.5053 16.8423 11.9724 16.8423 13.7822C16.8423 15.592 15.3788 17.0591 13.5735 17.0591C11.7682 17.0591 10.3047 15.592 10.3047 13.7822Z" fill="#1D1D1B"/>
<path d="M10.3047 8.17328C10.3047 6.3635 11.7682 4.8964 13.5735 4.8964C15.3788 4.8964 16.8423 6.3635 16.8423 8.17328C16.8423 9.98305 15.3788 11.4502 13.5735 11.4502C11.7682 11.4502 10.3047 9.98305 10.3047 8.17328Z" fill="#1D1D1B"/>
<path d="M10.3047 2.56437C10.3047 0.754601 11.7682 -0.712513 13.5735 -0.712512C15.3788 -0.712512 16.8423 0.754601 16.8423 2.56437C16.8423 4.37414 15.3788 5.84125 13.5735 5.84125C11.7682 5.84125 10.3047 4.37414 10.3047 2.56437Z" fill="#1D1D1B"/>
<path d="M4.61354 47.4356C4.61354 45.5727 6.12001 44.0625 7.97835 44.0625C9.83669 44.0625 11.3432 45.5727 11.3432 47.4356C11.3432 49.2985 9.83669 50.8087 7.97835 50.8087C6.12001 50.8087 4.61354 49.2985 4.61354 47.4356Z" fill="#1D1D1B"/>
<path d="M4.61354 41.8267C4.61354 39.9638 6.12001 38.4536 7.97835 38.4536C9.83669 38.4536 11.3432 39.9638 11.3432 41.8267C11.3432 43.6896 9.83669 45.1998 7.97835 45.1998C6.12001 45.1998 4.61354 43.6896 4.61354 41.8267Z" fill="#1D1D1B"/>
<path d="M4.61354 36.2178C4.61354 34.3549 6.12001 32.8447 7.97835 32.8447C9.83669 32.8447 11.3432 34.3549 11.3432 36.2178C11.3432 38.0807 9.83669 39.5909 7.97835 39.5909C6.12001 39.5909 4.61354 38.0807 4.61354 36.2178Z" fill="#1D1D1B"/>
<path d="M4.61354 30.6089C4.61354 28.746 6.12001 27.2358 7.97835 27.2358C9.83669 27.2358 11.3432 28.746 11.3432 30.6089C11.3432 32.4718 9.83669 33.982 7.97835 33.982C6.12001 33.982 4.61354 32.4718 4.61354 30.6089Z" fill="#1D1D1B"/>
<path d="M4.61354 25C4.61354 23.1371 6.12001 21.6269 7.97835 21.6269C9.83669 21.6269 11.3432 23.1371 11.3432 25C11.3432 26.8629 9.83669 28.3731 7.97835 28.3731C6.12001 28.3731 4.61354 26.8629 4.61354 25Z" fill="#1D1D1B"/>
<path d="M4.6295 19.3911C4.6295 17.537 6.12885 16.034 7.97836 16.034C9.82788 16.034 11.3272 17.537 11.3272 19.3911C11.3272 21.2452 9.82788 22.7482 7.97836 22.7482C6.12885 22.7482 4.6295 21.2452 4.6295 19.3911Z" fill="#1D1D1B"/>
<path d="M4.6295 13.7822C4.6295 11.9281 6.12885 10.4251 7.97836 10.4251C9.82788 10.4251 11.3272 11.9281 11.3272 13.7822C11.3272 15.6363 9.82788 17.1393 7.97836 17.1393C6.12885 17.1393 4.6295 15.6363 4.6295 13.7822Z" fill="#1D1D1B"/>
<path d="M4.61354 8.17328C4.61354 6.31037 6.12001 4.80019 7.97835 4.80019C9.83669 4.80019 11.3432 6.31037 11.3432 8.17328C11.3432 10.0362 9.83669 11.5464 7.97835 11.5464C6.12001 11.5464 4.61354 10.0362 4.61354 8.17328Z" fill="#1D1D1B"/>
<path d="M4.61354 2.56437C4.61354 0.701466 6.12001 -0.808712 7.97835 -0.808712C9.83669 -0.808712 11.3432 0.701466 11.3432 2.56437C11.3432 4.42728 9.83669 5.93746 7.97835 5.93746C6.12001 5.93746 4.61354 4.42728 4.61354 2.56437Z" fill="#1D1D1B"/>
<path d="M-1.06129 47.4356C-1.06129 45.5286 0.480851 43.9827 2.38321 43.9827C4.28555 43.9827 5.8277 45.5286 5.8277 47.4356C5.8277 49.3426 4.28555 50.8886 2.38321 50.8886C0.48085 50.8886 -1.06129 49.3426 -1.06129 47.4356Z" fill="#1D1D1B"/>
<path d="M-1.07719 41.8267C-1.07719 39.9109 0.472077 38.3578 2.38321 38.3578C4.29433 38.3578 5.8436 39.9109 5.8436 41.8267C5.8436 43.7425 4.29433 45.2956 2.38321 45.2956C0.472077 45.2956 -1.07719 43.7425 -1.07719 41.8267Z" fill="#1D1D1B"/>
<path d="M-1.07719 36.2178C-1.07719 34.302 0.472077 32.7489 2.38321 32.7489C4.29433 32.7489 5.8436 34.302 5.8436 36.2178C5.8436 38.1336 4.29433 39.6867 2.38321 39.6867C0.472077 39.6867 -1.07719 38.1336 -1.07719 36.2178Z" fill="#1D1D1B"/>
<path d="M-1.07719 30.6089C-1.07719 28.6931 0.472077 27.14 2.38321 27.14C4.29433 27.14 5.8436 28.6931 5.8436 30.6089C5.8436 32.5247 4.29433 34.0778 2.38321 34.0778C0.472077 34.0778 -1.07719 32.5247 -1.07719 30.6089Z" fill="#1D1D1B"/>
<path d="M-1.07719 25C-1.07719 23.0842 0.472078 21.5311 2.38321 21.5311C4.29433 21.5311 5.8436 23.0842 5.8436 25C5.8436 26.9158 4.29433 28.4689 2.38321 28.4689C0.472077 28.4689 -1.07719 26.9158 -1.07719 25Z" fill="#1D1D1B"/>
<path d="M-1.06129 19.3911C-1.06129 17.4841 0.480852 15.9381 2.38321 15.9381C4.28555 15.9381 5.8277 17.4841 5.8277 19.3911C5.8277 21.2981 4.28555 22.8441 2.38321 22.8441C0.480851 22.8441 -1.06129 21.2981 -1.06129 19.3911Z" fill="#1D1D1B"/>
<path d="M-1.07719 13.7822C-1.07719 11.8664 0.472078 10.3133 2.38321 10.3133C4.29433 10.3133 5.8436 11.8664 5.8436 13.7822C5.8436 15.698 4.29433 17.2511 2.38321 17.2511C0.472078 17.2511 -1.07719 15.698 -1.07719 13.7822Z" fill="#1D1D1B"/>
<path d="M-1.06129 8.17327C-1.06129 6.26625 0.480852 4.7203 2.38321 4.7203C4.28556 4.7203 5.8277 6.26625 5.8277 8.17328C5.8277 10.0803 4.28555 11.6262 2.38321 11.6262C0.480852 11.6262 -1.06129 10.0803 -1.06129 8.17327Z" fill="#1D1D1B"/>
<path d="M-1.07719 2.56437C-1.07719 0.64854 0.472079 -0.904549 2.38321 -0.904549C4.29433 -0.904549 5.8436 0.648541 5.8436 2.56437C5.8436 4.4802 4.29433 6.03328 2.38321 6.03328C0.472078 6.03328 -1.07719 4.4802 -1.07719 2.56437Z" fill="#1D1D1B"/>
<path d="M-6.76756 47.4356C-6.76756 45.4671 -5.17566 43.8712 -3.21194 43.8712C-1.24823 43.8713 0.343704 45.4671 0.343704 47.4356C0.343704 49.4042 -1.24823 51 -3.21194 51C-5.17566 51 -6.76756 49.4042 -6.76756 47.4356Z" fill="#1D1D1B"/>
<path d="M-6.76756 41.8267C-6.76756 39.8582 -5.17566 38.2623 -3.21194 38.2623C-1.24823 38.2623 0.343705 39.8582 0.343705 41.8267C0.343705 43.7953 -1.24823 45.3911 -3.21194 45.3911C-5.17566 45.3911 -6.76756 43.7953 -6.76756 41.8267Z" fill="#1D1D1B"/>
<path d="M-6.76756 36.2178C-6.76756 34.2493 -5.17566 32.6534 -3.21194 32.6534C-1.24823 32.6534 0.343705 34.2493 0.343705 36.2178C0.343705 38.1864 -1.24823 39.7822 -3.21194 39.7822C-5.17566 39.7822 -6.76756 38.1864 -6.76756 36.2178Z" fill="#1D1D1B"/>
<path d="M-6.76756 30.6089C-6.76756 28.6404 -5.17566 27.0445 -3.21194 27.0445C-1.24823 27.0445 0.343705 28.6404 0.343705 30.6089C0.343705 32.5774 -1.24823 34.1733 -3.21194 34.1733C-5.17566 34.1733 -6.76756 32.5774 -6.76756 30.6089Z" fill="#1D1D1B"/>
<path d="M-6.76756 25C-6.76756 23.0314 -5.17566 21.4356 -3.21194 21.4356C-1.24823 21.4356 0.343705 23.0314 0.343705 25C0.343705 26.9685 -1.24823 28.5644 -3.21194 28.5644C-5.17566 28.5644 -6.76756 26.9685 -6.76756 25Z" fill="#1D1D1B"/>
<path d="M-6.76756 19.3911C-6.76756 17.4225 -5.17566 15.8267 -3.21194 15.8267C-1.24823 15.8267 0.343706 17.4225 0.343706 19.3911C0.343706 21.3596 -1.24823 22.9555 -3.21194 22.9555C-5.17566 22.9555 -6.76756 21.3596 -6.76756 19.3911Z" fill="#1D1D1B"/>
<path d="M-6.76756 13.7822C-6.76756 11.8136 -5.17566 10.2178 -3.21194 10.2178C-1.24823 10.2178 0.343706 11.8136 0.343706 13.7822C0.343706 15.7507 -1.24823 17.3466 -3.21194 17.3466C-5.17566 17.3466 -6.76756 15.7507 -6.76756 13.7822Z" fill="#1D1D1B"/>
<path d="M-6.75174 8.17327C-6.75174 6.2135 -5.16693 4.62479 -3.21196 4.62479C-1.25699 4.62479 0.327837 6.2135 0.327837 8.17327C0.327837 10.133 -1.25699 11.7218 -3.21196 11.7218C-5.16693 11.7218 -6.75174 10.133 -6.75174 8.17327Z" fill="#1D1D1B"/>
<path d="M-6.76756 2.56437C-6.76756 0.595825 -5.17566 -1 -3.21194 -1C-1.24823 -1 0.343706 0.595825 0.343706 2.56437C0.343706 4.53292 -1.24823 6.12874 -3.21194 6.12874C-5.17566 6.12874 -6.76756 4.53292 -6.76756 2.56437Z" fill="#1D1D1B"/>
</g>
<path d="M169.373 8.03516C165.525 1.32894 156.969 -0.988157 150.263 2.85938C130.74 14.0604 108.626 19.9594 86.1182 19.9688C63.6105 19.978 41.4918 14.097 21.96 2.91211C15.3551 -0.869995 6.96272 1.32354 3.03711 7.79297L2.85352 8.10352C-0.988805 14.8132 1.33537 23.3686 8.04492 27.2109C31.8164 40.8237 58.7366 47.9801 86.1299 47.9688C113.523 47.9574 140.437 40.7779 164.197 27.1455C170.903 23.2975 173.221 14.7414 169.373 8.03516Z" stroke="#1D1D1B" stroke-width="2" stroke-linecap="round"/>
</svg>

