<svg width="173" height="49" viewBox="0 0 173 49" fill="none" xmlns="http://www.w3.org/2000/svg">
<mask id="mask0_15106_10015" style="mask-type:alpha" maskUnits="userSpaceOnUse" x="0" y="0" width="173" height="49">
<path d="M1.99181 7.5376C6.11446 0.352217 15.2819 -2.13067 22.4674 1.9917C41.8388 13.106 63.7815 18.9591 86.1149 18.9683C108.448 18.9775 130.395 13.1427 149.776 2.04444C156.965 -2.07208 166.13 0.418275 170.247 7.60694C174.363 14.7959 171.873 23.9618 164.684 28.0786C140.761 41.7781 113.67 48.9796 86.1022 48.9683C58.5345 48.9569 31.4492 41.7324 7.53771 28.0132C0.352389 23.8904 -2.13084 14.7231 1.99181 7.5376Z" fill="white"/>
</mask>
<g mask="url(#mask0_15106_10015)">
<path d="M-3.20069 47.4356C-3.20069 47.2144 -3.37962 47.035 -3.60035 47.035C-3.82107 47.035 -4 47.2144 -4 47.4356C-4 47.6569 -3.82107 47.8363 -3.60035 47.8363C-3.37962 47.8363 -3.20069 47.6569 -3.20069 47.4356Z" fill="#FAF9F5"/>
<path d="M-3.20069 41.8267C-3.20069 41.6055 -3.37962 41.4261 -3.60035 41.4261C-3.82107 41.4261 -4 41.6055 -4 41.8267C-4 42.048 -3.82107 42.2274 -3.60035 42.2274C-3.37962 42.2274 -3.20069 42.048 -3.20069 41.8267Z" fill="#FAF9F5"/>
<path d="M-3.20069 36.2178C-3.20069 35.9965 -3.37962 35.8172 -3.60035 35.8172C-3.82107 35.8172 -4 35.9965 -4 36.2178C-4 36.4391 -3.82107 36.6185 -3.60035 36.6185C-3.37962 36.6185 -3.20069 36.4391 -3.20069 36.2178Z" fill="#FAF9F5"/>
<path d="M-3.20069 30.6089C-3.20069 30.3876 -3.37963 30.2083 -3.60035 30.2083C-3.82107 30.2083 -4 30.3876 -4 30.6089C-4 30.8302 -3.82107 31.0095 -3.60035 31.0095C-3.37963 31.0095 -3.20069 30.8302 -3.20069 30.6089Z" fill="#FAF9F5"/>
<path d="M-3.20069 25C-3.20069 24.7787 -3.37963 24.5994 -3.60035 24.5994C-3.82107 24.5994 -4 24.7787 -4 25C-4 25.2213 -3.82107 25.4006 -3.60035 25.4006C-3.37963 25.4006 -3.20069 25.2213 -3.20069 25Z" fill="#FAF9F5"/>
<path d="M-3.20069 19.3911C-3.20069 19.1698 -3.37963 18.9905 -3.60035 18.9905C-3.82107 18.9905 -4 19.1698 -4 19.3911C-4 19.6124 -3.82107 19.7917 -3.60035 19.7917C-3.37963 19.7917 -3.20069 19.6124 -3.20069 19.3911Z" fill="#FAF9F5"/>
<path d="M-3.20069 13.7822C-3.20069 13.5609 -3.37963 13.3816 -3.60035 13.3816C-3.82107 13.3816 -4 13.5609 -4 13.7822C-4 14.0035 -3.82107 14.1828 -3.60035 14.1828C-3.37963 14.1828 -3.20069 14.0035 -3.20069 13.7822Z" fill="#FAF9F5"/>
<path d="M-3.2007 8.17328C-3.2007 7.95202 -3.37963 7.77265 -3.60035 7.77265C-3.82107 7.77265 -4 7.95202 -4 8.17328C-4 8.39455 -3.82107 8.57392 -3.60035 8.57392C-3.37963 8.57392 -3.2007 8.39455 -3.2007 8.17328Z" fill="#FAF9F5"/>
<path d="M-3.2007 2.56438C-3.2007 2.34311 -3.37963 2.16374 -3.60035 2.16374C-3.82107 2.16374 -4 2.34311 -4 2.56438C-4 2.78564 -3.82107 2.96501 -3.60035 2.96501C-3.37963 2.96501 -3.2007 2.78564 -3.2007 2.56438Z" fill="#FAF9F5"/>
<path d="M2.39445 47.4356C2.39445 47.2144 2.21552 47.035 1.9948 47.035C1.77408 47.035 1.59515 47.2144 1.59515 47.4356C1.59515 47.6569 1.77408 47.8363 1.9948 47.8363C2.21552 47.8363 2.39445 47.6569 2.39445 47.4356Z" fill="#FAF9F5"/>
<path d="M2.39445 41.8267C2.39445 41.6055 2.21552 41.4261 1.9948 41.4261C1.77408 41.4261 1.59515 41.6055 1.59515 41.8267C1.59515 42.048 1.77408 42.2274 1.9948 42.2274C2.21552 42.2274 2.39445 42.048 2.39445 41.8267Z" fill="#FAF9F5"/>
<path d="M2.39445 36.2178C2.39445 35.9965 2.21552 35.8172 1.9948 35.8172C1.77408 35.8172 1.59515 35.9965 1.59515 36.2178C1.59515 36.4391 1.77408 36.6185 1.9948 36.6185C2.21552 36.6185 2.39445 36.4391 2.39445 36.2178Z" fill="#FAF9F5"/>
<path d="M2.39445 30.6089C2.39445 30.3876 2.21552 30.2083 1.9948 30.2083C1.77408 30.2083 1.59515 30.3876 1.59515 30.6089C1.59515 30.8302 1.77408 31.0095 1.9948 31.0095C2.21552 31.0095 2.39445 30.8302 2.39445 30.6089Z" fill="#FAF9F5"/>
<path d="M2.39445 25C2.39445 24.7787 2.21552 24.5994 1.9948 24.5994C1.77408 24.5994 1.59515 24.7787 1.59515 25C1.59515 25.2213 1.77408 25.4006 1.9948 25.4006C2.21552 25.4006 2.39445 25.2213 2.39445 25Z" fill="#FAF9F5"/>
<path d="M2.39445 19.3911C2.39445 19.1698 2.21552 18.9905 1.9948 18.9905C1.77408 18.9905 1.59515 19.1698 1.59515 19.3911C1.59515 19.6124 1.77408 19.7917 1.9948 19.7917C2.21552 19.7917 2.39445 19.6124 2.39445 19.3911Z" fill="#FAF9F5"/>
<path d="M2.39445 13.7822C2.39445 13.5609 2.21552 13.3816 1.9948 13.3816C1.77408 13.3816 1.59515 13.5609 1.59515 13.7822C1.59515 14.0035 1.77408 14.1828 1.9948 14.1828C2.21552 14.1828 2.39445 14.0035 2.39445 13.7822Z" fill="#FAF9F5"/>
<path d="M2.39445 8.17328C2.39445 7.95202 2.21552 7.77265 1.9948 7.77265C1.77408 7.77265 1.59515 7.95202 1.59515 8.17328C1.59515 8.39455 1.77408 8.57392 1.9948 8.57392C2.21552 8.57392 2.39445 8.39455 2.39445 8.17328Z" fill="#FAF9F5"/>
<path d="M2.39445 2.56438C2.39445 2.34311 2.21552 2.16374 1.9948 2.16374C1.77408 2.16374 1.59515 2.34311 1.59515 2.56438C1.59515 2.78564 1.77408 2.96501 1.9948 2.96501C2.21552 2.96501 2.39445 2.78564 2.39445 2.56438Z" fill="#FAF9F5"/>
<path d="M7.9896 47.4356C7.9896 47.2144 7.81067 47.035 7.58995 47.035C7.36923 47.035 7.1903 47.2144 7.1903 47.4356C7.1903 47.6569 7.36923 47.8363 7.58995 47.8363C7.81067 47.8363 7.9896 47.6569 7.9896 47.4356Z" fill="#FAF9F5"/>
<path d="M7.9896 41.8267C7.9896 41.6055 7.81067 41.4261 7.58995 41.4261C7.36923 41.4261 7.1903 41.6055 7.1903 41.8267C7.1903 42.048 7.36923 42.2274 7.58995 42.2274C7.81067 42.2274 7.9896 42.048 7.9896 41.8267Z" fill="#FAF9F5"/>
<path d="M7.9896 36.2178C7.9896 35.9965 7.81067 35.8172 7.58995 35.8172C7.36923 35.8172 7.1903 35.9965 7.1903 36.2178C7.1903 36.4391 7.36923 36.6185 7.58995 36.6185C7.81067 36.6185 7.9896 36.4391 7.9896 36.2178Z" fill="#FAF9F5"/>
<path d="M7.9896 30.6089C7.9896 30.3876 7.81067 30.2083 7.58995 30.2083C7.36923 30.2083 7.1903 30.3876 7.1903 30.6089C7.1903 30.8302 7.36923 31.0095 7.58995 31.0095C7.81067 31.0095 7.9896 30.8302 7.9896 30.6089Z" fill="#FAF9F5"/>
<path d="M7.9896 25C7.9896 24.7787 7.81067 24.5994 7.58995 24.5994C7.36923 24.5994 7.1903 24.7787 7.1903 25C7.1903 25.2213 7.36923 25.4006 7.58995 25.4006C7.81067 25.4006 7.9896 25.2213 7.9896 25Z" fill="#FAF9F5"/>
<path d="M7.9896 19.3911C7.9896 19.1698 7.81067 18.9905 7.58995 18.9905C7.36923 18.9905 7.19029 19.1698 7.19029 19.3911C7.19029 19.6124 7.36923 19.7917 7.58995 19.7917C7.81067 19.7917 7.9896 19.6124 7.9896 19.3911Z" fill="#FAF9F5"/>
<path d="M7.9896 13.7822C7.9896 13.5609 7.81067 13.3816 7.58995 13.3816C7.36923 13.3816 7.19029 13.5609 7.19029 13.7822C7.19029 14.0035 7.36923 14.1828 7.58995 14.1828C7.81067 14.1828 7.9896 14.0035 7.9896 13.7822Z" fill="#FAF9F5"/>
<path d="M7.9896 8.17328C7.9896 7.95202 7.81067 7.77265 7.58995 7.77265C7.36923 7.77265 7.19029 7.95202 7.19029 8.17328C7.19029 8.39455 7.36923 8.57392 7.58995 8.57392C7.81067 8.57392 7.9896 8.39455 7.9896 8.17328Z" fill="#FAF9F5"/>
<path d="M7.9896 2.56438C7.9896 2.34311 7.81067 2.16374 7.58995 2.16374C7.36923 2.16374 7.19029 2.34311 7.19029 2.56438C7.19029 2.78564 7.36923 2.96501 7.58995 2.96501C7.81067 2.96501 7.9896 2.78564 7.9896 2.56438Z" fill="#FAF9F5"/>
<path d="M13.6613 47.4356C13.6613 47.172 13.4481 46.9583 13.1851 46.9583C12.9221 46.9583 12.7089 47.172 12.7089 47.4356C12.7089 47.6993 12.9221 47.913 13.1851 47.913C13.4481 47.913 13.6613 47.6993 13.6613 47.4356Z" fill="#FAF9F5"/>
<path d="M13.6822 41.8267C13.6822 41.5515 13.4596 41.3284 13.1851 41.3284C12.9106 41.3284 12.688 41.5515 12.688 41.8267C12.688 42.1019 12.9106 42.325 13.1851 42.325C13.4596 42.325 13.6822 42.1019 13.6822 41.8267Z" fill="#FAF9F5"/>
<path d="M13.6822 36.2178C13.6822 35.9426 13.4596 35.7195 13.1851 35.7195C12.9106 35.7195 12.688 35.9426 12.688 36.2178C12.688 36.493 12.9106 36.7161 13.1851 36.7161C13.4596 36.7161 13.6822 36.493 13.6822 36.2178Z" fill="#FAF9F5"/>
<path d="M13.6822 30.6089C13.6822 30.3337 13.4596 30.1106 13.1851 30.1106C12.9106 30.1106 12.688 30.3337 12.688 30.6089C12.688 30.8841 12.9106 31.1072 13.1851 31.1072C13.4596 31.1072 13.6822 30.8841 13.6822 30.6089Z" fill="#FAF9F5"/>
<path d="M13.6613 25C13.6613 24.7364 13.4481 24.5227 13.1851 24.5227C12.9221 24.5227 12.7089 24.7364 12.7089 25C12.7089 25.2636 12.9221 25.4773 13.1851 25.4773C13.4481 25.4773 13.6613 25.2636 13.6613 25Z" fill="#FAF9F5"/>
<path d="M13.6822 19.3911C13.6822 19.1159 13.4596 18.8928 13.1851 18.8928C12.9106 18.8928 12.688 19.1159 12.688 19.3911C12.688 19.6663 12.9106 19.8894 13.1851 19.8894C13.4596 19.8894 13.6822 19.6663 13.6822 19.3911Z" fill="#FAF9F5"/>
<path d="M13.6613 13.7822C13.6613 13.5186 13.4481 13.3048 13.1851 13.3048C12.9221 13.3048 12.7089 13.5186 12.7089 13.7822C12.7089 14.0458 12.9221 14.2595 13.1851 14.2595C13.4481 14.2595 13.6613 14.0458 13.6613 13.7822Z" fill="#FAF9F5"/>
<path d="M13.6822 8.17328C13.6822 7.89807 13.4596 7.67496 13.1851 7.67496C12.9106 7.67496 12.688 7.89807 12.688 8.17328C12.688 8.4485 12.9106 8.67161 13.1851 8.67161C13.4596 8.67161 13.6822 8.4485 13.6822 8.17328Z" fill="#FAF9F5"/>
<path d="M13.6822 2.56438C13.6822 2.28916 13.4596 2.06605 13.1851 2.06605C12.9106 2.06605 12.688 2.28916 12.688 2.56438C12.688 2.83959 12.9106 3.0627 13.1851 3.0627C13.4596 3.0627 13.6822 2.83959 13.6822 2.56438Z" fill="#FAF9F5"/>
<path d="M19.4005 47.4356C19.4005 47.0922 19.1228 46.8138 18.7802 46.8138C18.4377 46.8138 18.16 47.0922 18.16 47.4356C18.16 47.779 18.4377 48.0574 18.7802 48.0574C19.1228 48.0574 19.4005 47.779 19.4005 47.4356Z" fill="#FAF9F5"/>
<path d="M19.4005 41.8267C19.4005 41.4833 19.1228 41.2049 18.7802 41.2049C18.4377 41.2049 18.16 41.4833 18.16 41.8267C18.16 42.1701 18.4377 42.4485 18.7802 42.4485C19.1228 42.4485 19.4005 42.1701 19.4005 41.8267Z" fill="#FAF9F5"/>
<path d="M19.4005 36.2178C19.4005 35.8744 19.1228 35.596 18.7802 35.596C18.4377 35.596 18.16 35.8744 18.16 36.2178C18.16 36.5612 18.4377 36.8396 18.7802 36.8396C19.1228 36.8396 19.4005 36.5612 19.4005 36.2178Z" fill="#FAF9F5"/>
<path d="M19.4005 30.6089C19.4005 30.2655 19.1228 29.9871 18.7802 29.9871C18.4377 29.9871 18.16 30.2655 18.16 30.6089C18.16 30.9523 18.4377 31.2307 18.7802 31.2307C19.1228 31.2307 19.4005 30.9523 19.4005 30.6089Z" fill="#FAF9F5"/>
<path d="M19.4005 25C19.4005 24.6566 19.1228 24.3782 18.7802 24.3782C18.4377 24.3782 18.16 24.6566 18.16 25C18.16 25.3434 18.4377 25.6218 18.7802 25.6218C19.1228 25.6218 19.4005 25.3434 19.4005 25Z" fill="#FAF9F5"/>
<path d="M19.4005 19.3911C19.4005 19.0477 19.1228 18.7693 18.7802 18.7693C18.4377 18.7693 18.16 19.0477 18.16 19.3911C18.16 19.7345 18.4377 20.0129 18.7802 20.0129C19.1228 20.0129 19.4005 19.7345 19.4005 19.3911Z" fill="#FAF9F5"/>
<path d="M19.3802 13.7822C19.3802 13.45 19.1116 13.1807 18.7802 13.1807C18.4489 13.1807 18.1802 13.45 18.1802 13.7822C18.1802 14.1144 18.4489 14.3837 18.7802 14.3837C19.1116 14.3837 19.3802 14.1144 19.3802 13.7822Z" fill="#FAF9F5"/>
<path d="M19.4005 8.17329C19.4005 7.82987 19.1228 7.55148 18.7802 7.55148C18.4377 7.55148 18.16 7.82987 18.16 8.17329C18.16 8.5167 18.4377 8.79509 18.7802 8.79509C19.1228 8.79509 19.4005 8.5167 19.4005 8.17329Z" fill="#FAF9F5"/>
<path d="M19.4005 2.56438C19.4005 2.22097 19.1228 1.94257 18.7802 1.94257C18.4377 1.94257 18.16 2.22097 18.16 2.56438C18.16 2.90779 18.4377 3.18618 18.7802 3.18618C19.1228 3.18618 19.4005 2.90779 19.4005 2.56438Z" fill="#FAF9F5"/>
<path d="M25.1155 47.4356C25.1155 47.0259 24.7841 46.6937 24.3754 46.6937C23.9666 46.6937 23.6353 47.0259 23.6353 47.4356C23.6353 47.8454 23.9666 48.1776 24.3754 48.1776C24.7841 48.1776 25.1155 47.8454 25.1155 47.4356Z" fill="#FAF9F5"/>
<path d="M25.1155 41.8267C25.1155 41.417 24.7841 41.0848 24.3754 41.0848C23.9666 41.0848 23.6353 41.417 23.6353 41.8267C23.6353 42.2365 23.9666 42.5686 24.3754 42.5686C24.7841 42.5686 25.1155 42.2365 25.1155 41.8267Z" fill="#FAF9F5"/>
<path d="M25.1155 36.2178C25.1155 35.8081 24.7841 35.4759 24.3754 35.4759C23.9666 35.4759 23.6353 35.8081 23.6353 36.2178C23.6353 36.6276 23.9666 36.9597 24.3754 36.9597C24.7841 36.9597 25.1155 36.6276 25.1155 36.2178Z" fill="#FAF9F5"/>
<path d="M25.1155 30.6089C25.1155 30.1992 24.7841 29.867 24.3754 29.867C23.9666 29.867 23.6353 30.1992 23.6353 30.6089C23.6353 31.0187 23.9666 31.3508 24.3754 31.3508C24.7841 31.3508 25.1155 31.0187 25.1155 30.6089Z" fill="#FAF9F5"/>
<path d="M25.1155 25C25.1155 24.5902 24.7841 24.2581 24.3754 24.2581C23.9666 24.2581 23.6353 24.5902 23.6353 25C23.6353 25.4098 23.9666 25.7419 24.3754 25.7419C24.7841 25.7419 25.1155 25.4098 25.1155 25Z" fill="#FAF9F5"/>
<path d="M25.1155 19.3911C25.1155 18.9813 24.7841 18.6492 24.3754 18.6492C23.9666 18.6492 23.6353 18.9813 23.6353 19.3911C23.6353 19.8009 23.9666 20.133 24.3754 20.133C24.7841 20.133 25.1155 19.8009 25.1155 19.3911Z" fill="#FAF9F5"/>
<path d="M25.0957 13.7822C25.0957 13.3834 24.7732 13.0601 24.3754 13.0601C23.9776 13.0601 23.6551 13.3834 23.6551 13.7822C23.6551 14.181 23.9776 14.5043 24.3754 14.5043C24.7732 14.5043 25.0957 14.181 25.0957 13.7822Z" fill="#FAF9F5"/>
<path d="M25.1155 8.17328C25.1155 7.76353 24.7841 7.43136 24.3754 7.43136C23.9666 7.43136 23.6353 7.76353 23.6353 8.17328C23.6353 8.58304 23.9666 8.91521 24.3754 8.91521C24.7841 8.91521 25.1155 8.58304 25.1155 8.17328Z" fill="#FAF9F5"/>
<path d="M25.1155 2.56438C25.1155 2.15462 24.7841 1.82245 24.3754 1.82245C23.9666 1.82245 23.6353 2.15462 23.6353 2.56438C23.6353 2.97413 23.9666 3.3063 24.3754 3.3063C24.7841 3.3063 25.1155 2.97413 25.1155 2.56438Z" fill="#FAF9F5"/>
<path d="M30.8278 47.4356C30.8278 46.961 30.444 46.5763 29.9705 46.5763C29.4971 46.5763 29.1133 46.961 29.1133 47.4356C29.1133 47.9102 29.4971 48.295 29.9705 48.295C30.444 48.295 30.8278 47.9102 30.8278 47.4356Z" fill="#FAF9F5"/>
<path d="M30.8278 41.8267C30.8278 41.3521 30.444 40.9674 29.9705 40.9674C29.4971 40.9674 29.1133 41.3521 29.1133 41.8267C29.1133 42.3013 29.4971 42.6861 29.9705 42.6861C30.444 42.6861 30.8278 42.3013 30.8278 41.8267Z" fill="#FAF9F5"/>
<path d="M30.8278 36.2178C30.8278 35.7432 30.444 35.3584 29.9705 35.3584C29.4971 35.3584 29.1133 35.7432 29.1133 36.2178C29.1133 36.6924 29.4971 37.0772 29.9705 37.0772C30.444 37.0772 30.8278 36.6924 30.8278 36.2178Z" fill="#FAF9F5"/>
<path d="M30.8278 30.6089C30.8278 30.1343 30.444 29.7495 29.9705 29.7495C29.4971 29.7495 29.1133 30.1343 29.1133 30.6089C29.1133 31.0835 29.4971 31.4683 29.9705 31.4683C30.444 31.4683 30.8278 31.0835 30.8278 30.6089Z" fill="#FAF9F5"/>
<path d="M30.8278 25C30.8278 24.5254 30.444 24.1406 29.9705 24.1406C29.4971 24.1406 29.1133 24.5254 29.1133 25C29.1133 25.4746 29.4971 25.8594 29.9705 25.8594C30.444 25.8594 30.8278 25.4746 30.8278 25Z" fill="#FAF9F5"/>
<path d="M30.8278 19.3911C30.8278 18.9165 30.444 18.5317 29.9705 18.5317C29.4971 18.5317 29.1133 18.9165 29.1133 19.3911C29.1133 19.8657 29.4971 20.2505 29.9705 20.2505C30.444 20.2505 30.8278 19.8657 30.8278 19.3911Z" fill="#FAF9F5"/>
<path d="M30.8278 13.7822C30.8278 13.3076 30.444 12.9228 29.9705 12.9228C29.4971 12.9228 29.1133 13.3076 29.1133 13.7822C29.1133 14.2568 29.4971 14.6416 29.9705 14.6416C30.444 14.6416 30.8278 14.2568 30.8278 13.7822Z" fill="#FAF9F5"/>
<path d="M30.8278 8.17328C30.8278 7.69867 30.444 7.31391 29.9705 7.31391C29.4971 7.31391 29.1133 7.69867 29.1133 8.17328C29.1133 8.6479 29.4971 9.03265 29.9705 9.03265C30.444 9.03265 30.8278 8.6479 30.8278 8.17328Z" fill="#FAF9F5"/>
<path d="M30.8278 2.56438C30.8278 2.08976 30.444 1.70501 29.9705 1.70501C29.4971 1.70501 29.1133 2.08976 29.1133 2.56438C29.1133 3.03899 29.4971 3.42375 29.9705 3.42375C30.444 3.42375 30.8278 3.03899 30.8278 2.56438Z" fill="#FAF9F5"/>
<path d="M36.5379 47.4356C36.5379 46.8974 36.1026 46.461 35.5657 46.461C35.0288 46.461 34.5935 46.8974 34.5935 47.4356C34.5935 47.9739 35.0288 48.4102 35.5657 48.4102C36.1026 48.4102 36.5379 47.9739 36.5379 47.4356Z" fill="#FAF9F5"/>
<path d="M36.5379 41.8267C36.5379 41.2885 36.1026 40.8521 35.5657 40.8521C35.0288 40.8521 34.5935 41.2885 34.5935 41.8267C34.5935 42.365 35.0288 42.8013 35.5657 42.8013C36.1026 42.8013 36.5379 42.365 36.5379 41.8267Z" fill="#FAF9F5"/>
<path d="M36.5379 36.2178C36.5379 35.6796 36.1026 35.2432 35.5657 35.2432C35.0288 35.2432 34.5935 35.6796 34.5935 36.2178C34.5935 36.7561 35.0288 37.1924 35.5657 37.1924C36.1026 37.1924 36.5379 36.7561 36.5379 36.2178Z" fill="#FAF9F5"/>
<path d="M36.5379 30.6089C36.5379 30.0707 36.1026 29.6343 35.5657 29.6343C35.0288 29.6343 34.5935 30.0707 34.5935 30.6089C34.5935 31.1472 35.0288 31.5835 35.5657 31.5835C36.1026 31.5835 36.5379 31.1472 36.5379 30.6089Z" fill="#FAF9F5"/>
<path d="M36.5379 25C36.5379 24.4617 36.1026 24.0254 35.5657 24.0254C35.0288 24.0254 34.5935 24.4617 34.5935 25C34.5935 25.5383 35.0288 25.9746 35.5657 25.9746C36.1026 25.9746 36.5379 25.5383 36.5379 25Z" fill="#FAF9F5"/>
<path d="M36.5569 19.3911C36.5569 18.8423 36.1131 18.3975 35.5657 18.3975C35.0183 18.3975 34.5745 18.8423 34.5745 19.3911C34.5745 19.9399 35.0183 20.3847 35.5657 20.3847C36.1131 20.3847 36.5569 19.9398 36.5569 19.3911Z" fill="#FAF9F5"/>
<path d="M36.5379 13.7822C36.5379 13.2439 36.1026 12.8076 35.5657 12.8076C35.0288 12.8076 34.5935 13.2439 34.5935 13.7822C34.5935 14.3204 35.0288 14.7568 35.5657 14.7568C36.1026 14.7568 36.5379 14.3204 36.5379 13.7822Z" fill="#FAF9F5"/>
<path d="M36.5379 8.17328C36.5379 7.63503 36.1026 7.19868 35.5657 7.19868C35.0288 7.19868 34.5935 7.63503 34.5935 8.17328C34.5935 8.71154 35.0288 9.14788 35.5657 9.14788C36.1026 9.14788 36.5379 8.71154 36.5379 8.17328Z" fill="#FAF9F5"/>
<path d="M36.5379 2.56438C36.5379 2.02612 36.1026 1.58978 35.5657 1.58978C35.0288 1.58978 34.5935 2.02612 34.5935 2.56438C34.5935 3.10263 35.0288 3.53898 35.5657 3.53898C36.1026 3.53898 36.5379 3.10263 36.5379 2.56438Z" fill="#FAF9F5"/>
<path d="M42.2461 47.4356C42.2461 46.8348 41.7602 46.3477 41.1608 46.3477C40.5615 46.3477 40.0756 46.8348 40.0756 47.4356C40.0756 48.0365 40.5615 48.5236 41.1608 48.5236C41.7602 48.5236 42.2461 48.0365 42.2461 47.4356Z" fill="#FAF9F5"/>
<path d="M42.2461 41.8267C42.2461 41.2259 41.7602 40.7388 41.1608 40.7388C40.5615 40.7388 40.0756 41.2259 40.0756 41.8267C40.0756 42.4276 40.5615 42.9147 41.1608 42.9147C41.7602 42.9147 42.2461 42.4276 42.2461 41.8267Z" fill="#FAF9F5"/>
<path d="M42.2461 36.2178C42.2461 35.617 41.7602 35.1299 41.1608 35.1299C40.5615 35.1299 40.0756 35.617 40.0756 36.2178C40.0756 36.8187 40.5615 37.3058 41.1608 37.3058C41.7602 37.3058 42.2461 36.8187 42.2461 36.2178Z" fill="#FAF9F5"/>
<path d="M42.2461 30.6089C42.2461 30.0081 41.7602 29.521 41.1608 29.521C40.5615 29.521 40.0756 30.0081 40.0756 30.6089C40.0756 31.2098 40.5615 31.6969 41.1608 31.6969C41.7602 31.6969 42.2461 31.2098 42.2461 30.6089Z" fill="#FAF9F5"/>
<path d="M42.2461 25C42.2461 24.3991 41.7602 23.9121 41.1608 23.9121C40.5614 23.9121 40.0756 24.3991 40.0756 25C40.0756 25.6009 40.5614 26.0879 41.1608 26.0879C41.7602 26.0879 42.2461 25.6009 42.2461 25Z" fill="#FAF9F5"/>
<path d="M42.2461 19.3911C42.2461 18.7902 41.7602 18.3031 41.1608 18.3031C40.5614 18.3031 40.0756 18.7902 40.0756 19.3911C40.0756 19.9919 40.5614 20.479 41.1608 20.479C41.7602 20.479 42.2461 19.9919 42.2461 19.3911Z" fill="#FAF9F5"/>
<path d="M42.2461 13.7822C42.2461 13.1813 41.7602 12.6942 41.1608 12.6942C40.5614 12.6942 40.0756 13.1813 40.0756 13.7822C40.0756 14.383 40.5614 14.8701 41.1608 14.8701C41.7602 14.8701 42.2461 14.383 42.2461 13.7822Z" fill="#FAF9F5"/>
<path d="M42.2648 8.17328C42.2648 7.56208 41.7705 7.06661 41.1608 7.06661C40.5511 7.06661 40.0569 7.56208 40.0569 8.17328C40.0569 8.78448 40.5511 9.27995 41.1608 9.27995C41.7705 9.27995 42.2648 8.78448 42.2648 8.17328Z" fill="#FAF9F5"/>
<path d="M42.2461 2.56438C42.2461 1.96352 41.7602 1.47643 41.1608 1.47643C40.5614 1.47643 40.0756 1.96352 40.0756 2.56438C40.0756 3.16524 40.5614 3.65232 41.1608 3.65232C41.7602 3.65232 42.2461 3.16524 42.2461 2.56438Z" fill="#FAF9F5"/>
<path d="M47.9527 47.4356C47.9527 46.7731 47.4169 46.236 46.756 46.236C46.095 46.236 45.5593 46.7731 45.5593 47.4356C45.5593 48.0982 46.095 48.6353 46.756 48.6353C47.4169 48.6353 47.9527 48.0982 47.9527 47.4356Z" fill="#FAF9F5"/>
<path d="M47.9527 41.8267C47.9527 41.1642 47.4169 40.6271 46.756 40.6271C46.095 40.6271 45.5593 41.1642 45.5593 41.8267C45.5593 42.4893 46.095 43.0264 46.756 43.0264C47.4169 43.0264 47.9527 42.4893 47.9527 41.8267Z" fill="#FAF9F5"/>
<path d="M47.9527 36.2178C47.9527 35.5553 47.4169 35.0182 46.756 35.0182C46.095 35.0182 45.5593 35.5553 45.5593 36.2178C45.5593 36.8804 46.095 37.4175 46.756 37.4175C47.4169 37.4175 47.9527 36.8804 47.9527 36.2178Z" fill="#FAF9F5"/>
<path d="M47.9527 30.6089C47.9527 29.9464 47.4169 29.4092 46.756 29.4092C46.095 29.4092 45.5593 29.9464 45.5593 30.6089C45.5593 31.2715 46.095 31.8086 46.756 31.8086C47.4169 31.8086 47.9527 31.2715 47.9527 30.6089Z" fill="#FAF9F5"/>
<path d="M47.9527 25C47.9527 24.3374 47.4169 23.8003 46.756 23.8003C46.095 23.8003 45.5593 24.3374 45.5593 25C45.5593 25.6626 46.095 26.1997 46.756 26.1997C47.4169 26.1997 47.9527 25.6626 47.9527 25Z" fill="#FAF9F5"/>
<path d="M47.9342 19.3911C47.9342 18.7388 47.4067 18.2099 46.756 18.2099C46.1052 18.2099 45.5777 18.7388 45.5777 19.3911C45.5777 20.0434 46.1052 20.5722 46.756 20.5722C47.4067 20.5722 47.9342 20.0434 47.9342 19.3911Z" fill="#FAF9F5"/>
<path d="M47.9527 13.7822C47.9527 13.1196 47.4169 12.5825 46.756 12.5825C46.095 12.5825 45.5593 13.1196 45.5593 13.7822C45.5593 14.4447 46.095 14.9818 46.756 14.9818C47.4169 14.9818 47.9527 14.4447 47.9527 13.7822Z" fill="#FAF9F5"/>
<path d="M47.9527 8.17328C47.9527 7.51073 47.4169 6.97362 46.756 6.97362C46.095 6.97362 45.5593 7.51073 45.5593 8.17328C45.5593 8.83584 46.095 9.37295 46.756 9.37295C47.4169 9.37295 47.9527 8.83584 47.9527 8.17328Z" fill="#FAF9F5"/>
<path d="M47.9527 2.56438C47.9527 1.90182 47.4169 1.36472 46.756 1.36472C46.095 1.36472 45.5593 1.90182 45.5593 2.56438C45.5593 3.22693 46.095 3.76404 46.756 3.76404C47.4169 3.76404 47.9527 3.22693 47.9527 2.56438Z" fill="#FAF9F5"/>
<path d="M53.6579 47.4356C53.6579 46.7122 53.0728 46.1257 52.3511 46.1257C51.6294 46.1257 51.0444 46.7122 51.0444 47.4356C51.0444 48.1591 51.6294 48.7456 52.3511 48.7456C53.0728 48.7456 53.6579 48.1591 53.6579 47.4356Z" fill="#FAF9F5"/>
<path d="M53.6579 41.8267C53.6579 41.1033 53.0728 40.5168 52.3511 40.5168C51.6294 40.5168 51.0444 41.1033 51.0444 41.8267C51.0444 42.5502 51.6294 43.1367 52.3511 43.1367C53.0728 43.1367 53.6579 42.5502 53.6579 41.8267Z" fill="#FAF9F5"/>
<path d="M53.6761 36.2178C53.6761 35.4843 53.0829 34.8896 52.3511 34.8896C51.6194 34.8896 51.0262 35.4843 51.0262 36.2178C51.0262 36.9514 51.6194 37.546 52.3511 37.546C53.0829 37.546 53.6761 36.9514 53.6761 36.2178Z" fill="#FAF9F5"/>
<path d="M53.6579 30.6089C53.6579 29.8854 53.0728 29.299 52.3511 29.299C51.6294 29.299 51.0444 29.8854 51.0444 30.6089C51.0444 31.3324 51.6294 31.9188 52.3511 31.9188C53.0728 31.9188 53.6579 31.3324 53.6579 30.6089Z" fill="#FAF9F5"/>
<path d="M53.6579 25C53.6579 24.2765 53.0728 23.6901 52.3511 23.6901C51.6294 23.6901 51.0444 24.2765 51.0444 25C51.0444 25.7235 51.6294 26.3099 52.3511 26.3099C53.0728 26.3099 53.6579 25.7235 53.6579 25Z" fill="#FAF9F5"/>
<path d="M53.6579 19.3911C53.6579 18.6676 53.0728 18.0812 52.3511 18.0812C51.6294 18.0812 51.0444 18.6676 51.0444 19.3911C51.0444 20.1146 51.6294 20.701 52.3511 20.701C53.0728 20.701 53.6579 20.1146 53.6579 19.3911Z" fill="#FAF9F5"/>
<path d="M53.6579 13.7822C53.6579 13.0587 53.0728 12.4722 52.3511 12.4722C51.6294 12.4722 51.0444 13.0587 51.0444 13.7822C51.0444 14.5056 51.6294 15.0921 52.3511 15.0921C53.0728 15.0921 53.6579 14.5056 53.6579 13.7822Z" fill="#FAF9F5"/>
<path d="M53.6396 8.17328C53.6396 7.45992 53.0627 6.88163 52.3511 6.88163C51.6395 6.88163 51.0626 7.45992 51.0626 8.17328C51.0626 8.88664 51.6395 9.46493 52.3511 9.46493C53.0627 9.46493 53.6396 8.88664 53.6396 8.17328Z" fill="#FAF9F5"/>
<path d="M53.6579 2.56438C53.6579 1.84092 53.0728 1.25444 52.3511 1.25444C51.6294 1.25444 51.0444 1.84092 51.0444 2.56438C51.0444 3.28784 51.6294 3.87431 52.3511 3.87431C53.0728 3.87431 53.6579 3.28784 53.6579 2.56438Z" fill="#FAF9F5"/>
<path d="M59.3617 47.4356C59.3617 46.652 58.728 46.0167 57.9463 46.0167C57.1645 46.0167 56.5308 46.652 56.5308 47.4356C56.5308 48.2193 57.1645 48.8546 57.9463 48.8546C58.728 48.8546 59.3617 48.2193 59.3617 47.4356Z" fill="#FAF9F5"/>
<path d="M59.3797 41.8267C59.3797 41.0331 58.7379 40.3897 57.9463 40.3897C57.1546 40.3897 56.5128 41.0331 56.5128 41.8267C56.5128 42.6203 57.1546 43.2637 57.9463 43.2637C58.7379 43.2637 59.3797 42.6203 59.3797 41.8267Z" fill="#FAF9F5"/>
<path d="M59.3617 36.2178C59.3617 35.4342 58.728 34.7989 57.9463 34.7989C57.1645 34.7989 56.5308 35.4342 56.5308 36.2178C56.5308 37.0015 57.1645 37.6367 57.9463 37.6367C58.728 37.6367 59.3617 37.0015 59.3617 36.2178Z" fill="#FAF9F5"/>
<path d="M59.3617 30.6089C59.3617 29.8253 58.728 29.19 57.9463 29.19C57.1645 29.19 56.5308 29.8253 56.5308 30.6089C56.5308 31.3926 57.1645 32.0278 57.9463 32.0278C58.728 32.0278 59.3617 31.3926 59.3617 30.6089Z" fill="#FAF9F5"/>
<path d="M59.3797 25C59.3797 24.2064 58.7379 23.563 57.9463 23.563C57.1546 23.563 56.5128 24.2064 56.5128 25C56.5128 25.7936 57.1546 26.437 57.9463 26.437C58.7379 26.437 59.3797 25.7936 59.3797 25Z" fill="#FAF9F5"/>
<path d="M59.3797 19.3911C59.3797 18.5975 58.7379 17.9541 57.9463 17.9541C57.1546 17.9541 56.5128 18.5975 56.5128 19.3911C56.5128 20.1847 57.1546 20.8281 57.9463 20.8281C58.7379 20.8281 59.3797 20.1847 59.3797 19.3911Z" fill="#FAF9F5"/>
<path d="M59.3797 13.7822C59.3797 12.9886 58.7379 12.3452 57.9463 12.3452C57.1546 12.3452 56.5128 12.9886 56.5128 13.7822C56.5128 14.5758 57.1546 15.2192 57.9463 15.2192C58.7379 15.2192 59.3797 14.5758 59.3797 13.7822Z" fill="#FAF9F5"/>
<path d="M59.3617 8.17328C59.3617 7.38963 58.728 6.75436 57.9463 6.75436C57.1645 6.75436 56.5308 7.38963 56.5308 8.17328C56.5308 8.95693 57.1645 9.59221 57.9463 9.59221C58.728 9.59221 59.3617 8.95693 59.3617 8.17328Z" fill="#FAF9F5"/>
<path d="M59.3797 2.56437C59.3797 1.77075 58.7379 1.1274 57.9463 1.1274C57.1546 1.1274 56.5128 1.77075 56.5128 2.56437C56.5128 3.35799 57.1546 4.00135 57.9463 4.00135C58.7379 4.00135 59.3797 3.35799 59.3797 2.56437Z" fill="#FAF9F5"/>
<path d="M65.0644 47.4356C65.0644 46.5924 64.3826 45.9089 63.5414 45.9089C62.7003 45.9089 62.0184 46.5924 62.0184 47.4356C62.0184 48.2788 62.7003 48.9624 63.5414 48.9624C64.3826 48.9624 65.0644 48.2788 65.0644 47.4356Z" fill="#FAF9F5"/>
<path d="M65.0644 41.8267C65.0644 40.9835 64.3826 40.3 63.5414 40.3C62.7003 40.3 62.0184 40.9835 62.0184 41.8267C62.0184 42.6699 62.7003 43.3535 63.5414 43.3535C64.3826 43.3535 65.0644 42.6699 65.0644 41.8267Z" fill="#FAF9F5"/>
<path d="M65.0644 36.2178C65.0644 35.3746 64.3826 34.6911 63.5414 34.6911C62.7003 34.6911 62.0184 35.3746 62.0184 36.2178C62.0184 37.061 62.7003 37.7446 63.5414 37.7446C64.3826 37.7446 65.0644 37.061 65.0644 36.2178Z" fill="#FAF9F5"/>
<path d="M65.0644 30.6089C65.0644 29.7657 64.3826 29.0822 63.5414 29.0822C62.7003 29.0822 62.0184 29.7657 62.0184 30.6089C62.0184 31.4521 62.7003 32.1357 63.5414 32.1357C64.3826 32.1357 65.0644 31.4521 65.0644 30.6089Z" fill="#FAF9F5"/>
<path d="M65.0644 25C65.0644 24.1568 64.3826 23.4732 63.5414 23.4732C62.7003 23.4732 62.0184 24.1568 62.0184 25C62.0184 25.8432 62.7003 26.5268 63.5414 26.5268C64.3826 26.5268 65.0644 25.8432 65.0644 25Z" fill="#FAF9F5"/>
<path d="M65.0644 19.3911C65.0644 18.5479 64.3826 17.8643 63.5414 17.8643C62.7003 17.8643 62.0184 18.5479 62.0184 19.3911C62.0184 20.2343 62.7003 20.9178 63.5414 20.9178C64.3826 20.9178 65.0644 20.2343 65.0644 19.3911Z" fill="#FAF9F5"/>
<path d="M65.0822 13.7822C65.0822 12.9291 64.3924 12.2376 63.5414 12.2376C62.6904 12.2376 62.0006 12.9291 62.0006 13.7822C62.0006 14.6353 62.6904 15.3268 63.5414 15.3268C64.3924 15.3268 65.0822 14.6353 65.0822 13.7822Z" fill="#FAF9F5"/>
<path d="M65.0822 8.17328C65.0822 7.32021 64.3924 6.62867 63.5414 6.62867C62.6904 6.62867 62.0006 7.32021 62.0006 8.17328C62.0006 9.02635 62.6904 9.7179 63.5414 9.7179C64.3924 9.7179 65.0822 9.02635 65.0822 8.17328Z" fill="#FAF9F5"/>
<path d="M65.0644 2.56438C65.0644 1.72117 64.3826 1.03762 63.5414 1.03762C62.7003 1.03762 62.0184 1.72117 62.0184 2.56438C62.0184 3.40758 62.7003 4.09113 63.5414 4.09113C64.3826 4.09113 65.0644 3.40758 65.0644 2.56438Z" fill="#FAF9F5"/>
<path d="M70.7661 47.4356C70.7661 46.5335 70.0365 45.8021 69.1366 45.8021C68.2366 45.8021 67.507 46.5335 67.507 47.4356C67.507 48.3378 68.2366 49.0692 69.1366 49.0692C70.0365 49.0692 70.7661 48.3378 70.7661 47.4356Z" fill="#FAF9F5"/>
<path d="M70.7837 41.8267C70.7837 40.9148 70.0463 40.1755 69.1366 40.1755C68.2269 40.1755 67.4894 40.9148 67.4894 41.8267C67.4894 42.7387 68.2269 43.4779 69.1366 43.4779C70.0463 43.4779 70.7837 42.7387 70.7837 41.8267Z" fill="#FAF9F5"/>
<path d="M70.7837 36.2178C70.7837 35.3059 70.0463 34.5666 69.1366 34.5666C68.2269 34.5666 67.4894 35.3059 67.4894 36.2178C67.4894 37.1298 68.2269 37.869 69.1366 37.869C70.0463 37.869 70.7837 37.1298 70.7837 36.2178Z" fill="#FAF9F5"/>
<path d="M70.7661 30.6089C70.7661 29.7067 70.0365 28.9754 69.1366 28.9754C68.2366 28.9754 67.507 29.7067 67.507 30.6089C67.507 31.5111 68.2366 32.2424 69.1366 32.2424C70.0365 32.2424 70.7661 31.5111 70.7661 30.6089Z" fill="#FAF9F5"/>
<path d="M70.7661 25C70.7661 24.0978 70.0365 23.3665 69.1366 23.3665C68.2366 23.3665 67.507 24.0978 67.507 25C67.507 25.9022 68.2366 26.6335 69.1366 26.6335C70.0365 26.6335 70.7661 25.9022 70.7661 25Z" fill="#FAF9F5"/>
<path d="M70.7661 19.3911C70.7661 18.4889 70.0365 17.7576 69.1366 17.7576C68.2366 17.7576 67.507 18.4889 67.507 19.3911C67.507 20.2933 68.2366 21.0246 69.1366 21.0246C70.0365 21.0246 70.7661 20.2933 70.7661 19.3911Z" fill="#FAF9F5"/>
<path d="M70.7837 13.7822C70.7837 12.8702 70.0463 12.131 69.1366 12.131C68.2269 12.131 67.4894 12.8702 67.4894 13.7822C67.4894 14.6941 68.2269 15.4334 69.1366 15.4334C70.0463 15.4334 70.7837 14.6941 70.7837 13.7822Z" fill="#FAF9F5"/>
<path d="M70.7837 8.17328C70.7837 7.26134 70.0463 6.52206 69.1366 6.52206C68.2269 6.52206 67.4894 7.26134 67.4894 8.17328C67.4894 9.08523 68.2269 9.82451 69.1366 9.82451C70.0463 9.82451 70.7837 9.08523 70.7837 8.17328Z" fill="#FAF9F5"/>
<path d="M70.7661 2.56438C70.7661 1.66221 70.0365 0.930855 69.1366 0.930855C68.2366 0.930855 67.507 1.66221 67.507 2.56438C67.507 3.46655 68.2366 4.1979 69.1366 4.1979C70.0365 4.1979 70.7661 3.46655 70.7661 2.56438Z" fill="#FAF9F5"/>
<path d="M76.4843 47.4356C76.4843 46.4653 75.6996 45.6788 74.7317 45.6788C73.7638 45.6788 72.9792 46.4653 72.9792 47.4356C72.9792 48.4059 73.7638 49.1925 74.7317 49.1925C75.6996 49.1925 76.4843 48.4059 76.4843 47.4356Z" fill="#FAF9F5"/>
<path d="M76.4843 41.8267C76.4843 40.8564 75.6996 40.0698 74.7317 40.0698C73.7638 40.0698 72.9792 40.8564 72.9792 41.8267C72.9792 42.797 73.7638 43.5836 74.7317 43.5836C75.6996 43.5836 76.4843 42.797 76.4843 41.8267Z" fill="#FAF9F5"/>
<path d="M76.4843 36.2178C76.4843 35.2475 75.6996 34.4609 74.7317 34.4609C73.7638 34.4609 72.9792 35.2475 72.9792 36.2178C72.9792 37.1881 73.7638 37.9747 74.7317 37.9747C75.6996 37.9747 76.4843 37.1881 76.4843 36.2178Z" fill="#FAF9F5"/>
<path d="M76.4843 30.6089C76.4843 29.6386 75.6996 28.852 74.7317 28.852C73.7638 28.852 72.9792 29.6386 72.9792 30.6089C72.9792 31.5792 73.7638 32.3658 74.7317 32.3658C75.6996 32.3658 76.4843 31.5792 76.4843 30.6089Z" fill="#FAF9F5"/>
<path d="M76.4668 25C76.4668 24.0394 75.69 23.2607 74.7317 23.2607C73.7735 23.2607 72.9967 24.0394 72.9967 25C72.9967 25.9606 73.7735 26.7393 74.7317 26.7393C75.69 26.7393 76.4668 25.9606 76.4668 25Z" fill="#FAF9F5"/>
<path d="M76.4668 19.3911C76.4668 18.4305 75.69 17.6518 74.7317 17.6518C73.7735 17.6518 72.9967 18.4305 72.9967 19.3911C72.9967 20.3517 73.7735 21.1304 74.7317 21.1304C75.69 21.1304 76.4668 20.3517 76.4668 19.3911Z" fill="#FAF9F5"/>
<path d="M76.4843 13.7822C76.4843 12.8119 75.6996 12.0253 74.7317 12.0253C73.7638 12.0253 72.9792 12.8119 72.9792 13.7822C72.9792 14.7525 73.7638 15.5391 74.7317 15.5391C75.6996 15.5391 76.4843 14.7525 76.4843 13.7822Z" fill="#FAF9F5"/>
<path d="M76.4668 8.17328C76.4668 7.21268 75.69 6.43395 74.7317 6.43395C73.7735 6.43395 72.9967 7.21268 72.9967 8.17328C72.9967 9.13389 73.7735 9.91261 74.7317 9.91261C75.69 9.91261 76.4668 9.13389 76.4668 8.17328Z" fill="#FAF9F5"/>
<path d="M76.4843 2.56438C76.4843 1.59408 75.6996 0.807503 74.7317 0.807503C73.7638 0.807503 72.9792 1.59408 72.9792 2.56438C72.9792 3.53467 73.7638 4.32125 74.7317 4.32125C75.6996 4.32125 76.4843 3.53467 76.4843 2.56438Z" fill="#FAF9F5"/>
<path d="M82.1839 47.4356C82.1839 46.4075 81.3525 45.574 80.3269 45.574C79.3012 45.574 78.4698 46.4075 78.4698 47.4356C78.4698 48.4638 79.3012 49.2973 80.3269 49.2973C81.3525 49.2973 82.1839 48.4638 82.1839 47.4356Z" fill="#FAF9F5"/>
<path d="M82.1839 41.8267C82.1839 40.7986 81.3525 39.9651 80.3269 39.9651C79.3012 39.9651 78.4698 40.7986 78.4698 41.8267C78.4698 42.8549 79.3012 43.6884 80.3269 43.6884C81.3525 43.6884 82.1839 42.8549 82.1839 41.8267Z" fill="#FAF9F5"/>
<path d="M82.1839 36.2178C82.1839 35.1897 81.3525 34.3562 80.3269 34.3562C79.3012 34.3562 78.4698 35.1897 78.4698 36.2178C78.4698 37.246 79.3012 38.0794 80.3269 38.0794C81.3525 38.0794 82.1839 37.246 82.1839 36.2178Z" fill="#FAF9F5"/>
<path d="M82.1839 30.6089C82.1839 29.5808 81.3525 28.7473 80.3269 28.7473C79.3012 28.7473 78.4698 29.5808 78.4698 30.6089C78.4698 31.6371 79.3012 32.4705 80.3269 32.4705C81.3525 32.4705 82.1839 31.6371 82.1839 30.6089Z" fill="#FAF9F5"/>
<path d="M82.1839 25C82.1839 23.9718 81.3525 23.1384 80.3269 23.1384C79.3012 23.1384 78.4698 23.9718 78.4698 25C78.4698 26.0282 79.3012 26.8616 80.3269 26.8616C81.3525 26.8616 82.1839 26.0282 82.1839 25Z" fill="#FAF9F5"/>
<path d="M82.1839 19.3911C82.1839 18.3629 81.3525 17.5295 80.3269 17.5295C79.3012 17.5295 78.4698 18.3629 78.4698 19.3911C78.4698 20.4192 79.3012 21.2527 80.3269 21.2527C81.3525 21.2527 82.1839 20.4192 82.1839 19.3911Z" fill="#FAF9F5"/>
<path d="M82.1839 13.7822C82.1839 12.754 81.3525 11.9206 80.3269 11.9206C79.3012 11.9206 78.4698 12.754 78.4698 13.7822C78.4698 14.8103 79.3012 15.6438 80.3269 15.6438C81.3525 15.6438 82.1839 14.8103 82.1839 13.7822Z" fill="#FAF9F5"/>
<path d="M82.1839 8.17328C82.1839 7.14513 81.3525 6.31164 80.3269 6.31164C79.3012 6.31164 78.4698 7.14513 78.4698 8.17328C78.4698 9.20143 79.3012 10.0349 80.3269 10.0349C81.3525 10.0349 82.1839 9.20143 82.1839 8.17328Z" fill="#FAF9F5"/>
<path d="M82.1666 2.56438C82.1666 1.54583 81.3429 0.720139 80.3269 0.720139C79.3108 0.720139 78.4871 1.54583 78.4871 2.56438C78.4872 3.58292 79.3108 4.40861 80.3269 4.40861C81.3429 4.40861 82.1666 3.58292 82.1666 2.56438Z" fill="#FAF9F5"/>
<path d="M87.8828 47.4356C87.8828 46.3501 87.0049 45.47 85.922 45.47C84.8391 45.47 83.9612 46.3501 83.9612 47.4356C83.9612 48.5212 84.8391 49.4012 85.922 49.4012C87.0049 49.4012 87.8828 48.5212 87.8828 47.4356Z" fill="#FAF9F5"/>
<path d="M87.8655 41.8267C87.8655 40.7507 86.9954 39.8784 85.922 39.8784C84.8486 39.8784 83.9785 40.7507 83.9785 41.8267C83.9785 42.9027 84.8486 43.775 85.922 43.775C86.9954 43.775 87.8655 42.9027 87.8655 41.8267Z" fill="#FAF9F5"/>
<path d="M87.8828 36.2178C87.8828 35.1323 87.0049 34.2522 85.922 34.2522C84.8391 34.2522 83.9612 35.1323 83.9612 36.2178C83.9612 37.3034 84.8391 38.1834 85.922 38.1834C87.0049 38.1834 87.8828 37.3034 87.8828 36.2178Z" fill="#FAF9F5"/>
<path d="M87.8655 30.6089C87.8655 29.5329 86.9954 28.6606 85.922 28.6606C84.8486 28.6606 83.9785 29.5329 83.9785 30.6089C83.9785 31.6849 84.8486 32.5572 85.922 32.5572C86.9954 32.5572 87.8655 31.6849 87.8655 30.6089Z" fill="#FAF9F5"/>
<path d="M87.8828 25C87.8828 23.9144 87.0049 23.0344 85.922 23.0344C84.8391 23.0344 83.9612 23.9144 83.9612 25C83.9612 26.0856 84.8391 26.9656 85.922 26.9656C87.0049 26.9656 87.8828 26.0856 87.8828 25Z" fill="#FAF9F5"/>
<path d="M87.8655 19.3911C87.8655 18.3151 86.9954 17.4428 85.922 17.4428C84.8486 17.4428 83.9785 18.3151 83.9785 19.3911C83.9785 20.4671 84.8486 21.3394 85.922 21.3394C86.9954 21.3394 87.8655 20.4671 87.8655 19.3911Z" fill="#FAF9F5"/>
<path d="M87.8828 13.7822C87.8828 12.6966 87.0049 11.8166 85.922 11.8166C84.8391 11.8166 83.9612 12.6966 83.9612 13.7822C83.9612 14.8677 84.8391 15.7478 85.922 15.7478C87.0049 15.7478 87.8828 14.8677 87.8828 13.7822Z" fill="#FAF9F5"/>
<path d="M87.8828 8.17328C87.8828 7.08772 87.0049 6.2077 85.922 6.2077C84.8391 6.2077 83.9612 7.08772 83.9612 8.17328C83.9612 9.25884 84.8391 10.1389 85.922 10.1389C87.0049 10.1389 87.8828 9.25884 87.8828 8.17328Z" fill="#FAF9F5"/>
<path d="M87.8655 2.56437C87.8655 1.48835 86.9954 0.616058 85.922 0.616058C84.8486 0.616058 83.9785 1.48835 83.9785 2.56437C83.9785 3.6404 84.8486 4.51269 85.922 4.51269C86.9954 4.51269 87.8655 3.6404 87.8655 2.56437Z" fill="#FAF9F5"/>
<path d="M93.5808 47.4356C93.5808 46.2931 92.6569 45.3669 91.5172 45.3669C90.3774 45.3669 89.4535 46.2931 89.4535 47.4356C89.4535 48.5782 90.3774 49.5044 91.5172 49.5044C92.6569 49.5044 93.5808 48.5782 93.5808 47.4356Z" fill="#FAF9F5"/>
<path d="M93.5808 41.8267C93.5808 40.6842 92.6569 39.758 91.5172 39.758C90.3774 39.758 89.4535 40.6842 89.4535 41.8267C89.4535 42.9693 90.3774 43.8955 91.5172 43.8955C92.6569 43.8955 93.5808 42.9693 93.5808 41.8267Z" fill="#FAF9F5"/>
<path d="M93.5808 36.2178C93.5808 35.0753 92.6569 34.149 91.5172 34.149C90.3774 34.149 89.4535 35.0753 89.4535 36.2178C89.4535 37.3604 90.3774 38.2866 91.5172 38.2866C92.6569 38.2866 93.5808 37.3604 93.5808 36.2178Z" fill="#FAF9F5"/>
<path d="M93.5808 30.6089C93.5808 29.4664 92.6569 28.5401 91.5172 28.5401C90.3774 28.5401 89.4535 29.4664 89.4535 30.6089C89.4535 31.7515 90.3774 32.6777 91.5172 32.6777C92.6569 32.6777 93.5808 31.7515 93.5808 30.6089Z" fill="#FAF9F5"/>
<path d="M93.5808 25C93.5808 23.8575 92.6569 22.9312 91.5172 22.9312C90.3774 22.9312 89.4535 23.8575 89.4535 25C89.4535 26.1425 90.3774 27.0688 91.5172 27.0688C92.6569 27.0688 93.5808 26.1425 93.5808 25Z" fill="#FAF9F5"/>
<path d="M93.5808 19.3911C93.5808 18.2485 92.6569 17.3223 91.5172 17.3223C90.3774 17.3223 89.4535 18.2485 89.4535 19.3911C89.4535 20.5336 90.3774 21.4599 91.5172 21.4599C92.6569 21.4599 93.5808 20.5336 93.5808 19.3911Z" fill="#FAF9F5"/>
<path d="M93.5808 13.7822C93.5808 12.6396 92.6569 11.7134 91.5172 11.7134C90.3774 11.7134 89.4535 12.6396 89.4535 13.7822C89.4535 14.9247 90.3774 15.851 91.5172 15.851C92.6569 15.851 93.5808 14.9247 93.5808 13.7822Z" fill="#FAF9F5"/>
<path d="M93.5808 8.17328C93.5808 7.03073 92.6569 6.10451 91.5172 6.10451C90.3774 6.10451 89.4535 7.03073 89.4535 8.17328C89.4535 9.31583 90.3774 10.242 91.5172 10.242C92.6569 10.242 93.5808 9.31583 93.5808 8.17328Z" fill="#FAF9F5"/>
<path d="M93.5808 2.56437C93.5808 1.42182 92.6569 0.495605 91.5172 0.495605C90.3774 0.495605 89.4535 1.42183 89.4535 2.56437C89.4535 3.70692 90.3774 4.63314 91.5172 4.63314C92.6569 4.63314 93.5808 3.70692 93.5808 2.56437Z" fill="#FAF9F5"/>
<path d="M99.2782 47.4356C99.2782 46.2365 98.3085 45.2644 97.1123 45.2644C95.9161 45.2644 94.9464 46.2365 94.9464 47.4356C94.9464 48.6348 95.9161 49.6069 97.1123 49.6069C98.3085 49.6069 99.2782 48.6348 99.2782 47.4356Z" fill="#FAF9F5"/>
<path d="M99.2782 41.8267C99.2782 40.6276 98.3085 39.6555 97.1123 39.6555C95.9161 39.6555 94.9464 40.6276 94.9464 41.8267C94.9464 43.0259 95.9161 43.9979 97.1123 43.9979C98.3085 43.9979 99.2782 43.0259 99.2782 41.8267Z" fill="#FAF9F5"/>
<path d="M99.2782 36.2178C99.2782 35.0187 98.3085 34.0466 97.1123 34.0466C95.9161 34.0466 94.9464 35.0187 94.9464 36.2178C94.9464 37.417 95.9161 38.389 97.1123 38.389C98.3085 38.389 99.2782 37.417 99.2782 36.2178Z" fill="#FAF9F5"/>
<path d="M99.2782 30.6089C99.2782 29.4098 98.3085 28.4377 97.1123 28.4377C95.9161 28.4377 94.9464 29.4098 94.9464 30.6089C94.9464 31.808 95.9161 32.7801 97.1123 32.7801C98.3085 32.7801 99.2782 31.808 99.2782 30.6089Z" fill="#FAF9F5"/>
<path d="M99.2782 25C99.2782 23.8009 98.3085 22.8288 97.1123 22.8288C95.9161 22.8288 94.9464 23.8009 94.9464 25C94.9464 26.1991 95.9161 27.1712 97.1123 27.1712C98.3085 27.1712 99.2782 26.1991 99.2782 25Z" fill="#FAF9F5"/>
<path d="M99.2782 19.3911C99.2782 18.192 98.3085 17.2199 97.1123 17.2199C95.9161 17.2199 94.9464 18.192 94.9464 19.3911C94.9464 20.5902 95.9161 21.5623 97.1123 21.5623C98.3085 21.5623 99.2782 20.5902 99.2782 19.3911Z" fill="#FAF9F5"/>
<path d="M99.2782 13.7822C99.2782 12.583 98.3085 11.611 97.1123 11.611C95.9161 11.611 94.9464 12.583 94.9464 13.7822C94.9464 14.9813 95.9161 15.9534 97.1123 15.9534C98.3085 15.9534 99.2782 14.9813 99.2782 13.7822Z" fill="#FAF9F5"/>
<path d="M99.2782 8.17328C99.2782 6.97414 98.3085 6.00205 97.1123 6.00205C95.9161 6.00205 94.9464 6.97414 94.9464 8.17328C94.9464 9.37242 95.9161 10.3445 97.1123 10.3445C98.3085 10.3445 99.2782 9.37242 99.2782 8.17328Z" fill="#FAF9F5"/>
<path d="M99.2782 2.56438C99.2782 1.36524 98.3085 0.393142 97.1123 0.393142C95.9161 0.393142 94.9464 1.36524 94.9464 2.56438C94.9464 3.76351 95.9161 4.7356 97.1123 4.7356C98.3085 4.7356 99.2782 3.76351 99.2782 2.56438Z" fill="#FAF9F5"/>
<path d="M104.975 47.4356C104.975 46.1803 103.96 45.1626 102.707 45.1626C101.455 45.1626 100.44 46.1803 100.44 47.4356C100.44 48.691 101.455 49.7086 102.707 49.7086C103.96 49.7086 104.975 48.691 104.975 47.4356Z" fill="#FAF9F5"/>
<path d="M104.975 41.8267C104.975 40.5714 103.96 39.5537 102.707 39.5537C101.455 39.5537 100.44 40.5714 100.44 41.8267C100.44 43.0821 101.455 44.0997 102.707 44.0997C103.96 44.0997 104.975 43.0821 104.975 41.8267Z" fill="#FAF9F5"/>
<path d="M104.975 36.2178C104.975 34.9625 103.96 33.9448 102.707 33.9448C101.455 33.9448 100.44 34.9625 100.44 36.2178C100.44 37.4732 101.455 38.4908 102.707 38.4908C103.96 38.4908 104.975 37.4732 104.975 36.2178Z" fill="#FAF9F5"/>
<path d="M104.975 30.6089C104.975 29.3535 103.96 28.3359 102.707 28.3359C101.455 28.3359 100.44 29.3535 100.44 30.6089C100.44 31.8643 101.455 32.8819 102.707 32.8819C103.96 32.8819 104.975 31.8643 104.975 30.6089Z" fill="#FAF9F5"/>
<path d="M104.975 25C104.975 23.7446 103.96 22.727 102.707 22.727C101.455 22.727 100.44 23.7446 100.44 25C100.44 26.2554 101.455 27.273 102.707 27.273C103.96 27.273 104.975 26.2554 104.975 25Z" fill="#FAF9F5"/>
<path d="M104.975 19.3911C104.975 18.1357 103.96 17.1181 102.707 17.1181C101.455 17.1181 100.44 18.1357 100.44 19.3911C100.44 20.6464 101.455 21.6641 102.707 21.6641C103.96 21.6641 104.975 20.6464 104.975 19.3911Z" fill="#FAF9F5"/>
<path d="M104.975 13.7822C104.975 12.5268 103.96 11.5092 102.707 11.5092C101.455 11.5092 100.44 12.5268 100.44 13.7822C100.44 15.0375 101.455 16.0552 102.707 16.0552C103.96 16.0552 104.975 15.0375 104.975 13.7822Z" fill="#FAF9F5"/>
<path d="M104.975 8.17328C104.975 6.91793 103.96 5.90026 102.707 5.90026C101.455 5.90026 100.44 6.91793 100.44 8.17328C100.44 9.42864 101.455 10.4463 102.707 10.4463C103.96 10.4463 104.975 9.42864 104.975 8.17328Z" fill="#FAF9F5"/>
<path d="M104.975 2.56438C104.975 1.30902 103.96 0.29135 102.707 0.29135C101.455 0.291351 100.44 1.30902 100.44 2.56438C100.44 3.81973 101.455 4.8374 102.707 4.8374C103.96 4.8374 104.975 3.81973 104.975 2.56438Z" fill="#FAF9F5"/>
<path d="M110.671 47.4356C110.671 46.1244 109.611 45.0614 108.303 45.0614C106.995 45.0614 105.934 46.1244 105.934 47.4356C105.934 48.7468 106.995 49.8098 108.303 49.8098C109.611 49.8098 110.671 48.7468 110.671 47.4356Z" fill="#FAF9F5"/>
<path d="M110.671 41.8267C110.671 40.5155 109.611 39.4525 108.303 39.4525C106.995 39.4525 105.934 40.5155 105.934 41.8267C105.934 43.1379 106.995 44.2009 108.303 44.2009C109.611 44.2009 110.671 43.1379 110.671 41.8267Z" fill="#FAF9F5"/>
<path d="M110.688 36.2178C110.688 34.8973 109.62 33.8268 108.303 33.8268C106.985 33.8268 105.917 34.8973 105.917 36.2178C105.917 37.5383 106.985 38.6088 108.303 38.6088C109.62 38.6088 110.688 37.5383 110.688 36.2178Z" fill="#FAF9F5"/>
<path d="M110.671 30.6089C110.671 29.2977 109.611 28.2347 108.303 28.2347C106.995 28.2347 105.934 29.2977 105.934 30.6089C105.934 31.9201 106.995 32.9831 108.303 32.9831C109.611 32.9831 110.671 31.9201 110.671 30.6089Z" fill="#FAF9F5"/>
<path d="M110.671 25C110.671 23.6888 109.611 22.6258 108.303 22.6258C106.995 22.6258 105.934 23.6888 105.934 25C105.934 26.3112 106.995 27.3742 108.303 27.3742C109.611 27.3742 110.671 26.3112 110.671 25Z" fill="#FAF9F5"/>
<path d="M110.671 19.3911C110.671 18.0799 109.611 17.0169 108.303 17.0169C106.995 17.0169 105.934 18.0799 105.934 19.3911C105.934 20.7023 106.995 21.7653 108.303 21.7653C109.611 21.7653 110.671 20.7023 110.671 19.3911Z" fill="#FAF9F5"/>
<path d="M110.671 13.7822C110.671 12.471 109.611 11.408 108.303 11.408C106.995 11.408 105.934 12.471 105.934 13.7822C105.934 15.0934 106.995 16.1564 108.303 16.1564C109.611 16.1564 110.671 15.0934 110.671 13.7822Z" fill="#FAF9F5"/>
<path d="M110.671 8.17328C110.671 6.86205 109.611 5.79909 108.303 5.79909C106.995 5.79909 105.934 6.86205 105.934 8.17328C105.934 9.4845 106.995 10.5475 108.303 10.5475C109.611 10.5475 110.671 9.4845 110.671 8.17328Z" fill="#FAF9F5"/>
<path d="M110.671 2.56437C110.671 1.25315 109.611 0.190192 108.303 0.190192C106.995 0.190192 105.934 1.25315 105.934 2.56437C105.934 3.87559 106.995 4.93856 108.303 4.93856C109.611 4.93856 110.671 3.87559 110.671 2.56437Z" fill="#FAF9F5"/>
<path d="M116.366 47.4356C116.366 46.0689 115.261 44.9609 113.898 44.9609C112.534 44.9609 111.429 46.0689 111.429 47.4356C111.429 48.8024 112.534 49.9104 113.898 49.9104C115.261 49.9104 116.366 48.8024 116.366 47.4356Z" fill="#FAF9F5"/>
<path d="M116.366 41.8267C116.366 40.46 115.261 39.352 113.898 39.352C112.534 39.352 111.429 40.46 111.429 41.8267C111.429 43.1935 112.534 44.3015 113.898 44.3015C115.261 44.3015 116.366 43.1935 116.366 41.8267Z" fill="#FAF9F5"/>
<path d="M116.366 36.2178C116.366 34.851 115.261 33.7431 113.898 33.7431C112.534 33.7431 111.429 34.8511 111.429 36.2178C111.429 37.5846 112.534 38.6926 113.898 38.6926C115.261 38.6926 116.366 37.5846 116.366 36.2178Z" fill="#FAF9F5"/>
<path d="M116.366 30.6089C116.366 29.2421 115.261 28.1342 113.898 28.1342C112.534 28.1342 111.429 29.2421 111.429 30.6089C111.429 31.9757 112.534 33.0836 113.898 33.0836C115.261 33.0836 116.366 31.9757 116.366 30.6089Z" fill="#FAF9F5"/>
<path d="M116.366 25C116.366 23.6332 115.261 22.5253 113.898 22.5253C112.534 22.5253 111.429 23.6332 111.429 25C111.429 26.3668 112.534 27.4747 113.898 27.4747C115.261 27.4747 116.366 26.3668 116.366 25Z" fill="#FAF9F5"/>
<path d="M116.383 19.3911C116.383 18.0151 115.27 16.8996 113.898 16.8996C112.525 16.8996 111.412 18.0151 111.412 19.3911C111.412 20.7671 112.525 21.8825 113.898 21.8825C115.27 21.8825 116.383 20.7671 116.383 19.3911Z" fill="#FAF9F5"/>
<path d="M116.366 13.7822C116.366 12.4154 115.261 11.3074 113.898 11.3074C112.534 11.3074 111.429 12.4154 111.429 13.7822C111.429 15.1489 112.534 16.2569 113.898 16.2569C115.261 16.2569 116.366 15.1489 116.366 13.7822Z" fill="#FAF9F5"/>
<path d="M116.366 8.17328C116.366 6.80652 115.261 5.69853 113.898 5.69853C112.534 5.69853 111.429 6.80652 111.429 8.17328C111.429 9.54004 112.534 10.648 113.898 10.648C115.261 10.648 116.366 9.54004 116.366 8.17328Z" fill="#FAF9F5"/>
<path d="M116.366 2.56437C116.366 1.19761 115.261 0.0896287 113.898 0.0896288C112.534 0.0896288 111.429 1.19761 111.429 2.56437C111.429 3.93113 112.534 5.03911 113.898 5.03911C115.261 5.03911 116.366 3.93113 116.366 2.56437Z" fill="#FAF9F5"/>
<path d="M122.061 47.4356C122.061 46.0136 120.911 44.8609 119.493 44.8609C118.074 44.8609 116.924 46.0136 116.924 47.4356C116.924 48.8576 118.074 50.0104 119.493 50.0104C120.911 50.0104 122.061 48.8576 122.061 47.4356Z" fill="#FAF9F5"/>
<path d="M122.061 41.8267C122.061 40.4047 120.911 39.252 119.493 39.252C118.074 39.252 116.924 40.4047 116.924 41.8267C116.924 43.2487 118.074 44.4014 119.493 44.4014C120.911 44.4014 122.061 43.2487 122.061 41.8267Z" fill="#FAF9F5"/>
<path d="M122.061 36.2178C122.061 34.7958 120.911 33.6431 119.493 33.6431C118.074 33.6431 116.924 34.7958 116.924 36.2178C116.924 37.6398 118.074 38.7925 119.493 38.7925C120.911 38.7925 122.061 37.6398 122.061 36.2178Z" fill="#FAF9F5"/>
<path d="M122.061 30.6089C122.061 29.1869 120.911 28.0342 119.493 28.0342C118.074 28.0342 116.924 29.1869 116.924 30.6089C116.924 32.0309 118.074 33.1836 119.493 33.1836C120.911 33.1836 122.061 32.0309 122.061 30.6089Z" fill="#FAF9F5"/>
<path d="M122.061 25C122.061 23.578 120.911 22.4253 119.493 22.4253C118.074 22.4253 116.924 23.578 116.924 25C116.924 26.422 118.074 27.5747 119.493 27.5747C120.911 27.5747 122.061 26.422 122.061 25Z" fill="#FAF9F5"/>
<path d="M122.061 19.3911C122.061 17.9691 120.911 16.8164 119.493 16.8164C118.074 16.8164 116.924 17.9691 116.924 19.3911C116.924 20.8131 118.074 21.9658 119.493 21.9658C120.911 21.9658 122.061 20.8131 122.061 19.3911Z" fill="#FAF9F5"/>
<path d="M122.061 13.7822C122.061 12.3602 120.911 11.2075 119.493 11.2075C118.074 11.2075 116.924 12.3602 116.924 13.7822C116.924 15.2042 118.074 16.3569 119.493 16.3569C120.911 16.3569 122.061 15.2042 122.061 13.7822Z" fill="#FAF9F5"/>
<path d="M122.078 8.17328C122.078 6.74212 120.921 5.58193 119.493 5.58193C118.065 5.58193 116.908 6.74212 116.908 8.17328C116.908 9.60444 118.065 10.7646 119.493 10.7646C120.921 10.7646 122.078 9.60444 122.078 8.17328Z" fill="#FAF9F5"/>
<path d="M122.061 2.56437C122.061 1.14239 120.911 -0.0103585 119.493 -0.0103585C118.074 -0.0103584 116.924 1.14239 116.924 2.56437C116.924 3.98635 118.074 5.1391 119.493 5.1391C120.911 5.1391 122.061 3.98635 122.061 2.56437Z" fill="#FAF9F5"/>
<path d="M127.756 47.4356C127.756 45.9587 126.561 44.7614 125.088 44.7614C123.615 44.7614 122.42 45.9587 122.42 47.4356C122.42 48.9125 123.615 50.1098 125.088 50.1098C126.561 50.1098 127.756 48.9125 127.756 47.4356Z" fill="#FAF9F5"/>
<path d="M127.756 41.8267C127.756 40.3498 126.561 39.1525 125.088 39.1525C123.615 39.1525 122.42 40.3498 122.42 41.8267C122.42 43.3036 123.615 44.5009 125.088 44.5009C126.561 44.5009 127.756 43.3036 127.756 41.8267Z" fill="#FAF9F5"/>
<path d="M127.756 36.2178C127.756 34.7409 126.561 33.5436 125.088 33.5436C123.615 33.5436 122.42 34.7409 122.42 36.2178C122.42 37.6947 123.615 38.892 125.088 38.892C126.561 38.892 127.756 37.6947 127.756 36.2178Z" fill="#FAF9F5"/>
<path d="M127.756 30.6089C127.756 29.132 126.561 27.9347 125.088 27.9347C123.615 27.9347 122.42 29.132 122.42 30.6089C122.42 32.0858 123.615 33.2831 125.088 33.2831C126.561 33.2831 127.756 32.0858 127.756 30.6089Z" fill="#FAF9F5"/>
<path d="M127.772 25C127.772 23.514 126.57 22.3093 125.088 22.3093C123.606 22.3093 122.404 23.514 122.404 25C122.404 26.486 123.606 27.6907 125.088 27.6907C126.57 27.6907 127.772 26.486 127.772 25Z" fill="#FAF9F5"/>
<path d="M127.756 19.3911C127.756 17.9142 126.561 16.7169 125.088 16.7169C123.615 16.7169 122.42 17.9142 122.42 19.3911C122.42 20.868 123.615 22.0653 125.088 22.0653C126.561 22.0653 127.756 20.868 127.756 19.3911Z" fill="#FAF9F5"/>
<path d="M127.756 13.7822C127.756 12.3053 126.561 11.108 125.088 11.108C123.615 11.108 122.42 12.3053 122.42 13.7822C122.42 15.2591 123.615 16.4564 125.088 16.4564C126.561 16.4564 127.756 15.2591 127.756 13.7822Z" fill="#FAF9F5"/>
<path d="M127.756 8.17328C127.756 6.69637 126.561 5.4991 125.088 5.4991C123.615 5.4991 122.42 6.69637 122.42 8.17328C122.42 9.65019 123.615 10.8475 125.088 10.8475C126.561 10.8475 127.756 9.65019 127.756 8.17328Z" fill="#FAF9F5"/>
<path d="M127.772 2.56437C127.772 1.07834 126.57 -0.126333 125.088 -0.126333C123.606 -0.126333 122.404 1.07834 122.404 2.56437C122.404 4.05041 123.606 5.25508 125.088 5.25508C126.57 5.25508 127.772 4.05041 127.772 2.56437Z" fill="#FAF9F5"/>
<path d="M133.466 47.4356C133.466 45.895 132.22 44.6461 130.683 44.6461C129.146 44.6461 127.9 45.895 127.9 47.4356C127.9 48.9763 129.146 50.2252 130.683 50.2252C132.22 50.2252 133.466 48.9763 133.466 47.4356Z" fill="#FAF9F5"/>
<path d="M133.466 41.8267C133.466 40.2861 132.22 39.0372 130.683 39.0372C129.146 39.0372 127.9 40.2861 127.9 41.8267C127.9 43.3673 129.146 44.6163 130.683 44.6163C132.22 44.6163 133.466 43.3673 133.466 41.8267Z" fill="#FAF9F5"/>
<path d="M133.466 36.2178C133.466 34.6772 132.22 33.4283 130.683 33.4283C129.146 33.4283 127.9 34.6772 127.9 36.2178C127.9 37.7584 129.146 39.0074 130.683 39.0074C132.22 39.0074 133.466 37.7584 133.466 36.2178Z" fill="#FAF9F5"/>
<path d="M133.466 30.6089C133.466 29.0683 132.22 27.8193 130.683 27.8193C129.146 27.8193 127.9 29.0683 127.9 30.6089C127.9 32.1495 129.146 33.3985 130.683 33.3985C132.22 33.3985 133.466 32.1495 133.466 30.6089Z" fill="#FAF9F5"/>
<path d="M133.45 25C133.45 23.4684 132.211 22.2269 130.683 22.2269C129.155 22.2269 127.917 23.4684 127.917 25C127.917 26.5315 129.155 27.7731 130.683 27.7731C132.211 27.7731 133.45 26.5315 133.45 25Z" fill="#FAF9F5"/>
<path d="M133.466 19.3911C133.466 17.8505 132.22 16.6015 130.683 16.6015C129.146 16.6015 127.9 17.8505 127.9 19.3911C127.9 20.9317 129.146 22.1806 130.683 22.1806C132.22 22.1806 133.466 20.9317 133.466 19.3911Z" fill="#FAF9F5"/>
<path d="M133.45 13.7822C133.45 12.2506 132.211 11.0091 130.683 11.0091C129.155 11.0091 127.917 12.2506 127.917 13.7822C127.917 15.3137 129.155 16.5553 130.683 16.5553C132.211 16.5553 133.45 15.3137 133.45 13.7822Z" fill="#FAF9F5"/>
<path d="M133.466 8.17328C133.466 6.63265 132.22 5.38373 130.683 5.38373C129.146 5.38373 127.9 6.63265 127.9 8.17328C127.9 9.7139 129.146 10.9628 130.683 10.9628C132.22 10.9628 133.466 9.7139 133.466 8.17328Z" fill="#FAF9F5"/>
<path d="M133.45 2.56437C133.45 1.03283 132.211 -0.208739 130.683 -0.208738C129.155 -0.208738 127.917 1.03283 127.917 2.56437C127.917 4.09592 129.155 5.33749 130.683 5.33749C132.211 5.33749 133.45 4.09592 133.45 2.56437Z" fill="#FAF9F5"/>
<path d="M139.159 47.4356C139.159 45.8407 137.869 44.5477 136.278 44.5477C134.687 44.5477 133.398 45.8407 133.398 47.4356C133.398 49.0306 134.687 50.3235 136.278 50.3235C137.869 50.3235 139.159 49.0306 139.159 47.4356Z" fill="#FAF9F5"/>
<path d="M139.143 41.8267C139.143 40.2408 137.86 38.9552 136.278 38.9552C134.696 38.9552 133.414 40.2408 133.414 41.8267C133.414 43.4126 134.696 44.6983 136.278 44.6983C137.86 44.6983 139.143 43.4126 139.143 41.8267Z" fill="#FAF9F5"/>
<path d="M139.159 36.2178C139.159 34.6229 137.869 33.3299 136.278 33.3299C134.687 33.3299 133.398 34.6229 133.398 36.2178C133.398 37.8128 134.687 39.1057 136.278 39.1057C137.869 39.1057 139.159 37.8128 139.159 36.2178Z" fill="#FAF9F5"/>
<path d="M139.143 30.6089C139.143 29.023 137.86 27.7373 136.278 27.7373C134.696 27.7373 133.414 29.023 133.414 30.6089C133.414 32.1948 134.696 33.4805 136.278 33.4805C137.86 33.4805 139.143 32.1948 139.143 30.6089Z" fill="#FAF9F5"/>
<path d="M139.159 25C139.159 23.405 137.869 22.1121 136.278 22.1121C134.687 22.1121 133.398 23.405 133.398 25C133.398 26.5949 134.687 27.8879 136.278 27.8879C137.869 27.8879 139.159 26.5949 139.159 25Z" fill="#FAF9F5"/>
<path d="M139.159 19.3911C139.159 17.7961 137.869 16.5032 136.278 16.5032C134.687 16.5032 133.398 17.7961 133.398 19.3911C133.398 20.986 134.687 22.279 136.278 22.279C137.869 22.279 139.159 20.986 139.159 19.3911Z" fill="#FAF9F5"/>
<path d="M139.159 13.7822C139.159 12.1872 137.869 10.8943 136.278 10.8943C134.687 10.8943 133.398 12.1872 133.398 13.7822C133.398 15.3771 134.687 16.6701 136.278 16.6701C137.869 16.6701 139.159 15.3771 139.159 13.7822Z" fill="#FAF9F5"/>
<path d="M139.143 8.17328C139.143 6.58736 137.86 5.30172 136.278 5.30172C134.696 5.30173 133.414 6.58736 133.414 8.17328C133.414 9.75919 134.696 11.0448 136.278 11.0448C137.86 11.0448 139.143 9.75919 139.143 8.17328Z" fill="#FAF9F5"/>
<path d="M139.159 2.56437C139.159 0.969419 137.869 -0.323542 136.278 -0.323542C134.687 -0.323542 133.398 0.969419 133.398 2.56437C133.398 4.15932 134.687 5.45228 136.278 5.45228C137.869 5.45228 139.159 4.15932 139.159 2.56437Z" fill="#FAF9F5"/>
<path d="M144.836 47.4356C144.836 45.7956 143.509 44.4661 141.873 44.4661C140.237 44.4661 138.911 45.7956 138.911 47.4356C138.911 49.0756 140.237 50.4051 141.873 50.4051C143.509 50.4051 144.836 49.0756 144.836 47.4356Z" fill="#FAF9F5"/>
<path d="M144.852 41.8267C144.852 40.1777 143.518 38.8409 141.873 38.8409C140.229 38.8409 138.895 40.1777 138.895 41.8267C138.895 43.4757 140.229 44.8125 141.873 44.8125C143.518 44.8125 144.852 43.4757 144.852 41.8267Z" fill="#FAF9F5"/>
<path d="M144.836 36.2178C144.836 34.5778 143.509 33.2483 141.873 33.2483C140.237 33.2483 138.911 34.5778 138.911 36.2178C138.911 37.8578 140.237 39.1873 141.873 39.1873C143.509 39.1873 144.836 37.8578 144.836 36.2178Z" fill="#FAF9F5"/>
<path d="M144.852 30.6089C144.852 28.9599 143.518 27.6231 141.873 27.6231C140.229 27.6231 138.895 28.9599 138.895 30.6089C138.895 32.2579 140.229 33.5947 141.873 33.5947C143.518 33.5947 144.852 32.2579 144.852 30.6089Z" fill="#FAF9F5"/>
<path d="M144.852 25C144.852 23.351 143.518 22.0142 141.873 22.0142C140.229 22.0142 138.895 23.351 138.895 25C138.895 26.649 140.229 27.9858 141.873 27.9858C143.518 27.9858 144.852 26.649 144.852 25Z" fill="#FAF9F5"/>
<path d="M144.836 19.3911C144.836 17.7511 143.509 16.4216 141.873 16.4216C140.237 16.4216 138.911 17.7511 138.911 19.3911C138.911 21.0311 140.237 22.3606 141.873 22.3606C143.509 22.3606 144.836 21.0311 144.836 19.3911Z" fill="#FAF9F5"/>
<path d="M144.836 13.7822C144.836 12.1422 143.509 10.8127 141.873 10.8127C140.237 10.8127 138.911 12.1422 138.911 13.7822C138.911 15.4222 140.237 16.7517 141.873 16.7517C143.509 16.7517 144.836 15.4222 144.836 13.7822Z" fill="#FAF9F5"/>
<path d="M144.836 8.17328C144.836 6.53325 143.509 5.20375 141.873 5.20375C140.237 5.20375 138.911 6.53325 138.911 8.17328C138.911 9.8133 140.237 11.1428 141.873 11.1428C143.509 11.1428 144.836 9.8133 144.836 8.17328Z" fill="#FAF9F5"/>
<path d="M144.852 2.56437C144.852 0.915357 143.518 -0.421439 141.873 -0.421439C140.229 -0.421439 138.895 0.915357 138.895 2.56437C138.895 4.21339 140.229 5.55018 141.873 5.55018C143.518 5.55018 144.852 4.21339 144.852 2.56437Z" fill="#FAF9F5"/>
<path d="M150.528 47.4356C150.528 45.7417 149.158 44.3686 147.469 44.3686C145.779 44.3686 144.409 45.7417 144.409 47.4356C144.409 49.1295 145.779 50.5027 147.469 50.5027C149.158 50.5027 150.528 49.1295 150.528 47.4356Z" fill="#FAF9F5"/>
<path d="M150.544 41.8267C150.544 40.1239 149.167 38.7435 147.469 38.7435C145.77 38.7435 144.393 40.1239 144.393 41.8267C144.393 43.5296 145.77 44.91 147.469 44.91C149.167 44.91 150.544 43.5296 150.544 41.8267Z" fill="#FAF9F5"/>
<path d="M150.528 36.2178C150.528 34.5239 149.158 33.1508 147.469 33.1508C145.779 33.1508 144.409 34.5239 144.409 36.2178C144.409 37.9117 145.779 39.2849 147.469 39.2849C149.158 39.2849 150.528 37.9117 150.528 36.2178Z" fill="#FAF9F5"/>
<path d="M150.528 30.6089C150.528 28.915 149.158 27.5419 147.469 27.5419C145.779 27.5419 144.409 28.915 144.409 30.6089C144.409 32.3028 145.779 33.676 147.469 33.676C149.158 33.676 150.528 32.3028 150.528 30.6089Z" fill="#FAF9F5"/>
<path d="M150.544 25C150.544 23.2972 149.167 21.9167 147.469 21.9167C145.77 21.9167 144.393 23.2972 144.393 25C144.393 26.7028 145.77 28.0833 147.469 28.0833C149.167 28.0833 150.544 26.7028 150.544 25Z" fill="#FAF9F5"/>
<path d="M150.544 19.3911C150.544 17.6883 149.167 16.3078 147.469 16.3078C145.77 16.3078 144.393 17.6883 144.393 19.3911C144.393 21.0939 145.77 22.4743 147.469 22.4743C149.167 22.4743 150.544 21.0939 150.544 19.3911Z" fill="#FAF9F5"/>
<path d="M150.544 13.7822C150.544 12.0793 149.167 10.6989 147.469 10.6989C145.77 10.6989 144.393 12.0793 144.393 13.7822C144.393 15.485 145.77 16.8654 147.469 16.8654C149.167 16.8654 150.544 15.485 150.544 13.7822Z" fill="#FAF9F5"/>
<path d="M150.528 8.17328C150.528 6.47939 149.158 5.10623 147.469 5.10623C145.779 5.10623 144.409 6.47939 144.409 8.17328C144.409 9.86716 145.779 11.2403 147.469 11.2403C149.158 11.2403 150.528 9.86716 150.528 8.17328Z" fill="#FAF9F5"/>
<path d="M150.544 2.56437C150.544 0.861535 149.167 -0.518886 147.469 -0.518886C145.77 -0.518885 144.393 0.861535 144.393 2.56437C144.393 4.26721 145.77 5.64763 147.469 5.64763C149.167 5.64763 150.544 4.26721 150.544 2.56437Z" fill="#FAF9F5"/>
<path d="M156.236 47.4356C156.236 45.6792 154.816 44.2553 153.064 44.2553C151.312 44.2553 149.891 45.6792 149.891 47.4356C149.891 49.192 151.312 50.6159 153.064 50.6159C154.816 50.6159 156.236 49.192 156.236 47.4356Z" fill="#FAF9F5"/>
<path d="M156.236 41.8267C156.236 40.0703 154.816 38.6464 153.064 38.6464C151.312 38.6464 149.891 40.0703 149.891 41.8267C149.891 43.5831 151.312 45.007 153.064 45.007C154.816 45.007 156.236 43.5831 156.236 41.8267Z" fill="#FAF9F5"/>
<path d="M156.22 36.2178C156.22 34.4703 154.807 33.0537 153.064 33.0537C151.321 33.0537 149.907 34.4703 149.907 36.2178C149.907 37.9653 151.321 39.3819 153.064 39.3819C154.807 39.3819 156.22 37.9653 156.22 36.2178Z" fill="#FAF9F5"/>
<path d="M156.236 30.6089C156.236 28.8525 154.816 27.4286 153.064 27.4286C151.312 27.4286 149.891 28.8525 149.891 30.6089C149.891 32.3653 151.312 33.7892 153.064 33.7892C154.816 33.7892 156.236 32.3653 156.236 30.6089Z" fill="#FAF9F5"/>
<path d="M156.236 25C156.236 23.2436 154.816 21.8197 153.064 21.8197C151.312 21.8197 149.891 23.2436 149.891 25C149.891 26.7564 151.312 28.1803 153.064 28.1803C154.816 28.1803 156.236 26.7564 156.236 25Z" fill="#FAF9F5"/>
<path d="M156.236 19.3911C156.236 17.6347 154.816 16.2108 153.064 16.2108C151.312 16.2108 149.891 17.6347 149.891 19.3911C149.891 21.1475 151.312 22.5714 153.064 22.5714C154.816 22.5714 156.236 21.1475 156.236 19.3911Z" fill="#FAF9F5"/>
<path d="M156.22 13.7822C156.22 12.0347 154.807 10.6181 153.064 10.6181C151.321 10.6181 149.907 12.0347 149.907 13.7822C149.907 15.5297 151.321 16.9463 153.064 16.9463C154.807 16.9463 156.22 15.5297 156.22 13.7822Z" fill="#FAF9F5"/>
<path d="M156.22 8.17328C156.22 6.42578 154.807 5.00915 153.064 5.00915C151.321 5.00915 149.907 6.42578 149.907 8.17328C149.907 9.92078 151.321 11.3374 153.064 11.3374C154.807 11.3374 156.22 9.92078 156.22 8.17328Z" fill="#FAF9F5"/>
<path d="M156.236 2.56437C156.236 0.807954 154.816 -0.615901 153.064 -0.615901C151.312 -0.615901 149.891 0.807954 149.891 2.56437C149.891 4.32079 151.312 5.74465 153.064 5.74465C154.816 5.74465 156.236 4.32079 156.236 2.56437Z" fill="#FAF9F5"/>
<path d="M161.928 47.4356C161.928 45.6259 160.464 44.1587 158.659 44.1587C156.854 44.1587 155.39 45.6259 155.39 47.4356C155.39 49.2454 156.854 50.7125 158.659 50.7125C160.464 50.7125 161.928 49.2454 161.928 47.4356Z" fill="#FAF9F5"/>
<path d="M161.928 41.8267C161.928 40.0169 160.464 38.5498 158.659 38.5498C156.854 38.5498 155.39 40.0169 155.39 41.8267C155.39 43.6365 156.854 45.1036 158.659 45.1036C160.464 45.1036 161.928 43.6365 161.928 41.8267Z" fill="#FAF9F5"/>
<path d="M161.928 36.2178C161.928 34.408 160.464 32.9409 158.659 32.9409C156.854 32.9409 155.39 34.408 155.39 36.2178C155.39 38.0276 156.854 39.4947 158.659 39.4947C160.464 39.4947 161.928 38.0276 161.928 36.2178Z" fill="#FAF9F5"/>
<path d="M161.928 30.6089C161.928 28.7991 160.464 27.332 158.659 27.332C156.854 27.332 155.39 28.7991 155.39 30.6089C155.39 32.4187 156.854 33.8858 158.659 33.8858C160.464 33.8858 161.928 32.4187 161.928 30.6089Z" fill="#FAF9F5"/>
<path d="M161.928 25C161.928 23.1902 160.464 21.7231 158.659 21.7231C156.854 21.7231 155.39 23.1902 155.39 25C155.39 26.8098 156.854 28.2769 158.659 28.2769C160.464 28.2769 161.928 26.8098 161.928 25Z" fill="#FAF9F5"/>
<path d="M161.912 19.3911C161.912 17.5902 160.455 16.1303 158.659 16.1303C156.862 16.1303 155.406 17.5902 155.406 19.3911C155.406 21.192 156.862 22.6519 158.659 22.6519C160.455 22.6519 161.912 21.192 161.912 19.3911Z" fill="#FAF9F5"/>
<path d="M161.928 13.7822C161.928 11.9724 160.464 10.5053 158.659 10.5053C156.854 10.5053 155.39 11.9724 155.39 13.7822C155.39 15.592 156.854 17.0591 158.659 17.0591C160.464 17.0591 161.928 15.592 161.928 13.7822Z" fill="#FAF9F5"/>
<path d="M161.928 8.17328C161.928 6.3635 160.464 4.8964 158.659 4.8964C156.854 4.8964 155.39 6.3635 155.39 8.17328C155.39 9.98305 156.854 11.4502 158.659 11.4502C160.464 11.4502 161.928 9.98305 161.928 8.17328Z" fill="#FAF9F5"/>
<path d="M161.928 2.56437C161.928 0.754601 160.464 -0.712513 158.659 -0.712512C156.854 -0.712512 155.39 0.754601 155.39 2.56437C155.39 4.37414 156.854 5.84125 158.659 5.84125C160.464 5.84125 161.928 4.37414 161.928 2.56437Z" fill="#FAF9F5"/>
<path d="M167.619 47.4356C167.619 45.5727 166.112 44.0625 164.254 44.0625C162.396 44.0625 160.889 45.5727 160.889 47.4356C160.889 49.2985 162.396 50.8087 164.254 50.8087C166.112 50.8087 167.619 49.2985 167.619 47.4356Z" fill="#FAF9F5"/>
<path d="M167.619 41.8267C167.619 39.9638 166.112 38.4536 164.254 38.4536C162.396 38.4536 160.889 39.9638 160.889 41.8267C160.889 43.6896 162.396 45.1998 164.254 45.1998C166.112 45.1998 167.619 43.6896 167.619 41.8267Z" fill="#FAF9F5"/>
<path d="M167.619 36.2178C167.619 34.3549 166.112 32.8447 164.254 32.8447C162.396 32.8447 160.889 34.3549 160.889 36.2178C160.889 38.0807 162.396 39.5909 164.254 39.5909C166.112 39.5909 167.619 38.0807 167.619 36.2178Z" fill="#FAF9F5"/>
<path d="M167.619 30.6089C167.619 28.746 166.112 27.2358 164.254 27.2358C162.396 27.2358 160.889 28.746 160.889 30.6089C160.889 32.4718 162.396 33.982 164.254 33.982C166.112 33.982 167.619 32.4718 167.619 30.6089Z" fill="#FAF9F5"/>
<path d="M167.619 25C167.619 23.1371 166.112 21.6269 164.254 21.6269C162.396 21.6269 160.889 23.1371 160.889 25C160.889 26.8629 162.396 28.3731 164.254 28.3731C166.112 28.3731 167.619 26.8629 167.619 25Z" fill="#FAF9F5"/>
<path d="M167.603 19.3911C167.603 17.537 166.104 16.034 164.254 16.034C162.405 16.034 160.905 17.537 160.905 19.3911C160.905 21.2452 162.405 22.7482 164.254 22.7482C166.104 22.7482 167.603 21.2452 167.603 19.3911Z" fill="#FAF9F5"/>
<path d="M167.603 13.7822C167.603 11.9281 166.104 10.4251 164.254 10.4251C162.405 10.4251 160.905 11.9281 160.905 13.7822C160.905 15.6363 162.405 17.1393 164.254 17.1393C166.104 17.1393 167.603 15.6363 167.603 13.7822Z" fill="#FAF9F5"/>
<path d="M167.619 8.17328C167.619 6.31037 166.112 4.80019 164.254 4.80019C162.396 4.80019 160.889 6.31037 160.889 8.17328C160.889 10.0362 162.396 11.5464 164.254 11.5464C166.112 11.5464 167.619 10.0362 167.619 8.17328Z" fill="#FAF9F5"/>
<path d="M167.619 2.56437C167.619 0.701466 166.112 -0.808712 164.254 -0.808712C162.396 -0.808712 160.889 0.701466 160.889 2.56437C160.889 4.42728 162.396 5.93746 164.254 5.93746C166.112 5.93746 167.619 4.42728 167.619 2.56437Z" fill="#FAF9F5"/>
<path d="M173.294 47.4356C173.294 45.5286 171.752 43.9827 169.849 43.9827C167.947 43.9827 166.405 45.5286 166.405 47.4356C166.405 49.3426 167.947 50.8886 169.849 50.8886C171.752 50.8886 173.294 49.3426 173.294 47.4356Z" fill="#FAF9F5"/>
<path d="M173.31 41.8267C173.31 39.9109 171.76 38.3578 169.849 38.3578C167.938 38.3578 166.389 39.9109 166.389 41.8267C166.389 43.7425 167.938 45.2956 169.849 45.2956C171.76 45.2956 173.31 43.7425 173.31 41.8267Z" fill="#FAF9F5"/>
<path d="M173.31 36.2178C173.31 34.302 171.76 32.7489 169.849 32.7489C167.938 32.7489 166.389 34.302 166.389 36.2178C166.389 38.1336 167.938 39.6867 169.849 39.6867C171.76 39.6867 173.31 38.1336 173.31 36.2178Z" fill="#FAF9F5"/>
<path d="M173.31 30.6089C173.31 28.6931 171.76 27.14 169.849 27.14C167.938 27.14 166.389 28.6931 166.389 30.6089C166.389 32.5247 167.938 34.0778 169.849 34.0778C171.76 34.0778 173.31 32.5247 173.31 30.6089Z" fill="#FAF9F5"/>
<path d="M173.31 25C173.31 23.0842 171.76 21.5311 169.849 21.5311C167.938 21.5311 166.389 23.0842 166.389 25C166.389 26.9158 167.938 28.4689 169.849 28.4689C171.76 28.4689 173.31 26.9158 173.31 25Z" fill="#FAF9F5"/>
<path d="M173.294 19.3911C173.294 17.4841 171.752 15.9381 169.849 15.9381C167.947 15.9381 166.405 17.4841 166.405 19.3911C166.405 21.2981 167.947 22.8441 169.849 22.8441C171.752 22.8441 173.294 21.2981 173.294 19.3911Z" fill="#FAF9F5"/>
<path d="M173.31 13.7822C173.31 11.8664 171.76 10.3133 169.849 10.3133C167.938 10.3133 166.389 11.8664 166.389 13.7822C166.389 15.698 167.938 17.2511 169.849 17.2511C171.76 17.2511 173.31 15.698 173.31 13.7822Z" fill="#FAF9F5"/>
<path d="M173.294 8.17327C173.294 6.26625 171.752 4.7203 169.849 4.7203C167.947 4.7203 166.405 6.26625 166.405 8.17328C166.405 10.0803 167.947 11.6262 169.849 11.6262C171.752 11.6262 173.294 10.0803 173.294 8.17327Z" fill="#FAF9F5"/>
<path d="M173.31 2.56437C173.31 0.64854 171.76 -0.904549 169.849 -0.904549C167.938 -0.904549 166.389 0.648541 166.389 2.56437C166.389 4.4802 167.938 6.03328 169.849 6.03328C171.76 6.03328 173.31 4.4802 173.31 2.56437Z" fill="#FAF9F5"/>
<path d="M179 47.4356C179 45.4671 177.408 43.8712 175.444 43.8712C173.481 43.8713 171.889 45.4671 171.889 47.4356C171.889 49.4042 173.481 51 175.444 51C177.408 51 179 49.4042 179 47.4356Z" fill="#FAF9F5"/>
<path d="M179 41.8267C179 39.8582 177.408 38.2623 175.444 38.2623C173.481 38.2623 171.889 39.8582 171.889 41.8267C171.889 43.7953 173.481 45.3911 175.444 45.3911C177.408 45.3911 179 43.7953 179 41.8267Z" fill="#FAF9F5"/>
<path d="M179 36.2178C179 34.2493 177.408 32.6534 175.444 32.6534C173.481 32.6534 171.889 34.2493 171.889 36.2178C171.889 38.1864 173.481 39.7822 175.444 39.7822C177.408 39.7822 179 38.1864 179 36.2178Z" fill="#FAF9F5"/>
<path d="M179 30.6089C179 28.6404 177.408 27.0445 175.444 27.0445C173.481 27.0445 171.889 28.6404 171.889 30.6089C171.889 32.5774 173.481 34.1733 175.444 34.1733C177.408 34.1733 179 32.5774 179 30.6089Z" fill="#FAF9F5"/>
<path d="M179 25C179 23.0314 177.408 21.4356 175.444 21.4356C173.481 21.4356 171.889 23.0314 171.889 25C171.889 26.9685 173.481 28.5644 175.444 28.5644C177.408 28.5644 179 26.9685 179 25Z" fill="#FAF9F5"/>
<path d="M179 19.3911C179 17.4225 177.408 15.8267 175.444 15.8267C173.481 15.8267 171.889 17.4225 171.889 19.3911C171.889 21.3596 173.481 22.9555 175.444 22.9555C177.408 22.9555 179 21.3596 179 19.3911Z" fill="#FAF9F5"/>
<path d="M179 13.7822C179 11.8136 177.408 10.2178 175.444 10.2178C173.481 10.2178 171.889 11.8136 171.889 13.7822C171.889 15.7507 173.481 17.3466 175.444 17.3466C177.408 17.3466 179 15.7507 179 13.7822Z" fill="#FAF9F5"/>
<path d="M178.984 8.17327C178.984 6.2135 177.399 4.62479 175.444 4.62479C173.489 4.62479 171.905 6.2135 171.905 8.17327C171.905 10.133 173.489 11.7218 175.444 11.7218C177.399 11.7218 178.984 10.133 178.984 8.17327Z" fill="#FAF9F5"/>
<path d="M179 2.56437C179 0.595825 177.408 -1 175.444 -1C173.481 -1 171.889 0.595825 171.889 2.56437C171.889 4.53292 173.481 6.12874 175.444 6.12874C177.408 6.12874 179 4.53292 179 2.56437Z" fill="#FAF9F5"/>
</g>
<path d="M2.85938 8.03516C6.70722 1.32894 15.2633 -0.988157 21.9697 2.85938C41.4924 14.0604 63.6065 19.9594 86.1143 19.9688C108.622 19.978 130.741 14.097 150.272 2.91211C156.877 -0.869995 165.27 1.32354 169.195 7.79297L169.379 8.10352C173.221 14.8132 170.897 23.3686 164.188 27.2109C140.416 40.8237 113.496 47.9801 86.1025 47.9688C58.7094 47.9574 31.7953 40.7779 8.03516 27.1455C1.32906 23.2975 -0.988352 14.7414 2.85938 8.03516Z" stroke="#FAF9F5" stroke-width="2" stroke-linecap="round"/>
</svg>

