<svg width="16" height="16" viewBox="0 0 16 16" fill="none" xmlns="http://www.w3.org/2000/svg">
<path d="M8 4C5.794 4 4 5.795 4 8.001C4 10.206 5.794 12 8 12C9.068 12 10.073 11.584 10.829 10.829C11.585 10.073 12.001 9.069 12 8.001C12 6.932 11.584 5.927 10.829 5.172C10.073 4.416 9.068 4 8 4ZM10.122 10.122C9.555 10.688 8.801 11 8 11C6.346 11 5 9.654 5 8.001C5 6.347 6.346 5 8 5C8.801 5 9.555 5.312 10.122 5.879C10.688 6.445 11 7.199 11 8.001C11 8.802 10.689 9.556 10.122 10.122ZM7.5 1.5V0.5C7.5 0.224 7.724 0 8 0C8.276 0 8.5 0.224 8.5 0.5V1.5C8.5 1.776 8.276 2 8 2C7.724 2 7.5 1.776 7.5 1.5ZM8.5 14.5V15.5C8.5 15.776 8.276 16 8 16C7.724 16 7.5 15.776 7.5 15.5V14.5C7.5 14.224 7.724 14 8 14C8.276 14 8.5 14.224 8.5 14.5ZM3.757 3.05C3.953 3.245 3.953 3.562 3.757 3.757C3.562 3.953 3.245 3.953 3.05 3.757L2.343 3.05C2.147 2.854 2.147 2.538 2.343 2.343C2.538 2.148 2.855 2.148 3.05 2.343L3.757 3.05ZM13.657 12.95C13.853 13.145 13.853 13.462 13.657 13.657C13.462 13.852 13.146 13.852 12.95 13.657L12.243 12.95C12.048 12.755 12.048 12.438 12.243 12.243C12.438 12.048 12.755 12.048 12.95 12.243L13.657 12.95ZM3.757 12.243C3.953 12.438 3.953 12.755 3.757 12.95L3.05 13.657C2.855 13.852 2.538 13.852 2.343 13.657C2.147 13.461 2.147 13.145 2.343 12.95L3.05 12.243C3.246 12.047 3.562 12.047 3.757 12.243ZM13.657 2.343C13.853 2.538 13.853 2.854 13.657 3.05L12.95 3.757C12.755 3.953 12.438 3.953 12.243 3.757C12.048 3.562 12.048 3.245 12.243 3.05L12.95 2.343C13.145 2.148 13.461 2.148 13.657 2.343ZM2 8C2 8.276 1.776 8.5 1.5 8.5H0.5C0.224 8.5 0 8.276 0 8C0 7.724 0.224 7.5 0.5 7.5H1.5C1.776 7.5 2 7.724 2 8ZM16 8C16 8.276 15.776 8.5 15.5 8.5H14.5C14.224 8.5 14 8.276 14 8C14 7.724 14.224 7.5 14.5 7.5H15.5C15.776 7.5 16 7.724 16 8Z" fill="white"/>
</svg>
