<svg width="224" height="43" viewBox="0 0 224 43" fill="none" xmlns="http://www.w3.org/2000/svg">
<g clip-path="url(#clip0_1151_3108)">
<path d="M14.4353 2.14797C14.4353 2.14797 10.2251 0.515441 6.01488 3.95234C6.01488 3.95234 0.945449 7.30332 0.000300952 21.6524C0.000300952 21.6524 -0.257467 24.0582 1.80467 24.4019C1.80467 24.4019 3.95274 24.8315 4.2105 23.0271C4.46827 21.2228 4.46827 12.2009 8.42071 7.56109C8.42071 7.56109 8.85032 6.95963 9.88139 6.53002C10.7406 6.01448 11.428 4.98341 12.0295 4.21011C12.0295 4.12419 12.8028 3.09312 14.4353 2.14797Z" fill="white"/>
<path d="M21.9967 1.80385C21.9967 1.80385 18.302 0.600939 14.2637 3.69415C14.2637 3.69415 9.45201 6.61552 8.33502 18.2151C8.33502 18.2151 7.90541 21.0505 8.16317 22.5112C8.16317 22.5112 8.33502 24.2296 10.0535 24.3156C10.0535 24.3156 12.2015 24.4874 12.2875 22.5112C12.4593 20.535 12.4593 19.7617 12.4593 19.7617C12.4593 19.7617 12.803 12.0286 15.8962 8.16212L16.6695 8.76358C16.7554 8.76358 17.8724 4.72522 21.9967 1.80385Z" fill="white"/>
<path d="M29.6429 1.80418C29.6429 1.80418 24.6594 0.601265 21.0506 4.5537C21.0506 4.5537 17.4419 7.73283 16.4108 15.7236C16.4108 15.7236 15.9812 20.0198 15.8953 22.0819C15.8953 22.0819 15.8953 24.0581 17.7856 24.3159C17.7856 24.3159 19.7618 24.4018 19.9336 22.3397C19.9336 22.3397 20.1055 12.6304 23.7142 8.16245L24.5734 8.67798C24.4875 8.7639 26.0341 4.21001 29.6429 1.80418Z" fill="white"/>
<path d="M35.4005 1.71753C35.4005 1.71753 30.3311 1.54569 27.4097 6.61511C27.4097 6.61511 23.9728 11.5986 23.9728 21.7375C23.9728 21.7375 23.801 24.1433 25.6913 24.4011C25.6913 24.4011 27.9253 24.5729 27.9253 21.9952C27.9253 21.9952 28.0112 11.9423 31.8777 7.90395C31.8777 7.90395 35.3146 11.9423 35.5724 21.5656C35.5724 21.5656 35.6583 28.1817 36.9471 31.7904C36.9471 31.7904 38.0641 27.7521 38.3219 22.0812C38.3219 22.0812 38.236 21.0501 39.0952 20.3627C39.0952 20.3627 39.6966 20.1049 39.6107 19.0739C39.6107 19.0739 38.7515 10.7394 36.002 5.92773C36.002 5.92773 41.9306 5.58404 43.0476 17.3554C43.0476 17.3554 43.0476 19.0739 43.9928 20.1909C43.9928 20.1909 44.6801 20.7064 44.7661 21.9093C44.7661 21.9093 44.9379 23.5419 44.4224 28.955C44.4224 28.955 44.3365 30.1579 44.852 31.7904C44.852 31.7904 46.3127 27.7521 45.969 23.7996C45.969 23.7996 45.7971 20.6205 47.3437 19.5035C47.3437 19.5035 47.1719 10.5676 43.6491 5.58404C43.5632 5.58404 40.7277 1.45976 35.4005 1.71753Z" fill="white"/>
<path d="M53.0146 42.3593C53.0146 42.3593 57.2249 43.9918 61.4351 40.5549C61.4351 40.5549 66.5045 37.204 67.4496 22.8549C67.4496 22.8549 67.7074 20.4491 65.6453 20.1054C65.6453 20.1054 63.4972 19.6758 63.2394 21.4801C62.9817 23.2845 62.9817 32.3064 59.0292 36.9462C59.0292 36.9462 58.5996 37.5476 57.5685 37.9773C56.7093 38.4928 56.0219 39.5239 55.4205 40.2972C55.4205 40.2972 54.6472 41.3282 53.0146 42.3593Z" fill="white"/>
<path d="M45.3667 42.7027C45.3667 42.7027 49.0614 43.9056 53.0997 40.8124C53.0997 40.8124 57.9114 37.8911 59.0284 26.2915C59.0284 26.2915 59.458 23.4561 59.2002 21.9954C59.2002 21.9954 59.0284 20.2769 57.3099 20.191C57.3099 20.191 55.1619 20.0192 55.0759 21.9954C54.9041 23.9716 54.9041 24.7449 54.9041 24.7449C54.9041 24.7449 54.5604 32.4779 51.4672 36.3445L50.6939 35.743C50.6939 35.743 49.5769 39.7814 45.3667 42.7027Z" fill="white"/>
<path d="M37.8064 42.7034C37.8064 42.7034 42.7899 43.9063 46.3986 39.9538C46.3986 39.9538 50.0074 36.7747 51.0385 28.7839C51.0385 28.7839 51.4681 24.4878 51.554 22.4257C51.554 22.4257 51.554 20.4494 49.6637 20.1917C49.6637 20.1917 47.6875 20.1057 47.5156 22.1679C47.5156 22.1679 47.3438 31.8771 43.7351 36.3451L42.8758 35.8296C42.9617 35.7436 41.4151 40.2975 37.8064 42.7034Z" fill="white"/>
<path d="M32.0492 42.7883C32.0492 42.7883 37.1186 42.9602 40.04 37.8908C40.04 37.8908 43.4769 32.9072 43.4769 22.7684C43.4769 22.7684 43.6487 20.3626 41.7584 20.1048C41.7584 20.1048 39.5244 19.9329 39.5244 22.5106C39.5244 22.5106 39.4385 32.5636 35.572 36.6019C35.572 36.6019 32.1351 32.5636 31.8773 22.9402C31.8773 22.9402 31.7914 16.3242 30.5026 12.7155C30.5026 12.7155 29.3856 16.7538 29.1278 22.4247C29.1278 22.4247 29.2137 23.4558 28.3545 24.1431C28.3545 24.1431 27.7531 24.4009 27.839 25.432C27.839 25.432 28.6982 33.7665 31.4477 38.5781C31.4477 38.5781 25.5191 38.9218 24.4021 27.1504C24.4021 27.1504 24.4021 25.432 23.4569 24.315C23.4569 24.315 22.7696 23.7995 22.6836 22.5965C22.6836 22.5965 22.5118 20.964 23.0273 15.5509C23.0273 15.5509 23.1132 14.348 22.5977 12.7155C22.5977 12.7155 21.137 16.7538 21.4807 20.7062C21.4807 20.7062 21.6526 23.8854 20.106 25.0024C20.106 25.0024 20.2778 33.9383 23.8006 38.9218C23.8865 38.9218 26.722 42.9602 32.0492 42.7883Z" fill="white"/>
</g>
<defs>
<clipPath id="clip0_1151_3108">
<rect width="224" height="42.8753" fill="white"/>
</clipPath>
</defs>
</svg>
