<?xml version="1.0" encoding="UTF-8"?>
<svg viewBox="0 0 285 54" xmlns="http://www.w3.org/2000/svg">
<path d="m18.467 3.0314s-5.3264-2.0416-10.718 2.1904c0 0-6.4156 4.2001-7.5919 21.904 0 0-0.35945 2.9454 2.3092 3.3814 0 0 2.6795 0.5104 3.039-1.7013 0.34856-2.2117 0.2832-13.377 5.359-19.108 0 0 0.4902-0.72306 1.8408-1.2866 1.122-0.68053 2.0151-1.914 2.6796-2.8922 0 0 0.9912-1.2866 3.0934-2.4776" fill="#F8F8F9"/>
<path d="m28.086 2.6169s-4.7381-1.4674-9.8357 2.3287c0 0-6.0561 3.6153-7.4612 17.96 0 0-0.5229 3.5409-0.2397 5.3379 0 0 0.2288 2.0948 2.4508 2.2862 0 0 2.6686 0.202 2.832-2.2436 0.1634-2.4351 0.2287-3.4346 0.2287-3.4346s0.4248-9.538 4.3896-14.376l0.9586 0.7018s1.3506-5.0082 6.6769-8.5704v0.01063z" fill="#F8F8F9"/>
<path d="m37.689 2.6148s-6.3393-1.4461-10.925 3.4239c0 0-4.5529 3.9663-5.8927 13.813 0 0-0.5664 5.2953-0.6644 7.8686 0 0-0.0436 2.4988 2.4072 2.8178 0 0 2.5379 0.1489 2.7013-2.4669 0 0 0.1634-12.058 4.7381-17.577l1.1328 0.6911s1.9824-5.5718 6.5027-8.5597v-0.01064z" fill="#F8F8F9"/>
<path d="m44.987 2.4895s-6.3829-0.2552-10.13 6.0291c0 0-4.3243 6.1566-4.3134 18.768 0 0-0.2614 2.9879 2.1349 3.2644 0 0 2.8429 0.1701 2.8429-2.9986 0 0 0.1307-12.441 4.9887-17.47 0 0 4.3025 5.0402 4.6619 16.918 0 0 0.1525 8.1344 1.6992 12.622 0 0 1.4051-5.0295 1.6883-12.005 0 0-0.1198-1.276 1.013-2.1692 0 0 0.7407-0.3615 0.5991-1.6269 0 0-1.0457-10.357-4.5748-16.226 0 0 7.4939-0.47849 8.9753 14.153 0 0 0.0108 2.1373 1.2308 3.4665 0 0 0.8932 0.6167 0.9803 2.116 0 0 0.2178 2.0735-0.4139 8.7618 0 0-0.1525 1.4674 0.5119 3.5515 0 0 1.8517-4.9976 1.3616-9.8996 0 0-0.2397-3.9768 1.7863-5.3166 0 0-0.1743-11.101-4.6946-17.173 0 0-3.5836-5.0402-10.348-4.7637z" fill="#F8F8F9"/>
<path d="m67.303 52.754s5.3264 2.0416 10.718-2.1904c0 0 6.4046-4.2002 7.581-21.905 0 0 0.3594-2.9454-2.3092-3.3813 0 0-2.6795-0.5104-3.0389 1.7013-0.3486 2.2117-0.2832 13.377-5.359 19.097 0 0-0.4902 0.7231-1.8408 1.2867-1.1219 0.6805-2.0151 1.9139-2.6795 2.8922 0 0-0.9912 1.2866-3.0935 2.4775" fill="#F8F8F9"/>
<path d="m57.691 53.169s4.7382 1.4674 9.8358-2.3393c0 0 6.0561-3.6153 7.4612-17.96 0 0 0.5228-3.5408 0.2396-5.3379 0 0-0.2287-2.0947-2.4508-2.2861 0 0-2.6686-0.2021-2.832 2.233-0.1633 2.435-0.2287 3.4345-0.2287 3.4345s-0.4248 9.538-4.3896 14.376l-0.9585-0.7018s-1.3507 5.0083-6.677 8.5704v0.0106z" fill="#F8F8F9"/>
<path d="m48.066 53.169s6.3393 1.4462 10.925-3.4239c0 0 4.553-3.9662 5.8927-13.813 0 0 0.5664-5.2953 0.6644-7.8686 0 0 0.0436-2.4988-2.4071-2.8178 0 0-2.538-0.1489-2.7013 2.4669 0 0-0.1634 12.058-4.7382 17.577l-1.1328-0.6912s-1.9824 5.5719-6.5027 8.5598v0.0106z" fill="#F8F8F9"/>
<path d="m40.788 53.305s6.3828 0.2552 10.13-6.0291c0 0 4.3242-6.1567 4.3134-18.768 0 0 0.2614-2.988-2.1349-3.2644 0 0-2.8429-0.1701-2.8429 2.9986 0 0-0.1307 12.441-4.9887 17.47 0 0-4.3025-5.0401-4.6619-16.918 0 0-0.1525-8.1345-1.6992-12.622 0 0-1.4051 5.0295-1.6883 12.005 0 0 0.1198 1.276-1.013 2.1692 0 0-0.7516 0.3615-0.5991 1.6268 0 0 1.0457 10.357 4.5748 16.226 0 0-7.4939 0.4785-8.9753-14.153 0 0-0.0109-2.1373-1.2308-3.4664 0 0-0.8932-0.6167-0.9803-2.116 0 0-0.2178-2.0735 0.4139-8.7618 0 0 0.1525-1.4674-0.5119-3.5516 0 0-1.8517 4.9977-1.3616 9.8996 0 0 0.2397 3.9769-1.7863 5.3166 0 0 0.1743 11.101 4.6946 17.183 0 0 3.5835 5.0402 10.348 4.7637v-0.0106z" fill="#F8F8F9"/>
</svg>
