<svg width="284" height="55" viewBox="0 0 284 55" fill="none" xmlns="http://www.w3.org/2000/svg">
<g clip-path="url(#clip0_1151_12181)">
<path d="M19.0162 3.49501C19.0162 3.49501 13.6932 1.43099 8.37023 5.77629C8.37023 5.77629 1.96092 10.0129 0.765966 28.1545C0.765966 28.1545 0.440069 31.1962 3.04724 31.6308C3.04724 31.6308 5.76305 32.1739 6.08895 29.8926C6.41484 27.6114 6.41484 16.205 11.4119 10.3388C11.4119 10.3388 11.9551 9.57841 13.2587 9.03525C14.345 8.38346 15.2141 7.07987 15.9745 6.10218C15.9745 5.99355 16.9522 4.68996 19.0162 3.49501Z" fill="white"/>
<path d="M28.5768 3.06002C28.5768 3.06002 23.9057 1.53917 18.7999 5.44993C18.7999 5.44993 12.7165 9.14343 11.3043 23.8088C11.3043 23.8088 10.7611 27.3937 11.087 29.2404C11.087 29.2404 11.3043 31.413 13.477 31.5217C13.477 31.5217 16.1928 31.7389 16.3014 29.2404C16.5187 26.7419 16.5187 25.7642 16.5187 25.7642C16.5187 25.7642 16.9532 15.9873 20.8639 11.0988L21.8416 11.8592C21.9503 11.8592 23.3625 6.75352 28.5768 3.06002Z" fill="white"/>
<path d="M38.244 3.06027C38.244 3.06027 31.9433 1.53942 27.3807 6.5365C27.3807 6.5365 22.8182 10.5559 21.5146 20.6587C21.5146 20.6587 20.9714 26.0903 20.8628 28.6975C20.8628 28.6975 20.8628 31.196 23.2527 31.5219C23.2527 31.5219 25.7512 31.6306 25.9685 29.0234C25.9685 29.0234 26.1858 16.7479 30.7483 11.0991L31.8347 11.7509C31.726 11.8595 33.6814 6.10197 38.244 3.06027Z" fill="white"/>
<path d="M45.5226 2.95155C45.5226 2.95155 39.1133 2.73429 35.4198 9.14359C35.4198 9.14359 31.0745 15.4443 31.0745 28.2629C31.0745 28.2629 30.8572 31.3046 33.2471 31.6305C33.2471 31.6305 36.0716 31.8477 36.0716 28.5888C36.0716 28.5888 36.1802 15.8788 41.0686 10.7731C41.0686 10.7731 45.4139 15.8788 45.7398 28.0456C45.7398 28.0456 45.8485 36.4103 47.478 40.9729C47.478 40.9729 48.8902 35.8671 49.2161 28.6974C49.2161 28.6974 49.1074 27.3938 50.1938 26.5248C50.1938 26.5248 50.9542 26.1989 50.8456 24.8953C50.8456 24.8953 49.7592 14.3579 46.283 8.27454C46.283 8.27454 53.7786 7.84001 55.1908 22.7226C55.1908 22.7226 55.1908 24.8953 56.3858 26.3075C56.3858 26.3075 57.2549 26.9593 57.3635 28.4801C57.3635 28.4801 57.5808 30.5442 56.929 37.388C56.929 37.388 56.8203 38.9088 57.4721 40.9729C57.4721 40.9729 59.3189 35.8671 58.8843 30.8701C58.8843 30.8701 58.6671 26.8507 60.6225 25.4384C60.6225 25.4384 60.4052 14.1407 55.9513 7.84001C55.8426 7.84001 52.2578 2.62566 45.5226 2.95155Z" fill="white"/>
<path d="M67.792 54.3345C67.792 54.3345 73.115 56.3985 78.438 52.0532C78.438 52.0532 84.8473 47.8166 86.0422 29.675C86.0422 29.675 86.3681 26.6333 83.7609 26.1987C83.7609 26.1987 81.0451 25.6556 80.7192 27.9368C80.3933 30.2181 80.3933 41.6245 75.3962 47.4907C75.3962 47.4907 74.8531 48.2511 73.5495 48.7942C72.4632 49.446 71.5941 50.7496 70.8337 51.7273C70.8337 51.7273 69.856 53.0309 67.792 54.3345Z" fill="white"/>
<path d="M58.124 54.7693C58.124 54.7693 62.7952 56.2901 67.9009 52.3794C67.9009 52.3794 73.9843 48.6859 75.3966 34.0205C75.3966 34.0205 75.9397 30.4357 75.6138 28.5889C75.6138 28.5889 75.3966 26.4163 73.2239 26.3076C73.2239 26.3076 70.5081 26.0904 70.3995 28.5889C70.1822 31.0874 70.1822 32.0651 70.1822 32.0651C70.1822 32.0651 69.7477 41.842 65.8369 46.7305L64.8592 45.9701C64.8592 45.9701 63.447 51.0758 58.124 54.7693Z" fill="white"/>
<path d="M48.5645 54.7696C48.5645 54.7696 54.8651 56.2904 59.4277 51.2933C59.4277 51.2933 63.9902 47.2739 65.2938 37.1711C65.2938 37.1711 65.837 31.7395 65.9456 29.1323C65.9456 29.1323 65.9456 26.6338 63.5557 26.3079C63.5557 26.3079 61.0572 26.1993 60.8399 28.8064C60.8399 28.8064 60.6226 41.0819 56.0601 46.7308L54.9738 46.079C55.0824 45.9703 53.127 51.7278 48.5645 54.7696Z" fill="white"/>
<path d="M41.2869 54.8769C41.2869 54.8769 47.6962 55.0942 51.3897 48.6848C51.3897 48.6848 55.735 42.3842 55.735 29.5656C55.735 29.5656 55.9523 26.5239 53.5623 26.198C53.5623 26.198 50.7379 25.9807 50.7379 29.2397C50.7379 29.2397 50.6293 41.9496 45.7408 47.0554C45.7408 47.0554 41.3955 41.9496 41.0696 29.7828C41.0696 29.7828 40.961 21.4181 39.3315 16.8556C39.3315 16.8556 37.9193 21.9613 37.5934 29.131C37.5934 29.131 37.702 30.4346 36.6157 31.3037C36.6157 31.3037 35.8553 31.6296 35.9639 32.9332C35.9639 32.9332 37.0502 43.4705 40.5265 49.5539C40.5265 49.5539 33.0308 49.9884 31.6186 35.1058C31.6186 35.1058 31.6186 32.9332 30.4237 31.5209C30.4237 31.5209 29.5546 30.8692 29.446 29.3483C29.446 29.3483 29.2287 27.2843 29.8805 20.4405C29.8805 20.4405 29.9891 18.9196 29.3373 16.8556C29.3373 16.8556 27.4906 21.9613 27.9251 26.9584C27.9251 26.9584 28.1424 30.9778 26.187 32.39C26.187 32.39 26.4043 43.6878 30.8582 49.9884C30.9668 49.9884 34.5517 55.0942 41.2869 54.8769Z" fill="white"/>
</g>
<defs>
<clipPath id="clip0_1151_12181">
<rect width="283.204" height="54.2075" fill="white" transform="translate(0.765137 0.779053)"/>
</clipPath>
</defs>
</svg>
