<svg width="284" height="55" viewBox="0 0 284 55" fill="none" xmlns="http://www.w3.org/2000/svg">
<g clip-path="url(#clip0_1151_12181)">
<path d="M19.0162 3.49501C19.0162 3.49501 13.6932 1.43099 8.37023 5.77629C8.37023 5.77629 1.96092 10.0129 0.765966 28.1545C0.765966 28.1545 0.440069 31.1962 3.04724 31.6308C3.04724 31.6308 5.76305 32.1739 6.08895 29.8926C6.41484 27.6114 6.41484 16.205 11.4119 10.3388C11.4119 10.3388 11.9551 9.57841 13.2587 9.03525C14.345 8.38346 15.2141 7.07987 15.9745 6.10218C15.9745 5.99355 16.9522 4.68996 19.0162 3.49501Z" fill="white"/>
<path d="M28.5768 3.06002C28.5768 3.06002 23.9057 1.53917 18.7999 5.44993C18.7999 5.44993 12.7165 9.14343 11.3043 23.8088C11.3043 23.8088 10.7611 27.3937 11.087 29.2404C11.087 29.2404 11.3043 31.413 13.477 31.5217C13.477 31.5217 16.1928 31.7389 16.3014 29.2404C16.5187 26.7419 16.5187 25.7642 16.5187 25.7642C16.5187 25.7642 16.9532 15.9873 20.8639 11.0988L21.8416 11.8592C21.9503 11.8592 23.3625 6.75352 28.5768 3.06002Z" fill="white"/>
<path d="M38.244 3.06027C38.244 3.06027 31.9433 1.53942 27.3807 6.5365C27.3807 6.5365 22.8182 10.5559 21.5146 20.6587C21.5146 20.6587 20.9714 26.0903 20.8628 28.6975C20.8628 28.6975 20.8628 31.196 23.2527 31.5219C23.2527 31.5219 25.7512 31.6306 25.9685 29.0234C25.9685 29.0234 26.1858 16.7479 30.7483 11.0991L31.8347 11.7509C31.726 11.8595 33.6814 6.10197 38.244 3.06027Z" fill="white"/>
<path d="M45.5226 2.95155C45.5226 2.95155 39.1133 2.73429 35.4198 9.14359C35.4198 9.14359 31.0745 15.4443 31.0745 28.2629C31.0745 28.2629 30.8572 31.3046 33.2471 31.6305C33.2471 31.6305 36.0716 31.8477 36.0716 28.5888C36.0716 28.5888 36.1802 15.8788 41.0686 10.7731C41.0686 10.7731 45.4139 15.8788 45.7398 28.0456C45.7398 28.0456 45.8485 36.4103 47.478 40.9729C47.478 40.9729 48.8902 35.8671 49.2161 28.6974C49.2161 28.6974 49.1074 27.3938 50.1938 26.5248C50.1938 26.5248 50.9542 26.1989 50.8456 24.8953C50.8456 24.8953 49.7592 14.3579 46.283 8.27454C46.283 8.27454 53.7786 7.84001 55.1908 22.7226C55.1908 22.7226 55.1908 24.8953 56.3858 26.3075C56.3858 26.3075 57.2549 26.9593 57.3635 28.4801C57.3635 28.4801 57.5808 30.5442 56.929 37.388C56.929 37.388 56.8203 38.9088 57.4721 40.9729C57.4721 40.9729 59.3189 35.8671 58.8843 30.8701C58.8843 30.8701 58.6671 26.8507 60.6225 25.4384C60.6225 25.4384 60.4052 14.1407 55.9513 7.84001C55.8426 7.84001 52.2578 2.62566 45.5226 2.95155Z" fill="white"/>
<path d="M67.792 54.3345C67.792 54.3345 73.115 56.3985 78.438 52.0532C78.438 52.0532 84.8473 47.8166 86.0422 29.675C86.0422 29.675 86.3681 26.6333 83.7609 26.1987C83.7609 26.1987 81.0451 25.6556 80.7192 27.9368C80.3933 30.2181 80.3933 41.6245 75.3962 47.4907C75.3962 47.4907 74.8531 48.2511 73.5495 48.7942C72.4632 49.446 71.5941 50.7496 70.8337 51.7273C70.8337 51.7273 69.856 53.0309 67.792 54.3345Z" fill="white"/>
<path d="M58.124 54.7693C58.124 54.7693 62.7952 56.2901 67.9009 52.3794C67.9009 52.3794 73.9843 48.6859 75.3966 34.0205C75.3966 34.0205 75.9397 30.4357 75.6138 28.5889C75.6138 28.5889 75.3966 26.4163 73.2239 26.3076C73.2239 26.3076 70.5081 26.0904 70.3995 28.5889C70.1822 31.0874 70.1822 32.0651 70.1822 32.0651C70.1822 32.0651 69.7477 41.842 65.8369 46.7305L64.8592 45.9701C64.8592 45.9701 63.447 51.0758 58.124 54.7693Z" fill="white"/>
<path d="M48.5645 54.7696C48.5645 54.7696 54.8651 56.2904 59.4277 51.2933C59.4277 51.2933 63.9902 47.2739 65.2938 37.1711C65.2938 37.1711 65.837 31.7395 65.9456 29.1323C65.9456 29.1323 65.9456 26.6338 63.5557 26.3079C63.5557 26.3079 61.0572 26.1993 60.8399 28.8064C60.8399 28.8064 60.6226 41.0819 56.0601 46.7308L54.9738 46.079C55.0824 45.9703 53.127 51.7278 48.5645 54.7696Z" fill="white"/>
<path d="M41.2869 54.8769C41.2869 54.8769 47.6962 55.0942 51.3897 48.6848C51.3897 48.6848 55.735 42.3842 55.735 29.5656C55.735 29.5656 55.9523 26.5239 53.5623 26.198C53.5623 26.198 50.7379 25.9807 50.7379 29.2397C50.7379 29.2397 50.6293 41.9496 45.7408 47.0554C45.7408 47.0554 41.3955 41.9496 41.0696 29.7828C41.0696 29.7828 40.961 21.4181 39.3315 16.8556C39.3315 16.8556 37.9193 21.9613 37.5934 29.131C37.5934 29.131 37.702 30.4346 36.6157 31.3037C36.6157 31.3037 35.8553 31.6296 35.9639 32.9332C35.9639 32.9332 37.0502 43.4705 40.5265 49.5539C40.5265 49.5539 33.0308 49.9884 31.6186 35.1058C31.6186 35.1058 31.6186 32.9332 30.4237 31.5209C30.4237 31.5209 29.5546 30.8692 29.446 29.3483C29.446 29.3483 29.2287 27.2843 29.8805 20.4405C29.8805 20.4405 29.9891 18.9196 29.3373 16.8556C29.3373 16.8556 27.4906 21.9613 27.9251 26.9584C27.9251 26.9584 28.1424 30.9778 26.187 32.39C26.187 32.39 26.4043 43.6878 30.8582 49.9884C30.9668 49.9884 34.5517 55.0942 41.2869 54.8769Z" fill="white"/>
<path d="M94.7334 17.6166L97.4492 9.36056C97.8837 7.94834 99.4046 7.29655 100.708 7.94834C101.903 8.4915 102.338 9.79509 101.794 11.0987L97.2319 22.5051C96.5802 24.2432 95.3852 24.895 93.7557 24.2432C93.1039 24.0259 92.5608 23.5914 92.1262 22.5051L87.5637 10.99C87.0205 9.68646 87.5637 8.38287 88.65 7.83971C89.9536 7.18792 91.4744 7.83971 91.909 9.25193L94.7334 17.6166Z" fill="white"/>
<path d="M103.316 10.0127C103.316 9.36088 103.534 8.81771 103.968 8.38318C104.837 7.40549 106.358 7.51413 107.336 8.38318C107.77 8.81771 107.988 9.46951 107.988 10.0127V22.1795C107.988 23.4831 107.01 24.5694 105.706 24.5694C104.403 24.5694 103.316 23.4831 103.316 22.1795V10.0127ZM103.642 1.53935C104.729 0.453029 106.358 0.453029 107.444 1.53935C108.531 2.62567 108.531 4.25516 107.444 5.34148C106.358 6.4278 104.729 6.4278 103.642 5.34148C103.208 4.90695 102.882 4.25516 102.882 3.49473C102.882 2.73431 103.208 2.08251 103.642 1.53935Z" fill="white"/>
<path d="M119.392 7.62199C122.868 8.05652 124.063 9.57738 123.629 11.0982C123.411 12.1845 122.651 12.7277 121.673 12.7277C121.565 12.7277 121.347 12.7277 121.239 12.6191L121.021 12.5104L120.587 12.4018L120.261 12.2932L119.826 12.1846C117.002 11.3155 114.721 12.945 114.721 16.0953C114.829 19.2456 117.111 20.8751 120.152 19.7888L120.695 19.5715L120.913 19.4629C122.325 19.0284 123.52 19.6802 123.737 21.0924C123.954 22.2874 123.085 23.3737 120.913 24.0255C120.37 24.2427 119.826 24.3514 119.175 24.3514C113.96 24.7859 109.941 21.201 110.05 15.7694C110.05 10.6637 114.069 7.07883 119.392 7.62199Z" fill="white"/>
<path d="M127.106 7.84058V5.12477C127.106 3.82119 128.192 2.73486 129.496 2.73486C130.799 2.73486 131.886 3.82119 131.777 5.12477V7.84058H133.189C133.732 7.84058 134.276 8.05785 134.71 8.49237C135.579 9.2528 135.579 10.665 134.71 11.4254C134.276 11.86 133.732 12.0772 133.189 12.0772H131.777V22.18C131.777 22.8318 131.56 23.375 131.125 23.8095C130.256 24.6786 128.735 24.6786 127.866 23.8095C127.432 23.375 127.215 22.7232 127.215 22.18V12.0772H126.345C125.802 12.0772 125.259 11.86 124.825 11.4254C123.956 10.665 123.956 9.36143 124.825 8.49237C125.259 8.05785 125.802 7.84058 126.345 7.84058H127.106Z" fill="white"/>
<path d="M136.122 9.90478C136.122 8.81846 137.099 7.73213 138.511 7.6235C139.924 7.51487 140.901 8.38393 140.793 9.25299V9.47025C140.901 9.36162 141.01 9.14435 141.227 9.03572C143.074 7.08034 145.029 7.08034 146.007 8.49256C146.876 9.68752 146.442 11.0997 145.138 11.6429L144.921 11.7515L144.269 11.9688C143.617 12.1861 143.183 12.4033 142.857 12.6206C141.336 13.4896 140.901 14.2501 140.901 15.0105V21.963C140.901 23.2666 139.815 24.3529 138.511 24.3529C137.208 24.3529 136.122 23.2666 136.122 22.0716V9.90478Z" fill="white"/>
<path d="M147.311 11.5344C148.832 9.03587 151.439 7.51501 154.155 7.51501C158.608 7.51501 162.193 11.2085 162.193 15.9883C162.193 20.8768 158.608 24.5703 154.155 24.5703C149.701 24.5703 146.116 20.8768 146.116 15.9883C146.116 14.3588 146.55 12.838 147.311 11.5344ZM150.896 16.7488C151.33 19.5732 152.96 20.7682 154.915 20.3336C156.219 20.0077 157.305 18.8128 157.522 16.7488C157.631 16.3142 157.631 15.7711 157.522 15.3365C157.196 13.3812 156.219 12.1862 154.915 11.8603C152.96 11.4258 151.221 12.6207 150.896 15.3365C150.896 15.5538 150.896 15.7711 150.896 16.097C150.896 16.4229 150.896 16.6401 150.896 16.7488Z" fill="white"/>
<path d="M164.258 10.0122C164.258 8.8172 165.235 7.73088 166.648 7.62225C167.843 7.51361 168.712 8.27404 168.712 9.1431V9.36036C169.472 8.4913 170.45 7.94814 171.862 7.62225C172.622 7.51361 173.383 7.51361 174.143 7.62225C177.402 8.16541 179.14 10.2294 179.14 13.4884V22.179C179.14 23.4826 178.054 24.5689 176.859 24.5689C175.556 24.5689 174.469 23.4826 174.469 22.179V14.2488C174.469 13.4884 174.143 12.8366 173.6 12.2934C172.514 11.2071 170.776 11.2071 169.689 12.2934C169.146 12.8366 168.929 13.4884 168.929 14.2488V22.179C168.929 23.4826 167.843 24.5689 166.539 24.4602C165.236 24.4602 164.258 23.3739 164.258 22.0703V10.0122Z" fill="white"/>
<path d="M194.348 17.5096C194.457 18.0527 194.782 18.7045 195.108 19.139C196.303 20.6599 198.585 20.9858 201.192 19.5736C202.713 18.7045 203.147 18.7045 203.908 19.0304C204.342 19.2477 204.777 19.5736 204.885 20.0081C205.537 21.6376 203.473 24.462 197.824 24.462C192.067 24.462 188.156 19.6822 189.459 13.9247C190.22 10.5571 192.718 8.16719 195.869 7.62403C199.562 6.97224 203.038 8.81898 204.559 12.2952C204.994 13.2729 205.211 14.2506 205.211 14.9024C205.428 16.7491 204.777 17.5096 203.256 17.5096H194.348ZM200.757 14.5765C200.757 14.4679 200.757 14.3592 200.649 14.2506C200.214 12.078 198.585 10.9916 196.738 11.4262C195.651 11.7521 194.674 12.6211 194.239 14.142C194.239 14.2506 194.239 14.3592 194.131 14.4679H200.757V14.5765Z" fill="white"/>
<path d="M207.058 10.0122C207.058 8.8172 208.035 7.73088 209.448 7.62225C210.642 7.51361 211.512 8.27404 211.512 9.1431V9.36036C212.272 8.4913 213.25 7.94814 214.662 7.62225C215.422 7.51361 216.183 7.51361 216.943 7.62225C220.202 8.16541 221.94 10.2294 221.94 13.4884V22.179C221.94 23.4826 220.854 24.5689 219.659 24.5689C218.355 24.5689 217.269 23.4826 217.269 22.179V14.2488C217.269 13.4884 216.943 12.8366 216.4 12.2934C215.314 11.2071 213.576 11.2071 212.489 12.2934C211.946 12.8366 211.729 13.4884 211.729 14.2488V22.179C211.729 23.4826 210.642 24.5689 209.339 24.4602C208.035 24.4602 207.058 23.3739 207.058 22.0703V10.0122Z" fill="white"/>
<path d="M229.002 17.5096C229.111 18.0527 229.437 18.7045 229.763 19.139C230.958 20.6599 233.239 20.9858 235.846 19.5736C237.367 18.7045 237.801 18.7045 238.562 19.0304C238.996 19.2477 239.431 19.5736 239.54 20.0081C240.191 21.6376 238.127 24.462 232.478 24.462C226.721 24.462 222.81 19.6822 224.114 13.9247C224.874 10.5571 227.373 8.16719 230.523 7.62403C234.217 6.97224 237.693 8.81898 239.214 12.2952C239.648 13.2729 239.865 14.2506 239.865 14.9024C240.083 16.7491 239.431 17.5096 237.91 17.5096H229.002ZM235.303 14.5765C235.303 14.4679 235.303 14.3592 235.194 14.2506C234.76 12.078 233.13 10.9916 231.283 11.4262C230.197 11.7521 229.219 12.6211 228.785 14.142C228.785 14.2506 228.785 14.3592 228.676 14.4679H235.303V14.5765Z" fill="white"/>
<path d="M241.713 9.90478C241.713 8.81846 242.691 7.73213 244.103 7.6235C245.515 7.51487 246.493 8.38393 246.384 9.25299V9.47025C246.493 9.36162 246.601 9.14435 246.819 9.03572C248.665 7.08034 250.621 7.08034 251.598 8.49256C252.467 9.68752 252.033 11.0997 250.729 11.6429L250.512 11.7515L249.86 11.9688C249.209 12.1861 248.774 12.4033 248.448 12.6206C246.927 13.4896 246.493 14.2501 246.493 15.0105V21.963C246.493 23.2666 245.406 24.3529 244.103 24.3529C242.799 24.3529 241.713 23.2666 241.713 22.0716V9.90478Z" fill="white"/>
<path d="M263.221 9.25193C263.221 8.38287 264.09 7.62245 265.394 7.73108C266.806 7.83971 267.784 8.92603 267.784 10.121V22.2878C267.784 28.3712 264.199 31.7388 257.898 30.9784C256.594 30.8698 255.508 30.5439 254.422 30.0007C252.141 28.9144 251.815 27.3935 252.901 26.1986C253.553 25.5468 254.313 25.3295 255.291 25.764L256.269 26.1986C256.486 26.3072 256.703 26.4158 256.92 26.4158C260.94 27.828 263.221 26.1986 263.33 23.1569C263.33 22.9396 263.33 22.7223 263.33 22.5051C261.592 25.0036 257.355 25.4381 254.313 22.5051C252.466 20.6583 251.489 17.508 252.141 14.1404C252.358 12.9454 252.792 11.8591 253.336 10.99C255.943 6.86202 261.157 6.42749 263.547 9.36056V9.25193H263.221ZM257.355 19.2461C258.659 20.8756 261.048 20.767 262.243 19.1375C262.787 18.377 263.112 17.508 263.112 16.2044C263.112 14.1404 262.352 12.8368 261.157 12.185C259.093 11.2073 256.812 12.5109 256.486 15.3353C256.486 15.6612 256.377 15.8785 256.377 16.2044C256.377 17.508 256.812 18.4857 257.355 19.2461Z" fill="white"/>
<path d="M270.391 7.83969C271.695 7.29653 272.998 7.94833 273.542 9.36054L276.475 17.1821L279.408 9.36054C279.951 7.83969 281.363 7.29653 282.667 7.83969C283.862 8.38285 284.296 9.68644 283.862 10.8814L276.257 29.4575C275.606 30.9784 274.302 31.6302 273.107 31.087C271.912 30.5438 271.369 29.2402 271.912 28.0453L274.085 23.0482L269.088 10.8814C268.653 9.68644 269.196 8.38285 270.391 7.83969Z" fill="white"/>
<path d="M120.045 31.7381C120.697 31.7381 121.131 32.064 121.131 32.6072C121.131 33.259 120.697 33.5849 119.936 33.5849C119.719 33.5849 119.502 33.5849 119.284 33.5849V31.8467C119.502 31.7381 119.828 31.7381 120.045 31.7381ZM121.674 36.6266C122.109 36.3007 122.217 35.8661 122.217 35.4316C122.217 34.9971 122.109 34.6712 121.892 34.3453C121.674 34.128 121.348 33.9108 120.914 33.8021C121.131 33.6935 121.348 33.5849 121.566 33.3676C121.783 33.1503 121.892 32.9331 121.892 32.6072C121.892 32.1726 121.783 31.7381 121.457 31.5208C121.131 31.3036 120.697 31.1949 120.045 31.1949C119.719 31.1949 119.176 31.1949 118.524 31.1949V37.1697H120.262C120.805 37.0611 121.348 36.8438 121.674 36.6266ZM121.131 34.3453C121.348 34.5625 121.457 34.7798 121.457 35.2143C121.457 35.6489 121.348 35.9748 121.131 36.0834C120.914 36.3007 120.479 36.4093 120.045 36.4093C119.936 36.4093 119.719 36.4093 119.393 36.4093V34.128H120.045C120.479 34.0194 120.914 34.128 121.131 34.3453Z" fill="white"/>
<path d="M134.166 37.0616H130.69V31.0868H131.45V36.3011H134.166V37.0616Z" fill="white"/>
<path d="M142.314 35.2149V31.0869H143.075V35.1063C143.075 35.4322 143.184 35.7581 143.401 35.9754C143.618 36.1926 143.944 36.3013 144.27 36.3013C144.704 36.3013 145.03 36.1926 145.248 35.9754C145.465 35.7581 145.573 35.4322 145.573 34.9977V30.9783H146.334V35.1063C146.334 35.7581 146.117 36.1926 145.791 36.5185C145.465 36.8444 144.922 37.0617 144.27 37.0617C143.618 37.0617 143.075 36.8444 142.749 36.5185C142.532 36.3013 142.314 35.8667 142.314 35.2149Z" fill="white"/>
<path d="M160.131 31.8472H157.415V33.4767H159.37V34.1285H157.415V36.3011H160.131V37.0616H156.546V31.0868H160.131V31.8472Z" fill="white"/>
<path d="M179.683 31.8472C180.769 31.8472 181.312 32.1731 181.312 32.9335C181.312 33.694 180.769 34.1285 179.791 34.1285C179.791 34.1285 179.574 34.1285 179.248 34.1285V31.9559C179.465 31.8472 179.574 31.8472 179.683 31.8472ZM179.9 34.7803C181.421 34.7803 182.181 34.1285 182.181 32.8249C182.181 31.63 181.312 31.0868 179.574 31.0868C179.465 31.0868 179.031 31.0868 178.488 31.0868V37.0616H179.248V34.7803C179.574 34.7803 179.791 34.7803 179.9 34.7803Z" fill="white"/>
<path d="M191.523 32.3904C191.741 31.9559 192.175 31.7386 192.718 31.7386C193.805 31.7386 194.456 32.499 194.456 34.0199C194.456 34.7803 194.348 35.3235 194.022 35.758C193.696 36.1925 193.261 36.4098 192.718 36.4098C192.175 36.4098 191.849 36.1925 191.632 35.758C191.415 35.3235 191.197 34.7803 191.197 34.0199C191.089 33.3681 191.197 32.7163 191.523 32.3904ZM190.872 36.3011C191.306 36.8443 191.849 37.1702 192.61 37.1702C193.479 37.1702 194.022 36.8443 194.456 36.3011C194.891 35.758 195.108 34.9976 195.108 34.0199C195.108 33.0422 194.891 32.2817 194.456 31.8472C194.022 31.3041 193.37 31.0868 192.61 31.0868C191.849 31.0868 191.306 31.4127 190.872 31.9559C190.437 32.499 190.22 33.2594 190.22 34.1285C190.22 34.8889 190.437 35.6493 190.872 36.3011Z" fill="white"/>
<path d="M209.992 31.0868L208.145 37.1702H207.928L206.515 33.0422L205.212 37.1702H204.886L203.039 31.0868H203.908L205.103 35.2148L206.407 31.0868H206.624L207.928 35.2148L209.122 31.0868H209.992Z" fill="white"/>
<path d="M221.725 31.8472H218.9V33.4767H220.964V34.1285H218.9V36.3011H221.616V37.0616H218.14V31.0868H221.725V31.8472Z" fill="white"/>
<path d="M231.392 31.8472C231.935 31.8472 232.261 31.9558 232.478 32.0645C232.696 32.1731 232.804 32.499 232.804 32.8249C232.804 33.2594 232.696 33.4767 232.478 33.694C232.261 33.8026 231.935 33.9112 231.392 33.9112C231.175 33.9112 231.066 33.9112 230.849 33.9112V31.9559C231.175 31.8472 231.283 31.8472 231.392 31.8472ZM232.587 34.3458C232.913 34.2371 233.13 34.1285 233.456 33.8026C233.673 33.4767 233.782 33.1508 233.782 32.8249C233.782 31.7386 233.021 31.0868 231.609 31.0868C231.392 31.0868 231.175 31.0868 230.74 31.0868C230.306 31.0868 230.088 31.0868 230.088 31.0868V37.0616H230.849V34.4544C231.283 34.4544 231.501 34.4544 231.718 34.4544L233.347 36.9529H234.325L232.587 34.3458Z" fill="white"/>
</g>
<defs>
<clipPath id="clip0_1151_12181">
<rect width="283.204" height="54.2075" fill="white" transform="translate(0.765137 0.779053)"/>
</clipPath>
</defs>
</svg>
