<svg width="197" height="32" viewBox="0 0 197 32" fill="none" xmlns="http://www.w3.org/2000/svg">
<path d="M7.73352 17.6166L10.4493 9.36056C10.8839 7.94834 12.4047 7.29655 13.7083 7.94834C14.9033 8.4915 15.3378 9.79509 14.7946 11.0987L10.2321 22.5051C9.58027 24.2432 8.38531 24.895 6.75583 24.2432C6.10404 24.0259 5.56087 23.5914 5.12635 22.5051L0.563793 10.99C0.0206315 9.68646 0.563793 8.38287 1.65012 7.83971C2.9537 7.18792 4.47455 7.83971 4.90908 9.25193L7.73352 17.6166Z" fill="white"/>
<path d="M16.3164 10.0127C16.3164 9.36088 16.5336 8.81771 16.9682 8.38318C17.8372 7.40549 19.3581 7.51413 20.3358 8.38318C20.7703 8.81771 20.9875 9.46951 20.9875 10.0127V22.1795C20.9875 23.4831 20.0099 24.5694 18.7063 24.5694C17.4027 24.5694 16.3164 23.4831 16.3164 22.1795V10.0127ZM16.6423 1.53935C17.7286 0.453029 19.3581 0.453029 20.4444 1.53935C21.5307 2.62567 21.5307 4.25516 20.4444 5.34148C19.3581 6.4278 17.7286 6.4278 16.6423 5.34148C16.2077 4.90695 15.8818 4.25516 15.8818 3.49473C15.8818 2.73431 16.2077 2.08251 16.6423 1.53935Z" fill="white"/>
<path d="M32.3921 7.62199C35.8684 8.05652 37.0633 9.57738 36.6288 11.0982C36.4115 12.1845 35.6511 12.7277 34.6734 12.7277C34.5648 12.7277 34.3475 12.7277 34.2389 12.6191L34.0216 12.5104L33.5871 12.4018L33.2612 12.2932L32.8267 12.1846C30.0022 11.3155 27.7209 12.945 27.7209 16.0953C27.8296 19.2456 30.1109 20.8751 33.1526 19.7888L33.6957 19.5715L33.913 19.4629C35.3252 19.0284 36.5202 19.6802 36.7374 21.0924C36.9547 22.2874 36.0856 23.3737 33.913 24.0255C33.3698 24.2427 32.8267 24.3514 32.1749 24.3514C26.9605 24.7859 22.9411 21.201 23.0498 15.7694C23.0498 10.6637 27.0692 7.07883 32.3921 7.62199Z" fill="white"/>
<path d="M40.1058 7.84058V5.12477C40.1058 3.82119 41.1921 2.73486 42.4957 2.73486C43.7993 2.73486 44.8856 3.82119 44.777 5.12477V7.84058H46.1892C46.7324 7.84058 47.2755 8.05785 47.7101 8.49237C48.5791 9.2528 48.5791 10.665 47.7101 11.4254C47.2755 11.86 46.7324 12.0772 46.1892 12.0772H44.777V22.18C44.777 22.8318 44.5597 23.375 44.1252 23.8095C43.2561 24.6786 41.7353 24.6786 40.8662 23.8095C40.4317 23.375 40.2144 22.7232 40.2144 22.18V12.0772H39.3454C38.8022 12.0772 38.2591 11.86 37.8245 11.4254C36.9555 10.665 36.9555 9.36143 37.8245 8.49237C38.2591 8.05785 38.8022 7.84058 39.3454 7.84058H40.1058Z" fill="white"/>
<path d="M49.1215 9.90478C49.1215 8.81846 50.0992 7.73213 51.5114 7.6235C52.9236 7.51487 53.9013 8.38393 53.7926 9.25299V9.47025C53.9013 9.36162 54.0099 9.14435 54.2272 9.03572C56.0739 7.08034 58.0293 7.08034 59.007 8.49256C59.8761 9.68752 59.4415 11.0997 58.1379 11.6429L57.9207 11.7515L57.2689 11.9688C56.6171 12.1861 56.1826 12.4033 55.8567 12.6206C54.3358 13.4896 53.9013 14.2501 53.9013 15.0105V21.963C53.9013 23.2666 52.815 24.3529 51.5114 24.3529C50.2078 24.3529 49.1215 23.2666 49.1215 22.0716V9.90478Z" fill="white"/>
<path d="M60.3109 11.5344C61.8318 9.03587 64.4389 7.51501 67.1547 7.51501C71.6087 7.51501 75.1935 11.2085 75.1935 15.9883C75.1935 20.8768 71.6087 24.5703 67.1547 24.5703C62.7008 24.5703 59.116 20.8768 59.116 15.9883C59.116 14.3588 59.5505 12.838 60.3109 11.5344ZM63.8958 16.7488C64.3303 19.5732 65.9598 20.7682 67.9152 20.3336C69.2188 20.0077 70.3051 18.8128 70.5224 16.7488C70.631 16.3142 70.631 15.7711 70.5224 15.3365C70.1965 13.3812 69.2188 12.1862 67.9152 11.8603C65.9598 11.4258 64.2217 12.6207 63.8958 15.3365C63.8958 15.5538 63.8958 15.7711 63.8958 16.097C63.8958 16.4229 63.8958 16.6401 63.8958 16.7488Z" fill="white"/>
<path d="M77.2577 10.0122C77.2577 8.8172 78.2354 7.73088 79.6476 7.62225C80.8426 7.51361 81.7116 8.27404 81.7116 9.1431V9.36036C82.472 8.4913 83.4497 7.94814 84.8619 7.62225C85.6224 7.51361 86.3828 7.51361 87.1432 7.62225C90.4022 8.16541 92.1403 10.2294 92.1403 13.4884V22.179C92.1403 23.4826 91.054 24.5689 89.859 24.5689C88.5555 24.5689 87.4691 23.4826 87.4691 22.179V14.2488C87.4691 13.4884 87.1432 12.8366 86.6001 12.2934C85.5138 11.2071 83.7756 11.2071 82.6893 12.2934C82.1461 12.8366 81.9289 13.4884 81.9289 14.2488V22.179C81.9289 23.4826 80.8426 24.5689 79.539 24.4602C78.2354 24.4602 77.2577 23.3739 77.2577 22.0703V10.0122Z" fill="white"/>
<path d="M107.348 17.5096C107.456 18.0527 107.782 18.7045 108.108 19.139C109.303 20.6599 111.584 20.9858 114.192 19.5736C115.712 18.7045 116.147 18.7045 116.907 19.0304C117.342 19.2477 117.776 19.5736 117.885 20.0081C118.537 21.6376 116.473 24.462 110.824 24.462C105.066 24.462 101.156 19.6822 102.459 13.9247C103.22 10.5571 105.718 8.16719 108.869 7.62403C112.562 6.97224 116.038 8.81898 117.559 12.2952C117.994 13.2729 118.211 14.2506 118.211 14.9024C118.428 16.7491 117.776 17.5096 116.256 17.5096H107.348ZM113.757 14.5765C113.757 14.4679 113.757 14.3592 113.648 14.2506C113.214 12.078 111.584 10.9916 109.738 11.4262C108.651 11.7521 107.674 12.6211 107.239 14.142C107.239 14.2506 107.239 14.3592 107.131 14.4679H113.757V14.5765Z" fill="white"/>
<path d="M120.057 10.0122C120.057 8.8172 121.035 7.73088 122.447 7.62225C123.642 7.51361 124.511 8.27404 124.511 9.1431V9.36036C125.272 8.4913 126.25 7.94814 127.662 7.62225C128.422 7.51361 129.183 7.51361 129.943 7.62225C133.202 8.16541 134.94 10.2294 134.94 13.4884V22.179C134.94 23.4826 133.854 24.5689 132.659 24.5689C131.355 24.5689 130.269 23.4826 130.269 22.179V14.2488C130.269 13.4884 129.943 12.8366 129.4 12.2934C128.314 11.2071 126.575 11.2071 125.489 12.2934C124.946 12.8366 124.729 13.4884 124.729 14.2488V22.179C124.729 23.4826 123.642 24.5689 122.339 24.4602C121.035 24.4602 120.057 23.3739 120.057 22.0703V10.0122Z" fill="white"/>
<path d="M142.002 17.5096C142.111 18.0527 142.437 18.7045 142.763 19.139C143.958 20.6599 146.239 20.9858 148.846 19.5736C150.367 18.7045 150.801 18.7045 151.562 19.0304C151.996 19.2477 152.431 19.5736 152.54 20.0081C153.191 21.6376 151.127 24.462 145.478 24.462C139.721 24.462 135.81 19.6822 137.114 13.9247C137.874 10.5571 140.373 8.16719 143.523 7.62403C147.217 6.97224 150.693 8.81898 152.214 12.2952C152.648 13.2729 152.865 14.2506 152.865 14.9024C153.083 16.7491 152.431 17.5096 150.91 17.5096H142.002ZM148.303 14.5765C148.303 14.4679 148.303 14.3592 148.194 14.2506C147.76 12.078 146.13 10.9916 144.283 11.4262C143.197 11.7521 142.219 12.6211 141.785 14.142C141.785 14.2506 141.785 14.3592 141.676 14.4679H148.303V14.5765Z" fill="white"/>
<path d="M154.713 9.90478C154.713 8.81846 155.691 7.73213 157.103 7.6235C158.515 7.51487 159.493 8.38393 159.384 9.25299V9.47025C159.493 9.36162 159.601 9.14435 159.819 9.03572C161.665 7.08034 163.621 7.08034 164.599 8.49256C165.468 9.68752 165.033 11.0997 163.729 11.6429L163.512 11.7515L162.86 11.9688C162.209 12.1861 161.774 12.4033 161.448 12.6206C159.927 13.4896 159.493 14.2501 159.493 15.0105V21.963C159.493 23.2666 158.407 24.3529 157.103 24.3529C155.799 24.3529 154.713 23.2666 154.713 22.0716V9.90478Z" fill="white"/>
<path d="M176.221 9.25193C176.221 8.38287 177.09 7.62245 178.393 7.73108C179.806 7.83971 180.783 8.92603 180.783 10.121V22.2878C180.783 28.3712 177.199 31.7388 170.898 30.9784C169.594 30.8698 168.508 30.5439 167.422 30.0007C165.14 28.9144 164.814 27.3935 165.901 26.1986C166.553 25.5468 167.313 25.3295 168.291 25.764L169.268 26.1986C169.486 26.3072 169.703 26.4158 169.92 26.4158C173.94 27.828 176.221 26.1986 176.329 23.1569C176.329 22.9396 176.329 22.7223 176.329 22.5051C174.591 25.0036 170.355 25.4381 167.313 22.5051C165.466 20.6583 164.489 17.508 165.14 14.1404C165.358 12.9454 165.792 11.8591 166.335 10.99C168.942 6.86202 174.157 6.42749 176.547 9.36056V9.25193H176.221ZM170.355 19.2461C171.658 20.8756 174.048 20.767 175.243 19.1375C175.786 18.377 176.112 17.508 176.112 16.2044C176.112 14.1404 175.352 12.8368 174.157 12.185C172.093 11.2073 169.812 12.5109 169.486 15.3353C169.486 15.6612 169.377 15.8785 169.377 16.2044C169.377 17.508 169.812 18.4857 170.355 19.2461Z" fill="white"/>
<path d="M183.391 7.83969C184.695 7.29653 185.998 7.94833 186.541 9.36054L189.474 17.1821L192.407 9.36054C192.951 7.83969 194.363 7.29653 195.666 7.83969C196.861 8.38285 197.296 9.68644 196.861 10.8814L189.257 29.4575C188.605 30.9784 187.302 31.6302 186.107 31.087C184.912 30.5438 184.369 29.2402 184.912 28.0453L187.084 23.0482L182.087 10.8814C181.653 9.68644 182.196 8.38285 183.391 7.83969Z" fill="white"/>
</svg>
