<svg width="156" height="25" viewBox="0 0 156 25" fill="none" xmlns="http://www.w3.org/2000/svg">
<path d="M6.32331 13.3176L8.47137 6.78745C8.81506 5.67046 10.018 5.15492 11.049 5.67046C11.9942 6.10007 12.3379 7.13114 11.9083 8.16221L8.29953 17.1841C7.784 18.5588 6.83884 19.0744 5.55001 18.5588C5.03447 18.387 4.60486 18.0433 4.26117 17.1841L0.652426 8.07629C0.222813 7.04522 0.652426 6.01415 1.51165 5.58454C2.54272 5.069 3.74564 5.58454 4.08933 6.70153L6.32331 13.3176Z" fill="white"/>
<path d="M13.1115 7.30292C13.1115 6.78738 13.2834 6.35777 13.627 6.01408C14.3144 5.24078 15.5173 5.3267 16.2906 6.01408C16.6343 6.35777 16.8062 6.8733 16.8062 7.30292V16.9262C16.8062 17.9573 16.0329 18.8165 15.0018 18.8165C13.9707 18.8165 13.1115 17.9573 13.1115 16.9262V7.30292ZM13.3693 0.600962C14.2285 -0.258263 15.5173 -0.258263 16.3766 0.600962C17.2358 1.46019 17.2358 2.74902 16.3766 3.60825C15.5173 4.46747 14.2285 4.46747 13.3693 3.60825C13.0256 3.26456 12.7678 2.74902 12.7678 2.14757C12.7678 1.54611 13.0256 1.03057 13.3693 0.600962Z" fill="white"/>
<path d="M25.8277 5.41233C28.5772 5.75602 29.5223 6.95893 29.1787 8.16185C29.0068 9.02107 28.4054 9.45068 27.6321 9.45068C27.5461 9.45068 27.3743 9.45068 27.2884 9.36476L27.1165 9.27884L26.7728 9.19292L26.5151 9.10699L26.1714 9.02107C23.9374 8.33369 22.133 9.62253 22.133 12.1143C22.2189 14.606 24.0233 15.8949 26.4291 15.0356L26.8588 14.8638L27.0306 14.7779C28.1476 14.4342 29.0927 14.9497 29.2646 16.0667C29.4364 17.0119 28.749 17.8711 27.0306 18.3866C26.601 18.5585 26.1714 18.6444 25.6558 18.6444C21.5316 18.9881 18.3524 16.1526 18.4383 11.8565C18.4383 7.81816 21.6175 4.98271 25.8277 5.41233Z" fill="white"/>
<path d="M31.9287 5.58468V3.43662C31.9287 2.40555 32.7879 1.54633 33.819 1.54633C34.85 1.54633 35.7093 2.40555 35.6233 3.43662V5.58468H36.7403C37.17 5.58468 37.5996 5.75653 37.9433 6.10022C38.6306 6.70168 38.6306 7.81867 37.9433 8.42013C37.5996 8.76382 37.17 8.93566 36.7403 8.93566H35.6233V16.9265C35.6233 17.442 35.4515 17.8716 35.1078 18.2153C34.4204 18.9027 33.2175 18.9027 32.5301 18.2153C32.1864 17.8716 32.0146 17.3561 32.0146 16.9265V8.93566H31.3272C30.8976 8.93566 30.468 8.76382 30.1243 8.42013C29.4369 7.81867 29.4369 6.7876 30.1243 6.10022C30.468 5.75653 30.8976 5.58468 31.3272 5.58468H31.9287Z" fill="white"/>
<path d="M39.0597 7.2175C39.0597 6.35827 39.833 5.49905 40.95 5.41312C42.067 5.3272 42.8403 6.01458 42.7544 6.70196V6.87381C42.8403 6.78788 42.9262 6.61604 43.0981 6.53012C44.5587 4.98351 46.1053 4.98351 46.8786 6.1005C47.566 7.04565 47.2223 8.16264 46.1913 8.59226L46.0194 8.67818L45.5039 8.85002C44.9884 9.02187 44.6447 9.19371 44.3869 9.36556C43.184 10.0529 42.8403 10.6544 42.8403 11.2559V16.7549C42.8403 17.786 41.9811 18.6452 40.95 18.6452C39.9189 18.6452 39.0597 17.786 39.0597 16.8408V7.2175Z" fill="white"/>
<path d="M47.9099 8.50659C49.1128 6.53037 51.1749 5.32745 53.323 5.32745C56.8458 5.32745 59.6813 8.24882 59.6813 12.0294C59.6813 15.8959 56.8458 18.8173 53.323 18.8173C49.8002 18.8173 46.9647 15.8959 46.9647 12.0294C46.9647 10.7406 47.3084 9.53766 47.9099 8.50659ZM50.7453 12.6309C51.089 14.8649 52.3778 15.81 53.9244 15.4663C54.9555 15.2085 55.8147 14.2634 55.9866 12.6309C56.0725 12.2872 56.0725 11.8576 55.9866 11.5139C55.7288 9.96727 54.9555 9.02212 53.9244 8.76435C52.3778 8.42066 51.0031 9.36581 50.7453 11.5139C50.7453 11.6857 50.7453 11.8576 50.7453 12.1153C50.7453 12.3731 50.7453 12.5449 50.7453 12.6309Z" fill="white"/>
<path d="M61.3143 7.30264C61.3143 6.35749 62.0876 5.49826 63.2046 5.41234C64.1498 5.32642 64.8372 5.92788 64.8372 6.61526V6.7871C65.4386 6.09972 66.2119 5.67011 67.3289 5.41234C67.9304 5.32642 68.5318 5.32642 69.1333 5.41234C71.711 5.84195 73.0857 7.47448 73.0857 10.0522V16.926C73.0857 17.957 72.2265 18.8163 71.2813 18.8163C70.2503 18.8163 69.391 17.957 69.391 16.926V10.6536C69.391 10.0522 69.1333 9.53662 68.7037 9.10701C67.8444 8.24779 66.4697 8.24779 65.6105 9.10701C65.1808 9.53662 65.009 10.0522 65.009 10.6536V16.926C65.009 17.957 64.1498 18.8163 63.1187 18.7303C62.0876 18.7303 61.3143 17.8711 61.3143 16.84V7.30264Z" fill="white"/>
<path d="M85.114 13.2323C85.1999 13.6619 85.4577 14.1775 85.7154 14.5211C86.6606 15.7241 88.4649 15.9818 90.5271 14.8648C91.73 14.1775 92.0737 14.1775 92.6752 14.4352C93.0188 14.6071 93.3625 14.8648 93.4484 15.2085C93.964 16.4974 92.3315 18.7313 87.8635 18.7313C83.3096 18.7313 80.2164 14.9508 81.2475 10.3969C81.8489 7.73327 83.8251 5.84297 86.3169 5.41336C89.2383 4.89782 91.9878 6.35851 93.1907 9.10803C93.5344 9.88133 93.7062 10.6546 93.7062 11.1702C93.8781 12.6308 93.3625 13.2323 92.1596 13.2323H85.114ZM90.1834 10.9124C90.1834 10.8265 90.1834 10.7406 90.0975 10.6546C89.7538 8.93618 88.4649 8.07696 87.0043 8.42065C86.145 8.67841 85.3717 9.36579 85.0281 10.5687C85.0281 10.6546 85.028 10.7406 84.9421 10.8265H90.1834V10.9124Z" fill="white"/>
<path d="M95.1666 7.30264C95.1666 6.35749 95.9399 5.49826 97.0569 5.41234C98.0021 5.32642 98.6895 5.92788 98.6895 6.61526V6.7871C99.2909 6.09972 100.064 5.67011 101.181 5.41234C101.783 5.32642 102.384 5.32642 102.986 5.41234C105.563 5.84195 106.938 7.47448 106.938 10.0522V16.926C106.938 17.957 106.079 18.8163 105.134 18.8163C104.103 18.8163 103.243 17.957 103.243 16.926V10.6536C103.243 10.0522 102.986 9.53662 102.556 9.10701C101.697 8.24779 100.322 8.24779 99.4628 9.10701C99.0331 9.53662 98.8613 10.0522 98.8613 10.6536V16.926C98.8613 17.957 98.0021 18.8163 96.971 18.7303C95.9399 18.7303 95.1666 17.8711 95.1666 16.84V7.30264Z" fill="white"/>
<path d="M112.523 13.2323C112.609 13.6619 112.867 14.1775 113.125 14.5211C114.07 15.7241 115.874 15.9818 117.936 14.8648C119.139 14.1775 119.483 14.1775 120.085 14.4352C120.428 14.6071 120.772 14.8648 120.858 15.2085C121.373 16.4974 119.741 18.7313 115.273 18.7313C110.719 18.7313 107.626 14.9508 108.657 10.3969C109.258 7.73327 111.235 5.84297 113.726 5.41336C116.648 4.89782 119.397 6.35851 120.6 9.10803C120.944 9.88133 121.116 10.6546 121.116 11.1702C121.287 12.6308 120.772 13.2323 119.569 13.2323H112.523ZM117.507 10.9124C117.507 10.8265 117.507 10.7406 117.421 10.6546C117.077 8.93618 115.788 8.07696 114.328 8.42065C113.469 8.67841 112.695 9.36579 112.352 10.5687C112.352 10.6546 112.352 10.7406 112.266 10.8265H117.507V10.9124Z" fill="white"/>
<path d="M122.577 7.2175C122.577 6.35827 123.35 5.49905 124.467 5.41312C125.584 5.3272 126.358 6.01458 126.272 6.70196V6.87381C126.358 6.78788 126.444 6.61604 126.615 6.53012C128.076 4.98351 129.623 4.98351 130.396 6.1005C131.083 7.04565 130.74 8.16264 129.709 8.59226L129.537 8.67818L129.021 8.85002C128.506 9.02187 128.162 9.19371 127.904 9.36556C126.701 10.0529 126.358 10.6544 126.358 11.2559V16.7549C126.358 17.786 125.498 18.6452 124.467 18.6452C123.436 18.6452 122.577 17.786 122.577 16.8408V7.2175Z" fill="white"/>
<path d="M139.589 6.70128C139.589 6.0139 140.276 5.41244 141.307 5.49836C142.424 5.58429 143.198 6.44351 143.198 7.38866V17.012C143.198 21.8236 140.362 24.4872 135.379 23.8858C134.348 23.7999 133.488 23.5421 132.629 23.1125C130.825 22.2533 130.567 21.0503 131.426 20.1052C131.942 19.5897 132.543 19.4178 133.317 19.7615L134.09 20.1052C134.262 20.1911 134.434 20.277 134.605 20.277C137.785 21.394 139.589 20.1052 139.675 17.6994C139.675 17.5275 139.675 17.3557 139.675 17.1838C138.3 19.16 134.949 19.5037 132.543 17.1838C131.083 15.7231 130.309 13.2314 130.825 10.5678C130.997 9.62264 131.34 8.76342 131.77 8.07604C133.832 4.81098 137.956 4.46729 139.847 6.7872V6.70128H139.589ZM134.949 14.6061C135.98 15.895 137.871 15.8091 138.816 14.5202C139.245 13.9188 139.503 13.2314 139.503 12.2003C139.503 10.5678 138.902 9.53672 137.956 9.02119C136.324 8.24788 134.52 9.27895 134.262 11.5129C134.262 11.7707 134.176 11.9426 134.176 12.2003C134.176 13.2314 134.52 14.0047 134.949 14.6061Z" fill="white"/>
<path d="M145.26 5.58435C146.291 5.15474 147.322 5.67027 147.752 6.78726L150.072 12.9737L152.392 6.78726C152.821 5.58435 153.938 5.15474 154.969 5.58435C155.914 6.01396 156.258 7.04503 155.914 7.99018L149.9 22.6829C149.384 23.8858 148.353 24.4014 147.408 23.9718C146.463 23.5422 146.033 22.5111 146.463 21.5659L148.181 17.6135L144.229 7.99018C143.885 7.04503 144.315 6.01396 145.26 5.58435Z" fill="white"/>
</svg>
