<svg width="87" height="53" viewBox="0 0 87 53" fill="none" xmlns="http://www.w3.org/2000/svg">
<path d="M19.0162 1.49501C19.0162 1.49501 13.6932 -0.569005 8.37023 3.77629C8.37023 3.77629 1.96092 8.01294 0.765966 26.1545C0.765966 26.1545 0.440069 29.1962 3.04724 29.6308C3.04724 29.6308 5.76305 30.1739 6.08895 27.8926C6.41484 25.6114 6.41484 14.205 11.4119 8.33884C11.4119 8.33884 11.9551 7.57841 13.2587 7.03525C14.345 6.38346 15.2141 5.07987 15.9745 4.10218C15.9745 3.99355 16.9522 2.68996 19.0162 1.49501Z" fill="white"/>
<path d="M28.577 1.06002C28.577 1.06002 23.9058 -0.46083 18.8001 3.44993C18.8001 3.44993 12.7166 7.14343 11.3044 21.8088C11.3044 21.8088 10.7613 25.3937 11.0872 27.2404C11.0872 27.2404 11.3044 29.413 13.4771 29.5217C13.4771 29.5217 16.1929 29.7389 16.3015 27.2404C16.5188 24.7419 16.5188 23.7642 16.5188 23.7642C16.5188 23.7642 16.9533 13.9873 20.8641 9.09881L21.8418 9.85923C21.9504 9.85923 23.3626 4.75352 28.577 1.06002Z" fill="white"/>
<path d="M38.2438 1.06027C38.2438 1.06027 31.9432 -0.460582 27.3806 4.5365C27.3806 4.5365 22.8181 8.5559 21.5145 18.6587C21.5145 18.6587 20.9713 24.0903 20.8627 26.6975C20.8627 26.6975 20.8627 29.196 23.2526 29.5219C23.2526 29.5219 25.7511 29.6306 25.9684 27.0234C25.9684 27.0234 26.1857 14.7479 30.7482 9.09906L31.8345 9.75085C31.7259 9.85948 33.6813 4.10197 38.2438 1.06027Z" fill="white"/>
<path d="M45.5226 0.951554C45.5226 0.951554 39.1133 0.734289 35.4198 7.14359C35.4198 7.14359 31.0745 13.4443 31.0745 26.2629C31.0745 26.2629 30.8572 29.3046 33.2471 29.6305C33.2471 29.6305 36.0716 29.8477 36.0716 26.5888C36.0716 26.5888 36.1802 13.8788 41.0686 8.77308C41.0686 8.77308 45.4139 13.8788 45.7398 26.0456C45.7398 26.0456 45.8485 34.4103 47.478 38.9729C47.478 38.9729 48.8902 33.8671 49.2161 26.6974C49.2161 26.6974 49.1074 25.3938 50.1938 24.5248C50.1938 24.5248 50.9542 24.1989 50.8456 22.8953C50.8456 22.8953 49.7592 12.3579 46.283 6.27454C46.283 6.27454 53.7786 5.84001 55.1908 20.7226C55.1908 20.7226 55.1908 22.8953 56.3858 24.3075C56.3858 24.3075 57.2549 24.9593 57.3635 26.4801C57.3635 26.4801 57.5808 28.5442 56.929 35.388C56.929 35.388 56.8203 36.9088 57.4721 38.9729C57.4721 38.9729 59.3189 33.8671 58.8843 28.8701C58.8843 28.8701 58.6671 24.8507 60.6225 23.4384C60.6225 23.4384 60.4052 12.1407 55.9513 5.84001C55.8426 5.84001 52.2578 0.625657 45.5226 0.951554Z" fill="white"/>
<path d="M67.7921 52.3345C67.7921 52.3345 73.1151 54.3985 78.4381 50.0532C78.4381 50.0532 84.8474 45.8166 86.0423 27.675C86.0423 27.675 86.3682 24.6333 83.7611 24.1987C83.7611 24.1987 81.0452 23.6556 80.7194 25.9368C80.3935 28.2181 80.3935 39.6245 75.3964 45.4907C75.3964 45.4907 74.8532 46.2511 73.5496 46.7942C72.4633 47.446 71.5942 48.7496 70.8338 49.7273C70.8338 49.7273 69.8561 51.0309 67.7921 52.3345Z" fill="white"/>
<path d="M58.1238 52.7693C58.1238 52.7693 62.795 54.2901 67.9007 50.3794C67.9007 50.3794 73.9841 46.6859 75.3963 32.0205C75.3963 32.0205 75.9395 28.4357 75.6136 26.5889C75.6136 26.5889 75.3963 24.4163 73.2237 24.3076C73.2237 24.3076 70.5079 24.0904 70.3992 26.5889C70.182 29.0874 70.182 30.0651 70.182 30.0651C70.182 30.0651 69.7474 39.842 65.8367 44.7305L64.859 43.9701C64.859 43.9701 63.4468 49.0758 58.1238 52.7693Z" fill="white"/>
<path d="M48.5646 52.7696C48.5646 52.7696 54.8652 54.2904 59.4278 49.2933C59.4278 49.2933 63.9904 45.2739 65.2939 35.1711C65.2939 35.1711 65.8371 29.7395 65.9457 27.1323C65.9457 27.1323 65.9457 24.6338 63.5558 24.3079C63.5558 24.3079 61.0573 24.1993 60.84 26.8064C60.84 26.8064 60.6228 39.0819 56.0602 44.7308L54.9739 44.079C55.0825 43.9703 53.1271 49.7278 48.5646 52.7696Z" fill="white"/>
<path d="M41.2869 52.8769C41.2869 52.8769 47.6962 53.0942 51.3897 46.6848C51.3897 46.6848 55.735 40.3842 55.735 27.5656C55.735 27.5656 55.9523 24.5239 53.5623 24.198C53.5623 24.198 50.7379 23.9807 50.7379 27.2397C50.7379 27.2397 50.6293 39.9496 45.7408 45.0554C45.7408 45.0554 41.3955 39.9496 41.0696 27.7828C41.0696 27.7828 40.961 19.4181 39.3315 14.8556C39.3315 14.8556 37.9193 19.9613 37.5934 27.131C37.5934 27.131 37.702 28.4346 36.6157 29.3037C36.6157 29.3037 35.8553 29.6296 35.9639 30.9332C35.9639 30.9332 37.0502 41.4705 40.5265 47.5539C40.5265 47.5539 33.0308 47.9884 31.6186 33.1058C31.6186 33.1058 31.6186 30.9332 30.4237 29.5209C30.4237 29.5209 29.5546 28.8692 29.446 27.3483C29.446 27.3483 29.2287 25.2843 29.8805 18.4405C29.8805 18.4405 29.9891 16.9196 29.3373 14.8556C29.3373 14.8556 27.4906 19.9613 27.9251 24.9584C27.9251 24.9584 28.1424 28.9778 26.187 30.39C26.187 30.39 26.4043 41.6878 30.8582 47.9884C30.9668 47.9884 34.5517 53.0942 41.2869 52.8769Z" fill="white"/>
</svg>
