<svg width="224" height="43" viewBox="0 0 224 43" fill="none" xmlns="http://www.w3.org/2000/svg">
<g clip-path="url(#clip0_1151_3108)">
<path d="M74.3233 13.3176L76.4714 6.78745C76.8151 5.67046 78.018 5.15492 79.049 5.67046C79.9942 6.10007 80.3379 7.13114 79.9083 8.16221L76.2995 17.1841C75.784 18.5588 74.8388 19.0744 73.55 18.5588C73.0345 18.387 72.6049 18.0433 72.2612 17.1841L68.6524 8.07629C68.2228 7.04522 68.6524 6.01415 69.5117 5.58454C70.5427 5.069 71.7456 5.58454 72.0893 6.70153L74.3233 13.3176Z" fill="white"/>
<path d="M81.1115 7.30292C81.1115 6.78738 81.2834 6.35777 81.627 6.01408C82.3144 5.24078 83.5173 5.3267 84.2906 6.01408C84.6343 6.35777 84.8062 6.8733 84.8062 7.30292V16.9262C84.8062 17.9573 84.0329 18.8165 83.0018 18.8165C81.9707 18.8165 81.1115 17.9573 81.1115 16.9262V7.30292ZM81.3693 0.600962C82.2285 -0.258263 83.5173 -0.258263 84.3766 0.600962C85.2358 1.46019 85.2358 2.74902 84.3766 3.60825C83.5173 4.46747 82.2285 4.46747 81.3693 3.60825C81.0256 3.26456 80.7678 2.74902 80.7678 2.14757C80.7678 1.54611 81.0256 1.03057 81.3693 0.600962Z" fill="white"/>
<path d="M93.8276 5.41226C96.5771 5.75596 97.5222 6.95887 97.1785 8.16179C97.0067 9.02101 96.4052 9.45062 95.6319 9.45062C95.546 9.45062 95.3742 9.45062 95.2882 9.3647L95.1164 9.27878L94.7727 9.19286L94.5149 9.10693L94.1712 9.02101C91.9373 8.33363 90.1329 9.62247 90.1329 12.1142C90.2188 14.606 92.0232 15.8948 94.429 15.0356L94.8586 14.8637L95.0305 14.7778C96.1475 14.4341 97.0926 14.9497 97.2645 16.0667C97.4363 17.0118 96.7489 17.871 95.0305 18.3866C94.6009 18.5584 94.1713 18.6443 93.6557 18.6443C89.5314 18.988 86.3523 16.1526 86.4382 11.8565C86.4382 7.8181 89.6174 4.98265 93.8276 5.41226Z" fill="white"/>
<path d="M99.9286 5.58462V3.43656C99.9286 2.40549 100.788 1.54626 101.819 1.54626C102.85 1.54626 103.709 2.40549 103.623 3.43656V5.58462H104.74C105.17 5.58462 105.599 5.75647 105.943 6.10016C106.631 6.70162 106.631 7.81861 105.943 8.42007C105.599 8.76376 105.17 8.9356 104.74 8.9356H103.623V16.9264C103.623 17.4419 103.451 17.8715 103.108 18.2152C102.42 18.9026 101.217 18.9026 100.53 18.2152C100.186 17.8715 100.014 17.356 100.014 16.9264V8.9356H99.3271C98.8975 8.9356 98.4679 8.76376 98.1242 8.42007C97.4368 7.81861 97.4368 6.78754 98.1242 6.10016C98.4679 5.75647 98.8975 5.58462 99.3271 5.58462H99.9286Z" fill="white"/>
<path d="M107.06 7.2175C107.06 6.35827 107.833 5.49905 108.95 5.41312C110.067 5.3272 110.84 6.01458 110.754 6.70196V6.87381C110.84 6.78788 110.926 6.61604 111.098 6.53012C112.559 4.98351 114.105 4.98351 114.879 6.1005C115.566 7.04565 115.222 8.16264 114.191 8.59226L114.019 8.67818L113.504 8.85002C112.988 9.02187 112.645 9.19371 112.387 9.36556C111.184 10.0529 110.84 10.6544 110.84 11.2559V16.7549C110.84 17.786 109.981 18.6452 108.95 18.6452C107.919 18.6452 107.06 17.786 107.06 16.8408V7.2175Z" fill="white"/>
<path d="M115.91 8.50665C117.113 6.53043 119.175 5.32751 121.323 5.32751C124.846 5.32751 127.681 8.24888 127.681 12.0295C127.681 15.896 124.846 18.8173 121.323 18.8173C117.8 18.8173 114.965 15.896 114.965 12.0295C114.965 10.7406 115.308 9.53772 115.91 8.50665ZM118.745 12.6309C119.089 14.8649 120.378 15.8101 121.924 15.4664C122.955 15.2086 123.815 14.2635 123.986 12.6309C124.072 12.2872 124.072 11.8576 123.986 11.5139C123.729 9.96733 122.955 9.02218 121.924 8.76442C120.378 8.42073 119.003 9.36587 118.745 11.5139C118.745 11.6858 118.745 11.8576 118.745 12.1154C118.745 12.3732 118.745 12.545 118.745 12.6309Z" fill="white"/>
<path d="M129.314 7.30264C129.314 6.35749 130.088 5.49826 131.205 5.41234C132.15 5.32642 132.837 5.92788 132.837 6.61526V6.7871C133.439 6.09972 134.212 5.67011 135.329 5.41234C135.93 5.32642 136.532 5.32642 137.133 5.41234C139.711 5.84195 141.086 7.47448 141.086 10.0522V16.926C141.086 17.957 140.227 18.8163 139.281 18.8163C138.25 18.8163 137.391 17.957 137.391 16.926V10.6536C137.391 10.0522 137.133 9.53662 136.704 9.10701C135.845 8.24779 134.47 8.24779 133.611 9.10701C133.181 9.53662 133.009 10.0522 133.009 10.6536V16.926C133.009 17.957 132.15 18.8163 131.119 18.7303C130.088 18.7303 129.314 17.8711 129.314 16.84V7.30264Z" fill="white"/>
<path d="M153.114 13.2323C153.2 13.6619 153.458 14.1775 153.715 14.5211C154.661 15.7241 156.465 15.9818 158.527 14.8648C159.73 14.1775 160.074 14.1775 160.675 14.4352C161.019 14.6071 161.363 14.8648 161.448 15.2085C161.964 16.4974 160.331 18.7313 155.863 18.7313C151.31 18.7313 148.216 14.9508 149.247 10.3969C149.849 7.73327 151.825 5.84297 154.317 5.41336C157.238 4.89782 159.988 6.35851 161.191 9.10803C161.534 9.88133 161.706 10.6546 161.706 11.1702C161.878 12.6308 161.363 13.2323 160.16 13.2323H153.114ZM158.183 10.9124C158.183 10.8265 158.183 10.7406 158.097 10.6546C157.754 8.93618 156.465 8.07696 155.004 8.42065C154.145 8.67841 153.372 9.36579 153.028 10.5687C153.028 10.6546 153.028 10.7406 152.942 10.8265H158.183V10.9124Z" fill="white"/>
<path d="M163.167 7.30264C163.167 6.35749 163.94 5.49826 165.057 5.41234C166.002 5.32642 166.689 5.92788 166.689 6.61526V6.7871C167.291 6.09972 168.064 5.67011 169.181 5.41234C169.783 5.32642 170.384 5.32642 170.985 5.41234C173.563 5.84195 174.938 7.47448 174.938 10.0522V16.926C174.938 17.957 174.079 18.8163 173.134 18.8163C172.102 18.8163 171.243 17.957 171.243 16.926V10.6536C171.243 10.0522 170.985 9.53662 170.556 9.10701C169.697 8.24779 168.322 8.24779 167.463 9.10701C167.033 9.53662 166.861 10.0522 166.861 10.6536V16.926C166.861 17.957 166.002 18.8163 164.971 18.7303C163.94 18.7303 163.167 17.8711 163.167 16.84V7.30264Z" fill="white"/>
<path d="M180.523 13.2323C180.609 13.6619 180.867 14.1775 181.125 14.5211C182.07 15.7241 183.874 15.9818 185.936 14.8648C187.139 14.1775 187.483 14.1775 188.085 14.4352C188.428 14.6071 188.772 14.8648 188.858 15.2085C189.373 16.4974 187.741 18.7313 183.273 18.7313C178.719 18.7313 175.626 14.9508 176.657 10.3969C177.258 7.73327 179.235 5.84297 181.726 5.41336C184.648 4.89782 187.397 6.35851 188.6 9.10803C188.944 9.88133 189.116 10.6546 189.116 11.1702C189.287 12.6308 188.772 13.2323 187.569 13.2323H180.523ZM185.507 10.9124C185.507 10.8265 185.507 10.7406 185.421 10.6546C185.077 8.93618 183.788 8.07696 182.328 8.42065C181.469 8.67841 180.695 9.36579 180.352 10.5687C180.352 10.6546 180.352 10.7406 180.266 10.8265H185.507V10.9124Z" fill="white"/>
<path d="M190.577 7.2175C190.577 6.35827 191.35 5.49905 192.467 5.41312C193.584 5.3272 194.357 6.01458 194.272 6.70196V6.87381C194.357 6.78788 194.443 6.61604 194.615 6.53012C196.076 4.98351 197.623 4.98351 198.396 6.1005C199.083 7.04565 198.74 8.16264 197.708 8.59226L197.537 8.67818L197.021 8.85002C196.506 9.02187 196.162 9.19371 195.904 9.36556C194.701 10.0529 194.357 10.6544 194.357 11.2559V16.7549C194.357 17.786 193.498 18.6452 192.467 18.6452C191.436 18.6452 190.577 17.786 190.577 16.8408V7.2175Z" fill="white"/>
<path d="M207.589 6.70122C207.589 6.01384 208.276 5.41238 209.307 5.4983C210.424 5.58422 211.198 6.44345 211.198 7.3886V17.0119C211.198 21.8236 208.362 24.4872 203.379 23.8857C202.348 23.7998 201.488 23.542 200.629 23.1124C198.825 22.2532 198.567 21.0503 199.426 20.1051C199.942 19.5896 200.543 19.4177 201.317 19.7614L202.09 20.1051C202.262 20.191 202.434 20.277 202.605 20.277C205.785 21.394 207.589 20.1051 207.675 17.6993C207.675 17.5275 207.675 17.3556 207.675 17.1838C206.3 19.16 202.949 19.5037 200.543 17.1838C199.083 15.7231 198.309 13.2313 198.825 10.5677C198.997 9.62258 199.34 8.76336 199.77 8.07598C201.832 4.81092 205.956 4.46723 207.847 6.78714V6.70122H207.589ZM202.949 14.6061C203.98 15.8949 205.871 15.809 206.816 14.5202C207.245 13.9187 207.503 13.2313 207.503 12.2003C207.503 10.5677 206.902 9.53666 205.956 9.02112C204.324 8.24782 202.52 9.27889 202.262 11.5129C202.262 11.7706 202.176 11.9425 202.176 12.2003C202.176 13.2313 202.52 14.0046 202.949 14.6061Z" fill="white"/>
<path d="M213.26 5.58435C214.291 5.15474 215.322 5.67027 215.752 6.78726L218.072 12.9737L220.392 6.78726C220.821 5.58435 221.938 5.15474 222.969 5.58435C223.914 6.01396 224.258 7.04503 223.914 7.99018L217.9 22.6829C217.384 23.8858 216.353 24.4014 215.408 23.9718C214.463 23.5422 214.033 22.5111 214.463 21.5659L216.181 17.6135L212.229 7.99018C211.885 7.04503 212.315 6.01396 213.26 5.58435Z" fill="white"/>
<path d="M94.3433 24.4866C94.8588 24.4866 95.2025 24.7444 95.2025 25.174C95.2025 25.6895 94.8588 25.9473 94.2574 25.9473C94.0855 25.9473 93.9137 25.9473 93.7418 25.9473V24.5725C93.9137 24.4866 94.1715 24.4866 94.3433 24.4866ZM95.6321 28.3531C95.9758 28.0954 96.0617 27.7517 96.0617 27.408C96.0617 27.0643 95.9758 26.8065 95.804 26.5488C95.6321 26.3769 95.3744 26.2051 95.0307 26.1191C95.2025 26.0332 95.3744 25.9473 95.5462 25.7755C95.7181 25.6036 95.804 25.4318 95.804 25.174C95.804 24.8303 95.7181 24.4866 95.4603 24.3148C95.2025 24.1429 94.8588 24.057 94.3433 24.057C94.0855 24.057 93.6559 24.057 93.1404 24.057V28.7827H94.5151C94.9448 28.6968 95.3744 28.525 95.6321 28.3531ZM95.2025 26.5488C95.3744 26.7206 95.4603 26.8925 95.4603 27.2361C95.4603 27.5798 95.3744 27.8376 95.2025 27.9235C95.0307 28.0954 94.687 28.1813 94.3433 28.1813C94.2574 28.1813 94.0855 28.1813 93.8278 28.1813V26.3769H94.3433C94.687 26.291 95.0307 26.3769 95.2025 26.5488Z" fill="white"/>
<path d="M105.513 28.6971H102.763V23.9713H103.365V28.0956H105.513V28.6971Z" fill="white"/>
<path d="M111.958 27.2366V23.9715H112.559V27.1507C112.559 27.4084 112.645 27.6662 112.817 27.8381C112.989 28.0099 113.246 28.0958 113.504 28.0958C113.848 28.0958 114.106 28.0099 114.277 27.8381C114.449 27.6662 114.535 27.4084 114.535 27.0648V23.8856H115.137V27.1507C115.137 27.6662 114.965 28.0099 114.707 28.2677C114.449 28.5254 114.02 28.6973 113.504 28.6973C112.989 28.6973 112.559 28.5254 112.301 28.2677C112.129 28.0958 111.958 27.7521 111.958 27.2366Z" fill="white"/>
<path d="M126.049 24.5728H123.901V25.8616H125.447V26.3771H123.901V28.0956H126.049V28.6971H123.213V23.9713H126.049V24.5728Z" fill="white"/>
<path d="M141.514 24.5728C142.374 24.5728 142.803 24.8305 142.803 25.432C142.803 26.0335 142.374 26.3771 141.6 26.3771C141.6 26.3771 141.429 26.3771 141.171 26.3771V24.6587C141.343 24.5728 141.429 24.5728 141.514 24.5728ZM141.686 26.8927C142.889 26.8927 143.491 26.3771 143.491 25.3461C143.491 24.4009 142.803 23.9713 141.429 23.9713C141.343 23.9713 140.999 23.9713 140.569 23.9713V28.6971H141.171V26.8927C141.429 26.8927 141.6 26.8927 141.686 26.8927Z" fill="white"/>
<path d="M150.88 25.0024C151.052 24.6587 151.395 24.4868 151.825 24.4868C152.684 24.4868 153.2 25.0883 153.2 26.2912C153.2 26.8927 153.114 27.3223 152.856 27.666C152.598 28.0097 152.255 28.1815 151.825 28.1815C151.395 28.1815 151.138 28.0097 150.966 27.666C150.794 27.3223 150.622 26.8927 150.622 26.2912C150.536 25.7757 150.622 25.2602 150.88 25.0024ZM150.364 28.0956C150.708 28.5252 151.138 28.783 151.739 28.783C152.427 28.783 152.856 28.5252 153.2 28.0956C153.544 27.666 153.715 27.0645 153.715 26.2912C153.715 25.5179 153.544 24.9165 153.2 24.5728C152.856 24.1432 152.341 23.9713 151.739 23.9713C151.138 23.9713 150.708 24.2291 150.364 24.6587C150.021 25.0883 149.849 25.6898 149.849 26.3771C149.849 26.9786 150.021 27.5801 150.364 28.0956Z" fill="white"/>
<path d="M165.487 23.9713L164.026 28.783H163.855L162.738 25.5179L161.706 28.783H161.449L159.988 23.9713H160.675L161.621 27.2364L162.652 23.9713H162.823L163.855 27.2364L164.8 23.9713H165.487Z" fill="white"/>
<path d="M174.767 24.5728H172.533V25.8616H174.165V26.3771H172.533V28.0956H174.681V28.6971H171.931V23.9713H174.767V24.5728Z" fill="white"/>
<path d="M182.413 24.5728C182.843 24.5728 183.101 24.6587 183.272 24.7446C183.444 24.8305 183.53 25.0883 183.53 25.3461C183.53 25.6898 183.444 25.8616 183.272 26.0335C183.101 26.1194 182.843 26.2053 182.413 26.2053C182.241 26.2053 182.155 26.2053 181.984 26.2053V24.6587C182.241 24.5728 182.327 24.5728 182.413 24.5728ZM183.358 26.549C183.616 26.4631 183.788 26.3771 184.046 26.1194C184.218 25.8616 184.303 25.6038 184.303 25.3461C184.303 24.4868 183.702 23.9713 182.585 23.9713C182.413 23.9713 182.241 23.9713 181.898 23.9713C181.554 23.9713 181.382 23.9713 181.382 23.9713V28.6971H181.984V26.6349C182.327 26.6349 182.499 26.6349 182.671 26.6349L183.96 28.6111H184.733L183.358 26.549Z" fill="white"/>
</g>
<defs>
<clipPath id="clip0_1151_3108">
<rect width="224" height="42.8753" fill="white"/>
</clipPath>
</defs>
</svg>
