<svg width="68" height="42" viewBox="0 0 68 42" fill="none" xmlns="http://www.w3.org/2000/svg">
<path d="M14.4353 1.14797C14.4353 1.14797 10.2251 -0.484559 6.01488 2.95234C6.01488 2.95234 0.945449 6.30332 0.000300952 20.6524C0.000300952 20.6524 -0.257467 23.0582 1.80467 23.4019C1.80467 23.4019 3.95274 23.8315 4.2105 22.0271C4.46827 20.2228 4.46827 11.2009 8.42071 6.56109C8.42071 6.56109 8.85032 5.95963 9.88139 5.53002C10.7406 5.01448 11.428 3.98341 12.0295 3.21011C12.0295 3.12419 12.8028 2.09312 14.4353 1.14797Z" fill="white"/>
<path d="M21.9968 0.803854C21.9968 0.803854 18.3022 -0.399061 14.2638 2.69415C14.2638 2.69415 9.45213 5.61552 8.33514 17.2151C8.33514 17.2151 7.90553 20.0505 8.1633 21.5112C8.1633 21.5112 8.33514 23.2296 10.0536 23.3156C10.0536 23.3156 12.2017 23.4874 12.2876 21.5112C12.4594 19.535 12.4594 18.7617 12.4594 18.7617C12.4594 18.7617 12.8031 11.0286 15.8963 7.16212L16.6696 7.76358C16.7555 7.76358 17.8725 3.72522 21.9968 0.803854Z" fill="white"/>
<path d="M29.643 0.80418C29.643 0.80418 24.6595 -0.398735 21.0507 3.5537C21.0507 3.5537 17.442 6.73283 16.4109 14.7236C16.4109 14.7236 15.9813 19.0198 15.8954 21.0819C15.8954 21.0819 15.8954 23.0581 17.7857 23.3159C17.7857 23.3159 19.7619 23.4018 19.9337 21.3397C19.9337 21.3397 20.1056 11.6304 23.7143 7.16245L24.5736 7.67798C24.4876 7.7639 26.0342 3.21001 29.643 0.80418Z" fill="white"/>
<path d="M35.4005 0.717531C35.4005 0.717531 30.3311 0.545686 27.4097 5.61511C27.4097 5.61511 23.9728 10.5986 23.9728 20.7375C23.9728 20.7375 23.801 23.1433 25.6913 23.4011C25.6913 23.4011 27.9253 23.5729 27.9253 20.9952C27.9253 20.9952 28.0112 10.9423 31.8777 6.90395C31.8777 6.90395 35.3146 10.9423 35.5724 20.5656C35.5724 20.5656 35.6583 27.1817 36.9471 30.7904C36.9471 30.7904 38.0641 26.7521 38.3219 21.0812C38.3219 21.0812 38.236 20.0501 39.0952 19.3627C39.0952 19.3627 39.6966 19.1049 39.6107 18.0739C39.6107 18.0739 38.7515 9.7394 36.002 4.92773C36.002 4.92773 41.9306 4.58404 43.0476 16.3554C43.0476 16.3554 43.0476 18.0739 43.9928 19.1909C43.9928 19.1909 44.6801 19.7064 44.7661 20.9093C44.7661 20.9093 44.9379 22.5419 44.4224 27.955C44.4224 27.955 44.3365 29.1579 44.852 30.7904C44.852 30.7904 46.3127 26.7521 45.969 22.7996C45.969 22.7996 45.7971 19.6205 47.3437 18.5035C47.3437 18.5035 47.1719 9.56755 43.6491 4.58404C43.5632 4.58404 40.7277 0.459763 35.4005 0.717531Z" fill="white"/>
<path d="M53.0148 41.3593C53.0148 41.3593 57.225 42.9918 61.4352 39.5549C61.4352 39.5549 66.5046 36.204 67.4498 21.8549C67.4498 21.8549 67.7075 19.4491 65.6454 19.1054C65.6454 19.1054 63.4973 18.6758 63.2395 20.4801C62.9818 22.2845 62.9818 31.3064 59.0293 35.9462C59.0293 35.9462 58.5997 36.5476 57.5687 36.9773C56.7094 37.4928 56.0221 38.5239 55.4206 39.2972C55.4206 39.2972 54.6473 40.3282 53.0148 41.3593Z" fill="white"/>
<path d="M45.3667 41.7027C45.3667 41.7027 49.0614 42.9056 53.0997 39.8124C53.0997 39.8124 57.9114 36.8911 59.0284 25.2915C59.0284 25.2915 59.458 22.4561 59.2002 20.9954C59.2002 20.9954 59.0284 19.2769 57.3099 19.191C57.3099 19.191 55.1619 19.0192 55.0759 20.9954C54.9041 22.9716 54.9041 23.7449 54.9041 23.7449C54.9041 23.7449 54.5604 31.4779 51.4672 35.3445L50.6939 34.743C50.6939 34.743 49.5769 38.7814 45.3667 41.7027Z" fill="white"/>
<path d="M37.8064 41.7034C37.8064 41.7034 42.7899 42.9063 46.3986 38.9538C46.3986 38.9538 50.0074 35.7747 51.0385 27.7839C51.0385 27.7839 51.4681 23.4878 51.554 21.4257C51.554 21.4257 51.554 19.4494 49.6637 19.1917C49.6637 19.1917 47.6875 19.1057 47.5156 21.1679C47.5156 21.1679 47.3438 30.8771 43.7351 35.3451L42.8758 34.8296C42.9617 34.7436 41.4151 39.2975 37.8064 41.7034Z" fill="white"/>
<path d="M32.0491 41.7883C32.0491 41.7883 37.1185 41.9602 40.0399 36.8908C40.0399 36.8908 43.4768 31.9072 43.4768 21.7684C43.4768 21.7684 43.6486 19.3626 41.7583 19.1048C41.7583 19.1048 39.5243 18.9329 39.5243 21.5106C39.5243 21.5106 39.4384 31.5636 35.5719 35.6019C35.5719 35.6019 32.135 31.5636 31.8772 21.9402C31.8772 21.9402 31.7913 15.3242 30.5025 11.7155C30.5025 11.7155 29.3855 15.7538 29.1277 21.4247C29.1277 21.4247 29.2136 22.4558 28.3544 23.1431C28.3544 23.1431 27.7529 23.4009 27.8389 24.432C27.8389 24.432 28.6981 32.7665 31.4476 37.5781C31.4476 37.5781 25.519 37.9218 24.402 26.1504C24.402 26.1504 24.402 24.432 23.4568 23.315C23.4568 23.315 22.7694 22.7995 22.6835 21.5965C22.6835 21.5965 22.5117 19.964 23.0272 14.5509C23.0272 14.5509 23.1131 13.348 22.5976 11.7155C22.5976 11.7155 21.1369 15.7538 21.4806 19.7062C21.4806 19.7062 21.6524 22.8854 20.1058 24.0024C20.1058 24.0024 20.2777 32.9383 23.8005 37.9218C23.8864 37.9218 26.7219 41.9602 32.0491 41.7883Z" fill="white"/>
</svg>
