<svg width="17" height="17" viewBox="0 0 17 17" fill="none" xmlns="http://www.w3.org/2000/svg">
<path d="M8.2205 3.96057C5.8284 3.96057 3.88203 5.94649 3.88203 8.38719C3.88203 10.8279 5.8284 12.8138 8.2205 12.8138C10.6126 12.8138 12.559 10.8279 12.559 8.38719C12.559 5.94649 10.6126 3.96057 8.2205 3.96057ZM8.2205 11.5713C6.49973 11.5713 5.09985 10.1429 5.09985 8.38719C5.09985 6.63208 6.49973 5.20313 8.2205 5.20313C9.94128 5.20313 11.3412 6.63208 11.3412 8.38719C11.3412 10.1429 9.94128 11.5713 8.2205 11.5713Z" fill="#969591"/>
<path d="M8.22028 3.05453C8.5564 3.05453 8.82919 2.7762 8.82919 2.43325V0.621282C8.82919 0.278335 8.5564 0 8.22028 0C7.88386 0 7.61137 0.278335 7.61137 0.621282V2.43325C7.61137 2.77651 7.88386 3.05453 8.22028 3.05453Z" fill="#969591"/>
<path d="M8.22028 13.72C7.88386 13.72 7.61137 13.9983 7.61137 14.3413V16.1535C7.61137 16.4965 7.88386 16.7748 8.22028 16.7748C8.5564 16.7748 8.82919 16.4965 8.82919 16.1535V14.3413C8.82919 13.9986 8.5564 13.72 8.22028 13.72Z" fill="#969591"/>
<path d="M15.8325 7.76611H14.0566C13.7205 7.76611 13.4477 8.04414 13.4477 8.38739C13.4477 8.73034 13.7205 9.00867 14.0566 9.00867H15.8325C16.1686 9.00867 16.4414 8.73034 16.4414 8.38739C16.4414 8.04414 16.1686 7.76611 15.8325 7.76611Z" fill="#969591"/>
<path d="M2.99401 8.38739C2.99401 8.04414 2.72152 7.76611 2.3851 7.76611H0.60891C0.272792 7.76611 0 8.04414 0 8.38739C0 8.73034 0.272792 9.00867 0.60891 9.00867H2.3851C2.72152 9.00867 2.99401 8.73034 2.99401 8.38739Z" fill="#969591"/>
<path d="M12.7771 4.61673L14.0327 3.33534C14.2705 3.09273 14.2702 2.69915 14.0327 2.45685C13.7949 2.21393 13.4095 2.21424 13.1717 2.45685L11.9161 3.73793C11.6783 3.98054 11.678 4.37381 11.9161 4.61673C12.1536 4.85934 12.5393 4.85934 12.7771 4.61673Z" fill="#969591"/>
<path d="M3.6633 12.158L2.40742 13.4394C2.16995 13.682 2.16934 14.0753 2.40742 14.3179C2.6449 14.5605 3.03095 14.5605 3.26842 14.3179L4.5243 13.0371C4.76208 12.7945 4.76178 12.4006 4.5243 12.158C4.28652 11.9151 3.90108 11.9157 3.6633 12.158Z" fill="#969591"/>
<path d="M12.7779 12.1589C12.5401 11.9163 12.1547 11.9163 11.9166 12.1589C11.6791 12.4009 11.6791 12.7948 11.9166 13.0374L13.1725 14.3181C13.4102 14.5608 13.796 14.5608 14.0335 14.3181C14.2715 14.0755 14.2712 13.6823 14.0335 13.4397L12.7779 12.1589Z" fill="#969591"/>
<path d="M3.66307 4.61645C3.90085 4.85906 4.2866 4.85875 4.52407 4.61645C4.76216 4.37353 4.76216 3.98057 4.52407 3.73765L3.26819 2.45626C3.03072 2.21396 2.64497 2.21364 2.40719 2.45626C2.16972 2.69856 2.16972 3.09245 2.40719 3.33475L3.66307 4.61645Z" fill="#969591"/>
</svg>
