<svg width="12" height="20" viewBox="0 0 12 20" fill="none" xmlns="http://www.w3.org/2000/svg">
<path fill-rule="evenodd" clip-rule="evenodd" d="M2 2V18H10V2H2ZM1 0C0.447715 0 0 0.447716 0 1V19C0 19.5523 0.447715 20 1 20H11C11.5523 20 12 19.5523 12 19V1C12 0.447715 11.5523 0 11 0H1ZM6 15C6.55228 15 7 14.5523 7 14C7 13.4477 6.55228 13 6 13C5.44772 13 5 13.4477 5 14C5 14.5523 5.44772 15 6 15ZM6 17C7.65685 17 9 15.6569 9 14C9 12.3431 7.65685 11 6 11C4.34315 11 3 12.3431 3 14C3 15.6569 4.34315 17 6 17ZM7 4C7 3.44772 6.55228 3 6 3C5.44772 3 5 3.44772 5 4V7C5 7.55228 5.44772 8 6 8C6.55228 8 7 7.55228 7 7V4Z" fill="white"/>
</svg>
