<svg width="18" height="18" viewBox="0 0 18 18" fill="none" xmlns="http://www.w3.org/2000/svg">
<path d="M9 11.25C10.2431 11.25 11.25 9.92812 11.25 8.29688C11.25 6.37313 9 3.375 9 3.375C9 3.375 6.75 6.20888 6.75 8.29688C6.75 9.92812 7.75688 11.25 9 11.25ZM8.982 5.38875C9.56025 6.3675 10.125 7.54425 10.125 8.29688C10.125 9.37463 9.53212 10.125 9 10.125C8.46788 10.125 7.875 9.37463 7.875 8.29688C7.875 7.49363 8.4015 6.35512 8.982 5.38875Z" fill="white"/>
<path d="M11.8125 13.5H6.1875C5.877 13.5 5.625 13.752 5.625 14.0625C5.625 14.373 5.877 14.625 6.1875 14.625H11.8125C12.123 14.625 12.375 14.373 12.375 14.0625C12.375 13.752 12.123 13.5 11.8125 13.5Z" fill="white"/>
<path d="M16.3125 6.75C16.623 6.75 16.875 6.498 16.875 6.1875C16.875 5.877 16.623 5.625 16.3125 5.625H15.75V1.125H16.3125C16.623 1.125 16.875 0.873 16.875 0.5625C16.875 0.252 16.623 0 16.3125 0H14.625H3.375H1.6875C1.377 0 1.125 0.252 1.125 0.5625C1.125 0.873 1.377 1.125 1.6875 1.125H2.25V5.625H1.6875C1.377 5.625 1.125 5.877 1.125 6.1875C1.125 6.498 1.377 6.75 1.6875 6.75H2.25V11.25H1.6875C1.377 11.25 1.125 11.502 1.125 11.8125C1.125 12.123 1.377 12.375 1.6875 12.375H2.25V16.875H1.6875C1.377 16.875 1.125 17.127 1.125 17.4375C1.125 17.748 1.377 18 1.6875 18H3.375H14.625H16.3125C16.623 18 16.875 17.748 16.875 17.4375C16.875 17.127 16.623 16.875 16.3125 16.875H15.75V12.375H16.3125C16.623 12.375 16.875 12.123 16.875 11.8125C16.875 11.502 16.623 11.25 16.3125 11.25H15.75V6.75H16.3125ZM3.375 16.875V1.125H14.625V16.875H3.375Z" fill="white"/>
</svg>
