<svg width="32" height="32" viewBox="0 0 32 32" fill="none" xmlns="http://www.w3.org/2000/svg">
<path fill-rule="evenodd" clip-rule="evenodd" d="M22 14V17H23C24.6569 17 26 18.3431 26 20V25C26 25.5523 26.4477 26 27 26C27.5523 26 28 25.5523 28 25V10.3472L26.2151 8.08632L27.7849 6.84703L30 9.65285V25C30 26.6569 28.6569 28 27 28C25.3431 28 24 26.6569 24 25V20C24 19.4477 23.5523 19 23 19H22V29C22 29.5523 21.5523 30 21 30H8C7.44772 30 7 29.5523 7 29V14H5C4.44772 14 4 13.5523 4 13V3C4 2.44772 4.44772 2 5 2H24C24.5523 2 25 2.44772 25 3V13C25 13.5523 24.5523 14 24 14H22ZM9 14V28H20V14H9ZM23 12V4H6V12H23Z" fill="white"/>
</svg>
