<svg width="18" height="20" viewBox="0 0 18 20" fill="none" xmlns="http://www.w3.org/2000/svg">
<path fill-rule="evenodd" clip-rule="evenodd" d="M1 0C0.447715 0 0 0.447715 0 1C0 1.55228 0.447716 2 1 2H2V9H1C0.447715 9 0 9.44772 0 10C0 10.5523 0.447715 11 1 11H2V18H1C0.447715 18 0 18.4477 0 19C0 19.5523 0.447716 20 1 20H2H16H17C17.5523 20 18 19.5523 18 19C18 18.4477 17.5523 18 17 18H16V11H17C17.5523 11 18 10.5523 18 10C18 9.44772 17.5523 9 17 9H16V2H17C17.5523 2 18 1.55228 18 1C18 0.447715 17.5523 0 17 0H16H2H1ZM4 2H14V10V18H4V10V2ZM10.3846 7.67594C9.76803 6.83245 9.2689 6.28552 9 6C8.7311 6.28552 8.23197 6.83245 7.61538 7.67594C6.79421 8.7993 6 10.226 6 11.2897C6 12.7895 7.33824 14 9 14C10.6618 14 12 12.7895 12 11.2897C12 10.226 11.2058 8.7993 10.3846 7.67594Z" fill="white"/>
</svg>

