<svg width="28" height="28" viewBox="0 0 28 28" fill="none" xmlns="http://www.w3.org/2000/svg">
<path d="M19.8234 9.5675C20.1368 9.11276 20.0223 8.49004 19.5675 8.17662C19.1128 7.8632 18.4901 7.97777 18.1767 8.4325L11.7977 17.6877L7.63926 14.231C7.21455 13.878 6.58406 13.9361 6.23102 14.3608C5.87798 14.7855 5.93608 15.416 6.36079 15.769L12.2024 20.6248L19.8234 9.5675Z" fill="white"/>
<path fill-rule="evenodd" clip-rule="evenodd" d="M28 14C28 21.732 21.732 28 14 28C6.26801 28 0 21.732 0 14C0 6.26801 6.26801 0 14 0C21.732 0 28 6.26801 28 14ZM26 14C26 20.6274 20.6274 26 14 26C7.37258 26 2 20.6274 2 14C2 7.37258 7.37258 2 14 2C20.6274 2 26 7.37258 26 14Z" fill="white"/>
</svg>
