<?xml version="1.0" encoding="UTF-8" standalone="no"?>
<!-- Created with Inkscape (http://www.inkscape.org/) -->

<svg
   version="1.1"
   id="svg2"
   xml:space="preserve"
   width="347.65274"
   height="66.564514"
   viewBox="0 0 347.65275 66.564514"
   sodipodi:docname="victron.svg"
   inkscape:version="1.1.2 (0a00cf5339, 2022-02-04)"
   xmlns:inkscape="http://www.inkscape.org/namespaces/inkscape"
   xmlns:sodipodi="http://sodipodi.sourceforge.net/DTD/sodipodi-0.dtd"
   xmlns="http://www.w3.org/2000/svg"
   xmlns:svg="http://www.w3.org/2000/svg"><defs
     id="defs6" /><sodipodi:namedview
     id="namedview4"
     pagecolor="#ffffff"
     bordercolor="#666666"
     borderopacity="1.0"
     inkscape:pageshadow="2"
     inkscape:pageopacity="0.0"
     inkscape:pagecheckerboard="0"
     showgrid="false"
     inkscape:zoom="1.0595933"
     inkscape:cx="170.34838"
     inkscape:cy="47.659795"
     inkscape:window-width="1920"
     inkscape:window-height="1043"
     inkscape:window-x="0"
     inkscape:window-y="0"
     inkscape:window-maximized="1"
     inkscape:current-layer="g8" /><g
     id="g8"
     inkscape:groupmode="layer"
     inkscape:label="logo kleur"
     transform="matrix(1.3333333,0,0,-1.3333333,-390.49109,444.11461)"><g
       id="g10"
       transform="scale(1,-1)"><path
         d="m 309.68994,-330.57764 c 0,0 -4.88867,-1.91894 -9.84277,2.06153 0,0 -5.88428,3.94824 -6.96436,20.59521 0,0 -0.32617,2.76953 2.11719,3.17774 0,0 2.46387,0.47656 2.78857,-1.60059 0.32422,-2.07617 0.26319,-12.57813 4.91602,-17.96582 0,0 0.45264,-0.68018 1.69189,-1.21045 1.03223,-0.63769 1.84815,-1.80225 2.45752,-2.72266 0,0 0.90967,-1.20752 2.83594,-2.33496"
         style="fill:#1c63b7;fill-opacity:1;fill-rule:nonzero;stroke:none"
         id="path12" /><path
         d="m 318.5166,-330.9668 c 0,0 -4.34814,-1.37841 -9.02588,2.19483 0,0 -5.55566,3.39648 -6.85254,16.89209 0,0 -0.47607,3.33203 -0.21679,5.01953 0,0 0.21386,1.97265 2.24707,2.14551 0,0 2.45068,0.19043 2.60351,-2.10547 0.15235,-2.29492 0.20899,-3.22657 0.20899,-3.22657 0,0 0.38672,-8.97167 4.02636,-13.52148 0,0 0.88135,0.66113 0.88135,0.66113 0,0 1.23926,-4.71093 6.12793,-8.05957 0,0 0,0 0,0 z"
         style="fill:#1c63b7;fill-opacity:1;fill-rule:nonzero;stroke:none"
         id="path14" /><path
         d="m 327.34326,-330.9668 c 0,0 -5.81933,-1.35644 -10.03222,3.21875 0,0 -4.18067,3.73194 -5.41407,12.99121 0,0 -0.51904,4.97559 -0.60547,7.39844 0,0 -0.0435,2.34766 2.21485,2.64649 0,0 2.32715,0.14355 2.47656,-2.32422 0,0 0.15381,-11.34082 4.35059,-16.53223 0,0 1.03857,0.64893 1.03857,0.64893 0,0 1.81689,-5.2417 5.97119,-8.04737 0,0 0,0 0,0 z"
         style="fill:#1c63b7;fill-opacity:1;fill-rule:nonzero;stroke:none"
         id="path16" /><path
         d="m 334.03906,-331.09033 c 0,0 -5.85791,-0.23877 -9.29736,5.66748 0,0 -3.97461,5.78808 -3.9585,17.64844 0,-9.8e-4 -0.24316,2.80664 1.96338,3.0664 0,0 2.60987,0.16211 2.60987,-2.82324 0,0 0.11572,-11.69824 4.58251,-16.42676 0,0 3.95215,4.74414 4.27637,15.90723 0,0 0.13721,7.65234 1.56494,11.87109 0,-9.7e-4 1.29053,-4.73144 1.5503,-11.28613 0,0 -0.10743,-1.19824 0.93115,-2.04199 0,0 0.68457,-0.33594 0.55176,-1.52832 0,0 -0.95655,-9.74121 -4.20166,-15.25782 0,0 6.87646,-0.44824 8.23925,13.31055 0,0 0.0147,2.0127 1.12989,3.26465 0,0 0.81543,0.58105 0.89843,1.99219 0,0 0.20118,1.94726 -0.38281,8.24316 0,0 -0.13818,1.37891 0.46729,3.34082 0,0 1.69873,-4.7041 1.25195,-9.31152 0,0 -0.22412,-3.74317 1.63574,-5.00488 0,0 -0.15625,-10.44336 -4.31006,-16.15479 0,0 -3.28808,-4.73633 -9.50244,-4.47656 0,0 0,0 0,0 z"
         style="fill:#1c63b7;fill-opacity:1;fill-rule:nonzero;stroke:none"
         id="path18" /><path
         d="m 354.52588,-283.81348 c 0,0 4.88867,1.91895 9.84326,-2.06152 0,0 5.88379,-3.94824 6.96387,-20.5957 0,0 0.32617,-2.76856 -2.11719,-3.17774 0,0 -2.46387,-0.47558 -2.78809,1.60156 -0.3247,2.07618 -0.26367,12.57715 -4.9165,17.96485 0,0 -0.45264,0.68066 -1.69189,1.21094 -1.03223,0.63769 -1.84815,1.80273 -2.45752,2.72265 0,0 -0.90967,1.20801 -2.83594,2.33496"
         style="fill:#1c63b7;fill-opacity:1;fill-rule:nonzero;stroke:none"
         id="path20" /><path
         d="m 345.69922,-283.42383 c 0,0 4.34814,1.37793 9.02588,-2.19531 0,0 5.55566,-3.39649 6.85303,-16.89258 0,0 0.47558,-3.33105 0.2163,-5.01855 0,0 -0.21386,-1.97364 -2.24707,-2.14551 0,0 -2.45068,-0.19141 -2.60302,2.10449 -0.15284,2.29492 -0.20948,3.22656 -0.20948,3.22656 0,0 -0.38672,8.97266 -4.02636,13.52149 0,0 -0.88135,-0.66016 -0.88135,-0.66016 0,0 -1.23926,4.70996 -6.12793,8.05957 0,0 0,0 0,0 z"
         style="fill:#1c63b7;fill-opacity:1;fill-rule:nonzero;stroke:none"
         id="path22" /><path
         d="m 336.87305,-283.42383 c 0,0 5.81884,1.35645 10.03174,-3.21972 0,0 4.18066,-3.73145 5.41406,-12.99024 0,0 0.51904,-4.97656 0.60547,-7.39941 0,0 0.0434,-2.34668 -2.21436,-2.64649 0,0 -2.32764,-0.14355 -2.47705,2.32422 0,0 -0.15381,11.34082 -4.35059,16.53223 0,0 -1.03857,-0.64844 -1.03857,-0.64844 0,0 -1.81689,5.24121 -5.9707,8.04785 0,0 0,0 0,0 z"
         style="fill:#1c63b7;fill-opacity:1;fill-rule:nonzero;stroke:none"
         id="path24" /><path
         d="m 330.17676,-283.30078 c 0,0 5.85791,0.23828 9.29785,-5.66699 0,0 3.97412,-5.78809 3.95801,-17.64844 0,0 0.24365,-2.80762 -1.96338,-3.06738 0,0 -2.60986,-0.16211 -2.60986,2.82324 0,0 -0.11573,11.69922 -4.58252,16.42676 0,0 -3.95215,-4.74317 -4.27637,-15.90625 0,0 -0.13672,-7.65235 -1.56494,-11.8711 0,0 -1.29053,4.73047 -1.5503,11.28516 0,0 0.10743,1.19824 -0.93066,2.04199 0,0 -0.68506,0.33594 -0.55225,1.5293 0,0 0.95655,9.74121 4.20166,15.25781 0,0 -6.87646,0.44727 -8.23925,-13.31152 0,0 -0.0147,-2.01172 -1.12989,-3.26465 0,0 -0.81543,-0.58106 -0.89843,-1.99121 0,0 -0.20118,-1.94824 0.38281,-8.24414 0,0 0.13818,-1.37891 -0.46729,-3.33985 0,0 -1.69873,4.70313 -1.25195,9.31153 0,0 0.22412,3.74218 -1.63574,5.0039 0,0 0.15625,10.44434 4.31006,16.15528 0,0 3.28808,4.73632 9.50244,4.47656 0,0 0,0 0,0 z"
         style="fill:#1c63b7;fill-opacity:1;fill-rule:nonzero;stroke:none"
         id="path26" /><path
         d="m 379.36084,-317.58203 c 0,0 2.4917,-7.64307 2.4917,-7.64307 0.41992,-1.31592 1.82031,-1.90381 3.02392,-1.28808 1.06397,0.50439 1.51221,1.68017 1.03614,2.85595 0,0 -4.22803,10.61231 -4.22803,10.61231 -0.64404,1.56738 -1.70801,2.15527 -3.19189,1.62304 -0.67188,-0.22363 -1.11963,-0.69921 -1.48389,-1.62304 0,0 -4.22754,-10.61231 -4.22754,-10.61231 -0.47607,-1.17578 -0.0283,-2.35156 1.03564,-2.85595 1.20411,-0.61573 2.60401,0 3.02393,1.28808 0,0 2.52002,7.64307 2.52002,7.64307 0,0 0,0 0,0 z"
         style="fill:#231f20;fill-opacity:1;fill-rule:nonzero;stroke:none"
         id="path28" /><path
         d="m 387.61816,-332.36475 c 0.97998,-0.97998 2.54786,-0.95214 3.52784,0.0278 0.95214,0.97998 0.95214,2.52002 0,3.5 -0.97998,0.97998 -2.54786,0.97998 -3.5,0.0278 -0.47559,-0.47559 -0.75586,-1.11963 -0.75586,-1.79151 0,-0.64404 0.28027,-1.28808 0.72802,-1.76416 0,0 0,0 0,0 z m -0.39209,7.7837 c 0,-0.5879 0.22413,-1.14795 0.64405,-1.54004 0.83984,-0.86768 2.21191,-0.83985 3.05176,0 0.39208,0.41992 0.61621,0.97998 0.61621,1.54004 0,0 0,11.20019 0,11.20019 0.0278,1.20313 -0.92383,2.15527 -2.12793,2.18359 -1.20411,0 -2.18409,-0.98046 -2.18409,-2.15625 0,0 0,-11.22753 0,-11.22753 0,0 0,0 0,0 z"
         style="fill:#231f20;fill-opacity:1;fill-rule:nonzero;stroke:none"
         id="path30" /><path
         d="m 402.03223,-326.73682 c 3.22021,0.36377 4.28418,1.76368 3.91992,3.1919 -0.22412,0.95166 -0.92383,1.51172 -1.76416,1.48388 -0.13965,-0.0283 -0.27979,-0.0283 -0.41992,-0.0562 0,0 -0.22364,-0.084 -0.22364,-0.084 0,0 -0.39209,-0.14014 -0.39209,-0.14014 0,0 -0.28027,-0.084 -0.28027,-0.084 0,0 -0.3916,-0.13965 -0.3916,-0.13965 -2.60401,-0.84033 -4.7041,0.69971 -4.67578,3.63916 0.0557,2.94043 2.18359,4.36816 4.95556,3.44433 0,0 0.47608,-0.16796 0.47608,-0.16796 0,0 0.1958,-0.084 0.1958,-0.084 1.26025,-0.44824 2.37988,0.16797 2.57617,1.4834 0.16797,1.09277 -0.56006,2.10059 -2.57617,2.74414 -0.50391,0.16797 -1.03565,0.28027 -1.5957,0.33594 -4.81592,0.44824 -8.45557,-2.91211 -8.39991,-7.86719 0.0562,-4.98389 3.77979,-8.23193 8.59571,-7.69971 0,0 0,0 0,0 z"
         style="fill:#231f20;fill-opacity:1;fill-rule:nonzero;stroke:none"
         id="path32" /><path
         d="m 409.16455,-326.56885 c 0,0 -0.0278,-2.49219 -0.0278,-2.49219 0,-1.17578 0.95215,-2.15576 2.15576,-2.15576 1.17627,0 2.15625,0.97998 2.12793,2.15576 0,0 0,2.49219 0,2.49219 0,0 1.28809,0 1.28809,0 0.5039,0 1.00781,0.1958 1.37207,0.58789 0.75586,0.72803 0.75586,1.95996 0,2.71582 -0.39209,0.36426 -0.86817,0.56006 -1.39991,0.56006 0,0 -1.26025,0 -1.26025,0 0,0 0,9.2959 0,9.2959 0,0.55957 -0.22363,1.12012 -0.61572,1.54004 -0.83985,0.83984 -2.18408,0.83984 -2.9961,0 -0.41992,-0.41992 -0.64404,-0.98047 -0.64404,-1.54004 0,0 0.0283,-9.32422 0.0283,-9.32422 0,0 -0.75586,0 -0.75586,0 -0.53222,0 -1.03613,-0.1958 -1.42822,-0.58789 -0.75586,-0.72754 -0.75586,-1.93164 0.0278,-2.6875 0.36426,-0.36426 0.86817,-0.56006 1.40039,-0.56006 0,0 0.72754,0 0.72754,0 0,0 0,0 0,0 z"
         style="fill:#231f20;fill-opacity:1;fill-rule:nonzero;stroke:none"
         id="path34" /><path
         d="m 417.47559,-324.66504 c 0,-1.03613 0.86816,-1.98779 2.18408,-2.07178 1.34424,-0.1123 2.15576,0.72803 2.1001,1.54004 0,0 -0.0283,0.22364 -0.0283,0.22364 0.1123,-0.14014 0.22363,-0.27979 0.36425,-0.39209 1.65235,-1.792 3.52735,-1.76368 4.39649,-0.47559 0.75586,1.11963 0.36328,2.40771 -0.75586,2.88379 0,0 -0.22461,0.11182 -0.22461,0.11182 0,0 -0.58789,0.19628 -0.58789,0.19628 -0.56055,0.1958 -0.95313,0.39161 -1.28906,0.58789 -1.3711,0.81202 -1.84766,1.53956 -1.84766,2.23975 0,0 0,6.44043 0,6.44043 0,1.17578 -0.95117,2.15527 -2.15527,2.15527 -1.20411,0 -2.15625,-0.95214 -2.15625,-2.12793 0,0 0,-11.31152 0,-11.31152 0,0 0,0 0,0 z"
         style="fill:#231f20;fill-opacity:1;fill-rule:nonzero;stroke:none"
         id="path36" /><path
         d="m 431.04883,-318.33789 c 0.36328,2.57617 1.875,3.72461 3.72265,3.30469 1.23243,-0.25196 2.15625,-1.37207 2.38086,-3.27539 0.0547,-0.44922 0.0547,-0.89649 0,-1.34473 -0.25195,-1.84766 -1.20507,-2.93994 -2.38086,-3.19189 -1.79101,-0.39209 -3.38671,0.72802 -3.72265,3.22021 -0.0293,0.22363 -0.0293,0.44727 -0.0293,0.67187 0,0.22364 0,0.41993 0.0293,0.61524 0,0 0,0 0,0 z m -3.24805,-4.84326 c 1.39844,-2.32373 3.7793,-3.66797 6.32617,-3.66797 4.06055,0 7.39258,3.35986 7.41993,7.83935 0,4.50782 -3.33204,7.86817 -7.41993,7.86817 -4.11523,0 -7.41797,-3.36035 -7.41797,-7.86817 0,-1.62304 0.36329,-2.99511 1.0918,-4.17138 0,0 0,0 0,0 z"
         style="fill:#231f20;fill-opacity:1;fill-rule:nonzero;stroke:none"
         id="path38" /><path
         d="m 443.39063,-324.55322 c 0,-1.06397 0.89648,-2.07178 2.15625,-2.1836 1.14648,-0.1123 1.93164,0.61573 1.93164,1.39991 0,0 0,0.16796 0,0.16796 0.67187,-0.81201 1.5957,-1.34423 2.91211,-1.56787 0.69921,-0.14013 1.40039,-0.14013 2.07226,-0.0283 2.9668,0.47608 4.5918,2.43604 4.5918,5.37598 0,0 0,8.03564 0,8.03564 0,1.20411 -0.95313,2.15625 -2.12891,2.1836 -1.20312,0 -2.18359,-0.95117 -2.18359,-2.15528 0,0 0,-7.33593 0,-7.33593 0,-0.67188 -0.2793,-1.31592 -0.75586,-1.792 -0.98047,-1.00781 -2.57617,-1.00781 -3.55664,-0.0278 -0.47461,0.50391 -0.72656,1.11963 -0.72656,1.79151 0,0 0,7.33593 0,7.33593 0,1.17579 -0.98047,2.15625 -2.18555,2.12793 -1.17578,0 -2.12695,-0.97949 -2.12695,-2.15527 0,0 0,-11.17236 0,-11.17236 0,0 0,0 0,0 z"
         style="fill:#231f20;fill-opacity:1;fill-rule:nonzero;stroke:none"
         id="path40" /><path
         d="m 476.96094,-320.40918 c -0.0274,-0.084 -0.0274,-0.19629 -0.0566,-0.28027 -0.44727,-2.04395 -1.90235,-2.99561 -3.55469,-2.60352 -1.03711,0.25195 -1.93164,1.14795 -2.29688,2.54785 -0.0273,0.11231 -0.0273,0.22364 -0.0547,0.33594 0,0 5.96289,0 5.96289,0 0,0 0,0 0,0 z m -5.85156,2.77246 c 0.11132,0.53125 0.36328,1.06348 0.72851,1.51172 1.14649,1.37109 3.24805,1.70703 5.62695,0.44727 1.37305,-0.75586 1.76368,-0.81153 2.49219,-0.53125 0.41992,0.16796 0.75586,0.5039 0.92383,0.92382 0.61523,1.51172 -1.25977,4.11524 -6.52344,4.14356 -5.34765,0 -8.90429,-4.42383 -7.67187,-9.74317 0.69922,-3.08007 3.02343,-5.29199 5.93554,-5.82421 3.35938,-0.61622 6.55274,1.09179 7.95118,4.28369 0.36523,0.86816 0.58789,1.76416 0.64453,2.43603 0.16797,1.73535 -0.39258,2.35254 -1.82032,2.35254 0,0 -8.2871,0 -8.2871,0 0,0 0,0 0,0 z"
         style="fill:#231f20;fill-opacity:1;fill-rule:nonzero;stroke:none"
         id="path42" /><path
         d="m 482.80859,-324.55322 c 0,-1.06397 0.89649,-2.07178 2.15625,-2.1836 1.14844,-0.1123 1.93164,0.61573 1.93164,1.39991 0,0 0,0.16796 0,0.16796 0.67188,-0.81201 1.59571,-1.34423 2.91211,-1.56787 0.69922,-0.14013 1.40039,-0.14013 2.07227,-0.0283 2.9668,0.47608 4.5918,2.43604 4.5918,5.37598 0,0 0,8.03564 0,8.03564 0,1.20411 -0.95313,2.15625 -2.12891,2.1836 -1.20312,0 -2.18359,-0.95117 -2.18359,-2.15528 0,0 0,-7.33593 0,-7.33593 0,-0.67188 -0.2793,-1.31592 -0.75586,-1.792 -0.98047,-1.00781 -2.57617,-1.00781 -3.55664,-0.0278 -0.47461,0.50391 -0.72657,1.11963 -0.72657,1.79151 0,0 0,7.33593 0,7.33593 0,1.17579 -0.98046,2.15625 -2.18359,2.12793 -1.17773,0 -2.12891,-0.97949 -2.12891,-2.15527 0,0 0,-11.17236 0,-11.17236 0,0 0,0 0,0 z"
         style="fill:#231f20;fill-opacity:1;fill-rule:nonzero;stroke:none"
         id="path44" /><path
         d="m 508.81641,-320.40918 c -0.0274,-0.084 -0.0274,-0.19629 -0.0547,-0.28027 -0.44922,-2.04395 -1.9043,-2.99561 -3.55664,-2.60352 -1.03516,0.25195 -1.93164,1.14795 -2.29492,2.54785 -0.0293,0.11231 -0.0293,0.22364 -0.0566,0.33594 0,0 5.96289,0 5.96289,0 0,0 0,0 0,0 z m -5.85157,2.77246 c 0.11329,0.53125 0.36524,1.06348 0.72852,1.51172 1.14844,1.37109 3.24805,1.70703 5.62695,0.44727 1.37305,-0.75586 1.76563,-0.81153 2.49219,-0.53125 0.41992,0.16796 0.75586,0.5039 0.92383,0.92382 0.61719,1.51172 -1.25977,4.11524 -6.52344,4.14356 -5.34766,0 -8.9043,-4.42383 -7.67187,-9.74317 0.70117,-3.08007 3.02343,-5.29199 5.93554,-5.82421 3.36133,-0.61622 6.55274,1.09179 7.95313,4.28369 0.36328,0.86816 0.58789,1.76416 0.64258,2.43603 0.16796,1.73535 -0.39063,2.35254 -1.81836,2.35254 0,0 -8.28907,0 -8.28907,0 0,0 0,0 0,0 z"
         style="fill:#231f20;fill-opacity:1;fill-rule:nonzero;stroke:none"
         id="path46" /><path
         d="m 514.66406,-324.66504 c 0,-1.03613 0.86914,-1.98779 2.1836,-2.07178 1.3457,-0.1123 2.15625,0.72803 2.10156,1.54004 0,0 -0.0293,0.22364 -0.0293,0.22364 0.11328,-0.14014 0.22461,-0.27979 0.36524,-0.39209 1.65039,-1.792 3.52734,-1.76368 4.39453,-0.47559 0.75586,1.11963 0.36523,2.40771 -0.75586,2.88379 0,0 -0.22266,0.11182 -0.22266,0.11182 0,0 -0.58789,0.19628 -0.58789,0.19628 -0.56055,0.1958 -0.95312,0.39161 -1.28906,0.58789 -1.37109,0.81202 -1.84766,1.53956 -1.84766,2.23975 0,0 0,6.44043 0,6.44043 0,1.17578 -0.95117,2.15527 -2.15625,2.15527 -1.20312,0 -2.15625,-0.95214 -2.15625,-2.12793 0,0 0,-11.31152 0,-11.31152 0,0 0,0 0,0 z"
         style="fill:#231f20;fill-opacity:1;fill-rule:nonzero;stroke:none"
         id="path48" /><path
         d="m 529.07617,-316.125 c 1.20508,1.45508 3.41602,1.42773 4.53711,-0.084 0.50391,-0.67188 0.75586,-1.48438 0.7832,-2.66016 0,-1.9043 -0.69921,-3.10791 -1.82031,-3.66797 -1.875,-0.92383 -3.97461,0.30811 -4.31054,2.85547 -0.0293,0.25195 -0.0566,0.53223 -0.0566,0.78418 0,1.17676 0.33594,2.10058 0.86719,2.77246 0,0 0,0 0,0 z m 5.43164,-9.15625 c 0.0293,-0.81152 0.8125,-1.53955 1.96094,-1.42773 1.25977,0.11181 2.15625,1.12011 2.15625,2.21191 0,0 0,11.22754 0,11.22754 0,5.59961 -3.30469,8.65137 -9.12891,8.03613 -1.17578,-0.14062 -2.23828,-0.41992 -3.24804,-0.86816 -2.07032,-0.95215 -2.43555,-2.40821 -1.42774,-3.47266 0.56055,-0.61523 1.25977,-0.75586 2.21289,-0.44726 0,0 0.0274,0.0273 0.0274,0.0273 0,0 0.86914,0.39258 0.86914,0.39258 0.19531,0.084 0.39062,0.16797 0.58789,0.22461 3.66797,1.31543 5.76758,-0.19727 5.85156,-2.9961 0.0273,-0.19629 0,-0.39258 0,-0.58789 -1.5957,2.26758 -5.54492,2.65918 -8.25976,-0.0283 -1.73633,-1.73633 -2.60352,-4.59277 -2.04493,-7.70019 0.19727,-1.11963 0.56055,-2.07178 1.06446,-2.88379 2.38086,-3.83594 7.19531,-4.19971 9.3789,-1.51172 0,0 0,-0.19629 0,-0.19629 0,0 0,0 0,0 z"
         style="fill:#231f20;fill-opacity:1;fill-rule:nonzero;stroke:none"
         id="path50" /><path
         d="m 541.03125,-326.54102 c 1.20313,-0.5039 2.43555,0.0562 2.93945,1.42774 0,0 2.6875,7.19531 2.6875,7.19531 0,0 2.74414,-7.22314 2.74414,-7.22314 0.53321,-1.37207 1.79297,-1.93164 2.96875,-1.37207 1.06446,0.50439 1.51172,1.708 1.06446,2.80029 0,0 -6.97266,17.0791 -6.97266,17.0791 -0.58789,1.42774 -1.76367,1.95996 -2.93945,1.48438 -1.1211,-0.47657 -1.59571,-1.68067 -1.1211,-2.82813 0,0 2.01758,-4.64746 2.01758,-4.64746 0,0 -4.56445,-11.17188 -4.56445,-11.17188 -0.41992,-1.06396 0.084,-2.29589 1.17578,-2.74414 0,0 0,0 0,0 z"
         style="fill:#231f20;fill-opacity:1;fill-rule:nonzero;stroke:none"
         id="path52" /><path
         d="m 403.63477,-302.18652 c 0.20507,0.16894 0.30761,0.43164 0.30761,0.78711 0,0.38281 -0.10742,0.66211 -0.32226,0.83691 -0.21533,0.17578 -0.55664,0.2627 -1.02393,0.2627 -0.13672,0 -0.33301,-0.0117 -0.58935,-0.0371 0,0 0,-2.08497 0,-2.08497 0,0 0.60058,-0.0186 0.60058,-0.0186 0.47998,0 0.82227,0.085 1.02735,0.25391 0,0 0,0 0,0 z m 0.56298,2.05468 c 0.35205,-0.28613 0.52784,-0.66894 0.52784,-1.14843 0,-0.41504 -0.0986,-0.74317 -0.29639,-0.98438 -0.19775,-0.24121 -0.5127,-0.41406 -0.94531,-0.51855 0.22851,-0.0518 0.4375,-0.18262 0.62646,-0.3916 0.18897,-0.20899 0.2832,-0.44043 0.2832,-0.69336 0,-0.43262 -0.14794,-0.76563 -0.44384,-0.99805 -0.2959,-0.23242 -0.71338,-0.34863 -1.25293,-0.34863 -0.29346,0 -0.77198,0.0166 -1.43555,0.0488 0,0 0,5.46289 0,5.46289 0,0 1.55859,0 1.55859,0 0.5669,0 1.02637,-0.14257 1.37793,-0.42871 0,0 0,0 0,0 z m -1.52343,-4.46386 c 0.64892,0 0.97363,0.25293 0.97363,0.75683 0,0.57422 -0.35303,0.86133 -1.05908,0.86133 -0.23145,0 -0.4253,-0.007 -0.58203,-0.0215 0,0 0,-1.57032 0,-1.57032 0.19629,-0.0176 0.41894,-0.0264 0.66748,-0.0264 0,0 0,0 0,0 z"
         style="fill:#231f20;fill-opacity:1;fill-rule:nonzero;stroke:none"
         id="path54" /><path
         d="m 415.67188,-299.70313 c 0,0 -3.21485,0 -3.21485,0 0,0 0,-5.46289 0,-5.46289 0,0 0.7461,0 0.7461,0 0,0 0,4.792 0,4.792 0,0 2.46875,0 2.46875,0 0,0 0,0.67089 0,0.67089 0,0 0,0 0,0 z"
         style="fill:#231f20;fill-opacity:1;fill-rule:nonzero;stroke:none"
         id="path56" /><path
         d="m 423.19922,-301.37012 c 0,0 0,-3.7959 0,-3.7959 0,0 0.74414,0 0.74414,0 0,0 0,3.74024 0,3.74024 0,0.33301 0.10547,0.60742 0.31836,0.82226 0.21094,0.21485 0.49023,0.32227 0.83789,0.32227 0.36914,0 0.6582,-0.10449 0.86914,-0.3125 0.21094,-0.20898 0.31836,-0.49219 0.31836,-0.85059 0,0 0,-3.72168 0,-3.72168 0,0 0.74414,0 0.74414,0 0,0 0,3.79981 0,3.79981 0,0.55176 -0.17187,0.98242 -0.51562,1.29199 -0.34375,0.30957 -0.81446,0.46484 -1.40821,0.46484 -0.61133,0 -1.08203,-0.15136 -1.41406,-0.45507 -0.33008,-0.30371 -0.49414,-0.73828 -0.49414,-1.30567 0,0 0,0 0,0 z"
         style="fill:#231f20;fill-opacity:1;fill-rule:nonzero;stroke:none"
         id="path58" /><path
         d="m 439.56055,-304.49512 c 0,0 -2.51758,0 -2.51758,0 0,0 0,1.51758 0,1.51758 0,0 1.80469,0 1.80469,0 0,0 0,0.63477 0,0.63477 0,0 -1.80469,0 -1.80469,0 0,0 0,1.96875 0,1.96875 0,0 2.47656,0 2.47656,0 0,0 0,0.67089 0,0.67089 0,0 -3.22265,0 -3.22265,0 0,0 0,-5.46289 0,-5.46289 0,0 3.26367,0 3.26367,0 0,0 0,0.6709 0,0.6709 0,0 0,0 0,0 z"
         style="fill:#231f20;fill-opacity:1;fill-rule:nonzero;stroke:none"
         id="path60" /><path
         d="m 457.73438,-301.76855 c 1.40234,0 2.10351,-0.61426 2.10351,-1.84278 0,-1.06152 -0.79297,-1.5918 -2.37891,-1.5918 -0.11718,0 -0.45703,0.0117 -1.02148,0.0371 0,0 0,5.46289 0,5.46289 0,0 0.74609,0 0.74609,0 0,0 0,-2.10253 0,-2.10253 0.28321,0.0244 0.4668,0.0371 0.55079,0.0371 0,0 0,0 0,0 z m -0.14454,-2.76368 c 0.98633,0 1.48047,0.33301 1.48047,0.99903 0,0.72851 -0.46289,1.09277 -1.38672,1.09277 -0.0176,0 -0.18554,-0.0117 -0.5,-0.0371 0,0 0,-2.01758 0,-2.01758 0.17188,-0.0244 0.30664,-0.0371 0.40625,-0.0371 0,0 0,0 0,0 z"
         style="fill:#231f20;fill-opacity:1;fill-rule:nonzero;stroke:none"
         id="path62" /><path
         d="m 467.89258,-300.41504 c 0.38867,0.53711 0.92773,0.80566 1.61719,0.80566 0.75586,0 1.33593,-0.25488 1.74023,-0.76269 0.40625,-0.50879 0.60938,-1.21191 0.60938,-2.10938 0,-0.875 -0.20313,-1.55761 -0.60743,-2.04687 -0.40234,-0.49023 -0.98437,-0.73535 -1.74218,-0.73535 -0.67383,0 -1.20899,0.2666 -1.60547,0.79883 -0.39649,0.53222 -0.59571,1.19336 -0.59571,1.98339 0,0.84082 0.19532,1.5293 0.58399,2.06641 0,0 0,0 0,0 z m 0.56055,-3.61035 c 0.24218,-0.37793 0.59375,-0.56641 1.05664,-0.56641 1.04296,0 1.5664,0.70313 1.5664,2.11035 0,0.69629 -0.13476,1.23731 -0.40234,1.62305 -0.26563,0.38477 -0.6543,0.57715 -1.16406,0.57715 -0.45118,0 -0.79883,-0.20996 -1.04688,-0.62988 -0.24805,-0.41992 -0.37109,-0.94336 -0.37109,-1.57032 0,-0.65136 0.12109,-1.16601 0.36133,-1.54394 0,0 0,0 0,0 z"
         style="fill:#231f20;fill-opacity:1;fill-rule:nonzero;stroke:none"
         id="path64" /><path
         d="m 485.49023,-305.16602 c 0,0 -1.70117,5.53809 -1.70117,5.53809 0,0 -0.23437,0 -0.23437,0 0,0 -1.30078,-3.7666 -1.30078,-3.7666 0,0 -1.2168,3.7666 -1.2168,3.7666 0,0 -0.23438,0 -0.23438,0 0,0 -1.72265,-5.53809 -1.72265,-5.53809 0,0 0.77539,0 0.77539,0 0,0 1.0957,3.81446 1.0957,3.81446 0,0 1.20117,-3.81446 1.20117,-3.81446 0,0 0.26172,0 0.26172,0 0,0 1.18555,3.80762 1.18555,3.80762 0,0 1.11523,-3.80762 1.11523,-3.80762 0,0 0.77539,0 0.77539,0 0,0 0,0 0,0 z"
         style="fill:#231f20;fill-opacity:1;fill-rule:nonzero;stroke:none"
         id="path66" /><path
         d="m 496.23438,-304.49512 c 0,0 -2.51758,0 -2.51758,0 0,0 0,1.51758 0,1.51758 0,0 1.80664,0 1.80664,0 0,0 0,0.63477 0,0.63477 0,0 -1.80664,0 -1.80664,0 0,0 0,1.96875 0,1.96875 0,0 2.47656,0 2.47656,0 0,0 0,0.67089 0,0.67089 0,0 -3.2207,0 -3.2207,0 0,0 0,-5.46289 0,-5.46289 0,0 3.26172,0 3.26172,0 0,0 0,0.6709 0,0.6709 0,0 0,0 0,0 z"
         style="fill:#231f20;fill-opacity:1;fill-rule:nonzero;stroke:none"
         id="path68" /><path
         d="m 506.23828,-302.2168 c 0.29102,-0.0664 0.54102,-0.2373 0.75195,-0.51269 0.2129,-0.27442 0.31836,-0.58301 0.31836,-0.92676 0,-1.04395 -0.65625,-1.56641 -1.96875,-1.56641 -0.16406,0 -0.42773,0.01 -0.78515,0.0283 -0.35938,0.0186 -0.55274,0.0283 -0.58008,0.0283 0,0 0,5.46289 0,5.46289 0,0 0.74609,0 0.74609,0 0,0 0,-2.38281 0,-2.38281 0.35938,0.0254 0.62305,0.0371 0.78907,0.0371 0,0 1.45898,2.3457 1.45898,2.3457 0,0 0.85352,0 0.85352,0 0,0 -1.58399,-2.51367 -1.58399,-2.51367 0,0 0,0 0,0 z m -1.07812,-2.31543 c 0.47265,0 0.81836,0.0674 1.03711,0.20118 0.21875,0.13476 0.32812,0.35449 0.32812,0.66015 0,0.37012 -0.10351,0.62793 -0.30664,0.77246 -0.20312,0.14356 -0.5293,0.21582 -0.97656,0.21582 -0.16992,0 -0.34375,-0.0127 -0.52149,-0.0371 0,0 0,-1.77539 0,-1.77539 0.21875,-0.0244 0.36524,-0.0371 0.43946,-0.0371 0,0 0,0 0,0 z"
         style="fill:#231f20;fill-opacity:1;fill-rule:nonzero;stroke:none"
         id="path70" /></g></g></svg>
