<svg width="284" height="55" viewBox="0 0 284 55" fill="none" xmlns="http://www.w3.org/2000/svg">
<g clip-path="url(#clip0_317_7177)">
<path d="M19.0167 3.49379C19.0167 3.49379 13.6937 1.42977 8.37071 5.77506C8.37071 5.77506 1.96141 10.0117 0.766454 28.1533C0.766454 28.1533 0.440557 31.195 3.04773 31.6295C3.04773 31.6295 5.76354 32.1727 6.08944 29.8914C6.41533 27.6101 6.41533 16.2038 11.4124 10.3376C11.4124 10.3376 11.9556 9.57719 13.2592 9.03403C14.3455 8.38224 15.2145 7.07865 15.975 6.10096C15.975 5.99233 16.9527 4.68874 19.0167 3.49379Z" fill="white"/>
<path d="M28.5773 3.05673C28.5773 3.05673 23.9061 1.53587 18.8004 5.44664C18.8004 5.44664 12.717 9.14013 11.3048 23.8055C11.3048 23.8055 10.7616 27.3904 11.0875 29.2371C11.0875 29.2371 11.3048 31.4097 13.4774 31.5184C13.4774 31.5184 16.1932 31.7356 16.3019 29.2371C16.5191 26.7386 16.5191 25.7609 16.5191 25.7609C16.5191 25.7609 16.9537 15.984 20.8644 11.0955L21.8421 11.8559C21.9508 11.8559 23.363 6.75022 28.5773 3.05673Z" fill="white"/>
<path d="M38.2444 3.05758C38.2444 3.05758 31.9438 1.53673 27.3812 6.53382C27.3812 6.53382 22.8187 10.5532 21.5151 20.656C21.5151 20.656 20.9719 26.0876 20.8633 28.6948C20.8633 28.6948 20.8633 31.1933 23.2532 31.5192C23.2532 31.5192 25.7517 31.6279 25.969 29.0207C25.969 29.0207 26.1863 16.7453 30.7488 11.0964L31.8351 11.7482C31.7265 11.8568 33.6819 6.09929 38.2444 3.05758Z" fill="white"/>
<path d="M45.5231 2.94826C45.5231 2.94826 39.1138 2.73099 35.4203 9.1403C35.4203 9.1403 31.075 15.441 31.075 28.2596C31.075 28.2596 30.8577 31.3013 33.2476 31.6272C33.2476 31.6272 36.0721 31.8444 36.0721 28.5855C36.0721 28.5855 36.1807 15.8755 41.0691 10.7698C41.0691 10.7698 45.4144 15.8755 45.7403 28.0423C45.7403 28.0423 45.849 36.407 47.4784 40.9696C47.4784 40.9696 48.8907 35.8638 49.2166 28.6941C49.2166 28.6941 49.1079 27.3905 50.1943 26.5215C50.1943 26.5215 50.9547 26.1956 50.846 24.892C50.846 24.892 49.7597 14.3546 46.2835 8.27124C46.2835 8.27124 53.7791 7.83671 55.1913 22.7193C55.1913 22.7193 55.1913 24.892 56.3863 26.3042C56.3863 26.3042 57.2553 26.956 57.364 28.4768C57.364 28.4768 57.5812 30.5409 56.9295 37.3847C56.9295 37.3847 56.8208 38.9055 57.4726 40.9696C57.4726 40.9696 59.3194 35.8638 58.8848 30.8668C58.8848 30.8668 58.6676 26.8474 60.6229 25.4351C60.6229 25.4351 60.4057 14.1374 55.9518 7.83671C55.8431 7.83671 52.2583 2.62236 45.5231 2.94826Z" fill="white"/>
<path d="M67.7925 54.3329C67.7925 54.3329 73.1155 56.3969 78.4384 52.0516C78.4384 52.0516 84.8477 47.815 86.0427 29.6734C86.0427 29.6734 86.3686 26.6317 83.7614 26.1971C83.7614 26.1971 81.0456 25.654 80.7197 27.9353C80.3938 30.2165 80.3938 41.6229 75.3967 47.4891C75.3967 47.4891 74.8536 48.2495 73.55 48.7927C72.4637 49.4445 71.5946 50.748 70.8342 51.7257C70.8342 51.7257 69.8565 53.0293 67.7925 54.3329Z" fill="white"/>
<path d="M58.1245 54.7672C58.1245 54.7672 62.7957 56.2881 67.9014 52.3773C67.9014 52.3773 73.9848 48.6838 75.397 34.0184C75.397 34.0184 75.9402 30.4336 75.6143 28.5868C75.6143 28.5868 75.397 26.4142 73.2244 26.3055C73.2244 26.3055 70.5086 26.0883 70.4 28.5868C70.1827 31.0854 70.1827 32.0631 70.1827 32.0631C70.1827 32.0631 69.7482 41.84 65.8374 46.7284L64.8597 45.968C64.8597 45.968 63.4475 51.0737 58.1245 54.7672Z" fill="white"/>
<path d="M48.5649 54.767C48.5649 54.767 54.8656 56.2878 59.4282 51.2908C59.4282 51.2908 63.9907 47.2714 65.2943 37.1686C65.2943 37.1686 65.8375 31.7369 65.9461 29.1298C65.9461 29.1298 65.9461 26.6312 63.5562 26.3053C63.5562 26.3053 61.0577 26.1967 60.8404 28.8039C60.8404 28.8039 60.6231 41.0793 56.0606 46.7282L54.9742 46.0764C55.0829 45.9678 53.1275 51.7253 48.5649 54.767Z" fill="white"/>
<path d="M41.2874 54.8768C41.2874 54.8768 47.6967 55.094 51.3902 48.6847C51.3902 48.6847 55.7355 42.3841 55.7355 29.5654C55.7355 29.5654 55.9527 26.5237 53.5628 26.1978C53.5628 26.1978 50.7384 25.9806 50.7384 29.2395C50.7384 29.2395 50.6298 41.9495 45.7413 47.0552C45.7413 47.0552 41.396 41.9495 41.0701 29.7827C41.0701 29.7827 40.9615 21.418 39.332 16.8555C39.332 16.8555 37.9198 21.9612 37.5939 29.1309C37.5939 29.1309 37.7025 30.4345 36.6162 31.3036C36.6162 31.3036 35.8558 31.6295 35.9644 32.933C35.9644 32.933 37.0507 43.4704 40.527 49.5538C40.527 49.5538 33.0313 49.9883 31.6191 35.1057C31.6191 35.1057 31.6191 32.933 30.4242 31.5208C30.4242 31.5208 29.5551 30.869 29.4465 29.3482C29.4465 29.3482 29.2292 27.2842 29.881 20.4403C29.881 20.4403 29.9896 18.9195 29.3378 16.8555C29.3378 16.8555 27.4911 21.9612 27.9256 26.9583C27.9256 26.9583 28.1429 30.9777 26.1875 32.3899C26.1875 32.3899 26.4048 43.6876 30.8587 49.9883C30.9673 49.9883 34.5522 55.094 41.2874 54.8768Z" fill="white"/>
<path d="M94.7339 17.6165L97.4497 9.36044C97.8842 7.94822 99.4051 7.29643 100.709 7.94822C101.904 8.49138 102.338 9.79497 101.795 11.0986L97.2324 22.5049C96.5806 24.2431 95.3857 24.8949 93.7562 24.2431C93.1044 24.0258 92.5612 23.5913 92.1267 22.5049L87.5642 10.9899C87.021 9.68634 87.5642 8.38275 88.6505 7.83959C89.9541 7.1878 91.4749 7.83959 91.9094 9.25181L94.7339 17.6165Z" fill="white"/>
<path d="M103.317 10.0107C103.317 9.35892 103.534 8.81576 103.969 8.38123C104.838 7.40354 106.359 7.51217 107.336 8.38123C107.771 8.81576 107.988 9.46755 107.988 10.0107V22.1775C107.988 23.4811 107.01 24.5674 105.707 24.5674C104.403 24.5674 103.317 23.4811 103.317 22.1775V10.0107V10.0107ZM103.643 1.5374C104.729 0.451076 106.359 0.451076 107.445 1.5374C108.531 2.62372 108.531 4.2532 107.445 5.33953C106.359 6.42585 104.729 6.42585 103.643 5.33953C103.208 4.905 102.882 4.2532 102.882 3.49278C102.882 2.73235 103.208 2.08056 103.643 1.5374Z" fill="white"/>
<path d="M119.392 7.62077C122.869 8.0553 124.064 9.57615 123.629 11.097C123.412 12.1833 122.651 12.7265 121.674 12.7265C121.565 12.7265 121.348 12.7265 121.239 12.6179L121.022 12.5092L120.587 12.4006L120.261 12.292L119.827 12.1833C117.002 11.3143 114.721 12.9438 114.721 16.0941C114.83 19.2444 117.111 20.8739 120.153 19.7876L120.696 19.5703L120.913 19.4617C122.325 19.0272 123.52 19.679 123.738 21.0912C123.955 22.2861 123.086 23.3725 120.913 24.0242C120.37 24.2415 119.827 24.3501 119.175 24.3501C113.961 24.7847 109.941 21.1998 110.05 15.7682C110.05 10.6625 114.069 7.07761 119.392 7.62077Z" fill="white"/>
<path d="M127.106 7.84009V5.12429C127.106 3.8207 128.193 2.73438 129.496 2.73438C130.8 2.73438 131.886 3.8207 131.778 5.12429V7.84009H133.19C133.733 7.84009 134.276 8.05736 134.711 8.49189C135.58 9.25231 135.58 10.6645 134.711 11.425C134.276 11.8595 133.733 12.0768 133.19 12.0768H131.778V22.1796C131.778 22.8313 131.56 23.3745 131.126 23.809C130.257 24.6781 128.736 24.6781 127.867 23.809C127.432 23.3745 127.215 22.7227 127.215 22.1796V12.0768H126.346C125.803 12.0768 125.26 11.8595 124.825 11.425C123.956 10.6645 123.956 9.36094 124.825 8.49189C125.26 8.05736 125.803 7.84009 126.346 7.84009H127.106V7.84009Z" fill="white"/>
<path d="M136.122 9.90393C136.122 8.8176 137.1 7.73128 138.512 7.62265C139.924 7.51402 140.902 8.38307 140.793 9.25213V9.4694C140.902 9.36076 141.011 9.1435 141.228 9.03487C143.075 7.07949 145.03 7.07949 146.008 8.49171C146.877 9.68666 146.442 11.0989 145.139 11.642L144.921 11.7507L144.269 11.9679C143.618 12.1852 143.183 12.4025 142.857 12.6197C141.336 13.4888 140.902 14.2492 140.902 15.0096V21.9621C140.902 23.2657 139.816 24.352 138.512 24.352C137.208 24.352 136.122 23.2657 136.122 22.0707V9.90393Z" fill="white"/>
<path d="M147.311 11.5311C148.832 9.03257 151.439 7.51172 154.155 7.51172C158.609 7.51172 162.194 11.2052 162.194 15.985C162.194 20.8735 158.609 24.567 154.155 24.567C149.701 24.567 146.116 20.8735 146.116 15.985C146.116 14.3556 146.551 12.8347 147.311 11.5311ZM150.896 16.7455C151.331 19.5699 152.96 20.7649 154.915 20.3303C156.219 20.0044 157.305 18.8095 157.523 16.7455C157.631 16.3109 157.631 15.7678 157.523 15.3332C157.197 13.3779 156.219 12.1829 154.915 11.857C152.96 11.4225 151.222 12.6174 150.896 15.3332C150.896 15.5505 150.896 15.7678 150.896 16.0937C150.896 16.4196 150.896 16.6368 150.896 16.7455Z" fill="white"/>
<path d="M164.258 10.0104C164.258 8.81549 165.236 7.72917 166.648 7.62054C167.843 7.5119 168.712 8.27233 168.712 9.14139V9.35865C169.473 8.48959 170.45 7.94643 171.863 7.62054C172.623 7.5119 173.383 7.5119 174.144 7.62054C177.403 8.1637 179.141 10.2277 179.141 13.4867V22.1773C179.141 23.4809 178.055 24.5672 176.86 24.5672C175.556 24.5672 174.47 23.4809 174.47 22.1773V14.2471C174.47 13.4867 174.144 12.8349 173.601 12.2917C172.514 11.2054 170.776 11.2054 169.69 12.2917C169.147 12.8349 168.929 13.4867 168.929 14.2471V22.1773C168.929 23.4809 167.843 24.5672 166.54 24.4585C165.236 24.4585 164.258 23.3722 164.258 22.0686V10.0104V10.0104Z" fill="white"/>
<path d="M194.348 17.5072C194.457 18.0504 194.783 18.7022 195.109 19.1367C196.304 20.6576 198.585 20.9835 201.192 19.5713C202.713 18.7022 203.148 18.7022 203.908 19.0281C204.343 19.2454 204.777 19.5713 204.886 20.0058C205.538 21.6353 203.473 24.4597 197.825 24.4597C192.067 24.4597 188.156 19.6799 189.46 13.9224C190.22 10.5548 192.719 8.16487 195.869 7.62171C199.563 6.96992 203.039 8.81666 204.56 12.2929C204.994 13.2706 205.212 14.2483 205.212 14.9001C205.429 16.7468 204.777 17.5072 203.256 17.5072H194.348V17.5072ZM200.758 14.5742C200.758 14.4655 200.758 14.3569 200.649 14.2483C200.215 12.0756 198.585 10.9893 196.738 11.4238C195.652 11.7497 194.674 12.6188 194.24 14.1396C194.24 14.2483 194.24 14.3569 194.131 14.4655H200.758V14.5742Z" fill="white"/>
<path d="M207.058 10.0104C207.058 8.81549 208.036 7.72917 209.448 7.62054C210.643 7.5119 211.512 8.27233 211.512 9.14139V9.35865C212.272 8.48959 213.25 7.94643 214.662 7.62054C215.423 7.5119 216.183 7.5119 216.944 7.62054C220.203 8.1637 221.941 10.2277 221.941 13.4867V22.1773C221.941 23.4809 220.854 24.5672 219.659 24.5672C218.356 24.5672 217.27 23.4809 217.27 22.1773V14.2471C217.27 13.4867 216.944 12.8349 216.4 12.2917C215.314 11.2054 213.576 11.2054 212.49 12.2917C211.947 12.8349 211.729 13.4867 211.729 14.2471V22.1773C211.729 23.4809 210.643 24.5672 209.339 24.4585C208.036 24.4585 207.058 23.3722 207.058 22.0686V10.0104V10.0104Z" fill="white"/>
<path d="M229.003 17.5072C229.111 18.0504 229.437 18.7022 229.763 19.1367C230.958 20.6576 233.239 20.9835 235.846 19.5713C237.367 18.7022 237.802 18.7022 238.562 19.0281C238.997 19.2454 239.431 19.5713 239.54 20.0058C240.192 21.6353 238.128 24.4597 232.479 24.4597C226.721 24.4597 222.811 19.6799 224.114 13.9224C224.875 10.5548 227.373 8.16487 230.524 7.62171C234.217 6.96992 237.693 8.81666 239.214 12.2929C239.649 13.2706 239.866 14.2483 239.866 14.9001C240.083 16.7468 239.431 17.5072 237.911 17.5072H229.003V17.5072ZM235.303 14.5742C235.303 14.4655 235.303 14.3569 235.195 14.2483C234.76 12.0756 233.131 10.9893 231.284 11.4238C230.198 11.7497 229.22 12.6188 228.785 14.1396C228.785 14.2483 228.785 14.3569 228.677 14.4655H235.303V14.5742Z" fill="white"/>
<path d="M241.713 9.90393C241.713 8.8176 242.691 7.73128 244.103 7.62265C245.516 7.51402 246.493 8.38307 246.385 9.25213V9.4694C246.493 9.36076 246.602 9.1435 246.819 9.03487C248.666 7.07949 250.621 7.07949 251.599 8.49171C252.468 9.68666 252.033 11.0989 250.73 11.642L250.513 11.7507L249.861 11.9679C249.209 12.1852 248.774 12.4025 248.449 12.6197C246.928 13.4888 246.493 14.2492 246.493 15.0096V21.9621C246.493 23.2657 245.407 24.352 244.103 24.352C242.8 24.352 241.713 23.2657 241.713 22.0707V9.90393Z" fill="white"/>
<path d="M263.221 9.24998C263.221 8.38092 264.09 7.62049 265.394 7.72913C266.806 7.83776 267.784 8.92408 267.784 10.119V22.2858C267.784 28.3693 264.199 31.7369 257.898 30.9764C256.594 30.8678 255.508 30.5419 254.422 29.9987C252.141 28.9124 251.815 27.3916 252.901 26.1966C253.553 25.5448 254.313 25.3276 255.291 25.7621L256.269 26.1966C256.486 26.3052 256.703 26.4139 256.92 26.4139C260.94 27.8261 263.221 26.1966 263.33 23.1549C263.33 22.9376 263.33 22.7204 263.33 22.5031C261.592 25.0017 257.355 25.4362 254.313 22.5031C252.466 20.6564 251.489 17.506 252.141 14.1384C252.358 12.9435 252.792 11.8572 253.336 10.9881C255.943 6.86007 261.157 6.42554 263.547 9.35861V9.24998H263.221ZM257.355 19.2441C258.659 20.8736 261.048 20.765 262.243 19.1355C262.787 18.3751 263.112 17.506 263.112 16.2024C263.112 14.1384 262.352 12.8348 261.157 12.183C259.093 11.2054 256.812 12.5089 256.486 15.3334C256.486 15.6593 256.377 15.8765 256.377 16.2024C256.377 17.506 256.812 18.4837 257.355 19.2441Z" fill="white"/>
<path d="M270.392 7.83823C271.695 7.29507 272.999 7.94686 273.542 9.35908L276.475 17.1806L279.408 9.35908C279.951 7.83823 281.364 7.29507 282.667 7.83823C283.862 8.38139 284.297 9.68498 283.862 10.8799L276.258 29.456C275.606 30.9769 274.302 31.6287 273.107 31.0855C271.913 30.5424 271.369 29.2388 271.913 28.0438L274.085 23.0467L269.088 10.8799C268.654 9.68498 269.197 8.38139 270.392 7.83823Z" fill="white"/>
</g>
<defs>
<clipPath id="clip0_317_7177">
<rect width="283.204" height="54.2075" fill="white" transform="translate(0.765625 0.777344)"/>
</clipPath>
</defs>
</svg>
