<?xml version="1.0" encoding="UTF-8"?>
<svg id="svg2" xmlns="http://www.w3.org/2000/svg" viewBox="0 0 347.65 66.56">
  <defs>
    <style>
      .cls-1 {
        fill: #231f20;
      }

      .cls-2 {
        fill: #1c63b7;
      }
      @media (prefers-color-scheme: dark) {
        .cls-1,
        .cls-2 {
          fill: #ffffff;
        }
      }
    </style>
  </defs>
  <g id="g8">
    <g id="g10">
      <path id="path12" class="cls-2" d="m22.43,3.34s-6.52-2.56-13.12,2.75C9.31,6.09,1.46,11.36.02,33.55c0,0-.43,3.69,2.82,4.24,0,0,3.29.64,3.72-2.13.43-2.77.35-16.77,6.55-23.95,0,0,.6-.91,2.26-1.61,1.38-.85,2.46-2.4,3.28-3.63,0,0,1.21-1.61,3.78-3.11"/>
      <path id="path14" class="cls-2" d="m34.2,2.83s-5.8-1.84-12.03,2.93c0,0-7.41,4.53-9.14,22.52,0,0-.63,4.44-.29,6.69,0,0,.29,2.63,3,2.86,0,0,3.27.25,3.47-2.81.2-3.06.28-4.3.28-4.3,0,0,.52-11.96,5.37-18.03l1.18.88s1.65-6.28,8.17-10.75h0Z"/>
      <path id="path16" class="cls-2" d="m45.97,2.83s-7.76-1.81-13.38,4.29c0,0-5.57,4.98-7.22,17.32,0,0-.69,6.63-.81,9.86,0,0-.06,3.13,2.95,3.53,0,0,3.1.19,3.3-3.1,0,0,.21-15.12,5.8-22.04l1.38.87s2.42-6.99,7.96-10.73h0Z"/>
      <path id="path18" class="cls-2" d="m54.89,2.66s-7.81-.32-12.4,7.56c0,0-5.3,7.72-5.28,23.53,0,0-.32,3.74,2.62,4.09,0,0,3.48.22,3.48-3.76,0,0,.15-15.6,6.11-21.9,0,0,5.27,6.33,5.7,21.21,0,0,.18,10.2,2.09,15.83,0,0,1.72-6.31,2.07-15.05,0,0-.14-1.6,1.24-2.72,0,0,.91-.45.74-2.04,0,0-1.28-12.99-5.6-20.34,0,0,9.17-.6,10.99,17.75,0,0,.02,2.68,1.51,4.35,0,0,1.09.77,1.2,2.66,0,0,.27,2.6-.51,10.99,0,0-.18,1.84.62,4.45,0,0,2.26-6.27,1.67-12.42,0,0-.3-4.99,2.18-6.67,0,0-.21-13.92-5.75-21.54,0,0-4.38-6.32-12.67-5.97h0Z"/>
      <path id="path20" class="cls-2" d="m82.21,65.7s6.52,2.56,13.12-2.75c0,0,7.85-5.26,9.29-27.46,0,0,.43-3.69-2.82-4.24,0,0-3.29-.63-3.72,2.14-.43,2.77-.35,16.77-6.56,23.95,0,0-.6.91-2.26,1.61-1.38.85-2.46,2.4-3.28,3.63,0,0-1.21,1.61-3.78,3.11"/>
      <path id="path22" class="cls-2" d="m70.44,66.22s5.8,1.84,12.03-2.93c0,0,7.41-4.53,9.14-22.52,0,0,.63-4.44.29-6.69,0,0-.29-2.63-3-2.86,0,0-3.27-.26-3.47,2.81-.2,3.06-.28,4.3-.28,4.3,0,0-.52,11.96-5.37,18.03l-1.18-.88s-1.65,6.28-8.17,10.75h0Z"/>
      <path id="path24" class="cls-2" d="m58.67,66.22s7.76,1.81,13.38-4.29c0,0,5.57-4.98,7.22-17.32,0,0,.69-6.64.81-9.87,0,0,.06-3.13-2.95-3.53,0,0-3.1-.19-3.3,3.1,0,0-.21,15.12-5.8,22.04l-1.38-.86s-2.42,6.99-7.96,10.73h0Z"/>
      <path id="path26" class="cls-2" d="m49.74,66.38s7.81.32,12.4-7.56c0,0,5.3-7.72,5.28-23.53,0,0,.32-3.74-2.62-4.09,0,0-3.48-.22-3.48,3.76,0,0-.15,15.6-6.11,21.9,0,0-5.27-6.32-5.7-21.21,0,0-.18-10.2-2.09-15.83,0,0-1.72,6.31-2.07,15.05,0,0,.14,1.6-1.24,2.72,0,0-.91.45-.74,2.04,0,0,1.28,12.99,5.6,20.34,0,0-9.17.6-10.99-17.75,0,0-.02-2.68-1.51-4.35,0,0-1.09-.77-1.2-2.65,0,0-.27-2.6.51-10.99,0,0,.18-1.84-.62-4.45,0,0-2.26,6.27-1.67,12.42,0,0,.3,4.99-2.18,6.67,0,0,.21,13.93,5.75,21.54,0,0,4.38,6.32,12.67,5.97h0Z"/>
      <path id="path28" class="cls-1" d="m115.32,20.67l3.32-10.19c.56-1.75,2.43-2.54,4.03-1.72,1.42.67,2.02,2.24,1.38,3.81l-5.64,14.15c-.86,2.09-2.28,2.87-4.26,2.16-.9-.3-1.49-.93-1.98-2.16l-5.64-14.15c-.63-1.57-.04-3.14,1.38-3.81,1.61-.82,3.47,0,4.03,1.72l3.36,10.19h0Z"/>
      <path id="path30" class="cls-1" d="m126.33.96c1.31-1.31,3.4-1.27,4.7.04,1.27,1.31,1.27,3.36,0,4.67-1.31,1.31-3.4,1.31-4.67.04-.63-.63-1.01-1.49-1.01-2.39s.37-1.72.97-2.35h0Zm-.52,10.38c0-.78.3-1.53.86-2.05,1.12-1.16,2.95-1.12,4.07,0,.52.56.82,1.31.82,2.05v14.93c.04,1.6-1.23,2.87-2.84,2.91-1.61,0-2.91-1.31-2.91-2.87v-14.97h0Z"/>
      <path id="path32" class="cls-1" d="m145.55,8.47c4.29.49,5.71,2.35,5.23,4.26-.3,1.27-1.23,2.02-2.35,1.98-.19-.04-.37-.04-.56-.07l-.3-.11-.52-.19-.37-.11-.52-.19c-3.47-1.12-6.27.93-6.23,4.85.07,3.92,2.91,5.82,6.61,4.59l.63-.22.26-.11c1.68-.6,3.17.22,3.43,1.98.22,1.46-.75,2.8-3.43,3.66-.67.22-1.38.37-2.13.45-6.42.6-11.27-3.88-11.2-10.49.07-6.65,5.04-10.98,11.46-10.27h0Z"/>
      <path id="path34" class="cls-1" d="m155.06,8.69l-.04-3.32c0-1.57,1.27-2.87,2.87-2.87s2.87,1.31,2.84,2.87v3.32h1.72c.67,0,1.34.26,1.83.78,1.01.97,1.01,2.61,0,3.62-.52.49-1.16.75-1.87.75h-1.68v12.39c0,.75-.3,1.49-.82,2.05-1.12,1.12-2.91,1.12-3.99,0-.56-.56-.86-1.31-.86-2.05l.04-12.43h-1.01c-.71,0-1.38-.26-1.9-.78-1.01-.97-1.01-2.58.04-3.58.49-.49,1.16-.75,1.87-.75h.97Z"/>
      <path id="path36" class="cls-1" d="m166.14,11.23c0-1.38,1.16-2.65,2.91-2.76,1.79-.15,2.87.97,2.8,2.05l-.04.3c.15-.19.3-.37.49-.52,2.2-2.39,4.7-2.35,5.86-.63,1.01,1.49.48,3.21-1.01,3.85l-.3.15-.78.26c-.75.26-1.27.52-1.72.78-1.83,1.08-2.46,2.05-2.46,2.99v8.59c0,1.57-1.27,2.87-2.87,2.87s-2.87-1.27-2.87-2.84v-15.08h0Z"/>
      <path id="path38" class="cls-1" d="m184.24,19.66c.48,3.43,2.5,4.97,4.96,4.41,1.64-.34,2.87-1.83,3.17-4.37.07-.6.07-1.2,0-1.79-.34-2.46-1.61-3.92-3.17-4.26-2.39-.52-4.52.97-4.96,4.29-.04.3-.04.6-.04.9s0,.56.04.82h0Zm-4.33-6.46c1.86-3.1,5.04-4.89,8.43-4.89,5.41,0,9.86,4.48,9.89,10.45,0,6.01-4.44,10.49-9.89,10.49s-9.89-4.48-9.89-10.49c0-2.16.48-3.99,1.46-5.56h0Z"/>
      <path id="path40" class="cls-1" d="m200.7,11.38c0-1.42,1.2-2.76,2.87-2.91,1.53-.15,2.58.82,2.58,1.87v.22c.9-1.08,2.13-1.79,3.88-2.09.93-.19,1.87-.19,2.76-.04,3.96.63,6.12,3.25,6.12,7.17v10.71c0,1.61-1.27,2.87-2.84,2.91-1.6,0-2.91-1.27-2.91-2.87v-9.78c0-.9-.37-1.75-1.01-2.39-1.31-1.34-3.43-1.34-4.74-.04-.63.67-.97,1.49-.97,2.39v9.78c0,1.57-1.31,2.87-2.91,2.84-1.57,0-2.84-1.31-2.84-2.87v-14.9h0Z"/>
      <path id="path42" class="cls-1" d="m245.46,16.9c-.04-.11-.04-.26-.08-.37-.6-2.73-2.54-3.99-4.74-3.47-1.38.34-2.58,1.53-3.06,3.4-.04.15-.04.3-.07.45h7.95,0Zm-7.8,3.7c.15.71.48,1.42.97,2.02,1.53,1.83,4.33,2.28,7.5.6,1.83-1.01,2.35-1.08,3.32-.71.56.22,1.01.67,1.23,1.23.82,2.02-1.68,5.49-8.7,5.52-7.13,0-11.87-5.9-10.23-12.99.93-4.11,4.03-7.06,7.91-7.77,4.48-.82,8.74,1.46,10.6,5.71.49,1.16.78,2.35.86,3.25.22,2.31-.52,3.14-2.43,3.14h-11.05Z"/>
      <path id="path44" class="cls-1" d="m253.25,11.38c0-1.42,1.2-2.76,2.87-2.91,1.53-.15,2.58.82,2.58,1.87v.22c.9-1.08,2.13-1.79,3.88-2.09.93-.19,1.87-.19,2.76-.04,3.96.63,6.12,3.25,6.12,7.17v10.71c0,1.61-1.27,2.87-2.84,2.91-1.6,0-2.91-1.27-2.91-2.87v-9.78c0-.9-.37-1.75-1.01-2.39-1.31-1.34-3.43-1.34-4.74-.04-.63.67-.97,1.49-.97,2.39v9.78c0,1.57-1.31,2.87-2.91,2.84-1.57,0-2.84-1.31-2.84-2.87v-14.9h0Z"/>
      <path id="path46" class="cls-1" d="m287.93,16.9c-.04-.11-.04-.26-.07-.37-.6-2.73-2.54-3.99-4.74-3.47-1.38.34-2.58,1.53-3.06,3.4-.04.15-.04.3-.08.45h7.95,0Zm-7.8,3.7c.15.71.49,1.42.97,2.02,1.53,1.83,4.33,2.28,7.5.6,1.83-1.01,2.35-1.08,3.32-.71.56.22,1.01.67,1.23,1.23.82,2.02-1.68,5.49-8.7,5.52-7.13,0-11.87-5.9-10.23-12.99.93-4.11,4.03-7.06,7.91-7.77,4.48-.82,8.74,1.46,10.6,5.71.48,1.16.78,2.35.86,3.25.22,2.31-.52,3.14-2.42,3.14h-11.05Z"/>
      <path id="path48" class="cls-1" d="m295.73,11.23c0-1.38,1.16-2.65,2.91-2.76,1.79-.15,2.87.97,2.8,2.05l-.04.3c.15-.19.3-.37.49-.52,2.2-2.39,4.7-2.35,5.86-.63,1.01,1.49.49,3.21-1.01,3.85l-.3.15-.78.26c-.75.26-1.27.52-1.72.78-1.83,1.08-2.46,2.05-2.46,2.99v8.59c0,1.57-1.27,2.87-2.87,2.87s-2.87-1.27-2.87-2.84v-15.08h0Z"/>
      <path id="path50" class="cls-1" d="m314.94,22.61c1.61,1.94,4.55,1.9,6.05-.11.67-.9,1.01-1.98,1.04-3.55,0-2.54-.93-4.14-2.43-4.89-2.5-1.23-5.3.41-5.75,3.81-.04.34-.08.71-.08,1.05,0,1.57.45,2.8,1.16,3.7h0Zm7.24-12.21c.04-1.08,1.08-2.05,2.61-1.9,1.68.15,2.87,1.49,2.87,2.95v14.97c0,7.47-4.41,11.54-12.17,10.71-1.57-.19-2.98-.56-4.33-1.16-2.76-1.27-3.25-3.21-1.9-4.63.75-.82,1.68-1.01,2.95-.6l.04.04,1.16.52c.26.11.52.22.78.3,4.89,1.75,7.69-.26,7.8-3.99.04-.26,0-.52,0-.78-2.13,3.02-7.39,3.55-11.01-.04-2.32-2.32-3.47-6.12-2.73-10.27.26-1.49.75-2.76,1.42-3.85,3.17-5.11,9.59-5.6,12.51-2.02v-.26h0Z"/>
      <path id="path52" class="cls-1" d="m330.88,8.73c1.6-.67,3.25.07,3.92,1.9l3.58,9.59,3.66-9.63c.71-1.83,2.39-2.58,3.96-1.83,1.42.67,2.02,2.28,1.42,3.73l-9.3,22.77c-.78,1.9-2.35,2.61-3.92,1.98-1.49-.64-2.13-2.24-1.49-3.77l2.69-6.2-6.09-14.9c-.56-1.42.11-3.06,1.57-3.66h0Z"/>
      <path id="path54" class="cls-1" d="m147.69,41.2c.27.23.41.58.41,1.05,0,.51-.14.88-.43,1.12-.29.23-.74.35-1.37.35-.18,0-.44-.02-.79-.05v-2.78l.8-.02c.64,0,1.1.11,1.37.34h0Zm.75,2.74c.47-.38.7-.89.7-1.53,0-.55-.13-.99-.4-1.31-.26-.32-.68-.55-1.26-.69.3-.07.58-.24.84-.52s.38-.59.38-.92c0-.58-.2-1.02-.59-1.33s-.95-.46-1.67-.46c-.39,0-1.03.02-1.91.07v7.28h2.08c.76,0,1.37-.19,1.84-.57h0Zm-2.03-5.95c.87,0,1.3.34,1.3,1.01,0,.77-.47,1.15-1.41,1.15-.31,0-.57,0-.78-.03v-2.09c.26-.02.56-.04.89-.04h0Z"/>
      <path id="path56" class="cls-1" d="m163.74,44.51h-4.29v-7.28h.99v6.39h3.29v.89h0Z"/>
      <path id="path58" class="cls-1" d="m173.77,42.29v-5.06h.99v4.99c0,.44.14.81.42,1.1.28.29.65.43,1.12.43.49,0,.88-.14,1.16-.42.28-.28.42-.66.42-1.13v-4.96h.99v5.07c0,.74-.23,1.31-.69,1.72s-1.09.62-1.88.62-1.44-.2-1.89-.61c-.44-.4-.66-.98-.66-1.74h0Z"/>
      <path id="path60" class="cls-1" d="m195.59,38.12h-3.36v2.02h2.41v.85h-2.41v2.62h3.3v.89h-4.3v-7.28h4.35v.89h0Z"/>
      <path id="path62" class="cls-1" d="m219.82,41.76c1.87,0,2.8-.82,2.8-2.46,0-1.42-1.06-2.12-3.17-2.12-.16,0-.61.02-1.36.05v7.28h.99v-2.8c.38.03.62.05.73.05h0Zm-.19-3.68c1.32,0,1.97.44,1.97,1.33,0,.97-.62,1.46-1.85,1.46-.02,0-.25-.02-.67-.05v-2.69c.23-.03.41-.05.54-.05h0Z"/>
      <path id="path64" class="cls-1" d="m233.37,43.56c.52.72,1.24,1.07,2.16,1.07,1.01,0,1.78-.34,2.32-1.02.54-.68.81-1.62.81-2.81s-.27-2.08-.81-2.73c-.54-.65-1.31-.98-2.32-.98-.9,0-1.61.36-2.14,1.07s-.79,1.59-.79,2.64c0,1.12.26,2.04.78,2.76h0Zm.75-4.81c.32-.5.79-.76,1.41-.76,1.39,0,2.09.94,2.09,2.81,0,.93-.18,1.65-.54,2.16-.35.51-.87.77-1.55.77-.6,0-1.07-.28-1.4-.84s-.49-1.26-.49-2.09.16-1.55.48-2.06h0Z"/>
      <path id="path66" class="cls-1" d="m256.83,37.23l-2.27,7.38h-.31l-1.73-5.02-1.62,5.02h-.31l-2.3-7.38h1.03l1.46,5.09,1.6-5.09h.35l1.58,5.08,1.49-5.08h1.03Z"/>
      <path id="path68" class="cls-1" d="m271.15,38.12h-3.36v2.02h2.41v.85h-2.41v2.62h3.3v.89h-4.29v-7.28h4.35v.89h0Z"/>
      <path id="path70" class="cls-1" d="m284.49,41.16c.39-.09.72-.32,1-.68.28-.37.42-.78.42-1.24,0-1.39-.87-2.09-2.62-2.09-.22,0-.57.01-1.05.04-.48.02-.74.04-.77.04v7.28h.99v-3.18c.48.03.83.05,1.05.05l1.95,3.13h1.14l-2.11-3.35h0Zm-1.44-3.09c.63,0,1.09.09,1.38.27.29.18.44.47.44.88,0,.49-.14.84-.41,1.03-.27.19-.71.29-1.3.29-.23,0-.46-.02-.7-.05v-2.37c.29-.03.49-.05.59-.05h0Z"/>
    </g>
  </g>
</svg>
