<?xml version="1.0" encoding="UTF-8"?>
<svg viewBox="0 0 285 54" xmlns="http://www.w3.org/2000/svg">
<path d="m18.467 3.0314s-5.3264-2.0416-10.718 2.1904c0 0-6.4156 4.2001-7.5919 21.904 0 0-0.35945 2.9454 2.3092 3.3814 0 0 2.6795 0.5104 3.039-1.7013 0.34856-2.2117 0.2832-13.377 5.359-19.108 0 0 0.4902-0.72306 1.8408-1.2866 1.122-0.68053 2.0151-1.914 2.6796-2.8922 0 0 0.9912-1.2866 3.0934-2.4776" fill="#F8F8F9"/>
<path d="m28.086 2.6169s-4.7381-1.4674-9.8357 2.3287c0 0-6.0561 3.6153-7.4612 17.96 0 0-0.5229 3.5409-0.2397 5.3379 0 0 0.2288 2.0948 2.4508 2.2862 0 0 2.6686 0.202 2.832-2.2436 0.1634-2.4351 0.2287-3.4346 0.2287-3.4346s0.4248-9.538 4.3896-14.376l0.9586 0.7018s1.3506-5.0082 6.6769-8.5704v0.01063z" fill="#F8F8F9"/>
<path d="m37.689 2.6148s-6.3393-1.4461-10.925 3.4239c0 0-4.5529 3.9663-5.8927 13.813 0 0-0.5664 5.2953-0.6644 7.8686 0 0-0.0436 2.4988 2.4072 2.8178 0 0 2.5379 0.1489 2.7013-2.4669 0 0 0.1634-12.058 4.7381-17.577l1.1328 0.6911s1.9824-5.5718 6.5027-8.5597v-0.01064z" fill="#F8F8F9"/>
<path d="m44.987 2.4895s-6.3829-0.2552-10.13 6.0291c0 0-4.3243 6.1566-4.3134 18.768 0 0-0.2614 2.9879 2.1349 3.2644 0 0 2.8429 0.1701 2.8429-2.9986 0 0 0.1307-12.441 4.9887-17.47 0 0 4.3025 5.0402 4.6619 16.918 0 0 0.1525 8.1344 1.6992 12.622 0 0 1.4051-5.0295 1.6883-12.005 0 0-0.1198-1.276 1.013-2.1692 0 0 0.7407-0.3615 0.5991-1.6269 0 0-1.0457-10.357-4.5748-16.226 0 0 7.4939-0.47849 8.9753 14.153 0 0 0.0108 2.1373 1.2308 3.4665 0 0 0.8932 0.6167 0.9803 2.116 0 0 0.2178 2.0735-0.4139 8.7618 0 0-0.1525 1.4674 0.5119 3.5515 0 0 1.8517-4.9976 1.3616-9.8996 0 0-0.2397-3.9768 1.7863-5.3166 0 0-0.1743-11.101-4.6946-17.173 0 0-3.5836-5.0402-10.348-4.7637z" fill="#F8F8F9"/>
<path d="m67.303 52.754s5.3264 2.0416 10.718-2.1904c0 0 6.4046-4.2002 7.581-21.905 0 0 0.3594-2.9454-2.3092-3.3813 0 0-2.6795-0.5104-3.0389 1.7013-0.3486 2.2117-0.2832 13.377-5.359 19.097 0 0-0.4902 0.7231-1.8408 1.2867-1.1219 0.6805-2.0151 1.9139-2.6795 2.8922 0 0-0.9912 1.2866-3.0935 2.4775" fill="#F8F8F9"/>
<path d="m57.691 53.169s4.7382 1.4674 9.8358-2.3393c0 0 6.0561-3.6153 7.4612-17.96 0 0 0.5228-3.5408 0.2396-5.3379 0 0-0.2287-2.0947-2.4508-2.2861 0 0-2.6686-0.2021-2.832 2.233-0.1633 2.435-0.2287 3.4345-0.2287 3.4345s-0.4248 9.538-4.3896 14.376l-0.9585-0.7018s-1.3507 5.0083-6.677 8.5704v0.0106z" fill="#F8F8F9"/>
<path d="m48.066 53.169s6.3393 1.4462 10.925-3.4239c0 0 4.553-3.9662 5.8927-13.813 0 0 0.5664-5.2953 0.6644-7.8686 0 0 0.0436-2.4988-2.4071-2.8178 0 0-2.538-0.1489-2.7013 2.4669 0 0-0.1634 12.058-4.7382 17.577l-1.1328-0.6912s-1.9824 5.5719-6.5027 8.5598v0.0106z" fill="#F8F8F9"/>
<path d="m40.788 53.305s6.3828 0.2552 10.13-6.0291c0 0 4.3242-6.1567 4.3134-18.768 0 0 0.2614-2.988-2.1349-3.2644 0 0-2.8429-0.1701-2.8429 2.9986 0 0-0.1307 12.441-4.9887 17.47 0 0-4.3025-5.0401-4.6619-16.918 0 0-0.1525-8.1345-1.6992-12.622 0 0-1.4051 5.0295-1.6883 12.005 0 0 0.1198 1.276-1.013 2.1692 0 0-0.7516 0.3615-0.5991 1.6268 0 0 1.0457 10.357 4.5748 16.226 0 0-7.4939 0.4785-8.9753-14.153 0 0-0.0109-2.1373-1.2308-3.4664 0 0-0.8932-0.6167-0.9803-2.116 0 0-0.2178-2.0735 0.4139-8.7618 0 0 0.1525-1.4674-0.5119-3.5516 0 0-1.8517 4.9977-1.3616 9.8996 0 0 0.2397 3.9769-1.7863 5.3166 0 0 0.1743 11.101 4.6946 17.183 0 0 3.5835 5.0402 10.348 4.7637v-0.0106z" fill="#F8F8F9"/>
<path d="m94.352 16.84 2.7122-8.1238c0.4575-1.4036 1.9824-2.0203 3.2895-1.3717 1.155 0.53166 1.645 1.7864 1.133 3.0411l-4.6077 11.282c-0.6971 1.6694-1.8626 2.2968-3.4746 1.7226-0.7298-0.2339-1.22-0.7443-1.6121-1.7226l-4.6074-11.282c-0.5229-1.2547-0.0327-2.4988 1.1328-3.0411 1.307-0.65926 2.832 0 3.2894 1.3717l2.7449 8.1238z" fill="#F8F8F9"/>
<path d="m102.93 9.3998c0-0.62737 0.24-1.2228 0.697-1.6375 0.915-0.92509 2.407-0.89319 3.322 0 0.425 0.4466 0.676 1.0421 0.676 1.6375v11.909c0.032 1.276-1.003 2.2968-2.321 2.3181-1.307 0-2.374-1.0421-2.374-2.2968v-11.941 0.01064zm0.425-8.2727c1.067-1.0421 2.777-1.0102 3.845 0.0319 1.034 1.0421 1.034 2.6796 0 3.7216-1.068 1.0421-2.778 1.0421-3.813 0.0319-0.522-0.5104-0.827-1.1909-0.827-1.9034 0-0.71242 0.305-1.3717 0.795-1.8714v-0.01063z" fill="#F8F8F9"/>
<path d="m119.05 7.1136c3.507 0.3828 4.661 1.8714 4.269 3.392-0.239 1.0102-1.002 1.6057-1.917 1.5738-0.152-0.0319-0.305-0.0319-0.457-0.0638l-0.24-0.0851-0.425-0.1489-0.305-0.085-0.424-0.1489c-2.832-0.8932-5.12 0.7443-5.098 3.8705 0.065 3.1262 2.374 4.6468 5.403 3.6579l0.522-0.1808 0.218-0.0851c1.373-0.4785 2.593 0.1808 2.81 1.5738 0.186 1.159-0.61 2.2329-2.81 2.9135-0.544 0.1807-1.133 0.2977-1.743 0.3615-5.25 0.4785-9.214-3.0943-9.149-8.3684 0.065-5.2954 4.117-8.7512 9.367-8.1876l-0.021 0.01063z" fill="#F8F8F9"/>
<path d="m126.82 7.296-0.033-2.6477c0-1.2547 1.035-2.2968 2.353-2.2968s2.353 1.0421 2.32 2.2968v2.6477h1.405c0.545 0 1.1 0.21267 1.493 0.62736 0.827 0.77623 0.827 2.0841 0 2.8922-0.425 0.3828-0.948 0.5955-1.525 0.5955h-1.373v9.8889c0 0.5955-0.239 1.191-0.675 1.6376-0.915 0.8932-2.375 0.8932-3.268 0-0.457-0.4466-0.697-1.0421-0.697-1.6376l0.033-9.9102h-0.828c-0.577 0-1.133-0.2126-1.558-0.6273-0.828-0.77625-0.828-2.0522 0.033-2.8604 0.392-0.3828 0.948-0.59547 1.525-0.59547h0.795v-0.01063z" fill="#F8F8F9"/>
<path d="m135.87 9.3143c0-1.1059 0.948-2.116 2.375-2.2011 1.46-0.11697 2.353 0.77622 2.287 1.6375l-0.032 0.23393c0.119-0.14887 0.239-0.29773 0.392-0.4147 1.797-1.9034 3.845-1.8714 4.792-0.51039 0.828 1.1909 0.393 2.5626-0.827 3.0624l-0.24 0.117-0.643 0.2127c-0.61 0.2126-1.034 0.4147-1.405 0.6273-1.492 0.8613-2.015 1.6375-2.015 2.3819v6.8478c0 1.2547-1.035 2.2968-2.353 2.2968s-2.352-1.0102-2.352-2.2649v-12.026h0.021z" fill="#F8F8F9"/>
<path d="m147.11 10.889c1.525-2.4669 4.117-3.9024 6.895-3.9024 4.422 0 8.049 3.5728 8.082 8.3365 0 4.7956-3.627 8.3684-8.082 8.3684s-8.082-3.5728-8.082-8.3684c0-1.7226 0.392-3.19 1.187-4.4341zm3.54 5.1465c0.392 2.7434 2.037 3.9556 4.052 3.509 1.34-0.2658 2.353-1.4567 2.592-3.4877 0.055-0.4785 0.055-0.957 0-1.4249-0.272-1.9671-1.307-3.1261-2.592-3.392-1.95-0.4147-3.693 0.7763-4.052 3.4239-0.033 0.234-0.033 0.4785-0.033 0.7125 0 0.2339 0 0.4466 0.033 0.6592z" fill="#F8F8F9"/>
<path d="m164.1 9.4301c0-1.1271 0.98-2.2011 2.353-2.318 1.252-0.11697 2.102 0.65926 2.102 1.4887v0.18076c0.73-0.86129 1.743-1.4248 3.17-1.6694 0.762-0.14887 1.524-0.14887 2.254-0.0319 3.235 0.5104 5 2.5945 5 5.7207v8.5491c0 1.276-1.035 2.2968-2.32 2.3181-1.307 0-2.375-1.0102-2.375-2.2968v-7.8048c0-0.7124-0.305-1.4036-0.828-1.9034-1.067-1.0739-2.81-1.0739-3.877-0.0319-0.512 0.5317-0.795 1.191-0.795 1.9034v7.8048c0 1.2547-1.068 2.2968-2.386 2.2649-1.285 0-2.32-1.0421-2.32-2.2968v-11.877h0.022z" fill="#F8F8F9"/>
<path d="m194.29 16.79c0.12 0.5635 0.392 1.1271 0.795 1.6056 1.253 1.4567 3.54 1.8183 6.133 0.4785 1.492-0.8081 1.917-0.8613 2.712-0.5636 0.458 0.1808 0.828 0.5317 1.002 0.9783 0.675 1.6056-1.372 4.3809-7.102 4.4022-5.827 0-9.694-4.6999-8.354-10.357 0.762-3.2751 3.289-5.625 6.47-6.1886 3.66-0.65926 7.134 1.159 8.659 4.551 0.403 0.9251 0.643 1.8715 0.697 2.5946 0.186 1.8501-0.424 2.4988-1.982 2.4988h-9.03zm6.372-2.9454c-0.032-0.0851-0.032-0.2127-0.065-0.2978-0.49-2.1692-2.07-3.19-3.867-2.7646-1.133 0.2658-2.102 1.2228-2.505 2.7115-0.033 0.1169-0.033 0.2339-0.054 0.3615h6.491v-0.0106z" fill="#F8F8F9"/>
<path d="m207.03 9.4301c0-1.1271 0.981-2.2011 2.353-2.318 1.253-0.11697 2.102 0.65926 2.102 1.4887v0.18076c0.73-0.86129 1.743-1.4248 3.17-1.6694 0.762-0.14887 1.525-0.14887 2.255-0.0319 3.235 0.5104 4.999 2.5945 4.999 5.7207v8.5491c0 1.276-1.035 2.2968-2.32 2.3181-1.307 0-2.374-1.0102-2.374-2.2968v-7.8048c0-0.7124-0.305-1.4036-0.828-1.9034-1.068-1.0739-2.81-1.0739-3.878-0.0319-0.512 0.5317-0.795 1.191-0.795 1.9034v7.8048c0 1.2547-1.067 2.2968-2.374 2.2649-1.286 0-2.321-1.0421-2.321-2.2968v-11.877h0.011z" fill="#F8F8F9"/>
<path d="m228.99 16.79c0.12 0.5635 0.404 1.1271 0.796 1.6056 1.252 1.4567 3.54 1.8183 6.132 0.4785 1.492-0.8081 1.928-0.8613 2.712-0.5636 0.458 0.1808 0.828 0.5317 1.002 0.9783 0.676 1.6056-1.372 4.3809-7.102 4.4022-5.827 0-9.694-4.6999-8.354-10.357 0.763-3.2751 3.29-5.625 6.47-6.1886 3.66-0.65926 7.135 1.159 8.66 4.551 0.392 0.9251 0.642 1.8715 0.697 2.5946 0.185 1.8501-0.425 2.4988-1.983 2.4988h-9.03zm6.372-2.9454c-0.032-0.0851-0.032-0.2127-0.054-0.2978-0.49-2.1692-2.07-3.19-3.878-2.7646-1.132 0.2658-2.102 1.2228-2.494 2.7115-0.033 0.1169-0.033 0.2339-0.065 0.3615h6.491v-0.0106z" fill="#F8F8F9"/>
<path d="m241.74 9.3143c0-1.1059 0.947-2.116 2.374-2.2011 1.471-0.11697 2.353 0.77622 2.287 1.6375l-0.032 0.23393c0.12-0.14887 0.239-0.29773 0.403-0.4147 1.797-1.9034 3.845-1.8714 4.781-0.51039 0.828 1.1909 0.404 2.5626-0.827 3.0624l-0.24 0.117-0.643 0.2127c-0.61 0.2126-1.034 0.4147-1.405 0.6273-1.492 0.8613-2.015 1.6375-2.015 2.3819v6.8478c0 1.2547-1.035 2.2968-2.353 2.2968-1.317 0-2.352-1.0102-2.352-2.2649v-12.026h0.022z" fill="#F8F8F9"/>
<path d="m263.35 8.6545c0.032-0.86129 0.882-1.6375 2.135-1.5206 1.372 0.11696 2.352 1.1909 2.352 2.35v11.941c0 5.9547-3.594 9.1978-9.944 8.5492-1.286-0.1489-2.44-0.4466-3.54-0.9251-2.255-1.0102-2.658-2.5626-1.558-3.6898 0.61-0.6592 1.373-0.8081 2.407-0.4785l0.033 0.0319 0.948 0.4147c0.217 0.0851 0.424 0.1808 0.642 0.234 3.998 1.4036 6.285-0.2127 6.372-3.19 0.033-0.2127 0-0.4147 0-0.6274-1.743 2.4138-6.034 2.8285-8.997-0.0319-1.895-1.8502-2.832-4.8806-2.222-8.1876 0.218-1.1909 0.61-2.2011 1.155-3.0624 2.592-4.0831 7.842-4.4659 10.217-1.6056v-0.21266 0.01063zm-5.915 9.7401c1.318 1.5524 3.725 1.5205 4.945-0.0851 0.545-0.7124 0.828-1.5737 0.85-2.8285 0-2.0203-0.763-3.3069-1.982-3.9024-2.037-0.9782-4.325 0.3297-4.695 3.0411-0.033 0.2659-0.065 0.5636-0.065 0.8294 0 1.2548 0.37 2.233 0.947 2.9455z" fill="#F8F8F9"/>
<path d="m270.45 7.3128c1.307-0.53166 2.658 0.0638 3.203 1.5206l2.93 7.6559 2.984-7.6772c0.577-1.4568 1.95-2.0522 3.235-1.4568 1.155 0.53166 1.645 1.8183 1.155 2.9773l-7.592 18.162c-0.643 1.5205-1.917 2.0841-3.203 1.5737-1.22-0.5104-1.742-1.7864-1.22-3.0092l2.201-4.9445-4.967-11.877c-0.458-1.1272 0.087-2.4457 1.285-2.9135l-0.011-0.01064z" fill="#F8F8F9"/>
<path d="m119.76 30.654c0.708 0 1.057 0.2659 1.057 0.8083 0 0.6062-0.382 0.9146-1.155 0.9146-0.251 0-0.469 0-0.632-0.0213v-1.6697c0.218-0.0213 0.458-0.0319 0.73-0.0319zm1.656 4.7432c0.381-0.3084 0.577-0.7125 0.577-1.223 0-0.436-0.109-0.787-0.327-1.0422-0.218-0.2553-0.555-0.4361-1.035-0.553 0.251-0.0532 0.48-0.1915 0.687-0.4148s0.305-0.468 0.305-0.7338c0-0.4573-0.164-0.8189-0.48-1.0635-0.315-0.2446-0.773-0.3723-1.361-0.3723-0.316 0-0.839 0.0213-1.569 0.0532v5.8068h1.699c0.621 0 1.123-0.1489 1.504-0.4574zm-0.61-2.1801c0.218 0.1808 0.337 0.4573 0.337 0.8401 0 0.4042-0.119 0.7019-0.348 0.8934-0.24 0.1914-0.61 0.2765-1.111 0.2765-0.153 0-0.36-0.0106-0.643-0.0426v-2.212l0.654-0.0213c0.522 0 0.893 0.0851 1.122 0.2659h-0.011z" fill="#F8F8F9"/>
<path d="m133.9 35.854h-3.497v-5.8067h0.806v5.0942h2.691v0.7125z" fill="#F8F8F9"/>
<path d="m142.1 34.088v-4.0413h0.807v3.9775c0 0.3509 0.119 0.6487 0.348 0.8721 0.229 0.2233 0.534 0.3403 0.915 0.3403 0.403 0 0.719-0.1064 0.948-0.3297s0.349-0.5211 0.349-0.904v-3.9562h0.806v4.0413c0 0.5849-0.185 1.0422-0.567 1.3719-0.37 0.3297-0.882 0.4892-1.536 0.4892-0.653 0-1.176-0.1595-1.536-0.4892-0.359-0.319-0.534-0.787-0.534-1.3932v0.0213z" fill="#F8F8F9"/>
<path d="m159.93 30.759h-2.745v1.6166h1.972v0.67h-1.972v2.0951h2.702v0.7125h-3.508v-5.8067h3.551v0.7125z" fill="#F8F8F9"/>
<path d="m179.56 30.716c1.078 0 1.612 0.3509 1.612 1.0635 0 0.7763-0.501 1.1592-1.514 1.1592-0.022 0-0.207-0.0107-0.545-0.0426v-2.1482c0.185-0.0213 0.338-0.0426 0.447-0.0426v0.0107zm0.152 2.9352c1.525 0 2.288-0.6487 2.288-1.9568 0-1.1273-0.861-1.691-2.593-1.691-0.131 0-0.501 0.0106-1.111 0.0425v5.8068h0.817v-2.2334c0.305 0.0213 0.512 0.0426 0.599 0.0426v-0.0107z" fill="#F8F8F9"/>
<path d="m191.39 31.262c0.262-0.4041 0.643-0.6061 1.155-0.6061 1.133 0 1.71 0.7443 1.71 2.2436 0 0.7443-0.142 1.3185-0.436 1.7226s-0.708 0.6167-1.263 0.6167c-0.49 0-0.872-0.2233-1.144-0.6699s-0.403-0.9995-0.403-1.6694 0.131-1.2441 0.392-1.6375h-0.011zm-0.61 3.8386c0.425 0.5742 1.013 0.8613 1.765 0.8613 0.828 0 1.459-0.2658 1.895-0.8081 0.447-0.5423 0.665-1.2867 0.665-2.2437s-0.218-1.6587-0.665-2.1798c-0.436-0.521-1.067-0.7868-1.895-0.7868-0.73 0-1.318 0.2871-1.754 0.8506-0.436 0.5636-0.653 1.2654-0.653 2.1054 0 0.8932 0.217 1.6269 0.631 2.2011h0.011z" fill="#F8F8F9"/>
<path d="m209.95 30.047-1.852 5.8908h-0.251l-1.416-4.0087-1.328 4.0087h-0.262l-1.873-5.8908h0.849l1.188 4.0512 1.307-4.0512h0.294l1.285 4.0512 1.22-4.0512h0.839z" fill="#F8F8F9"/>
<path d="m221.66 30.759h-2.745v1.6166h1.972v0.67h-1.972v2.0951h2.701v0.7125h-3.518v-5.8067h3.562v0.7125z" fill="#F8F8F9"/>
<path d="m231.38 30.718c0.512 0 0.894 0.0744 1.133 0.2127 0.24 0.1382 0.36 0.3722 0.36 0.7019 0 0.3935-0.109 0.67-0.338 0.8189-0.218 0.1489-0.577 0.234-1.067 0.234-0.186 0-0.371-0.0107-0.567-0.0426v-1.893c0.24-0.0213 0.403-0.0425 0.479-0.0425v0.0106zm1.177 2.4673c0.316-0.0744 0.588-0.2552 0.817-0.5424 0.229-0.2871 0.349-0.6168 0.349-0.989 0-1.1061-0.719-1.6697-2.146-1.6697-0.175 0-0.469 0-0.861 0.0319-0.392 0.0212-0.599 0.0319-0.632 0.0319v5.8067h0.817v-2.5311c0.392 0.0319 0.676 0.0425 0.861 0.0425l1.59 2.4993h0.926l-1.721-2.6694v-0.0107z" fill="#F8F8F9"/>
</svg>
