<svg width="24" height="26" viewBox="0 0 24 26" fill="none" xmlns="http://www.w3.org/2000/svg">
<path d="M9 3.13491C8.29758 4.0264 7.44949 5.16433 6.50403 6.56549C5.3188 8.322 4.17219 10.2886 3.32903 12.1993C2.47088 14.144 2 15.8691 2 17.1915C2 20.9218 5.07922 24 9 24C10.8708 24 12.5501 23.2992 13.7946 22.161C14.4548 22.478 15.1625 22.7127 15.9042 22.8521C14.2557 24.7779 11.7786 26 9 26C4.01472 26 0 22.066 0 17.1915C0 13.7346 2.38264 9.09773 4.84615 5.44681C6.22494 3.40346 7.40794 1.89559 8.25506 0.875926C8.64333 0.408566 9.35667 0.408566 9.74494 0.875926C10.5185 1.80701 11.572 3.14515 12.799 4.92636C12.4086 5.51419 12.0181 6.1392 11.6442 6.78665C11.5949 6.71258 11.5455 6.63885 11.496 6.56549C10.5505 5.16433 9.70242 4.0264 9 3.13491Z" fill="white"/>
<path fill-rule="evenodd" clip-rule="evenodd" d="M16.7555 2.89395C17.1397 2.41723 17.8603 2.41723 18.2445 2.89395C18.836 3.62772 19.6117 4.64834 20.5 5.98035C22.2792 8.64833 24 12.0368 24 14.563C24 18.1252 21.1005 21 17.5 21C13.8995 21 11 18.1252 11 14.563C11 12.0368 12.7208 8.64833 14.5 5.98035C15.3883 4.64834 16.164 3.62772 16.7555 2.89395ZM16.1639 7.08999C16.6501 6.36101 17.0998 5.73127 17.5 5.19623C17.9002 5.73127 18.3499 6.36101 18.8361 7.08999C19.6797 8.35502 20.4908 9.76415 21.084 11.1243C21.6917 12.5179 22 13.7012 22 14.563C22 17.003 20.0136 19 17.5 19C14.9864 19 13 17.003 13 14.563C13 13.7012 13.3083 12.5179 13.916 11.1243C14.5092 9.76415 15.3203 8.35502 16.1639 7.08999Z" fill="white"/>
</svg>

