<svg width="6" height="12" viewBox="0 0 6 12" fill="none" xmlns="http://www.w3.org/2000/svg">
<path d="M2.86102e-06 12C0.787934 12 1.56815 11.8448 2.2961 11.5433C3.02406 11.2417 3.68549 10.7998 4.24264 10.2426C4.79979 9.68549 5.24175 9.02405 5.54328 8.2961C5.8448 7.56814 6 6.78793 6 6C6 5.21207 5.8448 4.43185 5.54327 3.7039C5.24175 2.97594 4.79979 2.31451 4.24264 1.75736C3.68549 1.2002 3.02405 0.758247 2.2961 0.456719C1.56814 0.155191 0.787929 -3.17358e-06 -2.24125e-06 -2.93249e-06L5.48307e-07 6L2.86102e-06 12Z" fill="#387DC5"/>
</svg>

