<svg width="12" height="6" viewBox="0 0 12 6" fill="none" xmlns="http://www.w3.org/2000/svg">
<path d="M12 2.38419e-06C12 0.787933 11.8448 1.56815 11.5433 2.2961C11.2417 3.02406 10.7998 3.68549 10.2426 4.24264C9.68549 4.79979 9.02405 5.24175 8.2961 5.54328C7.56814 5.8448 6.78793 6 6 6C5.21207 6 4.43185 5.8448 3.7039 5.54328C2.97594 5.24175 2.31451 4.79979 1.75736 4.24264C1.2002 3.68549 0.758248 3.02405 0.456719 2.2961C0.155191 1.56815 -2.90339e-06 0.78793 -2.76562e-06 -1.14447e-06L6 8.58275e-07L12 2.38419e-06Z" fill="#387DC5"/>
</svg>
