<svg width="18" height="16" viewBox="0 0 18 16" fill="none" xmlns="http://www.w3.org/2000/svg">
<path d="M9 0C9.55229 0 10 0.447716 10 1V6.12611C9.68038 6.04384 9.3453 6.00009 9 6.00009C8.6547 6.00009 8.31962 6.04384 8 6.12611V1C8 0.447715 8.44772 0 9 0Z" fill="white"/>
<path d="M11.8542 12.8026C12.322 12.3261 12.6715 11.7331 12.855 11.071L17.2944 13.6341C17.7727 13.9102 17.9365 14.5218 17.6604 15.0001C17.3842 15.4784 16.7727 15.6423 16.2944 15.3661L11.8542 12.8026Z" fill="white"/>
<path d="M5.1449 11.0707C5.32837 11.7328 5.67782 12.3259 6.14565 12.8024L1.70525 15.366C1.22695 15.6422 0.615362 15.4783 0.33922 15C0.0630773 14.5217 0.226953 13.9101 0.705245 13.634L5.1449 11.0707Z" fill="white"/>
<path d="M9 12.0001C10.1046 12.0001 11 11.1047 11 10.0001C11 8.89552 10.1046 8.00009 9 8.00009C7.89543 8.00009 7 8.89552 7 10.0001C7 11.1047 7.89543 12.0001 9 12.0001Z" fill="white"/>
</svg>

