<svg width="32" height="32" viewBox="0 0 32 32" fill="none" xmlns="http://www.w3.org/2000/svg">
<path fill-rule="evenodd" clip-rule="evenodd" d="M5 3C3.89543 3 3 3.89543 3 5V27C3 28.1046 3.89543 29 5 29H27C28.1046 29 29 28.1046 29 27V5C29 3.89543 28.1046 3 27 3H5ZM11 8C9.34315 8 8 9.34315 8 11C8 12.6569 9.34315 14 11 14C12.6569 14 14 12.6569 14 11C14 9.34315 12.6569 8 11 8ZM21 8C19.3431 8 18 9.34315 18 11C18 12.6569 19.3431 14 21 14C22.6569 14 24 12.6569 24 11C24 9.34315 22.6569 8 21 8ZM11 18C9.34315 18 8 19.3431 8 21C8 22.6569 9.34315 24 11 24C12.6569 24 14 22.6569 14 21C14 19.3431 12.6569 18 11 18ZM21 18C19.3431 18 18 19.3431 18 21C18 22.6569 19.3431 24 21 24C22.6569 24 24 22.6569 24 21C24 19.3431 22.6569 18 21 18Z" fill="white"/>
</svg>
